<?xml version="1.0" encoding="UTF-8"?>
<svg width="24px" height="24px" viewBox="0 0 24 24" version="1.1" xmlns="http://www.w3.org/2000/svg" xmlns:xlink="http://www.w3.org/1999/xlink">
    <!-- Generator: Sketch 52.5 (67469) - http://www.bohemiancoding.com/sketch -->
    <desc>Created with Sketch.</desc>
    <g id="icon/add-outline" stroke="none" stroke-width="1" fill="none" fill-rule="evenodd">
        <g id="icon/add">
            <polygon id="Shape" points="0 0 24 0 24 24 0 24"></polygon>
            <path d="M8,4.5 C6.06700338,4.5 4.5,6.06700338 4.5,8 L4.5,16 C4.5,17.9329966 6.06700338,19.5 8,19.5 L16,19.5 C17.9329966,19.5 19.5,17.9329966 19.5,16 L19.5,8 C19.5,6.06700338 17.9329966,4.5 16,4.5 L8,4.5 Z M8,3.5 L16,3.5 C18.4852814,3.5 20.5,5.51471863 20.5,8 L20.5,16 C20.5,18.4852814 18.4852814,20.5 16,20.5 L8,20.5 C5.51471863,20.5 3.5,18.4852814 3.5,16 L3.5,8 C3.5,5.51471863 5.51471863,3.5 8,3.5 Z M11.3684211,11.3684211 L11.3684211,8 L12.6315789,8 L12.6315789,11.3684211 L16,11.3684211 L16,12.6315789 L12.6315789,12.6315789 L12.6315789,16 L11.3684211,16 L11.3684211,12.6315789 L8,12.6315789 L8,11.3684211 L11.3684211,11.3684211 Z" id="Combined-Shape" class="fill-color"></path>
        </g>
    </g>
</svg>