<?xml version="1.0" encoding="UTF-8"?>
<svg width="24px" height="24px" viewBox="0 0 24 24" version="1.1" xmlns="http://www.w3.org/2000/svg" xmlns:xlink="http://www.w3.org/1999/xlink">
    <!-- Generator: Sketch 52.5 (67469) - http://www.bohemiancoding.com/sketch -->
    <desc>Created with Sketch.</desc>
    <g id="icon/add-to-calendar" stroke="none" stroke-width="1" fill="none" fill-rule="evenodd">
        <g id="icon/calendar">
            <polygon id="Shape" points="0 0 24 0 24 24 0 24"></polygon>
            <path d="M17.7594474,19.2727273 L17.7594474,20.3857949 L18.7673394,20.3857949 L18.7673394,18.7173457 L20.4517616,18.7173457 L20.4517616,17.713526 L18.7673394,17.713526 L18.7673394,16.0221585 L17.7594474,16.0221585 L17.7594474,17.713526 L16.0704229,17.713526 L16.0704229,18.7173457 L17.7594474,18.7173457 L17.7594474,19.272608 L18.3346856,19.2725281 L18.3346856,19.2727273 L17.7594474,19.2727273 Z M18.3346856,13.2681607 C18.2785767,13.2712051 18.2420656,13.2727273 18.2251521,13.2727273 C15.5029372,13.2727273 13.296146,15.4706021 13.296146,18.1818182 C13.296146,18.5605337 13.3395876,18.918645 13.4210952,19.2727273 L3,19.2727273 L3,9.45454545 L18.3346856,9.45454545 L18.3346856,13.2681607 Z M18.3346856,8.36363636 L3,8.36363636 L3,6.18181818 L5.19066937,6.18181818 L5.19066937,4 L9.57200811,4 L9.57200811,6.18181818 L13.9533469,6.18181818 L13.9533469,4 L16.1440162,4 L16.1440162,6.18181818 L18.3346856,6.18181818 L18.3346856,8.36363636 Z M5.19066937,10.9818182 L5.19066937,13.1636364 L7.38133874,13.1636364 L7.38133874,10.9818182 L5.19066937,10.9818182 Z M5.19066937,15.3454545 L5.19066937,17.5272727 L7.38133874,17.5272727 L7.38133874,15.3454545 L5.19066937,15.3454545 Z M9.57200811,10.9818182 L9.57200811,13.1636364 L11.7626775,13.1636364 L11.7626775,10.9818182 L9.57200811,10.9818182 Z M13.9533469,10.9818182 L13.9533469,13.1636364 L16.1440162,13.1636364 L16.1440162,10.9818182 L13.9533469,10.9818182 Z M9.57200811,15.3454545 L9.57200811,17.5272727 L11.7626775,17.5272727 L11.7626775,15.3454545 L9.57200811,15.3454545 Z M18.2251521,22 C16.1078739,22 14.3914807,20.2905418 14.3914807,18.1818182 C14.3914807,16.0730946 16.1078739,14.3636364 18.2251521,14.3636364 C20.3424304,14.3636364 22.0588235,16.0730946 22.0588235,18.1818182 C22.0588235,20.2905418 20.3424304,22 18.2251521,22 Z" id="Combined-Shape" class="fill-color"></path>
        </g>
    </g>
</svg>