<?xml version="1.0" encoding="UTF-8"?>
<svg width="24px" height="24px" viewBox="0 0 24 24" version="1.1" xmlns="http://www.w3.org/2000/svg" xmlns:xlink="http://www.w3.org/1999/xlink">
    <!-- Generator: Sketch 52.5 (67469) - http://www.bohemiancoding.com/sketch -->
    <desc>Created with Sketch.</desc>
    <g id="icon/add" stroke="none" stroke-width="1" fill="none" fill-rule="evenodd">
        <g>
            <polygon id="Shape" points="0 0 24 0 24 24 0 24"></polygon>
            <path d="M8,4 L16,4 C18.209139,4 20,5.790861 20,8 L20,16 C20,18.209139 18.209139,20 16,20 L8,20 C5.790861,20 4,18.209139 4,16 L4,8 C4,5.790861 5.790861,4 8,4 Z M11.3684211,11.3684211 L8,11.3684211 L8,12.6315789 L11.3684211,12.6315789 L11.3684211,16 L12.6315789,16 L12.6315789,12.6315789 L16,12.6315789 L16,11.3684211 L12.6315789,11.3684211 L12.6315789,8 L11.3684211,8 L11.3684211,11.3684211 Z" id="Combined-Shape" fill="#000000" class="fill-color"></path>
        </g>
    </g>
</svg>