<?xml version="1.0" encoding="UTF-8"?>
<svg width="24px" height="24px" viewBox="0 0 24 24" version="1.1" xmlns="http://www.w3.org/2000/svg" xmlns:xlink="http://www.w3.org/1999/xlink">
    <!-- Generator: Sketch 52.5 (67469) - http://www.bohemiancoding.com/sketch -->
    <desc>Created with Sketch.</desc>
    <g id="icon/adjust" stroke="none" stroke-width="1" fill="none" fill-rule="evenodd">
        <g>
            <rect id="Rectangle-16" fill-rule="nonzero" x="0" y="0" width="24" height="24"></rect>
            <path d="M16.5,9 C15.6715729,9 15,8.32842712 15,7.5 C15,6.67157288 15.6715729,6 16.5,6 C17.3284271,6 18,6.67157288 18,7.5 C18,8.32842712 17.3284271,9 16.5,9 Z M16.5,14 C15.6715729,14 15,13.3284271 15,12.5 C15,11.6715729 15.6715729,11 16.5,11 C17.3284271,11 18,11.6715729 18,12.5 C18,13.3284271 17.3284271,14 16.5,14 Z M16.5,19 C15.6715729,19 15,18.3284271 15,17.5 C15,16.6715729 15.6715729,16 16.5,16 C17.3284271,16 18,16.6715729 18,17.5 C18,18.3284271 17.3284271,19 16.5,19 Z M11.5,19 C10.6715729,19 10,18.3284271 10,17.5 C10,16.6715729 10.6715729,16 11.5,16 C12.3284271,16 13,16.6715729 13,17.5 C13,18.3284271 12.3284271,19 11.5,19 Z M11.5,14 C10.6715729,14 10,13.3284271 10,12.5 C10,11.6715729 10.6715729,11 11.5,11 C12.3284271,11 13,11.6715729 13,12.5 C13,13.3284271 12.3284271,14 11.5,14 Z M11.5,9 C10.6715729,9 10,8.32842712 10,7.5 C10,6.67157288 10.6715729,6 11.5,6 C12.3284271,6 13,6.67157288 13,7.5 C13,8.32842712 12.3284271,9 11.5,9 Z" id="Combined-Shape" class="fill-color"></path>
        </g>
    </g>
</svg>