<svg width="24" height="24" viewBox="0 0 24 24" fill="none" xmlns="http://www.w3.org/2000/svg">
    <path d="M6.7642 18.9107H17.2358C18.2983 18.9107 19 18.1088 19 17.1465C19 16.8525 18.9265 16.5585 18.7661 16.2778L13.5203 6.88878C13.1928 6.30072 12.5981 6 12.0033 6C11.4086 6 10.8005 6.30072 10.4797 6.88878L5.23389 16.2845C5.07351 16.5585 5 16.8525 5 17.1465C5 18.1088 5.70167 18.9107 6.7642 18.9107ZM12.0033 14.2463C11.5757 14.2463 11.3351 14.0124 11.315 13.5847L11.2148 10.6979C11.1947 10.2501 11.5289 9.93604 11.9967 9.93604C12.4644 9.93604 12.7986 10.2568 12.7785 10.7045L12.6783 13.578C12.6582 14.0191 12.4177 14.2463 12.0033 14.2463ZM12.0033 16.7857C11.5088 16.7857 11.1413 16.4649 11.1413 15.9971C11.1413 15.5227 11.5088 15.2086 12.0033 15.2086C12.4912 15.2086 12.8654 15.5227 12.8654 15.9971C12.8654 16.4716 12.4912 16.7857 12.0033 16.7857Z" class="fill-color"/>
    </svg>
