<svg width="24" height="24" viewBox="0 0 24 24" fill="none" xmlns="http://www.w3.org/2000/svg">
<path fill-rule="evenodd" clip-rule="evenodd" d="M4 12C4 7.584 7.584 4 12 4C16.416 4 20 7.584 20 12C20 16.416 16.416 20 12 20C7.584 20 4 16.416 4 12ZM12.0068 13.0341C11.5073 13.0341 11.2263 12.761 11.2029 12.2615L11.0859 8.88976C11.0624 8.36683 11.4527 8 11.999 8C12.5454 8 12.9356 8.37463 12.9122 8.89756L12.7951 12.2537C12.7717 12.7688 12.4907 13.0341 12.0068 13.0341ZM12.0068 16C11.4293 16 11 15.6254 11 15.079C11 14.5249 11.4293 14.158 12.0068 14.158C12.5766 14.158 13.0137 14.5249 13.0137 15.079C13.0137 15.6332 12.5766 16 12.0068 16Z" fill="#ff453a"/>
</svg>
