<?xml version="1.0" encoding="UTF-8"?>
<svg width="220px" height="36px" viewBox="0 0 220 36" version="1.1" xmlns="http://www.w3.org/2000/svg" xmlns:xlink="http://www.w3.org/1999/xlink">
    <!-- Generator: Sketch 53.2 (72643) - https://sketchapp.com -->
    <desc>Created with Sketch.</desc>
    <g id="logo/expanded" stroke="none" stroke-width="1" fill="none" fill-rule="evenodd">
        <g id="Logo" fill-rule="nonzero">
            <rect id="Rectangle-7" fill="#1A1A1A" x="0" y="0" width="220" height="36" rx="4"></rect>
            <path d="M90.3759766,23.1376953 L89.6513672,20.7587891 L86.0078125,20.7587891 L85.2832031,23.1376953 L83,23.1376953 L86.5273438,13.1025391 L89.1181641,13.1025391 L92.6591797,23.1376953 L90.3759766,23.1376953 Z M89.1455078,18.9814453 C88.4755826,16.8258356 88.0984705,15.6067722 88.0141602,15.3242188 C87.9298498,15.0416653 87.8694663,14.8183602 87.8330078,14.6542969 C87.6826164,15.2376331 87.2519567,16.6800015 86.5410156,18.9814453 L89.1455078,18.9814453 Z M96.0361328,17.8466797 L96.7333984,17.8466797 C97.3850944,17.8466797 97.8727197,17.7179375 98.1962891,17.4604492 C98.5198584,17.202961 98.6816406,16.8281275 98.6816406,16.3359375 C98.6816406,15.8391902 98.5460626,15.4723319 98.2749023,15.2353516 C98.0037421,14.9983712 97.5787789,14.8798828 97,14.8798828 L96.0361328,14.8798828 L96.0361328,17.8466797 Z M100.821289,16.2607422 C100.821289,17.3362684 100.485192,18.1588513 99.8129883,18.7285156 C99.1407844,19.2981799 98.184902,19.5830078 96.9453125,19.5830078 L96.0361328,19.5830078 L96.0361328,23.1376953 L93.9169922,23.1376953 L93.9169922,13.1435547 L97.109375,13.1435547 C98.3216206,13.1435547 99.2433237,13.404457 99.8745117,13.9262695 C100.5057,14.448082 100.821289,15.2262318 100.821289,16.2607422 Z M108.607422,20.3623047 C108.607422,21.2646529 108.282718,21.9755833 107.633301,22.4951172 C106.983883,23.014651 106.080409,23.2744141 104.922852,23.2744141 C103.85644,23.2744141 102.91309,23.0738952 102.092773,22.6728516 L102.092773,20.7041016 C102.767256,21.0048843 103.338051,21.2167963 103.805176,21.3398438 C104.272301,21.4628912 104.699542,21.5244141 105.086914,21.5244141 C105.55176,21.5244141 105.908365,21.4355478 106.156738,21.2578125 C106.405112,21.0800772 106.529297,20.815757 106.529297,20.4648438 C106.529297,20.2688792 106.47461,20.0945646 106.365234,19.9418945 C106.255859,19.7892245 106.095216,19.6422533 105.883301,19.5009766 C105.671386,19.3596998 105.239587,19.1341161 104.587891,18.8242188 C103.97721,18.5371079 103.519207,18.2613946 103.213867,17.9970703 C102.908527,17.7327461 102.664714,17.425132 102.482422,17.0742188 C102.300129,16.7233055 102.208984,16.3131534 102.208984,15.84375 C102.208984,14.959631 102.508623,14.264651 103.10791,13.7587891 C103.707197,13.2529272 104.535476,13 105.592773,13 C106.112307,13 106.607908,13.0615228 107.07959,13.1845703 C107.551272,13.3076178 108.044594,13.4807932 108.55957,13.7041016 L107.875977,15.3515625 C107.342771,15.1328114 106.901857,14.9801437 106.553223,14.8935547 C106.204588,14.8069657 105.861655,14.7636719 105.524414,14.7636719 C105.12337,14.7636719 104.815756,14.8570954 104.601562,15.0439453 C104.387369,15.2307952 104.280273,15.4746079 104.280273,15.7753906 C104.280273,15.9622405 104.323567,16.1251621 104.410156,16.2641602 C104.496745,16.4031582 104.634602,16.537597 104.82373,16.6674805 C105.012859,16.7973639 105.460608,17.0309228 106.166992,17.3681641 C107.101242,17.8147809 107.741535,18.2625303 108.087891,18.7114258 C108.434247,19.1603213 108.607422,19.7106087 108.607422,20.3623047 Z M116.537109,23.1376953 L115.8125,20.7587891 L112.168945,20.7587891 L111.444336,23.1376953 L109.161133,23.1376953 L112.688477,13.1025391 L115.279297,13.1025391 L118.820312,23.1376953 L116.537109,23.1376953 Z M115.306641,18.9814453 C114.636715,16.8258356 114.259603,15.6067722 114.175293,15.3242188 C114.090983,15.0416653 114.030599,14.8183602 113.994141,14.6542969 C113.843749,15.2376331 113.413089,16.6800015 112.702148,18.9814453 L115.306641,18.9814453 Z M122.197266,17.5800781 L122.880859,17.5800781 C123.550785,17.5800781 124.045246,17.4684256 124.364258,17.2451172 C124.68327,17.0218088 124.842773,16.6709008 124.842773,16.1923828 C124.842773,15.7184221 124.679852,15.3811859 124.354004,15.1806641 C124.028156,14.9801422 123.523441,14.8798828 122.839844,14.8798828 L122.197266,14.8798828 L122.197266,17.5800781 Z M122.197266,19.3027344 L122.197266,23.1376953 L120.078125,23.1376953 L120.078125,13.1435547 L122.990234,13.1435547 C124.348314,13.1435547 125.353187,13.3907853 126.004883,13.8852539 C126.656579,14.3797225 126.982422,15.1305288 126.982422,16.1376953 C126.982422,16.7255889 126.82064,17.2485329 126.49707,17.706543 C126.173501,18.1645531 125.715498,18.5234362 125.123047,18.7832031 L128.0625,23.1376953 L125.710938,23.1376953 L123.325195,19.3027344 L122.197266,19.3027344 Z M135.438477,23.1376953 L134.713867,20.7587891 L131.070312,20.7587891 L130.345703,23.1376953 L128.0625,23.1376953 L131.589844,13.1025391 L134.180664,13.1025391 L137.72168,23.1376953 L135.438477,23.1376953 Z M134.208008,18.9814453 C133.538083,16.8258356 133.16097,15.6067722 133.07666,15.3242188 C132.99235,15.0416653 132.931966,14.8183602 132.895508,14.6542969 C132.745116,15.2376331 132.314457,16.6800015 131.603516,18.9814453 L134.208008,18.9814453 Z" id="APSARA" fill="#FFFFFF" class="fill-color"></path>
        </g>
    </g>
</svg>