<svg xmlns="http://www.w3.org/2000/svg" width="24" height="24" viewBox="0 0 24 24">
  <g fill="none" fill-rule="evenodd">
    <rect width="24" height="24"/>
    <path class="fill-color" fill="#40459F" fill-rule="nonzero" d="M3,11.6905659 C3.01551724,11.7913108 3.06309309,11.9569108 3.13577584,12.0353935 L6.85991313,16.1733246 C7.08146826,16.4195315 7.47886475,16.4400832 7.7327578,16.2595315 C7.98665086,16.0789797 8.0328612,15.7093797 7.82974055,15.4836694 L4.9105445,12.2422901 L20.3793105,12.2422901 C20.7221173,12.2422901 21,11.9952832 21,11.6905659 C21,11.3858487 20.7221173,11.1388418 20.3793105,11.1388418 L4.91057553,11.1388418 L7.82974055,7.89745974 C8.0328612,7.67177698 7.97560259,7.31379077 7.7327578,7.12159767 C7.47886475,6.92068732 7.06303378,6.98212181 6.85991313,7.20780457 L3.13577584,11.3457384 C3.0306931,11.4600556 3.00841034,11.5450763 3,11.6905659 Z"/>
  </g>
</svg>