<svg width="24" height="24" viewBox="0 0 24 24" fill="none" xmlns="http://www.w3.org/2000/svg">
<path fill-rule="evenodd" clip-rule="evenodd" d="M13.1395 9.63186C13.6575 9.25759 14.3592 9.64968 14.3592 10.3091V19.1668C14.3592 19.8441 13.6575 20.2361 13.1395 19.8441L9.63074 17.2242H7.47536C7.05764 17.2242 6.70677 16.8499 6.70677 16.4043V15.5132C8.5447 15.3885 9.9482 13.9983 9.9482 12.2517V12.0201L13.1395 9.63186ZM17.3166 10.3804C17.5673 10.1131 17.9515 10.1131 18.2022 10.3804C20.4578 12.7864 20.4578 16.7073 18.1855 19.1312C17.9348 19.3985 17.5505 19.3985 17.2999 19.1312C17.183 18.9886 17.1161 18.8282 17.1161 18.65C17.1161 18.4717 17.183 18.2935 17.2999 18.1688C19.071 16.2796 19.071 13.2141 17.3166 11.325C17.066 11.0576 17.066 10.6477 17.3166 10.3804ZM15.6124 12.1983C15.863 11.9309 16.2473 11.9309 16.4979 12.1983C17.8179 13.6062 17.8179 15.8875 16.4979 17.3133C16.2473 17.5806 15.863 17.5806 15.6124 17.3133C15.4954 17.1707 15.4286 17.0103 15.4286 16.8321C15.4286 16.6539 15.4954 16.4756 15.6124 16.3509C16.4478 15.4776 16.4478 14.034 15.6124 13.1429C15.3617 12.8755 15.3617 12.4656 15.6124 12.1983ZM8.09357 4C8.44445 4 8.72849 4.28516 8.7619 4.65943C9.12949 4.73072 9.48037 4.81983 9.83125 4.94458C10.3659 5.14063 10.9173 5.40796 11.3684 5.96046C11.6023 6.22779 11.7527 6.60206 11.8028 6.97633C11.853 7.3506 11.7861 7.70705 11.6859 8.01003C11.4854 8.63381 11.1512 9.11501 10.8003 9.54275C10.6333 9.73879 10.3492 9.77444 10.1654 9.59621C9.99833 9.43581 9.96491 9.15065 10.0986 8.95461L10.236 8.74833C10.4569 8.40261 10.6332 8.04864 10.7168 7.70705C10.7669 7.49318 10.7836 7.31495 10.7502 7.15455C10.7168 6.99415 10.65 6.8694 10.533 6.74464C10.3158 6.49513 9.91479 6.3169 9.48037 6.19215C9.26316 6.13868 9.02924 6.08521 8.79532 6.04957V12.2696C8.79532 13.4102 7.72598 14.3191 6.38931 14.3191C5.05263 14.3191 4 13.428 4 12.2696C4 11.1111 5.05263 10.22 6.38931 10.22C6.75689 10.22 7.10777 10.2913 7.42523 10.416V4.71289C7.42523 4.3208 7.72598 4 8.09357 4Z" class="fill-color"/>
</svg>
