<svg width="16" height="16" viewBox="0 0 16 16" fill="none" xmlns="http://www.w3.org/2000/svg">
<path fill-rule="evenodd" clip-rule="evenodd" d="M9.13952 5.63186C9.65748 5.25759 10.3592 5.64968 10.3592 6.30911V15.1668C10.3592 15.8441 9.65748 16.2361 9.13952 15.8441L5.63074 13.2242H3.47536C3.05764 13.2242 2.70677 12.8499 2.70677 12.4043V11.5132C4.5447 11.3885 5.9482 9.99833 5.9482 8.25174V8.02005L9.13952 5.63186ZM13.3166 6.3804C13.5673 6.11306 13.9515 6.11306 14.2022 6.3804C16.4578 8.78641 16.4578 12.7073 14.1855 15.1312C13.9348 15.3985 13.5505 15.3985 13.2999 15.1312C13.183 14.9886 13.1161 14.8282 13.1161 14.65C13.1161 14.4717 13.183 14.2935 13.2999 14.1688C15.071 12.2796 15.071 9.21415 13.3166 7.32498C13.066 7.05764 13.066 6.64773 13.3166 6.3804ZM11.6124 8.19827C11.863 7.93094 12.2473 7.93094 12.4979 8.19827C13.8179 9.60624 13.8179 11.8875 12.4979 13.3133C12.2473 13.5806 11.863 13.5806 11.6124 13.3133C11.4954 13.1707 11.4286 13.0103 11.4286 12.8321C11.4286 12.6539 11.4954 12.4756 11.6124 12.3509C12.4478 11.4776 12.4478 10.034 11.6124 9.14286C11.3617 8.87552 11.3617 8.46561 11.6124 8.19827ZM4.09357 0C4.44445 0 4.72849 0.285157 4.7619 0.659426C5.12949 0.730716 5.48037 0.819828 5.83125 0.944584C6.36592 1.14063 6.91729 1.40796 7.36842 1.96046C7.60234 2.22779 7.75272 2.60206 7.80284 2.97633C7.85297 3.3506 7.78613 3.70705 7.68588 4.01003C7.48538 4.63381 7.15121 5.11501 6.80033 5.54275C6.63325 5.73879 6.34921 5.77444 6.16541 5.59621C5.99833 5.43581 5.96491 5.15065 6.09858 4.95461L6.23604 4.74833C6.45688 4.40261 6.63325 4.04864 6.71679 3.70705C6.76692 3.49318 6.78363 3.31495 6.75021 3.15455C6.71679 2.99415 6.64996 2.8694 6.533 2.74464C6.31579 2.49513 5.91479 2.3169 5.48037 2.19215C5.26316 2.13868 5.02924 2.08521 4.79532 2.04957V8.26956C4.79532 9.41019 3.72598 10.3191 2.38931 10.3191C1.05263 10.3191 0 9.42802 0 8.26956C0 7.11111 1.05263 6.21999 2.38931 6.21999C2.75689 6.21999 3.10777 6.29128 3.42523 6.41604V0.712893C3.42523 0.320802 3.72598 0 4.09357 0Z" fill="#09B33A" class="fill-color"/>
</svg>
