<svg width="24" height="24" viewBox="0 0 24 24" fill="none" xmlns="http://www.w3.org/2000/svg">
<path d="M6.71728 16H15.6364C16.5155 16 17.2401 15.9098 17.7569 15.3952C18.2737 14.8859 18.3536 14.1751 18.3536 13.2944V10.7056C18.3536 9.82493 18.2737 9.11406 17.7569 8.60477C17.2401 8.09019 16.5155 8 15.6364 8H6.70663C5.83816 8 5.11355 8.09019 4.60206 8.60477C4.08525 9.11406 4 9.83024 4 10.695V13.2944C4 14.1751 4.08525 14.8859 4.59674 15.3952C5.11355 15.9098 5.83816 16 6.71728 16ZM6.57875 15.1247C6.05661 15.1247 5.53447 15.0557 5.2361 14.7586C4.94306 14.4668 4.87912 13.9523 4.87912 13.4324V10.5782C4.87912 10.0531 4.94306 9.53316 5.2361 9.23607C5.53447 8.9443 6.06194 8.87533 6.58941 8.87533H15.7749C16.297 8.87533 16.8192 8.9443 17.1175 9.24138C17.4106 9.53316 17.4745 10.0477 17.4745 10.5676V13.4324C17.4745 13.9523 17.4106 14.4668 17.1175 14.7586C16.8192 15.0557 16.297 15.1247 15.7749 15.1247H6.57875ZM6.49883 14.4244H10.8548C11.2171 14.4244 11.4143 14.3767 11.5688 14.2228C11.7286 14.069 11.7712 13.8674 11.7712 13.5119V10.4881C11.7712 10.1326 11.7233 9.93103 11.5688 9.77719C11.4143 9.62334 11.2171 9.5756 10.8548 9.5756H6.49883C6.13653 9.5756 5.93939 9.62334 5.78488 9.77719C5.63037 9.93103 5.58242 10.1326 5.58242 10.4881V13.5119C5.58242 13.8674 5.63037 14.069 5.78488 14.2228C5.93939 14.3767 6.13653 14.4244 6.49883 14.4244ZM19.0569 13.2785C19.4619 13.252 20 12.7374 20 11.9682C20 11.1936 19.4619 10.679 19.0569 10.6578V13.2785Z" fill="black" class="fill-color"/>
</svg>
