<?xml version="1.0" encoding="UTF-8"?>
<svg width="24px" height="24px" viewBox="0 0 24 24" version="1.1" xmlns="http://www.w3.org/2000/svg" xmlns:xlink="http://www.w3.org/1999/xlink">
    <!-- Generator: Sketch 55.2 (78181) - https://sketchapp.com -->
    <desc>Created with Sketch.</desc>
    <g id="icon/bookmark-unselected" stroke="none" stroke-width="1" fill="none" fill-rule="evenodd">
        <g>
            <polygon id="Shape" points="0 0 24 0 24 24 0 24"></polygon>
            <path d="M11.9999571,15.8064871 L16.1195055,18.0423478 L15.2660861,13.4335056 L18.6655264,10.2065012 L14.0185358,9.59394069 L11.9999571,5.3636816 L9.9813784,9.59394069 L5.3343878,10.2065012 L8.73382815,13.4335056 L7.88040872,18.0423478 L11.9999571,15.8064871 Z M7.89736747,19.1991531 C7.52428876,19.4016393 7.05770116,19.2633469 6.85521488,18.8902681 C6.77125705,18.7355768 6.74293466,18.5567562 6.77498104,18.3836916 L7.62488724,13.7938223 L4.2394412,10.5801024 C3.93157765,10.2878551 3.91891812,9.80136923 4.21116535,9.49350568 C4.33234119,9.36585477 4.49365755,9.28365998 4.66815467,9.26065799 L9.29601522,8.6506192 L11.3062841,4.43777462 C11.4890927,4.05466962 11.9478563,3.89229728 12.3309613,4.07510584 C12.4898099,4.15090461 12.6178313,4.278926 12.6936301,4.43777462 L14.703899,8.6506192 L19.3317595,9.26065799 C19.752605,9.31613331 20.048796,9.7022676 19.9933207,10.1231131 C19.9703187,10.2976102 19.8881239,10.4589265 19.760473,10.5801024 L16.375027,13.7938223 L17.2249332,18.3836916 C17.3022214,18.8010822 17.0265139,19.2020987 16.6091233,19.2793869 C16.4360587,19.3114333 16.2572381,19.2831109 16.1025467,19.1991531 L11.9999571,16.9724966 L7.89736747,19.1991531 Z" id="Combined-Shape" class="fill-color"></path>
        </g>
    </g>
</svg>