<?xml version="1.0" encoding="UTF-8"?>
<svg width="24px" height="24px" viewBox="0 0 24 24" version="1.1" xmlns="http://www.w3.org/2000/svg" xmlns:xlink="http://www.w3.org/1999/xlink">
    <!-- Generator: Sketch 55.2 (78181) - https://sketchapp.com -->
    <desc>Created with Sketch.</desc>
    <g id="icon/bookmark-selected" stroke="none" stroke-width="1" fill="none" fill-rule="evenodd">
        <g>
            <polygon id="Shape" points="0 0 24 0 24 24 0 24"></polygon>
            <path d="M11.9999847,16.6898015 L7.31176018,19.2343079 C7.19041009,19.3001699 7.03864467,19.255188 6.97278262,19.1338379 C6.94547393,19.083522 6.9362616,19.0253576 6.94668522,18.9690654 L7.9179135,13.7240032 L4.0492031,10.0515324 C3.94906534,9.9564741 3.94494761,9.79823642 4.04000591,9.69809865 C4.07942038,9.65657806 4.13189122,9.62984283 4.18864933,9.62236105 L9.47712597,8.92524068 L11.774356,4.11102255 C11.8338175,3.98641125 11.9830381,3.93359693 12.1076494,3.99305847 C12.1593175,4.01771329 12.2009586,4.05935438 12.2256135,4.11102255 L14.5228435,8.92524068 L19.8113201,9.62236105 C19.9482071,9.64040533 20.0445482,9.76600196 20.0265039,9.90288898 C20.0190222,9.95964709 19.9922869,10.0121179 19.9507663,10.0515324 L16.0820559,13.7240032 L17.0532842,18.9690654 C17.0784235,19.1048287 16.9887451,19.235266 16.8529818,19.2604053 C16.7966896,19.2708289 16.7385252,19.2616166 16.6882093,19.2343079 L11.9999847,16.6898015 Z" id="Combined-Shape" class="fill-color"></path>
        </g>
    </g>
</svg>