<svg width="8" height="12" viewBox="0 0 8 12" fill="none" xmlns="http://www.w3.org/2000/svg">
<path d="M2.2791 8.92017H5.60441C5.80809 8.92017 5.94536 8.7829 5.94536 8.58365V7.92833C5.94536 6.85679 7.5261 6.19704 7.5261 4.20452C7.5261 2.09244 6.08262 0.666672 3.94397 0.666672C1.8009 0.666672 0.357422 2.09244 0.357422 4.20452C0.357422 6.19704 1.93816 6.85679 1.93816 7.92833V8.58365C1.93816 8.7829 2.07985 8.92017 2.2791 8.92017ZM2.38094 10.1865H5.507C5.75939 10.1865 5.96307 9.97842 5.96307 9.73046C5.96307 9.4825 5.75939 9.27439 5.507 9.27439H2.38094C2.12856 9.27439 1.92488 9.4825 1.92488 9.73046C1.92488 9.97842 2.12856 10.1865 2.38094 10.1865ZM3.94397 11.3333C4.62143 11.3333 5.10849 11.0145 5.1572 10.5408H2.73074C2.77502 11.0145 3.25766 11.3333 3.94397 11.3333Z" class="fill-color"/>
</svg>
