<?xml version="1.0" encoding="UTF-8"?>
<svg width="24px" height="24px" viewBox="0 0 24 24" version="1.1" xmlns="http://www.w3.org/2000/svg" xmlns:xlink="http://www.w3.org/1999/xlink">
    <!-- Generator: Sketch 52.5 (67469) - http://www.bohemiancoding.com/sketch -->
    <desc>Created with Sketch.</desc>
    <g id="icon/calendar" stroke="none" stroke-width="1" fill="none" fill-rule="evenodd">
        <g>
            <polygon id="Shape" points="0 0 24 0 24 24 0 24"></polygon>
            <path d="M20,9 L4,9 L4,6 L7,6 L7,4 L10,4 L10,6 L14,6 L14,4 L17,4 L17,6 L20,6 L20,9 Z M20,10 L20,20 L4,20 L4,10 L20,10 Z M6,12 L6,14 L8,14 L8,12 L6,12 Z M6,16 L6,18 L8,18 L8,16 L6,16 Z M11,12 L11,14 L13,14 L13,12 L11,12 Z M11,16 L11,18 L13,18 L13,16 L11,16 Z M16,12 L16,14 L18,14 L18,12 L16,12 Z M16,16 L16,18 L18,18 L18,16 L16,16 Z" id="Combined-Shape" class="fill-color"></path>
        </g>
    </g>
</svg>