<svg width="10" height="12" viewBox="0 0 10 12" fill="none" xmlns="http://www.w3.org/2000/svg">
<path d="M0.986535 9.1214C1.09622 9.1214 1.21047 9.09398 1.33386 9.02543V4.2725C1.33386 3.94345 1.38414 3.84748 1.67205 3.68295L5.7943 1.30649C5.77602 0.899748 5.51553 0.666672 5.1682 0.666672C5.00367 0.666672 4.82544 0.712373 4.64263 0.822056L0.931694 2.9563C0.4107 3.25793 0.333008 3.37675 0.333008 3.99372V8.24394C0.333008 8.76493 0.593505 9.1214 0.986535 9.1214ZM2.86029 10.2045C2.9654 10.2045 3.08422 10.1725 3.20762 10.104V5.35562C3.20762 5.01743 3.25332 4.9306 3.5458 4.76607L7.66806 2.38961C7.65434 1.98287 7.38928 1.74522 7.03738 1.74522C6.87742 1.74522 6.69919 1.79549 6.51181 1.9006L2.80544 4.03942C2.27988 4.33648 2.20219 4.46444 2.20219 5.07684V9.32248C2.20219 9.84805 2.47183 10.2045 2.86029 10.2045ZM4.83001 11.3333C5.01738 11.3333 5.24132 11.2602 5.49268 11.1185L9.03452 9.08027C9.53724 8.78778 9.68805 8.55013 9.68805 7.95145L9.68348 3.86576C9.68348 3.22137 9.41841 2.87404 8.99339 2.87404C8.81059 2.87404 8.58665 2.94259 8.33986 3.08427L4.80259 5.12711C4.28159 5.42874 4.14449 5.65725 4.14449 6.2605V10.3462C4.14449 10.9769 4.40042 11.3333 4.83001 11.3333Z" class="fill-color"/>
</svg>
