<svg width="24" height="24" viewBox="0 0 24 24" fill="none" xmlns="http://www.w3.org/2000/svg">
<path fill-rule="evenodd" clip-rule="evenodd" d="M8.14286 5.25C6.54518 5.25 5.25 6.54518 5.25 8.14286V15.8571C5.25 17.4548 6.54518 18.75 8.14286 18.75H15.8571C17.4548 18.75 18.75 17.4548 18.75 15.8571V8.14286C18.75 6.54518 17.4548 5.25 15.8571 5.25H8.14286ZM8 4H16C18.2091 4 20 5.79086 20 8V16C20 18.2091 18.2091 20 16 20H8C5.79086 20 4 18.2091 4 16V8C4 5.79086 5.79086 4 8 4Z" class="fill-color"/>
<path d="M8 12C8 11.5858 8.33579 11.25 8.75 11.25H15.25C15.6642 11.25 16 11.5858 16 12C16 12.4142 15.6642 12.75 15.25 12.75H8.75C8.33579 12.75 8 12.4142 8 12Z" class="fill-color"/>
</svg>
