<?xml version="1.0" encoding="UTF-8"?>
<svg width="24px" height="24px" viewBox="0 0 24 24" version="1.1" xmlns="http://www.w3.org/2000/svg" xmlns:xlink="http://www.w3.org/1999/xlink">
    <!-- Generator: Sketch 52.5 (67469) - http://www.bohemiancoding.com/sketch -->
    <desc>Created with Sketch.</desc>
    <g id="icon/checkbox-selected" stroke="none" stroke-width="1" fill="none" fill-rule="evenodd">
        <g id="icon/next">
            <polygon id="Shape" points="0 0 24 0 24 24 0 24"></polygon>
            <path d="M10.2319271,13.4013553 L8.64894837,11.6314981 C8.35605515,11.3386049 7.88118142,11.3386049 7.5882882,11.6314981 C7.29539498,11.9243913 7.29539498,12.399265 7.5882882,12.6921582 L9.67224224,15.0221333 C9.96513545,15.3150266 10.4400092,15.3150266 10.7329024,15.0221333 C10.7403387,15.014697 10.7475862,15.0071434 10.754645,14.9994784 C10.7976884,14.9703108 10.8383347,14.9361974 10.8757736,14.8971552 L15.9431023,9.61281851 C16.2297925,9.31385089 16.2198396,8.83908147 15.920872,8.55239133 C15.6219044,8.26570119 15.1471349,8.27565405 14.8604448,8.57462167 L10.2319271,13.4013553 Z M8,4 L16,4 C18.209139,4 20,5.790861 20,8 L20,16 C20,18.209139 18.209139,20 16,20 L8,20 C5.790861,20 4,18.209139 4,16 L4,8 C4,5.790861 5.790861,4 8,4 Z" id="Combined-Shape" fill="#000000"></path>
        </g>
    </g>
</svg>