<svg width="14" height="14" viewBox="0 0 14 14" fill="none" xmlns="http://www.w3.org/2000/svg">
<path d="M8.97465 7.02872C9.03393 7.02872 9.09353 7.03393 9.15325 7.04465C9.19629 7.05237 9.23938 7.06285 9.28243 7.07673C9.38612 7.11011 9.48743 7.15194 9.58371 7.20293C9.69479 7.26177 9.79919 7.33278 9.89252 7.41771C9.91378 7.43707 9.93415 7.45724 9.95398 7.47789C10.22 7.75499 10.3555 8.14337 10.3733 8.52388C10.4355 9.85286 10.1157 11.3987 9.23104 12.4268C8.55838 13.2086 7.58228 13.6257 6.32989 13.6665L6.31975 13.6667C6.30576 13.6667 6.29179 13.6658 6.2779 13.6639C6.23024 13.6568 5.18256 13.4966 3.99209 12.9539C3.28714 12.6326 2.67827 12.2429 2.18239 11.7957C1.55258 11.2277 1.10458 10.5658 0.850815 9.82845C0.817064 9.7304 0.83474 9.62198 0.897854 9.5397C0.95658 9.46311 1.04738 9.41873 1.14306 9.41873C1.1502 9.41873 1.15739 9.41899 1.16456 9.41948C1.17745 9.42037 1.19036 9.42101 1.20326 9.4217C1.42575 9.43379 1.64895 9.43952 1.8725 9.43952C2.43573 9.43952 3.00059 9.40315 3.55796 9.34062C4.18485 9.27026 4.80907 9.15983 5.41619 8.98693C5.88626 8.85306 6.33763 8.71589 6.74877 8.44352C7.12392 8.195 7.46097 7.87772 7.79301 7.5866C8.11457 7.30471 8.53553 7.02872 8.97465 7.02872ZM10.1575 12.9189C10.3613 12.9189 10.5266 13.0841 10.5266 13.288C10.5266 13.4918 10.3613 13.657 10.1575 13.657C9.95366 13.657 9.78841 13.4918 9.78841 13.288C9.78841 13.0841 9.95366 12.9189 10.1575 12.9189ZM12.1589 12.8337C12.3628 12.8337 12.528 12.999 12.528 13.2028C12.528 13.4067 12.3628 13.5719 12.1589 13.5719C11.9551 13.5719 11.7898 13.4067 11.7898 13.2028C11.7898 12.999 11.9551 12.8337 12.1589 12.8337ZM7.39642 8.83948C7.36671 8.83948 7.33705 8.84734 7.31066 8.86307C6.38134 9.41695 5.15378 9.78341 3.64794 9.95479C2.93624 10.0358 2.30182 10.0559 1.84654 10.0559L1.74971 10.0556L1.71467 10.063C1.67323 10.0819 1.65198 10.1335 1.67559 10.1776C1.77119 10.3566 1.88193 10.5295 2.00725 10.696C2.09579 10.6988 2.19586 10.7016 2.30357 10.704C2.40036 10.7062 2.50331 10.708 2.60969 10.7093C3.04098 10.7143 3.52811 10.7092 3.88541 10.6748C3.92792 10.6707 3.9421 10.7301 3.90231 10.7456C3.67061 10.8355 3.32036 10.9611 2.96139 11.0517C2.8705 11.0746 2.77912 11.0953 2.6889 11.1126C2.59242 11.131 2.49741 11.1456 2.4059 11.1549C2.46521 11.2145 2.52648 11.2733 2.5901 11.3308C2.63927 11.3753 2.68995 11.4191 2.74167 11.4624C2.82985 11.466 2.96387 11.471 3.12592 11.4756C3.24915 11.4791 3.3885 11.4824 3.53617 11.4845C3.98698 11.4912 4.51488 11.4878 4.89547 11.4512C4.93797 11.4471 4.95215 11.5065 4.91236 11.5219C4.70327 11.6031 4.39759 11.7134 4.07612 11.8007C3.96695 11.8303 3.85603 11.8573 3.74637 11.8796C3.62566 11.9042 3.50664 11.923 3.39338 11.9335C3.65289 12.0962 3.93356 12.2471 4.23439 12.3849C4.26939 12.401 4.30427 12.4165 4.33906 12.4319C4.47255 12.4191 4.63253 12.4021 4.80947 12.3798C4.96075 12.3607 5.12426 12.3378 5.29415 12.3104C5.83469 12.2232 6.43881 12.0905 6.91166 11.8922C6.97075 11.8674 7.0177 11.9455 6.96766 11.9855C6.75135 12.1586 6.47334 12.3688 6.18624 12.554C6.09344 12.6139 5.99969 12.6711 5.90674 12.7236C5.80292 12.7823 5.7002 12.8348 5.60089 12.8787C5.94926 12.9746 6.20887 13.0246 6.31411 13.0432C6.32749 13.0456 6.34098 13.0468 6.35452 13.0468L6.3643 13.0466C7.40858 13.0018 8.21432 12.6588 8.75997 12.0264C9.29272 11.409 9.49545 10.6142 9.56694 9.98958C9.5759 9.91144 9.53006 9.83723 9.45599 9.81079C8.85747 9.59722 8.0181 9.1573 7.47795 8.86043C7.45254 8.84647 7.42447 8.83948 7.39642 8.83948ZM11.7332 10.8843C12.1366 10.8843 12.4637 11.2114 12.4637 11.6149C12.4637 12.0184 12.1366 12.3455 11.7332 12.3455C11.3297 12.3455 11.0026 12.0184 11.0026 11.6149C11.0026 11.2114 11.3297 10.8843 11.7332 10.8843ZM12.4875 0.579967C12.6028 0.356567 12.8772 0.268878 13.1006 0.38411C13.324 0.499323 13.4117 0.773822 13.2965 0.997204L10.1712 7.05676C10.0582 6.95796 9.93162 6.87157 9.79243 6.79829C9.67729 6.73769 9.55363 6.68599 9.42193 6.64358C9.4042 6.63786 9.38634 6.63253 9.36844 6.6275L12.4875 0.579967Z" fill="#8F9EB3"/>
</svg>
