<?xml version="1.0" encoding="UTF-8"?>
<svg width="24px" height="24px" viewBox="0 0 24 24" version="1.1" xmlns="http://www.w3.org/2000/svg" xmlns:xlink="http://www.w3.org/1999/xlink">
    <!-- Generator: Sketch 52.5 (67469) - http://www.bohemiancoding.com/sketch -->
    <desc>Created with Sketch.</desc>
    <g id="icon/close-rounded" stroke="none" stroke-width="1" fill="none" fill-rule="evenodd">
        <g id="icon/next">
            <polygon id="Shape" points="0 0 24 0 24 24 0 24"></polygon>
            <path d="M12,21 C7.02943725,21 3,16.9705627 3,12 C3,7.02943725 7.02943725,3 12,3 C16.9705627,3 21,7.02943725 21,12 C21,16.9705627 16.9705627,21 12,21 Z M16,8.8 L15.2,8 L12,11.2 L8.8,8 L8,8.8 L11.2,12 L8,15.2 L8.8,16 L12,12.8 L15.2,16 L16,15.2 L12.8,12 L16,8.8 Z" id="Combined-Shape" class="fill-color"></path>
        </g>
    </g>
</svg>