<?xml version="1.0" encoding="UTF-8"?>
<svg width="24" height="24" viewBox="0 0 24 24" fill="none"
    xmlns="http://www.w3.org/2000/svg">
    <path fill-rule="evenodd" clip-rule="evenodd" d="M16 4C18.2091 4 20 5.79086 20 8V16C20 18.2091 18.2091 20 16 20H8C5.79086 20 4 18.2091 4 16V8C4 5.79086 5.79086 4 8 4H16ZM9.1654 14.8357C8.94342 14.6137 8.94777 14.2307 9.16104 14.0218L11.1806 12.0022L9.16104 9.98259C8.94777 9.76931 8.94342 9.38629 9.1654 9.16431C9.38738 8.94233 9.7704 8.95103 9.97933 9.15996L11.9989 11.1795L14.0185 9.16431C14.2361 8.94668 14.6104 8.94233 14.8324 9.16866C15.0544 9.39064 15.0544 9.76496 14.8368 9.98259L12.8215 12.0022L14.8368 14.0174C15.0544 14.235 15.0544 14.6094 14.8324 14.8313C14.6104 15.0577 14.2361 15.0533 14.0185 14.8357L11.9989 12.8205L9.97933 14.84C9.7704 15.049 9.38738 15.0577 9.1654 14.8357Z" class="fill-color"/>
</svg>