<?xml version="1.0" encoding="UTF-8"?>
<svg width="24px" height="24px" viewBox="0 0 24 24" version="1.1" xmlns="http://www.w3.org/2000/svg" xmlns:xlink="http://www.w3.org/1999/xlink">
    <!-- Generator: Sketch 52.5 (67469) - http://www.bohemiancoding.com/sketch -->
    <desc>Created with Sketch.</desc>
    <g id="icon/content" stroke="none" stroke-width="1" fill="none" fill-rule="evenodd">
        <g id="icon/24px/grey/content">
            <polygon id="Shape" points="0 0 24 0 24 24 0 24"></polygon>
            <path d="M4.2819426,5 L19.7180574,5 C20.1638168,5 20.3254599,5.04641281 20.4884229,5.13356635 C20.6513858,5.2207199 20.7792801,5.34861419 20.8664336,5.51157715 C20.9535872,5.67454011 21,5.83618323 21,6.2819426 L21,17.2180574 C21,17.6638168 20.9535872,17.8254599 20.8664336,17.9884229 C20.7792801,18.1513858 20.6513858,18.2792801 20.4884229,18.3664336 C20.3254599,18.4535872 20.1638168,18.5 19.7180574,18.5 L4.2819426,18.5 C3.83618323,18.5 3.67454011,18.4535872 3.51157715,18.3664336 C3.34861419,18.2792801 3.2207199,18.1513858 3.13356635,17.9884229 C3.04641281,17.8254599 3,17.6638168 3,17.2180574 L3,6.2819426 C3,5.83618323 3.04641281,5.67454011 3.13356635,5.51157715 C3.2207199,5.34861419 3.34861419,5.2207199 3.51157715,5.13356635 C3.67454011,5.04641281 3.83618323,5 4.2819426,5 Z M10.3557983,8.73847899 C10.2936321,8.70117929 10.2224976,8.68147616 10.15,8.68147616 C9.9290861,8.68147616 9.75,8.86056226 9.75,9.08147616 L9.75,14.4185238 C9.75,14.4910214 9.76970313,14.562156 9.80700283,14.6243221 C9.9206621,14.8137543 10.1663662,14.8751803 10.3557983,14.761521 L14.803338,12.0929972 C14.8596379,12.0592173 14.906757,12.0120981 14.9405369,11.9557983 C15.0541962,11.7663662 14.9927702,11.5206621 14.803338,11.4070028 L10.3557983,8.73847899 Z" id="Combined-Shape" class="fill-color"></path>
        </g>
    </g>
</svg>