<svg width="24" height="24" viewBox="0 0 24 24" fill="none" xmlns="http://www.w3.org/2000/svg">
<path d="M7.25 20H4.75926C4.61607 20 4.5 19.8839 4.5 19.7407L4.5 4.25926C4.5 4.11607 4.61608 4 4.75926 4L7.25 4C7.66421 4 8 4.33579 8 4.75C8 5.16421 7.66421 5.5 7.25 5.5L6 5.5L6 18.5H7.25C7.66421 18.5 8 18.8358 8 19.25C8 19.6642 7.66421 20 7.25 20Z" class="fill-color"/>
<path d="M8.336 12.8138C7.83568 12.8138 7.5 12.4845 7.5 12.0031C7.5 11.5218 7.83568 11.1925 8.336 11.1925L15.6748 11.1925L17.0491 11.2432L15.4088 9.79921L13.9775 8.35526C13.8255 8.2096 13.7242 8.01327 13.7242 7.77261C13.7242 7.32929 14.0535 6.99997 14.5158 6.99997C14.7248 6.99997 14.9275 7.0823 15.0985 7.25329L19.2466 11.4015C19.4113 11.5535 19.5 11.7815 19.5 12.0031C19.5 12.2248 19.4113 12.4465 19.2466 12.6048L15.0984 16.7466C14.9275 16.9176 14.7248 17 14.5158 17C14.0535 17 13.7242 16.6706 13.7242 16.2273C13.7242 15.9867 13.8255 15.7967 13.9775 15.6447L15.4088 14.2071L17.0491 12.7568L15.6748 12.8138L8.336 12.8138Z" class="fill-color"/>
</svg>
