<svg width="24" height="24" viewBox="0 0 24 24" fill="none" xmlns="http://www.w3.org/2000/svg">
<path d="M16.75 4H19.2407C19.3839 4 19.5 4.11607 19.5 4.25926V19.7407C19.5 19.8839 19.3839 20 19.2407 20H16.75C16.3358 20 16 19.6642 16 19.25C16 18.8358 16.3358 18.5 16.75 18.5H18V5.5H16.75C16.3358 5.5 16 5.16421 16 4.75C16 4.33579 16.3358 4 16.75 4Z" class="fill-color"/>
<path d="M15.664 11.1862C16.1643 11.1862 16.5 11.5155 16.5 11.9969C16.5 12.4782 16.1643 12.8075 15.664 12.8075L8.3252 12.8075L6.95093 12.7568L8.59119 14.2008L10.0225 15.6447C10.1745 15.7904 10.2758 15.9867 10.2758 16.2274C10.2758 16.6707 9.94651 17 9.48419 17C9.2752 17 9.07254 16.9177 8.90155 16.7467L4.75336 12.5985C4.5887 12.4465 4.5 12.2185 4.5 11.9969C4.5 11.7752 4.5887 11.5535 4.75336 11.3952L8.90155 7.25336C9.07254 7.08236 9.2752 7.00003 9.48419 7.00003C9.94651 7.00003 10.2758 7.32935 10.2758 7.77267C10.2758 8.01333 10.1745 8.20332 10.0225 8.35532L8.59119 9.79294L6.95093 11.2432L8.3252 11.1862H15.664Z" class="fill-color"/>
</svg>
