<svg width="12" height="11" viewBox="0 0 12 11" fill="none" xmlns="http://www.w3.org/2000/svg">
<path d="M1.63667 10.759H10.363C11.2484 10.759 11.8332 10.0907 11.8332 9.28878C11.8332 9.04376 11.7719 8.79873 11.6383 8.56484L7.26674 0.740652C6.99387 0.250597 6.49825 0 6.00262 0C5.507 0 5.00024 0.250597 4.73293 0.740652L0.361412 8.57041C0.227761 8.79873 0.166504 9.04376 0.166504 9.28878C0.166504 10.0907 0.751229 10.759 1.63667 10.759ZM6.00262 6.87192C5.64622 6.87192 5.44574 6.67701 5.42903 6.32061L5.3455 3.91488C5.3288 3.54177 5.60724 3.28003 5.99705 3.28003C6.38687 3.28003 6.66531 3.54733 6.6486 3.92045L6.56507 6.31504C6.54837 6.68258 6.34789 6.87192 6.00262 6.87192ZM6.00262 8.98807C5.59053 8.98807 5.28424 8.72076 5.28424 8.33095C5.28424 7.93556 5.59053 7.67383 6.00262 7.67383C6.40915 7.67383 6.721 7.93556 6.721 8.33095C6.721 8.72633 6.40915 8.98807 6.00262 8.98807Z" fill="#CF1322"/>
</svg>
