<svg width="12" height="12" viewBox="0 0 12 12" fill="none" xmlns="http://www.w3.org/2000/svg">
<path d="M1.63667 11.259H10.363C11.2484 11.259 11.8332 10.5907 11.8332 9.78878C11.8332 9.54376 11.7719 9.29873 11.6383 9.06484L7.26674 1.24065C6.99387 0.750597 6.49825 0.5 6.00262 0.5C5.507 0.5 5.00024 0.750597 4.73293 1.24065L0.361412 9.07041C0.227761 9.29873 0.166504 9.54376 0.166504 9.78878C0.166504 10.5907 0.751229 11.259 1.63667 11.259ZM6.00262 7.37192C5.64622 7.37192 5.44574 7.17701 5.42903 6.82061L5.3455 4.41488C5.3288 4.04177 5.60724 3.78003 5.99705 3.78003C6.38687 3.78003 6.66531 4.04733 6.6486 4.42045L6.56507 6.81504C6.54837 7.18258 6.34789 7.37192 6.00262 7.37192ZM6.00262 9.48807C5.59053 9.48807 5.28424 9.22076 5.28424 8.83095C5.28424 8.43556 5.59053 8.17383 6.00262 8.17383C6.40915 8.17383 6.721 8.43556 6.721 8.83095C6.721 9.22633 6.40915 9.48807 6.00262 9.48807Z" fill="#F0A203"/>
</svg>
