<?xml version="1.0" encoding="UTF-8"?>
<svg width="24px" height="24px" viewBox="0 0 24 24" version="1.1" xmlns="http://www.w3.org/2000/svg" xmlns:xlink="http://www.w3.org/1999/xlink">
    <!-- Generator: Sketch 52.5 (67469) - http://www.bohemiancoding.com/sketch -->
    <desc>Created with Sketch.</desc>
    <g id="icon/dashboard" stroke="none" stroke-width="1" fill="none" fill-rule="evenodd">
        <g id="Shape">
            <polygon points="0 0 24 0 24 24 0 24"></polygon>
            <path d="M5,12.8888889 L10.1111111,12.8888889 C10.6633959,12.8888889 11.1111111,12.4411736 11.1111111,11.8888889 L11.1111111,5 C11.1111111,4.44771525 10.6633959,4 10.1111111,4 L5,4 C4.44771525,4 4,4.44771525 4,5 L4,11.8888889 C4,12.4411736 4.44771525,12.8888889 5,12.8888889 Z M5,20 L10.1111111,20 C10.6633959,20 11.1111111,19.5522847 11.1111111,19 L11.1111111,15.6666667 C11.1111111,15.1143819 10.6633959,14.6666667 10.1111111,14.6666667 L5,14.6666667 C4.44771525,14.6666667 4,15.1143819 4,15.6666667 L4,19 C4,19.5522847 4.44771525,20 5,20 Z M13.8888889,20 L19,20 C19.5522847,20 20,19.5522847 20,19 L20,12.1111111 C20,11.5588264 19.5522847,11.1111111 19,11.1111111 L13.8888889,11.1111111 C13.3366041,11.1111111 12.8888889,11.5588264 12.8888889,12.1111111 L12.8888889,19 C12.8888889,19.5522847 13.3366041,20 13.8888889,20 Z M12.8888889,5 L12.8888889,8.33333333 C12.8888889,8.88561808 13.3366041,9.33333333 13.8888889,9.33333333 L19,9.33333333 C19.5522847,9.33333333 20,8.88561808 20,8.33333333 L20,5 C20,4.44771525 19.5522847,4 19,4 L13.8888889,4 C13.3366041,4 12.8888889,4.44771525 12.8888889,5 Z" class="fill-color"></path>
        </g>
    </g>
</svg>