<svg width="24" height="24" viewBox="0 0 24 24" fill="none" xmlns="http://www.w3.org/2000/svg">
<path d="M20 13.5534C20 12.2664 18.9569 11.2233 17.6699 11.2233C17.3957 11.2233 17.1371 11.2792 16.8932 11.3662V8.1068C16.8932 7.55451 16.4455 7.1068 15.8932 7.1068H12.6338C12.7208 6.86291 12.7767 6.60427 12.7767 6.3301C12.7767 5.04311 11.7336 4 10.4466 4C9.15961 4 8.1165 5.04311 8.1165 6.3301C8.1165 6.60427 8.17243 6.86291 8.25942 7.1068H5C4.44772 7.1068 4 7.55451 4 8.1068V11.128C4.23458 11.0451 4.48702 11 4.75 11C5.99264 11 7 12.0074 7 13.25C7 14.4926 5.99264 15.5 4.75 15.5C4.48702 15.5 4.23458 15.4549 4 15.372V19C4 19.5523 4.44772 20 5 20H8.25942C8.17243 19.7561 8.1165 19.4975 8.1165 19.2233C8.1165 17.9363 9.15961 16.8932 10.4466 16.8932C11.7336 16.8932 12.7767 17.9363 12.7767 19.2233C12.7767 19.4975 12.7208 19.7561 12.6338 20H15.8932C16.4455 20 16.8932 19.5523 16.8932 19V15.7406C17.1371 15.8276 17.3957 15.8835 17.6699 15.8835C18.9569 15.8835 20 14.8404 20 13.5534Z" class="fill-color"  fill="black"/>
</svg>
