<svg width="24" height="24" viewBox="0 0 24 24" fill="none" xmlns="http://www.w3.org/2000/svg">
<path d="M11.75 6.5C12.9926 6.5 14 5.49264 14 4.25C14 4.1655 13.9953 4.08208 13.9863 4H16.8932C17.4455 4 17.8932 4.44772 17.8932 5V8.25942C18.1371 8.17243 18.3957 8.1165 18.6699 8.1165C19.9569 8.1165 21 9.15961 21 10.4466C21 11.7336 19.9569 12.7767 18.6699 12.7767C18.3957 12.7767 18.1371 12.7208 17.8932 12.6338V15.8932C17.8932 16.4455 17.4455 16.8932 16.8932 16.8932H13.6338C13.7208 17.1371 13.7767 17.3957 13.7767 17.6699C13.7767 18.9569 12.7336 20 11.4466 20C10.1596 20 9.1165 18.9569 9.1165 17.6699C9.1165 17.3957 9.17243 17.1371 9.25942 16.8932H6C5.44772 16.8932 5 16.4455 5 15.8932V12.6338C5.24388 12.7208 5.50252 12.7767 5.7767 12.7767C7.06369 12.7767 8.1068 11.7336 8.1068 10.4466C8.1068 9.15961 7.06369 8.1165 5.7767 8.1165C5.50252 8.1165 5.24388 8.17243 5 8.25942V5C5 4.44772 5.44772 4 6 4H9.51373C9.50466 4.08208 9.5 4.1655 9.5 4.25C9.5 5.49264 10.5074 6.5 11.75 6.5Z" class="fill-color"  fill="black"/>
</svg>
