<svg width="24" height="24" viewBox="0 0 24 24" fill="none" xmlns="http://www.w3.org/2000/svg">
<path d="M3 13.5534C3 14.8404 4.04311 15.8835 5.3301 15.8835C5.60427 15.8835 5.86291 15.8276 6.1068 15.7406L6.1068 19C6.1068 19.5523 6.55451 20 7.1068 20H10.628C10.5451 19.7654 10.5 19.513 10.5 19.25C10.5 18.0074 11.5074 17 12.75 17C13.9926 17 15 18.0074 15 19.25C15 19.513 14.9549 19.7654 14.872 20H18C18.5523 20 19 19.5523 19 19L19 15.7406C18.7561 15.8276 18.4975 15.8835 18.2233 15.8835C16.9363 15.8835 15.8932 14.8404 15.8932 13.5534C15.8932 12.2664 16.9363 11.2233 18.2233 11.2233C18.4975 11.2233 18.7561 11.2792 19 11.3662V8.1068C19 7.55451 18.5523 7.1068 18 7.1068L14.7406 7.1068C14.8276 6.86291 14.8835 6.60427 14.8835 6.3301C14.8835 5.04311 13.8404 4 12.5534 4C11.2664 4 10.2233 5.04311 10.2233 6.3301C10.2233 6.60427 10.2792 6.86291 10.3662 7.1068L7.1068 7.1068C6.55451 7.1068 6.1068 7.55451 6.1068 8.1068L6.1068 11.3662C5.86291 11.2792 5.60427 11.2233 5.3301 11.2233C4.04311 11.2233 3 12.2664 3 13.5534Z" class="fill-color" fill="black"/>
</svg>
