<svg width="24" height="24" viewBox="0 0 24 24" fill="none" xmlns="http://www.w3.org/2000/svg">
<path d="M12.5534 20C13.8404 20 14.8835 18.9569 14.8835 17.6699C14.8835 17.3957 14.8276 17.1371 14.7406 16.8932H18C18.5523 16.8932 19 16.4455 19 15.8932V12.872C18.7654 12.9549 18.513 13 18.25 13C17.0074 13 16 11.9926 16 10.75C16 9.50736 17.0074 8.5 18.25 8.5C18.513 8.5 18.7654 8.54512 19 8.62803V5C19 4.44772 18.5523 4 18 4H14.7406C14.8276 4.24388 14.8835 4.50252 14.8835 4.7767C14.8835 6.06369 13.8404 7.1068 12.5534 7.1068C11.2664 7.1068 10.2233 6.06369 10.2233 4.7767C10.2233 4.50252 10.2792 4.24388 10.3662 4H7.1068C6.55451 4 6.1068 4.44772 6.1068 5L6.1068 8.25942C5.86291 8.17243 5.60427 8.1165 5.3301 8.1165C4.04311 8.1165 3 9.15961 3 10.4466C3 11.7336 4.04311 12.7767 5.3301 12.7767C5.60427 12.7767 5.86291 12.7208 6.1068 12.6338L6.1068 15.8932C6.1068 16.4455 6.55451 16.8932 7.1068 16.8932H10.3662C10.2792 17.1371 10.2233 17.3957 10.2233 17.6699C10.2233 18.9569 11.2664 20 12.5534 20Z" class="fill-color"  fill="black"/>
</svg>
