<svg width="24" height="24" viewBox="0 0 24 24" fill="none" xmlns="http://www.w3.org/2000/svg">
<path d="M11.7689 15.311C11.9674 15.311 12.1658 15.2375 12.3643 15.039L14.819 12.6798C14.9513 12.5475 15.0322 12.4006 15.0322 12.2021C15.0322 11.8199 14.7161 11.5554 14.356 11.5554C14.1649 11.5554 13.9812 11.6288 13.8489 11.7758L12.8934 12.7901L12.4378 13.356L12.5333 12.2683V4.75701C12.5333 4.35278 12.1952 4 11.7689 4C11.3427 4 10.9972 4.35278 10.9972 4.75701V12.2683L11.0928 13.356L10.6371 12.7901L9.68167 11.7758C9.54938 11.6288 9.36564 11.5554 9.17455 11.5554C8.80707 11.5554 8.49839 11.8199 8.49839 12.2021C8.49839 12.4006 8.57924 12.5475 8.71153 12.6798L11.1663 15.039C11.3647 15.2375 11.5632 15.311 11.7689 15.311ZM7.5062 20H15.9949C17.6339 20 18.5011 19.1328 18.5011 17.5085V10.3721C18.5011 8.74782 17.6339 7.88057 15.9949 7.88057H14.062V9.56362H15.8406C16.4727 9.56362 16.8254 9.887 16.8254 10.5558V17.3321C16.8254 17.9936 16.4727 18.3169 15.8406 18.3169H7.66054C7.02113 18.3169 6.68305 17.9936 6.68305 17.3321V10.5558C6.68305 9.887 7.02113 9.56362 7.66054 9.56362H9.46853V7.88057H7.5062C5.8746 7.88057 5 8.74782 5 10.3721V17.5085C5 19.1328 5.8746 20 7.5062 20Z" class="fill-color"/>
</svg>
