<svg width="12" height="12" viewBox="0 0 12 12" fill="none" xmlns="http://www.w3.org/2000/svg">
<path fill-rule="evenodd" clip-rule="evenodd" d="M7.11996 6.82211C7.14204 6.95603 7.16236 7.09084 7.17599 7.22663C7.2496 7.95085 7.1928 8.68243 7.00812 9.38654C6.86837 9.92344 6.65644 10.4388 6.37805 10.9186C6.28401 11.0829 6.18085 11.2414 6.07263 11.3956C6.06077 11.4136 6.05 11.4307 6.03791 11.447C5.93398 11.5918 5.82291 11.7307 5.70723 11.8646L5.67251 11.9048C3.79846 11.8091 2.0802 10.8324 1.03924 9.27107L1.11648 9.27909C1.1691 9.28547 1.22184 9.29063 1.27479 9.29579C1.33631 9.30151 1.39773 9.30656 1.45925 9.31073C1.51572 9.31436 1.57054 9.31744 1.62866 9.31974C1.68678 9.32205 1.74468 9.32436 1.80279 9.32436L1.90563 9.32721C1.92639 9.32721 1.94726 9.32513 1.96814 9.32513C2.07405 9.32414 2.17995 9.32018 2.28564 9.31436C2.31651 9.31282 2.34739 9.31227 2.37826 9.31018C2.5068 9.30118 2.63303 9.28755 2.76168 9.27107C2.80848 9.26492 2.85495 9.25745 2.90154 9.25053C2.99239 9.23669 3.08281 9.22119 3.17279 9.20406C3.2152 9.19582 3.25848 9.18758 3.30133 9.17824C3.43075 9.15055 3.55907 9.1199 3.6853 9.0842C4.44413 8.87447 5.16 8.53202 5.79951 8.07279C6.08669 7.869 6.35641 7.64147 6.60569 7.39274C6.74994 7.24838 6.88694 7.09721 7.01943 6.93988C7.03921 6.91648 7.0592 6.89407 7.07876 6.87012C7.09216 6.85397 7.10655 6.83859 7.11996 6.82211ZM7.26673 5.40938C7.31123 5.42685 7.35627 5.443 7.40044 5.46079C7.43856 5.47618 7.47767 5.49112 7.51569 5.50727C7.60621 5.54561 7.69542 5.58648 7.78419 5.62899L7.84538 5.65745C7.95382 5.71128 8.06061 5.76852 8.16575 5.82851C8.19321 5.84422 8.21969 5.86114 8.24705 5.87707C8.32417 5.92288 8.40052 5.96935 8.47556 6.01824C8.51105 6.04142 8.54609 6.06559 8.58103 6.08954C8.6475 6.13437 8.71297 6.18073 8.77724 6.22863C8.81251 6.25456 8.84767 6.2818 8.88238 6.30751C8.94797 6.35849 9.01279 6.41122 9.07651 6.46494C9.10607 6.48955 9.13617 6.51328 9.16528 6.53899C9.25625 6.61864 9.34579 6.70016 9.43214 6.78531C9.82732 7.17356 10.168 7.61346 10.4451 8.09312C10.499 8.18947 10.5504 8.28626 10.5993 8.38349C10.6158 8.41634 10.6307 8.44952 10.6467 8.48269C10.6776 8.54652 10.7084 8.61101 10.7367 8.67506C10.7541 8.71461 10.7701 8.75428 10.7865 8.79383C10.8109 8.85194 10.8351 8.91006 10.8575 8.96818C10.8734 9.00982 10.8882 9.05124 10.903 9.09287C10.9156 9.1299 10.9287 9.16692 10.9413 9.20406C9.92587 10.7853 8.21694 11.7873 6.34103 11.9012C6.35366 11.8845 6.36498 11.8665 6.37761 11.8498C6.43342 11.7755 6.48714 11.7003 6.53856 11.624C6.56273 11.5887 6.58767 11.554 6.61107 11.5183C6.6849 11.4062 6.75609 11.2918 6.82322 11.1748C7.12457 10.6548 7.35386 10.0964 7.50492 9.51464C7.65488 8.94412 7.72728 8.35591 7.72014 7.76606C7.71783 7.56907 7.70685 7.37143 7.68696 7.17312C7.65246 6.82519 7.59094 6.48055 7.50283 6.14217C7.47328 6.02824 7.43955 5.91211 7.40275 5.79687C7.39099 5.76006 7.37759 5.72359 7.36528 5.68678C7.33848 5.6079 7.31123 5.52891 7.28113 5.45003C7.27607 5.43629 7.2719 5.42267 7.26673 5.40938ZM0.659227 3.3579C0.668016 3.37614 0.677245 3.39383 0.684935 3.41206C0.72097 3.496 0.759532 3.57928 0.799413 3.66233C0.81787 3.70188 0.835338 3.74045 0.854894 3.77901C0.915318 3.89942 0.9786 4.01873 1.04672 4.1365C1.74402 5.3484 2.80585 6.30938 4.08103 6.88275C4.3993 7.02876 4.72911 7.14796 5.06716 7.23915C5.18669 7.27211 5.30688 7.30144 5.42718 7.32715C5.46421 7.33539 5.50332 7.34176 5.54133 7.34945C5.62417 7.36593 5.70668 7.38186 5.78951 7.39527L5.82731 7.40219C5.72184 7.48887 5.61461 7.57423 5.50299 7.65367C4.91171 8.07774 4.25011 8.39381 3.54874 8.58739C3.43306 8.62024 3.31605 8.64881 3.19773 8.67451C3.15477 8.68385 3.1116 8.69023 3.06919 8.69847C2.99206 8.71308 2.91494 8.72857 2.83771 8.74032C2.78629 8.74812 2.73487 8.75296 2.68346 8.75966C2.61381 8.76922 2.54382 8.77899 2.47362 8.78537C2.41935 8.79031 2.36463 8.79262 2.31003 8.79613C2.24071 8.80053 2.17281 8.80569 2.10437 8.808C2.04856 8.80932 1.99275 8.80932 1.93694 8.80932C1.86959 8.80932 1.80246 8.81108 1.73512 8.80932C1.67876 8.80778 1.62273 8.80393 1.56648 8.80086C1.49957 8.79723 1.43266 8.79383 1.36587 8.78822C1.31006 8.78328 1.25447 8.77713 1.19953 8.76889C1.13263 8.76043 1.06605 8.75296 0.999474 8.74318C0.944872 8.73494 0.890379 8.72494 0.836107 8.71538C0.788866 8.70802 0.741735 8.69901 0.694933 8.68968C-0.16288 7.01888 -0.176173 5.04002 0.659227 3.3579ZM10.1068 3.16857L10.2144 3.16993C10.2658 3.17146 10.3173 3.17498 10.3687 3.17784C10.4386 3.18168 10.5086 3.18531 10.5786 3.19146C10.6315 3.19607 10.6843 3.20277 10.7372 3.20893C10.8046 3.21717 10.8719 3.22497 10.939 3.23463C10.9941 3.24287 11.0491 3.25298 11.1038 3.26276C11.1496 3.271 11.1952 3.27957 11.2407 3.28847L11.238 3.28763L11.33 3.47463C12.0667 5.04247 12.078 6.85563 11.3608 8.43251L11.2713 8.62057L11.2471 8.56707C11.2116 8.48346 11.1736 8.40041 11.1345 8.31713C11.1162 8.27802 11.0992 8.23968 11.0802 8.20089C11.0203 8.0795 10.9573 7.95843 10.8894 7.83758C10.5889 7.31671 10.2191 6.83903 9.79008 6.41759C9.68845 6.31784 9.58386 6.22138 9.47642 6.12832C8.8302 5.57011 8.08302 5.14087 7.2753 4.86369C7.14017 4.81743 7.00405 4.77547 6.86694 4.73789C6.7484 4.70504 6.62876 4.67571 6.50901 4.65C6.47143 4.64198 6.43386 4.63561 6.39662 4.62814C6.31323 4.61144 6.22996 4.59551 6.14635 4.58211C6.13382 4.58002 6.12097 4.57694 6.10812 4.57497C6.2138 4.48795 6.32125 4.40259 6.43386 4.32239C7.02317 3.89535 7.68542 3.57961 8.38822 3.39053C8.40008 3.38734 8.41162 3.38339 8.42294 3.37845C8.53807 3.34626 8.65486 3.31934 8.7723 3.29484C8.80889 3.28737 8.84591 3.28199 8.88238 3.27506C8.9639 3.2599 9.04542 3.24419 9.12771 3.23211C9.17198 3.22574 9.21615 3.22178 9.26042 3.21618C9.33623 3.20695 9.41061 3.19717 9.48773 3.19047C9.5353 3.18629 9.58287 3.18476 9.63044 3.18168C9.70372 3.17707 9.777 3.1719 9.8505 3.16993H9.99914C10.0709 3.16839 10.1426 3.16784 10.2144 3.16993L10.1068 3.16857ZM5.61384 5.03573L5.66141 5.04189C5.81215 5.05573 5.9631 5.07353 6.11372 5.09923C6.26852 5.12472 6.41716 5.15757 6.56504 5.19416L6.61854 5.20745C6.62623 5.22415 6.63392 5.24063 6.64139 5.25733C6.70467 5.39652 6.7651 5.53616 6.81651 5.67657L6.81937 5.68349C6.87233 5.82587 6.91726 5.96891 6.95824 6.11162L6.97131 6.15733C6.87255 6.29751 6.7718 6.43715 6.66271 6.56877C6.55141 6.70302 6.43617 6.82442 6.31993 6.94395L6.27236 6.93988C6.12141 6.92571 5.97002 6.90802 5.81885 6.88232C5.66789 6.85683 5.51716 6.82343 5.36698 6.78662L5.31556 6.77377L5.29238 6.72235C5.22998 6.58316 5.16999 6.44352 5.11858 6.30323C5.06409 6.15535 5.01937 6.01264 4.97817 5.8696L4.96488 5.82235C5.06233 5.68162 5.16208 5.54253 5.27052 5.41092L5.27524 5.4052C5.38247 5.27611 5.49717 5.15505 5.61384 5.03573ZM5.59231 0.0759552C5.57989 0.0921051 5.56891 0.109354 5.55649 0.125833C5.50123 0.199112 5.44696 0.27316 5.39554 0.350284C5.37115 0.38555 5.34621 0.420267 5.32226 0.455972C5.248 0.568582 5.17571 0.68251 5.10726 0.800064C4.80778 1.3206 4.57948 1.87892 4.42842 2.46021C4.28603 3.00359 4.21407 3.56291 4.21418 4.12464C4.21374 4.35074 4.22517 4.57661 4.24868 4.80151C4.28098 5.15021 4.34272 5.49573 4.43303 5.83411C4.46291 5.95035 4.49686 6.06614 4.53334 6.18183L4.57113 6.2929C4.59761 6.37134 4.62463 6.45077 4.65419 6.5279C4.65957 6.54207 4.66374 6.55624 4.66913 6.57008C4.54026 6.52251 4.41304 6.47209 4.29087 6.41584C3.11357 5.88695 2.13337 4.99981 1.49001 3.88085C1.43629 3.78681 1.38487 3.69167 1.33577 3.59576C1.31929 3.56379 1.30467 3.5317 1.28896 3.49952C1.25765 3.43525 1.22623 3.37152 1.19712 3.3067C1.17998 3.26814 1.16427 3.22958 1.14779 3.19102C1.12285 3.13213 1.09813 3.07325 1.07528 3.01403C1.05957 2.97338 1.04342 2.92976 1.02925 2.89142C1.01507 2.85308 1.00255 2.81452 0.989366 2.77596C2.00582 1.19392 3.7154 0.191092 5.59231 0.0759552ZM6.26215 0.0749664C8.13564 0.171426 9.85314 1.14811 10.894 2.70883C10.8356 2.70136 10.777 2.69652 10.7184 2.69059C10.6858 2.68719 10.6534 2.68312 10.6206 2.68026C10.497 2.66928 10.373 2.66104 10.2491 2.65719C10.1144 2.65379 9.98376 2.65379 9.85336 2.65719C9.83204 2.65763 9.81073 2.65994 9.78909 2.65994C9.68472 2.66346 9.58101 2.66939 9.47817 2.67796L9.36787 2.6885C9.27921 2.69729 9.19066 2.70751 9.10277 2.71992C9.06212 2.72531 9.0218 2.73124 8.98137 2.73739C8.89348 2.75124 8.80625 2.7675 8.71935 2.78463C8.68287 2.79189 8.64607 2.79859 8.60981 2.80628C8.48918 2.83254 8.36888 2.86154 8.24979 2.89472C8.2387 2.89779 8.22782 2.90164 8.21716 2.90603C7.46855 3.11247 6.76312 3.45161 6.13426 3.90733C5.8473 4.1109 5.57792 4.33821 5.32897 4.58672C5.1834 4.7302 5.04585 4.88302 4.91313 5.04057C4.89413 5.06353 4.87435 5.08539 4.85524 5.10846C4.84161 5.12439 4.82854 5.13911 4.8159 5.15504C4.79382 5.02101 4.77372 4.88687 4.76119 4.7513C4.73955 4.54344 4.72889 4.33448 4.72932 4.12541C4.72932 3.97808 4.73592 3.8313 4.7468 3.68496C4.77306 3.31549 4.83326 2.94921 4.92676 2.59084C5.06595 2.05437 5.27645 1.539 5.55265 1.05846C5.64878 0.894217 5.75271 0.737112 5.86125 0.582755L5.8985 0.529031C6.00265 0.385001 6.11273 0.247672 6.22688 0.115506C6.23874 0.100674 6.25028 0.0882599 6.26215 0.0749664Z" class="fill-color"/>
</svg>
