<svg width="12" height="12" viewBox="0 0 12 12" fill="none" xmlns="http://www.w3.org/2000/svg">
<path fill-rule="evenodd" clip-rule="evenodd" d="M11.6157 6.93312L7.56564 2.96141L10.2528 2.17522C10.6249 2.59503 10.9389 3.07549 11.1831 3.61192C11.6738 4.68944 11.7994 5.84394 11.6157 6.93312ZM7.1106 11.5977L7.7361 8.95384L2.27524 10.3406C3.59165 11.4648 5.37788 11.9476 7.1106 11.5977ZM7.82695 11.4042C8.00139 11.3435 8.17583 11.2759 8.34561 11.1989C9.89693 10.4922 10.9808 9.17214 11.4436 7.6538L9.34852 6.36543L7.82695 11.4042ZM1.74031 9.82052L4.66869 8.8928L0.368079 4.92501C0.15643 6.04451 0.27272 7.23632 0.777421 8.35116C1.02861 8.90159 1.35655 9.39371 1.74031 9.82052ZM4.08472 0.577588C3.9289 0.633564 3.77307 0.694204 3.61724 0.764173C2.10313 1.45454 1.03326 2.73031 0.551818 4.20432L2.23837 5.64526L4.08472 0.577588ZM4.83364 0.393336L3.82137 3.33616L9.67132 1.65045C8.35259 0.526278 6.56636 0.0434904 4.83364 0.393336Z" class="fill-color"/>
</svg>
