<svg width="14" height="16" viewBox="0 0 14 16" fill="none" xmlns="http://www.w3.org/2000/svg">
<path d="M11.0586 12.3281H11.3164C12.6113 12.3281 13.3027 11.625 13.3027 10.3242V4.59961H9.69922C9.11914 4.59961 8.73242 4.21289 8.73242 3.63867V0H5.62109C4.33203 0 3.64062 0.697266 3.64062 1.99805V2.21484H4.42578C5.39844 2.21484 6.06641 2.4375 6.80469 3.16992L10.0859 6.43359C10.8301 7.17188 11.0586 7.85742 11.0586 8.8125V12.3281ZM9.89844 3.76172H13.0391C13.0215 3.55078 12.8574 3.35742 12.6172 3.11719L10.2031 0.673828C9.98047 0.445312 9.78125 0.28125 9.57031 0.263672L9.57617 3.43945C9.57617 3.66211 9.66992 3.76172 9.89844 3.76172ZM2.48633 15.2812H8.16992C9.46484 15.2812 10.1562 14.584 10.1562 13.2832V8.70117H5.69141C4.95312 8.70117 4.57227 8.32617 4.57227 7.58203V3.08203H2.48633C1.19141 3.08203 0.5 3.7793 0.5 5.08008V13.2832C0.5 14.584 1.19141 15.2812 2.48633 15.2812ZM5.80859 7.79883H9.875C9.82812 7.5293 9.62891 7.27734 9.31836 6.9668L6.30078 3.91406C6.00781 3.61523 5.75 3.41016 5.48047 3.36328V7.46484C5.48047 7.6875 5.58594 7.79883 5.80859 7.79883Z" class="fill-color"/>
</svg>
