<?xml version="1.0" encoding="UTF-8"?>
<svg width="24px" height="24px" viewBox="0 0 24 24" version="1.1" xmlns="http://www.w3.org/2000/svg" xmlns:xlink="http://www.w3.org/1999/xlink">
    <!-- Generator: Sketch 52.5 (67469) - http://www.bohemiancoding.com/sketch -->
    <desc>Created with Sketch.</desc>
    <g id="icon/edit" stroke="none" stroke-width="1" fill="none" fill-rule="evenodd">
        <g>
            <rect id="Rectangle-7" x="0" y="0" width="24" height="24"></rect>
            <g id="edit" transform="translate(4.000000, 4.000000)" class="fill-color">
                <g id="Group" transform="translate(0.023083, 0.024814)">
                    <path d="M0.0243598699,14.34048 C-0.0479177813,14.6004158 0.103187628,14.7515212 0.363124055,14.6792438 C1.52478768,14.3571457 2.44646702,14.0982316 3.51415213,13.80432 L12.404853,4.91363434 L9.78993446,2.29872017 L0.8992121,11.1894275 C0.572772264,12.3722587 0.333397137,13.2290664 0.0243598699,14.34048 Z M10.2934813,1.79517476 L10.6712141,2.17290691 L12.5307177,4.03240703 L12.9083999,4.41008834 L14.5383314,2.78015949 C14.7504965,2.56799471 14.7528944,2.22873635 14.5436431,2.01948543 L12.6841395,0.159985313 C12.4748883,-0.0492661919 12.1355785,-0.0469191753 11.9234131,0.165245898 L10.2934813,1.79517476 Z M3.02906402,13.3019708 L1.55316757,13.6974765 L0.987435771,13.1317459 L1.38294231,11.6558518 L3.02906402,13.3019708 Z" id="Shape"></path>
                </g>
            </g>
        </g>
    </g>
</svg>