<svg width="12" height="12" viewBox="0 0 12 12" fill="none" xmlns="http://www.w3.org/2000/svg">
<path d="M5.99999 11.8337C9.19117 11.8337 11.8333 9.18578 11.8333 6.00033C11.8333 2.80915 9.18545 0.166992 5.99427 0.166992C2.80881 0.166992 0.166656 2.80915 0.166656 6.00033C0.166656 9.18578 2.81453 11.8337 5.99999 11.8337ZM5.87417 7.22418C5.57107 7.22418 5.3995 7.06405 5.3995 6.75523V6.68088C5.3995 6.09755 5.71976 5.78872 6.14296 5.49134C6.65767 5.13104 6.90358 4.9366 6.90358 4.53627C6.90358 4.0902 6.55473 3.78709 6.02287 3.78709C5.62826 3.78709 5.34803 3.98153 5.15358 4.3018C4.95914 4.52484 4.90767 4.70212 4.57025 4.70212C4.37581 4.70212 4.15849 4.55915 4.15849 4.29608C4.15849 4.19886 4.18708 4.09591 4.21568 4.00441C4.37581 3.46111 5.03921 2.98644 6.05718 2.98644C7.06372 2.98644 7.93872 3.50686 7.93872 4.49052C7.93872 5.19967 7.52695 5.54281 6.95506 5.92026C6.54329 6.18905 6.35457 6.40065 6.35457 6.73235V6.80098C6.35457 7.03546 6.17156 7.22418 5.87417 7.22418ZM5.86274 8.9799C5.5196 8.9799 5.22221 8.70539 5.22221 8.36797C5.22221 8.03055 5.51388 7.75033 5.86274 7.75033C6.21159 7.75033 6.50326 8.02484 6.50326 8.36797C6.50326 8.71111 6.20587 8.9799 5.86274 8.9799Z" fill="#CF1322"/>
</svg>
