<?xml version="1.0" encoding="UTF-8"?>
<svg width="24px" height="24px" viewBox="0 0 24 24" version="1.1" xmlns="http://www.w3.org/2000/svg" xmlns:xlink="http://www.w3.org/1999/xlink">
    <!-- Generator: Sketch 53.2 (72643) - https://sketchapp.com -->
    <desc>Created with Sketch.</desc>
    <g id="icon/export" stroke="none" stroke-width="1" fill="none" fill-rule="evenodd">
        <g id="icon/download" transform="translate(12.000000, 12.000000) rotate(-180.000000) translate(-12.000000, -12.000000) translate(0.000000, -0.000000)">
            <polygon id="Shape" points="0 0 24 0 24 24 0 24"></polygon>
            <path d="M7.00002176,15.9693437 C6.99630884,16.553865 7.46822252,17.0234141 8.05713895,17.0180831 L15.0673211,16.9546258 C16.1971438,16.9534494 16.1989079,15.2593143 15.0690852,15.2604908 L10.3488766,15.2674242 C10.1165291,15.2677656 10.0633381,15.1328784 10.2283298,14.9678867 L16.7493585,8.44685795 C17.0813426,8.11487385 17.0848452,7.58012385 16.7520351,7.24731375 C16.4215292,6.91680786 15.8850529,6.91742822 15.5524909,7.24999028 L9.03146215,13.771019 C8.86569079,13.9367903 8.73158431,13.8821098 8.73192453,13.6504722 L8.73885797,8.93026357 C8.74033368,7.80074007 7.04589946,7.80220501 7.04472297,8.93202772 L7.00002176,15.9693437 Z" id="Path" fill="#000000" class="fill-color" transform="translate(12.000000, 12.009064) rotate(-360.000000) translate(-12.000000, -12.009064) "></path>
        </g>
    </g>
</svg>