<svg width="24" height="24" viewBox="0 0 24 24" fill="none" xmlns="http://www.w3.org/2000/svg">
<path fill-rule="evenodd" clip-rule="evenodd" d="M20 12C20 16.4183 16.4183 20 12 20C7.58172 20 4 16.4183 4 12C4 7.58172 7.58172 4 12 4C16.4183 4 20 7.58172 20 12ZM9.1654 14.8357C8.94342 14.6137 8.94777 14.2307 9.16104 14.0218L11.1806 12.0022L9.16104 9.98259C8.94777 9.76931 8.94342 9.38629 9.1654 9.16431C9.38738 8.94233 9.7704 8.95103 9.97933 9.15996L11.9989 11.1795L14.0185 9.16431C14.2361 8.94668 14.6104 8.94233 14.8324 9.16866C15.0544 9.39064 15.0544 9.76496 14.8368 9.98259L12.8215 12.0022L14.8368 14.0174C15.0544 14.235 15.0544 14.6094 14.8324 14.8313C14.6104 15.0577 14.2361 15.0533 14.0185 14.8357L11.9989 12.8205L9.97933 14.84C9.7704 15.049 9.38738 15.0577 9.1654 14.8357Z" class="fill-color"/>
</svg>
