<?xml version="1.0" encoding="UTF-8"?>
<svg width="24px" height="24px" viewBox="0 0 24 24" version="1.1" xmlns="http://www.w3.org/2000/svg" xmlns:xlink="http://www.w3.org/1999/xlink">
    <!-- Generator: Sketch 52.5 (67469) - http://www.bohemiancoding.com/sketch -->
    <desc>Created with Sketch.</desc>
    <g id="icon/filter" stroke="none" stroke-width="1" fill="none" fill-rule="evenodd">
        <g id="Shape">
            <polygon points="0 0 24 0 24 24 0 24"></polygon>
            <path d="M18.3673469,10.1074412 L18.3673469,5 L17.0612245,5 L17.0612245,10.1074412 L16.4285714,10.1074412 C15.8762867,10.1074412 15.4285714,10.5551564 15.4285714,11.1074412 L15.4285714,13.0798954 C15.4285714,13.6321802 15.8762867,14.0798954 16.4285714,14.0798954 L17.0612245,14.0798954 L17.0612245,18.7142857 L18.3673469,18.7142857 L18.3673469,14.0798954 L19,14.0798954 C19.5522847,14.0798954 20,13.6321802 20,13.0798954 L20,11.1074412 C20,10.5551564 19.5522847,10.1074412 19,10.1074412 L18.3673469,10.1074412 Z M12.6530612,5 L11.3469388,5 L11.3469388,7.08066969 L10.7142857,7.08066969 C10.162001,7.08066969 9.71428571,7.52838494 9.71428571,8.08066969 L9.71428571,10.0531239 C9.71428571,10.6054087 10.162001,11.0531239 10.7142857,11.0531239 L11.3469388,11.0531239 L11.3469388,18.7142857 L12.6530612,18.7142857 L12.6530612,11.0531239 L13.2857143,11.0531239 C13.837999,11.0531239 14.2857143,10.6054087 14.2857143,10.0531239 L14.2857143,8.08066969 C14.2857143,7.52838494 13.837999,7.08066969 13.2857143,7.08066969 L12.6530612,7.08066969 L12.6530612,5 Z M6.93877551,12.6461632 L6.93877551,5 L5.63265306,5 L5.63265306,12.6461632 L5,12.6461632 C4.44771525,12.6461632 4,13.0938784 4,13.6461632 L4,15.6108404 C4,16.1631251 4.44771525,16.6108404 5,16.6108404 L5.63265306,16.6108404 L5.63265306,18.7084796 L6.93877551,18.7142857 L6.93877551,16.6108404 L7.57142857,16.6108404 C8.12371332,16.6108404 8.57142857,16.1631251 8.57142857,15.6108404 L8.57142857,13.6461632 C8.57142857,13.0938784 8.12371332,12.6461632 7.57142857,12.6461632 L6.93877551,12.6461632 Z" class="fill-color"></path>
        </g>
    </g>
</svg>