<svg width="12" height="12" viewBox="0 0 12 12" fill="none" xmlns="http://www.w3.org/2000/svg">
<path d="M7.78925 5.46225H10.755C11.5828 5.46225 12 5.04508 12 4.18468V1.27105C12 0.410646 11.5828 0 10.755 0H7.78925C6.95492 0 6.53775 0.410646 6.53775 1.27105V4.18468C6.53775 5.04508 6.95492 5.46225 7.78925 5.46225ZM1.24498 5.46225H4.21727C5.04508 5.46225 5.46225 5.04508 5.46225 4.18468V1.27105C5.46225 0.410646 5.04508 0 4.21727 0H1.24498C0.417165 0 0 0.410646 0 1.27105V4.18468C0 5.04508 0.417165 5.46225 1.24498 5.46225ZM1.24498 12H4.21727C5.04508 12 5.46225 11.5894 5.46225 10.729V7.8088C5.46225 6.95492 5.04508 6.53775 4.21727 6.53775H1.24498C0.417165 6.53775 0 6.95492 0 7.8088V10.729C0 11.5894 0.417165 12 1.24498 12ZM7.78925 12H10.755C11.5828 12 12 11.5894 12 10.729V7.8088C12 6.95492 11.5828 6.53775 10.755 6.53775H7.78925C6.95492 6.53775 6.53775 6.95492 6.53775 7.8088V10.729C6.53775 11.5894 6.95492 12 7.78925 12Z" class="fill-color"/>
</svg>
