<?xml version="1.0" encoding="UTF-8"?>
<svg width="24px" height="24px" viewBox="0 0 24 24" version="1.1" xmlns="http://www.w3.org/2000/svg" xmlns:xlink="http://www.w3.org/1999/xlink">
    <!-- Generator: Sketch 52.5 (67469) - http://www.bohemiancoding.com/sketch -->
    <desc>Created with Sketch.</desc>
    <g id="icon/handler" stroke="none" stroke-width="1" fill="none" fill-rule="evenodd">
        <g>
            <polygon id="Shape" points="0 0 24 0 24 24 0 24"></polygon>
            <path d="M10.5,9 C9.675,9 9,8.325 9,7.5 C9,6.675 9.675,6 10.5,6 C11.325,6 12,6.675 12,7.5 C12,8.325 11.325,9 10.5,9 Z M10.5,11 C11.325,11 12,11.675 12,12.5 C12,13.325 11.325,14 10.5,14 C9.675,14 9,13.325 9,12.5 C9,11.675 9.675,11 10.5,11 Z M10.5,16 C11.325,16 12,16.675 12,17.5 C12,18.325 11.325,19 10.5,19 C9.675,19 9,18.325 9,17.5 C9,16.675 9.675,16 10.5,16 Z M5.5,9 C4.675,9 4,8.325 4,7.5 C4,6.675 4.675,6 5.5,6 C6.325,6 7,6.675 7,7.5 C7,8.325 6.325,9 5.5,9 Z M5.5,11 C6.325,11 7,11.675 7,12.5 C7,13.325 6.325,14 5.5,14 C4.675,14 4,13.325 4,12.5 C4,11.675 4.675,11 5.5,11 Z M5.5,16 C6.325,16 7,16.675 7,17.5 C7,18.325 6.325,19 5.5,19 C4.675,19 4,18.325 4,17.5 C4,16.675 4.675,16 5.5,16 Z" id="Combined-Shape" class="fill-color"></path>
        </g>
    </g>
</svg>