<svg width="16" height="16" viewBox="0 0 16 16" fill="none" xmlns="http://www.w3.org/2000/svg">
    <path d="M11.3125 4.6875H4.6875V11.3125H11.3125V4.6875Z" fill="red" class="fill-color"/>
    <path fill-rule="evenodd" clip-rule="evenodd" d="M16 6.125C16 6.38391 15.7902 6.59375 15.5312 6.59375H14.125V7.53125H15.5312C15.7902 7.53125 16 7.74109 16 8C16 8.25891 15.7902 8.46875 15.5312 8.46875H14.125V9.40625H15.5312C15.7902 9.40625 16 9.61609 16 9.875C16 10.1339 15.7902 10.3438 15.5312 10.3438H14.125V11.2812H15.5312C15.7902 11.2812 16 11.4911 16 11.75C16 12.0089 15.7902 12.2188 15.5312 12.2188H14.125V13.0312C14.125 13.6344 13.6344 14.125 13.0312 14.125H12.2188V15.5312C12.2188 15.7902 12.0089 16 11.75 16C11.4911 16 11.2812 15.7902 11.2812 15.5312V14.125H10.3438V15.5312C10.3438 15.7902 10.1339 16 9.875 16C9.61609 16 9.40625 15.7902 9.40625 15.5312V14.125H8.46875V15.5312C8.46875 15.7902 8.25891 16 8 16C7.74109 16 7.53125 15.7902 7.53125 15.5312V14.125H6.59375V15.5312C6.59375 15.7902 6.38391 16 6.125 16C5.86609 16 5.65625 15.7902 5.65625 15.5312V14.125H4.71875V15.5312C4.71875 15.7902 4.50891 16 4.25 16C3.99109 16 3.78125 15.7902 3.78125 15.5312V14.125H2.96875C2.3656 14.125 1.875 13.6344 1.875 13.0312V12.2188H0.46875C0.209839 12.2188 0 12.0089 0 11.75C0 11.4911 0.209839 11.2812 0.46875 11.2812H1.875V10.3438H0.46875C0.209839 10.3438 0 10.1339 0 9.875C0 9.61609 0.209839 9.40625 0.46875 9.40625H1.875V8.46875H0.46875C0.209839 8.46875 0 8.25891 0 8C0 7.74109 0.209839 7.53125 0.46875 7.53125H1.875V6.59375H0.46875C0.209839 6.59375 0 6.38391 0 6.125C0 5.86609 0.209839 5.65625 0.46875 5.65625H1.875V4.71875H0.46875C0.209839 4.71875 0 4.50891 0 4.25C0 3.99109 0.209839 3.78125 0.46875 3.78125H1.875V2.96875C1.875 2.3656 2.3656 1.875 2.96875 1.875H3.78125V0.46875C3.78125 0.209839 3.99109 0 4.25 0C4.50891 0 4.71875 0.209839 4.71875 0.46875V1.875H5.65625V0.46875C5.65625 0.209839 5.86609 0 6.125 0C6.38391 0 6.59375 0.209839 6.59375 0.46875V1.875H7.53125V0.46875C7.53125 0.209839 7.74109 0 8 0C8.25891 0 8.46875 0.209839 8.46875 0.46875V1.875H9.40625V0.46875C9.40625 0.209839 9.61609 0 9.875 0C10.1339 0 10.3438 0.209839 10.3438 0.46875V1.875H11.2812V0.46875C11.2812 0.209839 11.4911 0 11.75 0C12.0089 0 12.2188 0.209839 12.2188 0.46875V1.875H13.0312C13.6344 1.875 14.125 2.3656 14.125 2.96875V3.78125H15.5312C15.7902 3.78125 16 3.99109 16 4.25C16 4.50891 15.7902 4.71875 15.5312 4.71875H14.125V5.65625H15.5312C15.7902 5.65625 16 5.86609 16 6.125ZM11.7812 12.25C12.0402 12.25 12.25 12.0402 12.25 11.7812V4.21875C12.25 3.95984 12.0402 3.75 11.7812 3.75H4.21875C3.95984 3.75 3.75 3.95984 3.75 4.21875V11.7812C3.75 12.0402 3.95984 12.25 4.21875 12.25H11.7812Z" class="fill-color"/>
</svg>
