<?xml version="1.0" encoding="UTF-8"?>
<svg width="24px" height="24px" viewBox="0 0 24 24" version="1.1" xmlns="http://www.w3.org/2000/svg" xmlns:xlink="http://www.w3.org/1999/xlink">
    <!-- Generator: Sketch 52.5 (67469) - http://www.bohemiancoding.com/sketch -->
    <desc>Created with Sketch.</desc>
    <g id="icon/import" stroke="none" stroke-width="1" fill="none" fill-rule="evenodd">
        <g id="icon/download" transform="translate(12.000000, 12.000000) rotate(-180.000000) translate(-12.000000, -12.000000) translate(0.000000, -0.000000)">
            <polygon id="Shape" points="0 0 24 0 24 24 0 24"></polygon>
            <path d="M18.9544106,21 L5.04558942,21 C3.91712373,21 3,20.0821206 3,18.9518859 L3,5.04811413 C3,3.91581063 3.91659972,3 5.04811413,3 L18.9518859,3 C20.0841894,3 21,3.91659972 21,5.04811413 L21,18.9518859 C21,20.0838131 20.0849059,21 18.9544106,21 Z M7.15294732,15.9470073 C7.14936499,16.5109699 7.60468051,16.964004 8.17288357,16.9588605 L14.9365035,16.8976351 C16.0265881,16.8965 16.0282902,15.2619511 14.9382056,15.2630863 L10.3840162,15.2697758 C10.1598409,15.2701051 10.1085206,15.1399622 10.2677093,14.9807736 L16.5593803,8.68910254 C16.8796879,8.368795 16.8830672,7.85285322 16.5619627,7.53174873 C16.2430814,7.2128674 15.7254741,7.21346594 15.4046089,7.53433111 L9.11293786,13.8260021 C8.95299702,13.9859429 8.82360734,13.9331857 8.82393559,13.7096952 L8.83062517,9.15550582 C8.83204897,8.06570993 7.1972114,8.06712334 7.1960763,9.15720792 L7.15294732,15.9470073 Z" id="Shape" class="fill-color" transform="translate(12.000000, 12.000000) rotate(-180.000000) translate(-12.000000, -12.000000) "></path>
        </g>
    </g>
</svg>