<?xml version="1.0" encoding="UTF-8"?>
<svg width="24px" height="24px" viewBox="0 0 24 24" version="1.1" xmlns="http://www.w3.org/2000/svg" xmlns:xlink="http://www.w3.org/1999/xlink">
    <!-- Generator: Sketch 53.2 (72643) - https://sketchapp.com -->
    <desc>Created with Sketch.</desc>
    <g id="icon/import" stroke="none" stroke-width="1" fill="none" fill-rule="evenodd">
        <g id="icon/download" transform="translate(12.000000, 12.000000) rotate(-180.000000) translate(-12.000000, -12.000000) translate(0.000000, -0.000000)">
            <polygon id="Shape" points="0 0 24 0 24 24 0 24"></polygon>
            <path d="M16.9999782,8.04878441 L16.955277,15.0861003 C16.9541005,16.2159231 15.2596663,16.217388 15.261142,15.0878645 L15.2680755,10.3676559 C15.2684157,10.1360182 15.1343092,10.0813378 14.9685379,10.2471091 L8.44750914,16.7681378 C8.11494708,17.1006998 7.57847083,17.1013202 7.24796494,16.7708143 C6.91515485,16.4380042 6.91865737,15.9032542 7.25064147,15.5712701 L13.7716702,9.0502414 C13.9366619,8.88524967 13.8834709,8.75036251 13.6511234,8.75070383 L8.9309148,8.75763723 C7.80109209,8.75881376 7.8028562,7.06467872 8.93267891,7.06350223 L15.9428611,7.00004495 C16.5317775,6.99471399 17.0036912,7.46426308 16.9999782,8.04878441 Z" id="Path" class="fill-color"></path>
        </g>
    </g>
</svg>