<svg width="24" height="24" viewBox="0 0 24 24" fill="none" xmlns="http://www.w3.org/2000/svg">
<path d="M12.0148 11.3908L18.9897 7.53853C18.8657 7.4145 18.7125 7.31236 18.5228 7.21021L13.4375 4.38668C12.9706 4.13133 12.4964 4 12.0221 4C11.5406 4 11.0591 4.13133 10.5994 4.38668L5.50684 7.21021C5.32444 7.31236 5.17123 7.4145 5.0472 7.53853L12.0148 11.3908ZM11.453 20V12.4049L4.54378 8.54537C4.51459 8.6767 4.5 8.80803 4.5 8.97583V14.9293C4.5 15.9508 4.8575 16.3885 5.5871 16.7971L11.1831 19.8979C11.2706 19.9489 11.3582 19.9854 11.453 20ZM12.5839 20C12.6715 19.9854 12.759 19.9489 12.8466 19.8979L18.4425 16.7971C19.1721 16.3885 19.5296 15.9508 19.5296 14.9293V8.97583C19.5296 8.80803 19.5223 8.6767 19.4932 8.54537L12.5839 12.4049V20Z" class="fill-color"/>
</svg>
