<?xml version="1.0" encoding="UTF-8"?>
<svg width="24px" height="24px" viewBox="0 0 24 24" version="1.1" xmlns="http://www.w3.org/2000/svg" xmlns:xlink="http://www.w3.org/1999/xlink">
    <!-- Generator: Sketch 55.2 (78181) - https://sketchapp.com -->
    <desc>Created with Sketch.</desc>
    <g id="icon/keep-content" stroke="none" stroke-width="1" fill="none" fill-rule="evenodd">
        <g>
            <polygon id="Shape" points="0 -1.42108547e-14 24 -1.42108547e-14 24 24 0 24"></polygon>
            <path d="M13.1441465,9.46820295 C12.8968799,8.90226999 12.7597101,8.27722634 12.7597101,7.62014497 C12.7597101,5.06850936 14.8282194,3 17.379855,3 C19.9314906,3 22,5.06850936 22,7.62014497 C22,10.1717806 19.9314906,12.2402899 17.379855,12.2402899 C17.0484316,12.2402899 16.7251587,12.205393 16.4135104,12.1390733 L18.2570629,15.3425152 C18.4903085,15.6093607 18.6325219,15.9574709 18.6325219,16.3387904 L18.6325219,18.74333 C18.6325219,19.5802012 17.9521245,20.2607939 17.1154487,20.2607939 L3.51765926,20.2607939 C2.68078807,20.2607939 2,19.5802012 2,18.74333 L2,16.3387904 C2,15.9570802 2.14279945,15.6087746 2.37624041,15.3419291 L5.43148444,10.033345 C5.43812627,10.0181078 5.4455495,10.003066 5.45414481,9.98821955 C5.64128828,9.667458 5.98783578,9.46820295 6.35919249,9.46820295 L13.1441465,9.46820295 Z M14.8609469,9.64874985 C14.9892331,9.73554231 15.0987786,9.85086377 15.1789631,9.98861025 C15.1794994,9.98952067 15.1800309,9.99043268 15.1805578,9.99134628 C15.757636,10.5268378 16.5305103,10.8542464 17.379855,10.8542464 C19.166,10.8542464 20.6139565,9.40628989 20.6139565,7.62014497 C20.6139565,5.83400004 19.166,4.38604349 17.379855,4.38604349 C15.5937101,4.38604349 14.1457536,5.83400004 14.1457536,7.62014497 C14.1457536,8.38832821 14.413579,9.09395748 14.8609469,9.64874985 Z M16.5733577,17.5411579 C16.5733577,17.7568221 16.3983258,17.931854 16.1826616,17.931854 L13.1410919,17.931854 C12.9252323,17.931854 12.7503957,17.7568221 12.7503957,17.5411579 C12.7503957,17.3254936 12.9252323,17.1504617 13.1410919,17.1504617 L16.1826616,17.1504617 C16.3983258,17.1504617 16.5733577,17.3254936 16.5733577,17.5411579 Z M17.8511295,18.74333 L17.8511295,16.3387904 C17.8511295,15.9330524 17.5211866,15.6027188 17.1154487,15.6027188 L3.51765926,15.6027188 C3.11172594,15.6027188 2.78139233,15.9330524 2.78139233,16.3387904 L2.78139233,18.74333 C2.78139233,19.1490679 3.11172594,19.4794015 3.51765926,19.4794015 L17.1154487,19.4794015 C17.5211866,19.4794015 17.8511295,19.1490679 17.8511295,18.74333 Z M19.3034291,8.62146861 L18.7748057,9.3793518 L16.8254376,8.01966802 L16.8254376,5.38434837 L17.7494666,5.38434837 L17.7494666,7.53758017 L19.3034291,8.62146861 Z" id="Combined-Shape" class="fill-color"></path>
        </g>
    </g>
</svg>