<?xml version="1.0" encoding="UTF-8"?>
<svg width="24px" height="24px" viewBox="0 0 24 24" version="1.1" xmlns="http://www.w3.org/2000/svg" xmlns:xlink="http://www.w3.org/1999/xlink">
    <!-- Generator: Sketch 54.1 (76490) - https://sketchapp.com -->
    <desc>Created with Sketch.</desc>
    <g id="icon/key-validity" stroke="none" stroke-width="1" fill="none" fill-rule="evenodd">
        <g>
            <polygon id="Shape" points="0 0 24 0 24 24 0 24"></polygon>
            <path d="M11.3967914,14.044658 L10.64,13.2878667 C10.6101333,13.258 10.5616,13.258 10.5317333,13.2878667 L9.62524444,14.1943556 C9.5952,14.2244 9.57084444,14.2828889 9.57102222,14.3250222 L9.57084444,15.5641333 C9.57084444,15.7122222 9.45102222,15.8322222 9.30293333,15.8322222 L8.06382222,15.8324 C8.02151111,15.8324 7.9872,15.8667111 7.98737778,15.9088444 L7.9872,17.1479556 C7.9872,17.2960444 7.8672,17.4160444 7.71911111,17.4160444 L6.48017778,17.4162222 C6.43768889,17.4162222 6.40355556,17.4505333 6.40355556,17.4926667 L6.4032,18.7319556 C6.4032,18.8798667 6.28337778,18.9998667 6.13528889,18.9998667 L3.26808889,18.9998667 C3.12,18.9998667 3,18.8798667 3,18.7317778 L3,17.2910667 C3,17.2192444 3.02826667,17.154 3.07413333,17.1058222 L8.712,11.4681333 C8.74186667,11.4382667 8.74186667,11.3897333 8.712,11.3600444 L7.67484444,10.3230667 C7.6272,10.2747111 7.59786667,10.2084 7.59786667,10.1351556 C7.59786667,10.0318667 7.65617778,9.94244444 7.74151111,9.89764444 L9.48746667,9.02457778 C9.52533333,9.00573333 9.54737778,8.9572 9.53777778,8.91613333 C9.16355556,7.34795556 9.58364444,5.62902222 10.8071111,4.40573333 C12.6812444,2.53142222 15.7203556,2.53142222 17.5946667,4.40573333 C19.4686222,6.27986667 19.4686222,9.31862222 17.5943111,11.1924 C17.5773867,11.209322 17.5603676,11.2260902 17.5432557,11.2427048 C19.5494375,11.8930441 21,13.7771235 21,16 C21,18.7614237 18.7614237,21 16,21 C13.2385763,21 11,18.7614237 11,16 C11,15.3061353 11.1413368,14.6452816 11.3967914,14.044658 Z M16.3210667,7.4116 C16.7992889,6.93302222 16.7998222,6.15755556 16.3210667,5.6788 C15.8428444,5.20022222 15.0666667,5.2004 14.5884444,5.6788 C14.1098667,6.15737778 14.1098667,6.93302222 14.5886222,7.41177778 C15.0670222,7.89035556 15.8428444,7.89017778 16.3210667,7.4116 Z M18.0817248,17.0836496 L17.5096395,17.9038438 L15.4,16.4323707 L15.4,13.5803826 L16.4,13.5803826 L16.4,15.910647 L18.0817248,17.0836496 Z M16,19.5 C17.9329966,19.5 19.5,17.9329966 19.5,16 C19.5,14.0670034 17.9329966,12.5 16,12.5 C14.0670034,12.5 12.5,14.0670034 12.5,16 C12.5,17.9329966 14.0670034,19.5 16,19.5 Z" id="Combined-Shape" class="fill-color"></path>
        </g>
    </g>
</svg>