<?xml version="1.0" encoding="UTF-8"?>
<svg width="24px" height="24px" viewBox="0 0 24 24" version="1.1" xmlns="http://www.w3.org/2000/svg" xmlns:xlink="http://www.w3.org/1999/xlink">
    <!-- Generator: Sketch 52.5 (67469) - http://www.bohemiancoding.com/sketch -->
    <desc>Created with Sketch.</desc>
    <g id="icon/key" stroke="none" stroke-width="1" fill="none" fill-rule="evenodd">
        <g id="Shape">
            <polygon points="0 0 24 0 24 24 0 24"></polygon>
            <path d="M18.5946667,5.40586667 C16.7203556,3.53155556 13.6812444,3.53155556 11.8071111,5.40586667 C10.5836444,6.62915556 10.1635556,8.34808889 10.5377778,9.91626667 C10.5473778,9.95733333 10.5253333,10.0058667 10.4874667,10.0247111 L8.74151111,10.8977778 C8.65617778,10.9425778 8.59786667,11.032 8.59786667,11.1352889 C8.59786667,11.2085333 8.6272,11.2748444 8.67484444,11.3232 L9.712,12.3601778 C9.74186667,12.3898667 9.74186667,12.4384 9.712,12.4682667 L4.07413333,18.1059556 C4.02826667,18.1541333 4,18.2193778 4,18.2912 L4,19.7319111 C4,19.88 4.12,20 4.26808889,20 L7.13528889,20 C7.28337778,20 7.4032,19.88 7.4032,19.7320889 L7.40355556,18.4928 C7.40355556,18.4506667 7.43768889,18.4163556 7.48017778,18.4163556 L8.71911111,18.4161778 C8.8672,18.4161778 8.9872,18.2961778 8.9872,18.1480889 L8.98737778,16.9089778 C8.9872,16.8668444 9.02151111,16.8325333 9.06382222,16.8325333 L10.3029333,16.8323556 C10.4510222,16.8323556 10.5708444,16.7123556 10.5708444,16.5642667 L10.5710222,15.3251556 C10.5708444,15.2830222 10.5952,15.2245333 10.6252444,15.1944889 L11.5317333,14.288 C11.5616,14.2581333 11.6101333,14.2581333 11.64,14.288 L12.6833778,15.3313778 C12.7312,15.3754667 12.7946667,15.4023111 12.8648889,15.4021333 C12.968,15.4023111 13.0576,15.344 13.1024,15.2583111 L13.9752889,13.5121778 C13.9941333,13.4743111 14.0426667,13.4520889 14.0839111,13.4620444 C15.6519111,13.8360889 17.3704889,13.4161778 18.5943111,12.1925333 C20.4686222,10.3187556 20.4686222,7.28 18.5946667,5.40586667 Z M17.3210667,8.41173333 C16.8428444,8.89031111 16.0670222,8.89048889 15.5886222,8.41191111 C15.1098667,7.93315556 15.1098667,7.15751111 15.5884444,6.67893333 C16.0666667,6.20053333 16.8428444,6.20035556 17.3210667,6.67893333 C17.7998222,7.15768889 17.7992889,7.93315556 17.3210667,8.41173333 Z" class="fill-color"></path>
        </g>
    </g>
</svg>