<?xml version="1.0" encoding="UTF-8"?>
<svg width="24px" height="24px" viewBox="0 0 24 24" version="1.1" xmlns="http://www.w3.org/2000/svg" xmlns:xlink="http://www.w3.org/1999/xlink">
    <!-- Generator: Sketch 52.5 (67469) - http://www.bohemiancoding.com/sketch -->
    <desc>Created with Sketch.</desc>
    <g id="icon/layout-equal" stroke="none" stroke-width="1" fill="none" fill-rule="evenodd">
        <g>
            <polygon id="Shape" points="0 0 24 0 24 24 0 24"></polygon>
            <path d="M1,7 L10,7 C10.5522847,7 11,7.44771525 11,8 L11,16.5 C11,17.0522847 10.5522847,17.5 10,17.5 L1,17.5 C0.44771525,17.5 6.76353751e-17,17.0522847 0,16.5 L0,8 C-6.76353751e-17,7.44771525 0.44771525,7 1,7 Z M14,7 L23,7 C23.5522847,7 24,7.44771525 24,8 L24,16.5 C24,17.0522847 23.5522847,17.5 23,17.5 L14,17.5 C13.4477153,17.5 13,17.0522847 13,16.5 L13,8 C13,7.44771525 13.4477153,7 14,7 Z" id="Combined-Shape" class="fill-color"></path>
        </g>
    </g>
</svg>