<?xml version="1.0" encoding="UTF-8"?>
<svg width="24px" height="24px" viewBox="0 0 24 24" version="1.1" xmlns="http://www.w3.org/2000/svg" xmlns:xlink="http://www.w3.org/1999/xlink">
    <!-- Generator: Sketch 52.5 (67469) - http://www.bohemiancoding.com/sketch -->
    <desc>Created with Sketch.</desc>
    <g id="icon/layout-left-max" stroke="none" stroke-width="1" fill="none" fill-rule="evenodd">
        <g>
            <polygon id="Shape" points="0 0 24 0 24 24 0 24"></polygon>
            <path d="M1,7 L14.5,7 C15.0522847,7 15.5,7.44771525 15.5,8 L15.5,16.5 C15.5,17.0522847 15.0522847,17.5 14.5,17.5 L1,17.5 C0.44771525,17.5 6.76353751e-17,17.0522847 0,16.5 L0,8 C-6.76353751e-17,7.44771525 0.44771525,7 1,7 Z M18.5,7 L23,7 C23.5522847,7 24,7.44771525 24,8 L24,16.5 C24,17.0522847 23.5522847,17.5 23,17.5 L18.5,17.5 C17.9477153,17.5 17.5,17.0522847 17.5,16.5 L17.5,8 C17.5,7.44771525 17.9477153,7 18.5,7 Z" id="Combined-Shape" class="fill-color" transform="translate(12.000000, 12.250000) rotate(-180.000000) translate(-12.000000, -12.250000) "></path>
        </g>
    </g>
</svg>