<?xml version="1.0" encoding="UTF-8"?>
<svg width="24px" height="24px" viewBox="0 0 24 24" version="1.1" xmlns="http://www.w3.org/2000/svg" xmlns:xlink="http://www.w3.org/1999/xlink">
    <!-- Generator: Sketch 57.1 (83088) - https://sketch.com -->
    <desc>Created with Sketch.</desc>
    <defs>
        <path d="M10.5,16.25 C10.5,16.7 10.2,17 9.75,17 L7.5,17 C5.025,17 3,14.975 3,12.5 C3,10.025 5.025,8 7.5,8 L9.75,8 C10.2,8 10.5,8.3 10.5,8.75 C10.5,9.2 10.2,9.5 9.75,9.5 L7.5,9.5 C5.85,9.5 4.5,10.85 4.5,12.5 C4.5,14.15 5.85,15.5 7.5,15.5 L9.75,15.5 C10.2,15.5 10.5,15.8 10.5,16.25 Z M16.5,8 L14.25,8 C13.8,8 13.5,8.3 13.5,8.75 C13.5,9.2 13.8,9.5 14.25,9.5 L16.5,9.5 C18.15,9.5 19.5,10.85 19.5,12.5 C19.5,14.15 18.15,15.5 16.5,15.5 L14.25,15.5 C13.8,15.5 13.5,15.8 13.5,16.25 C13.5,16.7 13.8,17 14.25,17 L16.5,17 C18.975,17 21,14.975 21,12.5 C21,10.025 18.975,8 16.5,8 Z M8.25,12.5 C8.25,12.95 8.55,13.25 9,13.25 L15,13.25 C15.45,13.25 15.75,12.95 15.75,12.5 C15.75,12.05 15.45,11.75 15,11.75 L9,11.75 C8.55,11.75 8.25,12.05 8.25,12.5 Z" id="path-link"></path>
    </defs>
    <g id="icon/link" stroke="none" stroke-width="1" fill="none" fill-rule="evenodd">
        <g id="icon/key">
            <use id="Mask" class="fill-color" transform="translate(12.000000, 12.500000) rotate(-45.000000) translate(-12.000000, -12.500000) " href="#path-link"></use>
        </g>
    </g>
</svg>