<svg width="14" height="12" viewBox="0 0 14 12" fill="none" xmlns="http://www.w3.org/2000/svg">
<path d="M1.10885 2.97418C1.71839 2.97418 2.21769 2.47487 2.21769 1.86533C2.21769 1.25579 1.71839 0.75 1.10885 0.75C0.499305 0.75 0 1.25579 0 1.86533C0 2.47487 0.499305 2.97418 1.10885 2.97418ZM4.48726 2.66941H13.1959C13.6434 2.66941 14 2.31276 14 1.86533C14 1.4179 13.6498 1.06126 13.1959 1.06126H4.48726C4.03983 1.06126 3.68319 1.41142 3.68319 1.86533C3.68319 2.31276 4.03335 2.66941 4.48726 2.66941ZM1.10885 7.07886C1.71839 7.07886 2.21769 6.57955 2.21769 5.97001C2.21769 5.36047 1.71839 4.86116 1.10885 4.86116C0.499305 4.86116 0 5.36047 0 5.97001C0 6.57955 0.499305 7.07886 1.10885 7.07886ZM4.48726 6.77409H13.1959C13.6434 6.77409 14 6.42392 14 5.97001C14 5.52258 13.6498 5.16593 13.1959 5.16593H4.48726C4.03983 5.16593 3.68319 5.5161 3.68319 5.97001C3.68319 6.41744 4.03335 6.77409 4.48726 6.77409ZM1.10885 11.19C1.71839 11.19 2.21769 10.6907 2.21769 10.0812C2.21769 9.47163 1.71839 8.96584 1.10885 8.96584C0.499305 8.96584 0 9.47163 0 10.0812C0 10.6907 0.499305 11.19 1.10885 11.19ZM4.48726 10.8852H13.1959C13.6434 10.8852 14 10.5286 14 10.0812C14 9.63374 13.6498 9.2771 13.1959 9.2771H4.48726C4.03983 9.2771 3.68319 9.62726 3.68319 10.0812C3.68319 10.5286 4.03335 10.8852 4.48726 10.8852Z" class="fill-color"/>
</svg>
