<?xml version="1.0" encoding="UTF-8"?>
<svg width="24px" height="24px" viewBox="0 0 24 24" version="1.1" xmlns="http://www.w3.org/2000/svg" xmlns:xlink="http://www.w3.org/1999/xlink">
    <!-- Generator: Sketch 52.5 (67469) - http://www.bohemiancoding.com/sketch -->
    <desc>Created with Sketch.</desc>
    <g id="icon/locked-timed" stroke="none" stroke-width="1" fill="none" fill-rule="evenodd">
        <g>
            <polygon id="Shape" points="0 0 24 0 24 24 0 24"></polygon>
            <path d="M12.6434121,5.45456414 C13.2944092,3.44951167 15.1779288,2 17.4,2 C20.1614237,2 22.4,4.23857625 22.4,7 C22.4,9.76142375 20.1614237,12 17.4,12 C16.6413692,12 15.9221995,11.8310467 15.2780657,11.5287147 C15.2782608,11.5383369 15.278359,11.5479897 15.278359,11.5576718 L15.278359,18.8645846 C15.278359,19.4751692 14.8870154,19.9748205 14.4073846,19.9748205 L3.87097436,19.9748205 C3.39134359,19.9748205 3,19.4751692 3,18.8645846 L3,11.5576718 C3,10.9463077 3.39134359,10.4512923 3.87097436,10.4512923 L4.18235897,10.4512923 L4.18235897,8.99438974 C4.18235897,6.29998974 6.32053333,4.0490359 8.99327179,4.00095385 C9.06617436,3.99968205 9.21218462,3.99968205 9.28508718,4.00095385 C10.5962635,4.02454274 11.7788374,4.5783301 12.6434121,5.45456414 Z M19.4817248,8.08364959 L18.9096395,8.90384376 L16.8,7.43237069 L16.8,4.58038263 L17.8,4.58038263 L17.8,6.91064696 L19.4817248,8.08364959 Z M10.1262769,15.2036615 C10.3716513,14.9620205 10.5145846,14.6280308 10.5145846,14.2586359 C10.5145846,13.5584923 9.97341538,12.9567282 9.28508718,12.9289949 C9.21218462,12.925959 9.06617436,12.925959 8.99327179,12.9289949 C8.30498462,12.9567282 7.76377436,13.5584923 7.76377436,14.2586359 C7.76377436,14.6280308 7.90674872,14.9620205 8.15208205,15.2036615 L8.15208205,17.4115385 C8.15208205,17.6644205 8.36377436,17.8782051 8.61682051,17.8782051 L9.66153846,17.8782051 C9.91458462,17.8782051 10.1262769,17.6644205 10.1262769,17.4115385 L10.1262769,15.2036615 Z M12.0443897,10.4512923 L12.0443897,8.99438974 C12.0443897,7.38942564 10.7398974,6.0621641 9.13911795,6.0621641 C7.53829744,6.0621641 6.23396923,7.38942564 6.23396923,8.99438974 L6.23396923,10.4512923 L12.0443897,10.4512923 Z M17.4,10.5 C19.3329966,10.5 20.9,8.93299662 20.9,7 C20.9,5.06700338 19.3329966,3.5 17.4,3.5 C15.4670034,3.5 13.9,5.06700338 13.9,7 C13.9,8.93299662 15.4670034,10.5 17.4,10.5 Z" id="Combined-Shape" class="fill-color"></path>
        </g>
    </g>
</svg>