<?xml version="1.0" encoding="UTF-8"?>
<svg width="24px" height="24px" viewBox="0 0 24 24" version="1.1" xmlns="http://www.w3.org/2000/svg" xmlns:xlink="http://www.w3.org/1999/xlink">
    <!-- Generator: Sketch 52.5 (67469) - http://www.bohemiancoding.com/sketch -->
    <desc>Created with Sketch.</desc>
    <g id="icon/locked" stroke="none" stroke-width="1" fill="none" fill-rule="evenodd">
        <g id="icon/lock">
            <polygon id="Shape" points="0 0 24 0 24 24 0 24"></polygon>
            <path d="M17.4073846,10.4512923 L17.096,10.4512923 L17.096,8.99438974 C17.096,6.29998974 14.9577026,4.0490359 12.2850872,4.00095385 C12.2121846,3.99968205 12.0661744,3.99968205 11.9932718,4.00095385 C9.32053333,4.0490359 7.18235897,6.29998974 7.18235897,8.99438974 L7.18235897,10.4512923 L6.87097436,10.4512923 C6.39134359,10.4512923 6,10.9463077 6,11.5576718 L6,18.8645846 C6,19.4751692 6.39134359,19.9748205 6.87097436,19.9748205 L17.4073846,19.9748205 C17.8870154,19.9748205 18.278359,19.4751692 18.278359,18.8645846 L18.278359,11.5576718 C18.278359,10.9463077 17.8870154,10.4512923 17.4073846,10.4512923 Z M13.1262769,15.2036615 L13.1262769,17.4115385 C13.1262769,17.6644205 12.9145846,17.8782051 12.6615385,17.8782051 L11.6168205,17.8782051 C11.3637744,17.8782051 11.1520821,17.6644205 11.1520821,17.4115385 L11.1520821,15.2036615 C10.9067487,14.9620205 10.7637744,14.6280308 10.7637744,14.2586359 C10.7637744,13.5584923 11.3049846,12.9567282 11.9932718,12.9289949 C12.0661744,12.925959 12.2121846,12.925959 12.2850872,12.9289949 C12.9734154,12.9567282 13.5145846,13.5584923 13.5145846,14.2586359 C13.5145846,14.6280308 13.3716513,14.9620205 13.1262769,15.2036615 Z M15.0443897,10.4512923 L9.23396923,10.4512923 L9.23396923,8.99438974 C9.23396923,7.38942564 10.5382974,6.0621641 12.1391179,6.0621641 C13.7398974,6.0621641 15.0443897,7.38942564 15.0443897,8.99438974 L15.0443897,10.4512923 Z" id="Fill-1" class="fill-color"></path>
        </g>
    </g>
</svg>