<?xml version="1.0" encoding="UTF-8"?>
<svg width="24px" height="24px" viewBox="0 0 24 24" version="1.1" xmlns="http://www.w3.org/2000/svg" xmlns:xlink="http://www.w3.org/1999/xlink">
    <!-- Generator: Sketch 52.5 (67469) - http://www.bohemiancoding.com/sketch -->
    <desc>Created with Sketch.</desc>
    <g id="icon/logout" stroke="none" stroke-width="1" fill="none" fill-rule="evenodd">
        <g id="icon/24px/grey/logout">
            <g id="icon/logout">
                <rect id="background" x="0" y="0" width="24" height="24"></rect>
                <path d="M9.00078944,7.28757233 L10.2343516,8.52113446 C10.35321,8.63999284 10.35321,8.834357 10.2343516,8.95321538 L8.36531256,10.8222544 L15.9689975,10.8222544 C16.1369888,10.8222544 16.2746333,10.9597183 16.2746333,11.1278902 L16.2746333,12.8722905 C16.2746333,13.0402818 16.1371695,13.1779263 15.9689975,13.1779263 L8.36531256,13.1779263 L10.2343516,15.0469653 C10.35321,15.1658237 10.35321,15.3601879 10.2343516,15.4790463 L9.00078944,16.7126084 C8.88193106,16.8314668 8.6875669,16.8314668 8.56870852,16.7126084 L4.08803658,12.2317558 C4.0246334,12.1683526 3.99609293,12.0834538 4.00042819,12 C3.99609293,11.9165463 4.0246334,11.8316474 4.08803658,11.7682443 L8.56870852,7.28757233 C8.6875669,7.16871394 8.88193106,7.16871394 9.00078944,7.28757233 Z M19.5177691,4.00000009 L12.4624946,4.00000009 C12.4624946,4.00000009 12.3671189,3.99945818 12.2889036,4.08291194 C12.2282099,4.14757957 12.2282099,4.23952321 12.2282099,4.23952321 L12.2282099,5.86325875 C12.2282099,5.86325875 12.2283906,5.93190037 12.2945033,6.00523852 C12.3629643,6.08110557 12.4509339,6.08110557 12.4509339,6.08110557 L17.7067142,6.08110557 L17.7067142,17.9188945 L12.4624946,17.9188945 C12.4624946,17.9188945 12.3671189,17.9183526 12.2889036,18.0018064 C12.2282099,18.066474 12.2282099,18.1584176 12.2282099,18.1584176 L12.2282099,19.7821532 C12.2282099,19.7821532 12.2283906,19.8507948 12.2945033,19.9241329 C12.3629643,20 12.4509339,20 12.4509339,20 L19.5224657,20 C19.6682388,20 19.7876391,19.8805997 19.7876391,19.7348266 L19.7876391,4.27005067 C19.7878197,4.12156801 19.6662518,4.00000009 19.5177691,4.00000009 Z" id="Shape" class="fill-color" transform="translate(11.893820, 12.000000) scale(-1, 1) translate(-11.893820, -12.000000) "></path>
            </g>
        </g>
    </g>
</svg>