<?xml version="1.0" encoding="UTF-8"?>
<svg width="24px" height="24px" viewBox="0 0 24 24" version="1.1" xmlns="http://www.w3.org/2000/svg" xmlns:xlink="http://www.w3.org/1999/xlink">
    <!-- Generator: Sketch 52.5 (67469) - http://www.bohemiancoding.com/sketch -->
    <desc>Created with Sketch.</desc>
    <g id="icon/logs" stroke="none" stroke-width="1" fill="none" fill-rule="evenodd">
        <g id="icon/grey/logs-inactive">
            <rect id="Rectangle-7" x="0" y="0" width="24" height="24"></rect>
            <g id="Group" transform="translate(5.000000, 4.000000)" class="fill-color">
                <path d="M1.5,1.5 L1.5,15.5 L12.5,15.5 L12.5,1.5 L1.5,1.5 Z M0,0 L14,0 L14,17 L0,17 L0,0 Z" id="Rectangle-8"></path>
                <polygon id="Line" points="3 4.75 3 3.25 11 3.25 11 4.75"></polygon>
                <polygon id="Line" points="3 10.75 3 9.25 10 9.25 10 10.75"></polygon>
                <polygon id="Line" points="3 13.75 3 12.25 9 12.25 9 13.75"></polygon>
                <polygon id="Line" points="3 7.75 3 6.25 7 6.25 7 7.75"></polygon>
            </g>
        </g>
    </g>
</svg>