<?xml version="1.0" encoding="UTF-8"?>
<svg width="24px" height="24px" viewBox="0 0 24 24" version="1.1" xmlns="http://www.w3.org/2000/svg" xmlns:xlink="http://www.w3.org/1999/xlink">
    <!-- Generator: Sketch 52.5 (67469) - http://www.bohemiancoding.com/sketch -->
    <desc>Created with Sketch.</desc>
    <g id="icon/more-vertical" stroke="none" stroke-width="1" fill="none" fill-rule="evenodd">
        <g id="Shape">
            <polygon points="0 0 24 0 24 24 0 24"></polygon>
            <path d="M12,8.5 C12.825,8.5 13.5,7.825 13.5,7 C13.5,6.175 12.825,5.5 12,5.5 C11.175,5.5 10.5,6.175 10.5,7 C10.5,7.825 11.175,8.5 12,8.5 Z M12,10.5 C11.175,10.5 10.5,11.175 10.5,12 C10.5,12.825 11.175,13.5 12,13.5 C12.825,13.5 13.5,12.825 13.5,12 C13.5,11.175 12.825,10.5 12,10.5 Z M12,15.5 C11.175,15.5 10.5,16.175 10.5,17 C10.5,17.825 11.175,18.5 12,18.5 C12.825,18.5 13.5,17.825 13.5,17 C13.5,16.175 12.825,15.5 12,15.5 Z" class="fill-color"></path>
        </g>
    </g>
</svg>