<?xml version="1.0" encoding="UTF-8"?>
<svg width="24px" height="24px" viewBox="0 0 24 24" version="1.1" xmlns="http://www.w3.org/2000/svg" xmlns:xlink="http://www.w3.org/1999/xlink">
    <!-- Generator: Sketch 52.5 (67469) - http://www.bohemiancoding.com/sketch -->
    <desc>Created with Sketch.</desc>
    <g id="icon/more-horizontal" stroke="none" stroke-width="1" fill="none" fill-rule="evenodd">
        <g id="Shape">
            <polygon points="0 0 24 0 24 24 0 24"></polygon>
            <path d="M15.5,12 C15.5,11.175 16.175,10.5 17,10.5 C17.825,10.5 18.5,11.175 18.5,12 C18.5,12.825 17.825,13.5 17,13.5 C16.175,13.5 15.5,12.825 15.5,12 Z M13.5,12 C13.5,12.825 12.825,13.5 12,13.5 C11.175,13.5 10.5,12.825 10.5,12 C10.5,11.175 11.175,10.5 12,10.5 C12.825,10.5 13.5,11.175 13.5,12 Z M8.5,12 C8.5,12.825 7.825,13.5 7,13.5 C6.175,13.5 5.5,12.825 5.5,12 C5.5,11.175 6.175,10.5 7,10.5 C7.825,10.5 8.5,11.175 8.5,12 Z" fill="fill-color"></path>
        </g>
    </g>
</svg>