<?xml version="1.0" encoding="UTF-8"?>
<svg width="24px" height="24px" viewBox="0 0 24 24" version="1.1" xmlns="http://www.w3.org/2000/svg" xmlns:xlink="http://www.w3.org/1999/xlink">
    <!-- Generator: Sketch 52.5 (67469) - http://www.bohemiancoding.com/sketch -->
    <desc>Created with Sketch.</desc>
    <g id="icon/morning-filled" stroke="none" stroke-width="1" fill="none" fill-rule="evenodd">
        <g>
            <polygon id="Shape" points="0 0 24 0 24 24 0 24"></polygon>
            <path d="M11.9971213,16.0906801 C9.77128852,16.0906801 7.96689457,14.2862861 7.96689457,12.0604534 C7.96689457,9.83462066 9.77128852,8.0302267 11.9971213,8.0302267 C14.222954,8.0302267 16.027348,9.83462066 16.027348,12.0604534 C16.027348,13.129336 15.602736,14.1544399 14.8469219,14.910254 C14.0911078,15.6660681 13.0660038,16.0906801 11.9971213,16.0906801 Z M11.9971213,20.0086362 C11.6791452,20.0086362 11.4213746,19.7508656 11.4213746,19.4328895 L11.4213746,18.3936668 C11.4213746,18.0756907 11.6791452,17.8179201 11.9971213,17.8179201 C12.3150974,17.8179201 12.5728679,18.0756907 12.5728679,18.3936668 L12.5728679,19.4242533 C12.575181,19.5784417 12.5155449,19.7271135 12.4073197,19.8369621 C12.2990945,19.9468106 12.1513269,20.0086535 11.9971213,20.0086362 Z M11.9971213,6.30298669 C11.6791452,6.30298669 11.4213746,6.04521612 11.4213746,5.72724001 L11.4213746,4.57574667 C11.4213746,4.25777057 11.6791452,4 11.9971213,4 C12.3150974,4 12.5728679,4.25777057 12.5728679,4.57574667 L12.5728679,5.72724001 C12.5728679,6.04521612 12.3150974,6.30298669 11.9971213,6.30298669 Z M19.4242533,12.6362001 L18.3303347,12.6362001 C18.0123585,12.6362001 17.754588,12.3784295 17.754588,12.0604534 C17.754588,11.7424773 18.0123585,11.4847067 18.3303347,11.4847067 L19.4242533,11.4847067 C19.7422294,11.4847067 20,11.7424773 20,12.0604534 C20,12.3784295 19.7422294,12.6362001 19.4242533,12.6362001 Z M5.66390788,12.6362001 L4.57574667,12.6362001 C4.25777057,12.6362001 4,12.3784295 4,12.0604534 C4,11.7424773 4.25777057,11.4847067 4.57574667,11.4847067 L5.66390788,11.4847067 C5.98188399,11.4847067 6.23965455,11.7424773 6.23965455,12.0604534 C6.23965455,12.3784295 5.98188399,12.6362001 5.66390788,12.6362001 Z M6.66858582,17.9071608 C6.43647027,17.9061863 6.22764151,17.7659228 6.1389465,17.5514192 C6.05025148,17.3369157 6.09903947,17.0901302 6.26268442,16.9255128 L7.05721483,16.1309824 C7.28456774,15.9068092 7.65060194,15.9093869 7.87477509,16.1367398 C8.09894824,16.3640928 8.09637054,16.730127 7.86901763,16.9543001 L7.07448723,17.7373156 C6.96700963,17.8454373 6.82103688,17.9065181 6.66858582,17.9071608 Z M16.4102195,8.20582944 C16.178104,8.20485488 15.9692752,8.06459134 15.8805802,7.85008779 C15.7918852,7.63558424 15.8406731,7.38879882 16.0043181,7.22418136 L16.8017272,6.42677222 C17.0266953,6.20180414 17.3914407,6.20180415 17.6164088,6.42677224 C17.8413769,6.65174033 17.8413769,7.01648566 17.6164088,7.24145376 L16.8161209,8.0302267 C16.7095939,8.14046432 16.5635024,8.20366703 16.4102195,8.20582944 Z M7.58402303,8.21446564 C7.43157198,8.21382287 7.28559922,8.15274208 7.17812163,8.04462037 L6.40086362,7.26736236 C6.17589552,7.04239427 6.17589552,6.67764892 6.40086362,6.45268082 C6.62583172,6.22771273 6.99057706,6.22771273 7.21554516,6.45268082 L7.99280317,7.22993883 C8.15888302,7.39465445 8.20880136,7.64347854 8.11910526,7.85950716 C8.02940917,8.07553579 7.81792879,8.21582591 7.58402303,8.21446564 Z M17.2076286,17.8639798 C17.0551776,17.8633371 16.9092048,17.8022563 16.8017272,17.6941346 L16.0532566,16.9543001 C15.9077277,16.8087713 15.8508922,16.5966584 15.9041595,16.3978623 C15.9574267,16.1990662 16.1127042,16.0437888 16.3115003,15.9905215 C16.5102964,15.9372542 16.7224093,15.9940897 16.8679381,16.1396186 L17.6164088,16.8880892 C17.7763773,17.0535655 17.8224261,17.2984124 17.7335041,17.5106981 C17.6445821,17.7229837 17.4377765,17.8619151 17.2076286,17.8639798 Z" id="Combined-Shape" class="fill-color"></path>
        </g>
    </g>
</svg>