<svg width="48" height="48" viewBox="0 0 48 48" fill="none" xmlns="http://www.w3.org/2000/svg">
<rect width="48" height="48" fill="white"/>
<g clip-path="url(#clip0_6361_83511)">
<path d="M4.13281 19.4645H7.33069C8.06222 19.4645 8.92447 20.1565 9.30897 20.5371L14.9196 26.8381V19.4645H16.8255V29.5246H13.489C12.8945 29.5044 12.311 29.3805 11.6308 28.7037L6.0295 22.3912V29.5246H4.13281V19.4645ZM43.8679 29.5932C41.5853 29.9087 39.2759 29.94 36.9618 29.7429C35.6072 29.6218 34.2802 29.3395 33.0642 28.6963C31.5288 27.8905 31.0397 26.0791 31.0602 24.4371C31.0772 22.9215 31.5222 21.3034 32.8573 20.4222C33.7325 19.8403 34.6672 19.6495 35.6605 19.4671C38.3717 18.983 41.0883 19.0922 43.7333 19.3859V20.821C40.614 20.207 37.319 20.3598 36.1994 21.8115C35.4998 22.7146 35.4002 23.6131 35.4002 24.3695C35.4002 25.7328 35.8606 27.801 38.5956 28.2029C40.3798 28.4681 42.1462 28.2669 43.8678 27.9492V29.5932H43.8679ZM24.3339 28.0285H30.3786V29.5316C27.4061 29.6475 24.55 29.698 21.5471 29.5716C18.999 29.4651 18.5601 28.1672 18.5108 26.9205V19.4643H30.2364V20.8967H22.6507V23.4579H29.5645V24.8559H22.6507C22.6507 25.6125 22.6753 26.4703 22.6825 26.6247C22.723 27.6 23.1696 27.9589 24.3337 28.0285" fill="#1414A0"/>
</g>
<defs>
<clipPath id="clip0_6361_83511">
<rect width="40" height="11" fill="white" transform="translate(4 19)"/>
</clipPath>
</defs>
</svg>
