<?xml version="1.0" encoding="UTF-8"?>
<svg width="24px" height="24px" viewBox="0 0 24 24" version="1.1" xmlns="http://www.w3.org/2000/svg" xmlns:xlink="http://www.w3.org/1999/xlink">
    <!-- Generator: Sketch 52.5 (67469) - http://www.bohemiancoding.com/sketch -->
    <desc>Created with Sketch.</desc>
    <g id="icon/night-filled" stroke="none" stroke-width="1" fill="none" fill-rule="evenodd">
        <g transform="translate(12.000000, 12.000000) rotate(-180.000000) translate(-12.000000, -12.000000) translate(0.000000, -0.000000)">
            <polygon id="Shape" points="0 0 24 0 24 24 0 24"></polygon>
            <path d="M9.61814192,6.89100219 C9.61814192,5.864911 9.82492075,4.88953914 10.1994635,4 C6.641307,4.86222872 4,8.06534991 4,11.8849061 C4,16.3638137 7.6361863,20 12.1150939,20 C15.9346501,20 19.1377713,17.358693 20,13.8005365 C19.1104609,14.1750792 18.1311875,14.3818581 17.1089978,14.3818581 C12.9734211,14.3818581 9.61814192,11.0265789 9.61814192,6.89100219 Z" id="Path" class="fill-color" transform="translate(12.000000, 12.000000) rotate(-180.000000) translate(-12.000000, -12.000000) "></path>
        </g>
    </g>
</svg>