<?xml version="1.0" encoding="UTF-8"?>
<svg width="24px" height="24px" viewBox="0 0 24 24" version="1.1" xmlns="http://www.w3.org/2000/svg" xmlns:xlink="http://www.w3.org/1999/xlink">
    <!-- Generator: Sketch 52.5 (67469) - http://www.bohemiancoding.com/sketch -->
    <desc>Created with Sketch.</desc>
    <g id="icon/night" stroke="none" stroke-width="1" fill="none" fill-rule="evenodd">
        <g transform="translate(12.000000, 12.000000) rotate(-180.000000) translate(-12.000000, -12.000000) translate(0.000000, -0.000000)">
            <polygon id="Shape" points="0 0 24 0 24 24 0 24"></polygon>
            <path d="M17.1089978,15.3818581 C12.4211364,15.3818581 8.61814192,11.5788636 8.61814192,6.89100219 C8.61814192,6.46794475 8.64923282,6.04929165 8.7104888,5.63740643 C6.47685091,6.85534297 5,9.22197469 5,11.8849061 C5,15.811529 8.18847105,19 12.1150939,19 C14.7781375,19 17.1448564,17.5230247 18.3627475,15.2892289 C17.9503356,15.3506439 17.5314322,15.3818581 17.1089978,15.3818581 Z M9.61814192,6.89100219 C9.61814192,11.0265789 12.9734211,14.3818581 17.1089978,14.3818581 C18.1311875,14.3818581 19.1104609,14.1750792 20,13.8005365 C19.1377713,17.358693 15.9346501,20 12.1150939,20 C7.6361863,20 4,16.3638137 4,11.8849061 C4,8.06534991 6.641307,4.86222872 10.1994635,4 C9.82492075,4.88953914 9.61814192,5.864911 9.61814192,6.89100219 Z" id="Path" class="fill-color" transform="translate(12.000000, 12.000000) rotate(-180.000000) translate(-12.000000, -12.000000) "></path>
        </g>
    </g>
</svg>