<?xml version="1.0" encoding="UTF-8"?>
<svg width="24px" height="24px" viewBox="0 0 24 24" version="1.1" xmlns="http://www.w3.org/2000/svg" xmlns:xlink="http://www.w3.org/1999/xlink">
    <!-- Generator: Sketch 52.5 (67469) - http://www.bohemiancoding.com/sketch -->
    <desc>Created with Sketch.</desc>
    <g id="icon/no-encryption" stroke="none" stroke-width="1" fill="none" fill-rule="evenodd">
        <g id="Shape">
            <polygon points="0 0 24 0 24 24 0 24"></polygon>
            <path d="M19.3272727,20.0018182 L5.59818182,6.27272727 L4.6,7.27090909 L6.26909091,8.94 C5.76181818,9.21818182 5.41818182,9.75 5.41818182,10.3636364 L5.41818182,18.5454545 C5.41818182,19.4454545 6.15454545,20.1818182 7.05454545,20.1818182 L16.8727273,20.1818182 C17.0609091,20.1818182 17.2409091,20.1409091 17.4127273,20.0836364 L18.3290909,21 L19.3272727,20.0018182 Z M9.42727273,7.09090909 C9.42727273,5.69181818 10.5645455,4.55454545 11.9636364,4.55454545 C13.3627273,4.55454545 14.5,5.69181818 14.5,7.09090909 L14.5,8.72727273 L10.0490909,8.72727273 L18.5090909,17.1872727 L18.5090909,10.3636364 C18.5090909,9.46363636 17.7727273,8.72727273 16.8727273,8.72727273 L16.0545455,8.72727273 L16.0545455,7.09090909 C16.0545455,4.83272727 14.2218182,3 11.9636364,3 C9.86909091,3 8.16727273,4.57909091 7.92181818,6.6 L9.42727273,8.10545455 L9.42727273,7.09090909 Z" class="fill-color"></path>
        </g>
    </g>
</svg>