<?xml version="1.0" encoding="UTF-8"?>
<svg width="24px" height="24px" viewBox="0 0 24 24" version="1.1" xmlns="http://www.w3.org/2000/svg" xmlns:xlink="http://www.w3.org/1999/xlink">
    <!-- Generator: Sketch 55.2 (78181) - https://sketchapp.com -->
    <desc>Created with Sketch.</desc>
    <g id="icon/password-invisible" stroke="none" stroke-width="1" fill="none" fill-rule="evenodd">
        <g id="Shape">
            <polygon points="0 0 24 0 24 24 0 24"></polygon>
            <path d="M12.003638,8.91041382 C14.0118236,8.91041382 15.6416553,10.5402456 15.6416553,12.5484311 C15.6416553,13.0213734 15.5470668,13.4652115 15.3797181,13.8799454 L17.5043201,16.0045475 C18.6030014,15.0877672 19.4688495,13.9017735 20,12.5484311 C18.741246,9.35425193 15.6343793,7.09140518 11.996362,7.09140518 C10.9777171,7.09140518 10.0027285,7.27330605 9.10050023,7.6007276 L10.6721237,9.17235107 C11.0868577,9.00500227 11.5306958,8.91041382 12.003638,8.91041382 Z M4.72760346,6.92405639 L6.38653934,8.58299227 L6.72123693,8.91768986 C5.51341519,9.85629832 4.5675307,11.1077763 4,12.5484311 C5.25875398,15.7426103 8.36562074,18.005457 12.003638,18.005457 C13.1314234,18.005457 14.2082765,17.787176 15.1905412,17.3942701 L15.4961346,17.6998636 L17.6280127,19.8244657 L18.5520691,18.9004093 L5.65165985,6 L4.72760346,6.92405639 Z M8.75125057,10.9477035 L9.87903593,12.0754889 C9.84265575,12.2282856 9.82082765,12.3883583 9.82082765,12.5484311 C9.82082765,13.7562528 10.7958163,14.7312415 12.003638,14.7312415 C12.1637108,14.7312415 12.3237835,14.7094134 12.4765803,14.6730332 L13.6043656,15.8008186 C13.1168713,16.0409277 12.5784447,16.1864484 12.003638,16.1864484 C9.99545248,16.1864484 8.36562074,14.5566166 8.36562074,12.5484311 C8.36562074,11.9736244 8.51114143,11.4351978 8.75125057,10.9477035 L8.75125057,10.9477035 Z M11.8872215,10.3801728 L14.1791724,12.6721237 L14.1937244,12.5557071 C14.1937244,11.3478854 13.2187358,10.3728968 12.0109141,10.3728968 L11.8872215,10.3801728 Z" class="fill-color"></path>
        </g>
    </g>
</svg>