<svg xmlns="http://www.w3.org/2000/svg" width="24" height="24" viewBox="0 0 24 24">
  <g fill="none" fill-rule="evenodd">
    <rect width="24" height="24"/>
    <path class="fill-color" fill-rule="nonzero" d="M12,10.4570684 C10.9656042,10.4570684 10.1239593,11.2985451 10.1239593,12.3331091 C10.1239593,13.367673 10.9656042,14.2091498 12,14.2091498 C13.0343958,14.2091498 13.8760407,13.3675048 13.8760407,12.3331091 C13.8760407,11.2987133 13.0343958,10.4570684 12,10.4570684 Z M12,7 C8.45715247,7 4.96139938,9.54108149 4,12.3331091 C4.96139938,15.1251367 8.45715247,17.6662181 12,17.6662181 C15.5428475,17.6662181 19.0386006,15.1251367 20,12.3331091 C19.0386006,9.54108149 15.5428475,7 12,7 Z M12,15.3865108 C10.3162055,15.3865108 8.94659827,14.0167353 8.94659827,12.3331091 C8.94659827,10.6494828 10.3162055,9.27970734 12,9.27970734 C13.6837945,9.27970734 15.0534017,10.6494828 15.0534017,12.3331091 C15.0534017,14.0167353 13.6837945,15.3865108 12,15.3865108 Z"/>
  </g>
</svg>
