<?xml version="1.0" encoding="UTF-8"?>
<svg width="24px" height="24px" viewBox="0 0 24 24" version="1.1" xmlns="http://www.w3.org/2000/svg" xmlns:xlink="http://www.w3.org/1999/xlink">
    <!-- Generator: Sketch 54.1 (76490) - https://sketchapp.com -->
    <desc>Created with Sketch.</desc>
    <g id="icon/pinned" stroke="none" stroke-width="1" fill="none" fill-rule="evenodd">
        <g id="icon/component" transform="translate(12.000000, 11.000000) rotate(-45.000000) translate(-12.000000, -11.000000) translate(5.000000, 4.000000)">
            <polygon id="Shape" points="2.58461538 8.4 7.75384615 8.4 7.75384615 13.5692308 2.58461538 13.5692308"></polygon>
            <path d="M0.361846154,12.7292308 L3.97384615,8.49692308 L5.50523077,10.0283077 L1.27076923,13.6381538 C1.1502992,13.7391356 0.997148912,13.7927382 0.84,13.7889231 L0.84,13.7889231 C0.590676029,13.7860178 0.3652716,13.6399184 0.260812441,13.4135135 C0.156353282,13.1871086 0.191481823,12.920804 0.351076923,12.7292308 L0.361846154,12.7292308 Z M3.48276923,4.30769231 C3.20776128,4.30881766 2.96027299,4.47482542 2.85490077,4.72884773 C2.74952855,4.98287004 2.80684392,5.27531487 3.00030769,5.47076923 L8.52923077,10.9996923 C8.72468513,11.1931561 9.01712996,11.2504714 9.27115227,11.1450992 C9.52517458,11.039727 9.69118234,10.7922387 9.69230769,10.5172308 L9.69230769,7.75384615 L12.0981538,5.348 L12.5289231,5.77876923 C12.710161,5.96001725 12.9626908,6.05115569 13.2179061,6.02742442 C13.4731214,6.00369314 13.7045179,5.86755666 13.8492308,5.656 C14.0629897,5.29609959 14.0101046,4.83776232 13.72,4.536 L9.47692308,0.282153846 C9.18251302,-0.0259034121 8.71099473,-0.0819075005 8.35261538,0.148615385 C8.14105873,0.293328235 8.00492225,0.524724771 7.98119097,0.779940081 C7.95745969,1.03515539 8.04859813,1.28768516 8.22984615,1.46892308 L8.66061538,1.89969231 L6.24615385,4.30769231 L3.48276923,4.30769231 Z" id="Shape" class="fill-color"></path>
        </g>
    </g>
</svg>