<svg width="24" height="24" viewBox="0 0 24 24" fill="none" xmlns="http://www.w3.org/2000/svg">
<path fill-rule="evenodd" clip-rule="evenodd" d="M17.7697 18.6094C18.0626 18.9023 18.5374 18.9023 18.8303 18.6094C19.1232 18.3165 19.1232 17.8416 18.8303 17.5487L5.74885 4.46723C5.45596 4.17434 4.98109 4.17434 4.68819 4.46723C4.3953 4.76012 4.3953 5.235 4.68819 5.52789L17.7697 18.6094ZM18.3308 15.9475C19.3921 15.368 20 14.3275 20 12.9715V12.3375C20 11.8388 19.6082 11.4399 19.1096 11.4399C18.618 11.4399 18.2191 11.8388 18.2191 12.3375V12.8006C18.2191 13.6894 17.75 14.3417 16.9778 14.5945L18.3308 15.9475ZM11.2872 8.90385H13.1398V10.3927C13.1398 10.8201 13.4105 11.0908 13.8451 11.0908C14.0374 11.0908 14.2155 11.0196 14.358 10.9056L17.1648 8.56903C17.5138 8.2912 17.5067 7.82103 17.1648 7.53608L14.358 5.19236C14.2155 5.07126 14.0374 5.00002 13.8451 5.00002C13.4105 5.00002 13.1398 5.27072 13.1398 5.69815V7.1514H9.5347L11.2872 8.90385ZM14.4996 16.4622L12.7471 14.7097H10.8602V13.228C10.8602 12.8006 10.5895 12.5227 10.1621 12.5227C9.96975 12.5227 9.78454 12.6011 9.64206 12.7151L6.84242 15.0517C6.49335 15.3295 6.49335 15.7925 6.84242 16.0846L9.64206 18.4283C9.78454 18.5494 9.96975 18.6207 10.1621 18.6207C10.5895 18.6207 10.8602 18.35 10.8602 17.9225V16.4622H14.4996ZM5.69207 7.65464L7.0483 9.01088C6.26378 9.2565 5.78097 9.90975 5.78097 10.813V11.2761C5.78097 11.7676 5.38917 12.1665 4.8905 12.1665C4.39896 12.1665 4.00003 11.7676 4.00003 11.2761V10.642C4.00003 9.27398 4.6177 8.23069 5.69207 7.65464Z" class="fill-color" />
</svg>
