<svg width="24" height="24" viewBox="0 0 24 24" fill="none" xmlns="http://www.w3.org/2000/svg">
<path d="M12 20.0083C16.4004 20.0083 20 16.4087 20 12C20 7.59959 16.4004 4 12 4C7.59959 4 4 7.59959 4 12C4 16.4087 7.59959 20.0083 12 20.0083ZM9.89474 14.9639C9.58927 14.9639 9.44066 14.7988 9.44066 14.5428V9.51496C9.44066 9.26729 9.58927 9.09391 9.89474 9.09391H10.6956C11.0093 9.09391 11.1496 9.26729 11.1496 9.51496V14.5428C11.1496 14.7988 11.0093 14.9639 10.6956 14.9639H9.89474ZM13.2962 14.9639C12.9907 14.9639 12.8586 14.7988 12.8586 14.5428V9.51496C12.8586 9.26729 12.9907 9.09391 13.2962 9.09391H14.097C14.4025 9.09391 14.5511 9.26729 14.5511 9.51496V14.5428C14.5511 14.7988 14.4025 14.9639 14.097 14.9639H13.2962Z" class="fill-color"/>
</svg>
