<svg width="24" height="24" viewBox="0 0 24 24" fill="none" xmlns="http://www.w3.org/2000/svg">
<path fill-rule="evenodd" clip-rule="evenodd" d="M7.175 16.275C7.175 16.8272 6.7272 17.275 6.175 17.275C5.6228 17.275 5.175 16.8272 5.175 16.275H7.175ZM19 16.275C19 16.8272 18.5522 17.275 18 17.275C17.4478 17.275 17 16.8272 17 16.275H19ZM18.6 7C19.92 7 21 8.08 21 9.4V13.6C21 14.92 19.92 16 18.6 16H5.4C4.08 16 3 14.92 3 13.6V9.4C3 8.08 4.08 7 5.4 7H18.6ZM16.4922 8.2C14.6726 8.2 13.1922 9.6804 13.1922 11.5C13.1922 13.3196 14.6726 14.8 16.4922 14.8C18.3118 14.8 19.7922 13.3196 19.7922 11.5C19.7922 9.6804 18.3118 8.2 16.4922 8.2ZM16.4922 8.8C17.981 8.8 19.1922 10.0112 19.1922 11.5C19.1922 12.9888 17.981 14.2 16.4922 14.2C15.0034 14.2 13.7922 12.9888 13.7922 11.5C13.7922 10.0112 15.0034 8.8 16.4922 8.8ZM10.05 13.2H4.85C4.63 13.2 4.45 13.38 4.45 13.6C4.45 13.82 4.63 14 4.85 14H10.05C10.27 14 10.45 13.82 10.45 13.6C10.45 13.38 10.27 13.2 10.05 13.2ZM16.4922 9.5C15.3876 9.5 14.4922 10.3954 14.4922 11.5C14.4922 12.6046 15.3876 13.5 16.4922 13.5C17.5968 13.5 18.4922 12.6046 18.4922 11.5C18.4922 10.3954 17.5968 9.5 16.4922 9.5ZM10.05 11.8124H4.85C4.63 11.8124 4.45 11.9924 4.45 12.2124C4.45 12.4324 4.63 12.6124 4.85 12.6124H10.05C10.27 12.6124 10.45 12.4324 10.45 12.2124C10.45 11.9924 10.27 11.8124 10.05 11.8124ZM10.05 10.3876H4.85C4.63 10.3876 4.45 10.5676 4.45 10.7876C4.45 11.0076 4.63 11.1876 4.85 11.1876H10.05C10.27 11.1876 10.45 11.0074 10.45 10.7876C10.45 10.5676 10.27 10.3876 10.05 10.3876ZM10.05 9H4.85C4.63 9 4.45 9.18 4.45 9.4C4.45 9.62 4.63 9.8 4.85 9.8H10.05C10.27 9.8 10.45 9.62 10.45 9.4C10.45 9.18 10.27 9 10.05 9Z" class="fill-color"/>
</svg>
