<svg width="16" height="16" viewBox="0 0 16 16" fill="none" xmlns="http://www.w3.org/2000/svg">
<path d="M8.00988 7.59386L12.6598 5.02569C12.5771 4.943 12.475 4.87491 12.3485 4.80681L8.95835 2.92446C8.64706 2.75422 8.3309 2.66667 8.01474 2.66667C7.69372 2.66667 7.3727 2.75422 7.06627 2.92446L3.67123 4.80681C3.54963 4.87491 3.44748 4.943 3.3648 5.02569L8.00988 7.59386ZM7.63535 13.3333V8.26995L3.02918 5.69691C3.00973 5.78447 3 5.87202 3 5.98389V9.95288C3 10.6338 3.23833 10.9257 3.72473 11.1981L7.45539 13.2652C7.51376 13.2993 7.57212 13.3236 7.63535 13.3333ZM8.38927 13.3333C8.44764 13.3236 8.506 13.2993 8.56437 13.2652L12.295 11.1981C12.7814 10.9257 13.0198 10.6338 13.0198 9.95288V5.98389C13.0198 5.87202 13.0149 5.78447 12.9954 5.69691L8.38927 8.26995V13.3333Z" fill="#09B33A"/>
</svg>
