<svg width="24" height="24" viewBox="0 0 24 24" fill="none" xmlns="http://www.w3.org/2000/svg">
<path d="M19.1592 11.485H18.2516C17.8351 8.35808 15.0811 5.80304 11.7055 5.80304C10.0083 5.80304 8.46038 6.49309 7.34761 7.54991C6.92488 7.90426 6.91244 8.41403 7.16732 8.74351C7.44086 9.09164 7.93197 9.19732 8.43552 8.80568C9.28098 8.00373 10.4373 7.49396 11.7055 7.49396C14.1735 7.49396 16.1379 9.27192 16.5358 11.485H15.5536C15.0189 11.485 14.8573 11.9389 15.193 12.3989L16.8653 14.7053C17.1388 15.0783 17.574 15.072 17.8475 14.7053L19.5198 12.4051C19.8555 11.9389 19.7063 11.485 19.1592 11.485ZM4.23929 13.2941H5.15935C5.58208 16.4211 8.32983 18.9761 11.7055 18.9761C13.4088 18.9761 14.9568 18.286 16.0695 17.2354C16.4923 16.8749 16.5047 16.3589 16.2498 16.0356C15.9763 15.6875 15.4852 15.5818 14.9816 15.9735C14.1424 16.7816 12.9799 17.2852 11.7055 17.2852C9.23746 17.2852 7.27922 15.5134 6.87514 13.2941H7.84494C8.37957 13.2941 8.5412 12.8465 8.19929 12.3802L6.53323 10.0739C6.2597 9.70087 5.82453 9.70709 5.551 10.0739L3.87872 12.3802C3.53681 12.8403 3.69222 13.2941 4.23929 13.2941Z" class="fill-color"/>
</svg>
