<?xml version="1.0" encoding="UTF-8"?>
<svg width="24px" height="24px" viewBox="0 0 24 24" version="1.1" xmlns="http://www.w3.org/2000/svg" xmlns:xlink="http://www.w3.org/1999/xlink">
    <!-- Generator: Sketch 52.5 (67469) - http://www.bohemiancoding.com/sketch -->
    <desc>Created with Sketch.</desc>
    <g id="icon/remove" stroke="none" stroke-width="1" fill="none" fill-rule="evenodd">
        <g id="icon/add">
            <polygon id="Shape" points="0 0 24 0 24 24 0 24"></polygon>
            <path d="M8,4 L16,4 C18.209139,4 20,5.790861 20,8 L20,16 C20,18.209139 18.209139,20 16,20 L8,20 C5.790861,20 4,18.209139 4,16 L4,8 C4,5.790861 5.790861,4 8,4 Z M12,11.1068125 L9.61816663,8.72497912 L8.72497912,9.61816663 L11.1068125,12 L8.72497912,14.3818334 L9.61816663,15.2750209 L12,12.8931875 L14.3818334,15.2750209 L15.2750209,14.3818334 L12.8931875,12 L15.2750209,9.61816663 L14.3818334,8.72497912 L12,11.1068125 Z" id="Combined-Shape" class="fill-color"></path>
        </g>
    </g>
</svg>