<svg width="14" height="16" viewBox="0 0 14 16" fill="none" xmlns="http://www.w3.org/2000/svg">
<path d="M6.98297 0V2.0299C10.2385 2.0299 13.0727 4.28861 13.7957 7.46282C14.5187 10.6371 12.943 13.9023 10.0086 15.3122C7.07411 16.7219 3.54234 15.9121 1.51599 13.364C0.483056 12.0651 -0.0218991 10.4862 0.000727811 8.91362L1.74159 9.00571C1.73925 10.1616 2.11918 11.3181 2.88187 12.2774C4.4071 14.1953 7.0448 14.8003 9.25357 13.7391C11.4623 12.6779 12.637 10.2408 12.0928 7.85155C11.5486 5.46225 9.43315 3.77569 6.98268 3.77569V5.86937L3.49108 2.93469L6.98297 0Z" fill="#E6ECF0"/>
</svg>
