<?xml version="1.0" encoding="UTF-8"?>
<svg width="24px" height="24px" viewBox="0 0 24 24" version="1.1" xmlns="http://www.w3.org/2000/svg" xmlns:xlink="http://www.w3.org/1999/xlink">
    <!-- Generator: Sketch 52.5 (67469) - http://www.bohemiancoding.com/sketch -->
    <desc>Created with Sketch.</desc>
    <g id="icon/settings" stroke="none" stroke-width="1" fill="none" fill-rule="evenodd">
        <g id="Shape">
            <polygon points="0 0 24 0 24 24 0 24"></polygon>
            <path d="M10.4499998,4 L10.0806638,5.99999952 C9.227085,6.26399946 8.4554138,6.70186602 7.79804696,7.26784684 L5.8666016,6.53571368 L4.25,9.13691306 L5.80000004,10.4880937 C5.67841804,10.9724745 5.61230472,11.4786839 5.61230472,12.0000019 C5.61230472,12.5213161 5.67841804,13.0275445 5.80000004,13.5119063 L4.25,14.8630869 L5.8666016,17.4642863 L7.79804696,16.7321532 C8.45541361,17.2981149 9.227085,17.7360005 10.0806638,18.0000005 L10.4499998,20 L13.5499998,20 L13.9193358,18.0000005 C14.7729169,17.7360005 15.5445862,17.2981149 16.201953,16.7321532 L18.1333984,17.4642863 L19.75,14.8630869 L18.2060546,13.5059444 C18.3265148,13.0236969 18.3876953,12.5188208 18.3876953,12.0000019 C18.3876953,11.4811601 18.3265148,10.9763221 18.2060546,10.4940556 L19.75,9.13691306 L18.1333984,6.53571368 L16.201953,7.26784684 C15.5445862,6.70186602 14.7729169,6.26399946 13.9193358,5.99999952 L13.5499998,4 L10.4499998,4 Z M11.9999998,8.19047519 C14.140104,8.19047519 15.8749999,9.89603669 15.8749999,12.0000019 C15.8749999,14.1039252 14.140104,15.8095248 11.9999998,15.8095248 C9.85989712,15.8095248 8.1250001,14.1039252 8.1250001,12.0000019 C8.1250001,9.89603669 9.85989712,8.19047519 11.9999998,8.19047519 Z" class="fill-color"></path>
        </g>
    </g>
</svg>