<?xml version="1.0" encoding="UTF-8"?>
<svg width="24px" height="24px" viewBox="0 0 24 24" version="1.1" xmlns="http://www.w3.org/2000/svg" xmlns:xlink="http://www.w3.org/1999/xlink">
    <!-- Generator: Sketch 52.5 (67469) - http://www.bohemiancoding.com/sketch -->
    <desc>Created with Sketch.</desc>
    <g id="icon/shows-new" stroke="none" stroke-width="1" fill="none" fill-rule="evenodd">
        <g id="icon/shows">
            <polygon id="Shape" points="0 0 24 0 24 24 0 24"></polygon>
            <path d="M16.7159601,16.1702873 L13.870423,16.1702873 L13.870423,14.4763416 L16.7159601,14.4763416 L16.7159601,11.622159 L18.4139782,11.622159 L18.4139782,14.4763416 L21.2517617,14.4763416 L21.2517617,16.1702873 L18.4139782,16.1702873 L18.4139782,18.9857954 L16.7159601,18.9857954 L16.7159601,16.1702873 Z M3,10.3 L15,10.3 L15,12.3 L3,12.3 L3,10.3 Z M3,6.3 L15,6.3 L15,8.3 L3,8.3 L3,6.3 Z M3,14.3 L12,14.3 L12,16.3 L3,16.3 L3,14.3 Z" id="Shape" class="fill-color"></path>
        </g>
    </g>
</svg>