<svg width="24" height="24" viewBox="0 0 24 24" fill="none" xmlns="http://www.w3.org/2000/svg">
    <path
        d="M12 5.7C11.7646 5.7 11.544 5.79116 11.3851 5.96736C11.2286 6.14077 11.1568 6.36817 11.1568 6.60171V11.1939C11.1568 11.4261 11.2294 11.6523 11.3841 11.8251C11.5414 12.0007 11.7614 12.0956 12 12.0956C12.2396 12.0956 12.4609 12.0018 12.6189 11.8239C12.7735 11.6497 12.8432 11.4232 12.8432 11.1939V6.60171C12.8432 6.37107 12.7743 6.14332 12.6179 5.96853C12.4583 5.79011 12.2364 5.7 12 5.7Z"
        class="fill-color" />
    <path
        d="M9.90719 8.2061C9.91041 7.96928 9.81547 7.75772 9.67238 7.6052C9.38355 7.29734 8.85839 7.20136 8.45997 7.59013C7.38736 8.6023 6.7 10.082 6.7 11.7132C6.7 14.7575 9.08692 17.3 12 17.3C14.9185 17.3 17.3 14.7572 17.3 11.7132C17.3 10.083 16.6185 8.603 15.5452 7.59018C15.1468 7.20136 14.6216 7.29732 14.3328 7.6052C14.1897 7.75772 14.0948 7.96928 14.098 8.20609C14.1013 8.44827 14.2064 8.67879 14.3961 8.86711L14.4005 8.87143L14.4034 8.87419C15.1305 9.55921 15.5929 10.5753 15.5929 11.7132C15.5929 13.847 13.9771 15.5348 12 15.5348C10.0229 15.5348 8.40712 13.847 8.40712 11.7132C8.40712 10.5763 8.86881 9.56524 9.60184 8.87409L9.6063 8.8698L9.60904 8.86711C9.79877 8.67879 9.9039 8.44827 9.90719 8.2061Z"
        class="fill-color" />

    </svg>