<svg width="16" height="16" viewBox="0 0 16 16" fill="none" xmlns="http://www.w3.org/2000/svg">
<path fill-rule="evenodd" clip-rule="evenodd" d="M8.76 6.42124C9.10531 6.17173 9.57315 6.43312 9.57315 6.87274V12.7779C9.57315 13.2294 9.10531 13.4908 8.76 13.2294L6.42082 11.4828H4.9839C4.70542 11.4828 4.4715 11.2333 4.4715 10.9362V10.3422C5.69679 10.259 6.63246 9.33222 6.63246 8.16783V8.01337L8.76 6.42124ZM11.5447 6.92026C11.7118 6.74204 11.968 6.74204 12.1351 6.92026C13.6389 8.52427 13.6389 11.1382 12.124 12.7541C11.9569 12.9323 11.7007 12.9323 11.5336 12.7541C11.4556 12.6591 11.4111 12.5521 11.4111 12.4333C11.4111 12.3145 11.4556 12.1957 11.5336 12.1125C12.7143 10.8531 12.7143 8.80943 11.5447 7.54999C11.3777 7.37176 11.3777 7.09849 11.5447 6.92026ZM10.4086 8.13218C10.5757 7.95396 10.8318 7.95396 10.9989 8.13218C11.8789 9.07083 11.8789 10.5917 10.9989 11.5422C10.8318 11.7204 10.5757 11.7204 10.4086 11.5422C10.3306 11.4471 10.286 11.3402 10.286 11.2214C10.286 11.1026 10.3306 10.9838 10.4086 10.9006C10.9655 10.3184 10.9655 9.35598 10.4086 8.76191C10.2415 8.58368 10.2415 8.31041 10.4086 8.13218ZM5.39604 2.66667C5.62996 2.66667 5.81932 2.85677 5.8416 3.10628C6.08665 3.15381 6.32057 3.21322 6.55449 3.29639C6.91094 3.42709 7.27852 3.60531 7.57927 3.97364C7.73522 4.15186 7.83547 4.40137 7.86889 4.65089C7.9023 4.9004 7.85775 5.13803 7.79091 5.34002C7.65725 5.75587 7.43447 6.07667 7.20055 6.36183C7.08916 6.49253 6.8998 6.51629 6.77727 6.39748C6.66588 6.29054 6.6436 6.10044 6.73271 5.96974L6.82435 5.83222C6.97158 5.60174 7.08916 5.36576 7.14485 5.13803C7.17827 4.99545 7.18941 4.87664 7.16713 4.7697C7.14485 4.66277 7.1003 4.5796 7.02233 4.49643C6.87752 4.33008 6.61018 4.21127 6.32057 4.1281C6.17576 4.09245 6.01982 4.05681 5.86387 4.03305V8.17971C5.86387 8.94013 5.15098 9.54609 4.25986 9.54609C3.36875 9.54609 2.66699 8.95201 2.66699 8.17971C2.66699 7.40741 3.36875 6.81333 4.25986 6.81333C4.50492 6.81333 4.73884 6.86086 4.95048 6.94403V3.14193C4.95048 2.88054 5.15098 2.66667 5.39604 2.66667Z" fill="none"/>
</svg>
