<?xml version="1.0" encoding="UTF-8"?>
<svg width="24px" height="24px" viewBox="0 0 24 24" version="1.1" xmlns="http://www.w3.org/2000/svg" xmlns:xlink="http://www.w3.org/1999/xlink">
    <!-- Generator: Sketch 52.5 (67469) - http://www.bohemiancoding.com/sketch -->
    <desc>Created with Sketch.</desc>
    <g id="icon/storage" stroke="none" stroke-width="1" fill="none" fill-rule="evenodd">
        <g id="Shape">
            <polygon points="0 -1.77635684e-14 24 -1.77635684e-14 24 24 0 24"></polygon>
            <path d="M18.7715373,15.73669 C18.7715373,15.9700856 18.5821148,16.1595081 18.3487192,16.1595081 L15.0570804,16.1595081 C14.8234735,16.1595081 14.6342624,15.9700856 14.6342624,15.73669 C14.6342624,15.5032945 14.8234735,15.313872 15.0570804,15.313872 L18.3487192,15.313872 C18.5821148,15.313872 18.7715373,15.5032945 18.7715373,15.73669 Z M20.1543638,17.0377013 C20.1543638,17.4767979 19.797294,17.8342905 19.3581974,17.8342905 L4.64243684,17.8342905 C4.20312885,17.8342905 3.84563617,17.4767979 3.84563617,17.0377013 L3.84563617,14.4354674 C3.84563617,13.9963708 4.20312885,13.6388781 4.64243684,13.6388781 L19.3581974,13.6388781 C19.797294,13.6388781 20.1543638,13.9963708 20.1543638,14.4354674 L20.1543638,17.0377013 Z M20.5936718,13.3572813 L17.2866002,7.61076072 C17.2794123,7.59448222 17.2715901,7.57862655 17.2624996,7.56319369 C17.0601811,7.21563722 16.6851415,7 16.2830415,7 L7.71759276,7 C7.31570417,7 6.94066453,7.21563722 6.73813467,7.56277087 C6.72883267,7.57883795 6.72079913,7.59511645 6.71361122,7.61160636 L3.40717381,13.3566471 C3.15454001,13.6454318 3,14.0223741 3,14.4354674 L3,17.0377013 C3,17.9433776 3.73676051,18.6799267 4.64243684,18.6799267 L19.3581974,18.6799267 C20.2636623,18.6799267 21,17.9433776 21,17.0377013 L21,14.4354674 C21,14.0227969 20.8460942,13.646066 20.5936718,13.3572813 Z" class="fill-color"></path>
        </g>
    </g>
</svg>