<svg width="16" height="13" viewBox="0 0 16 13" fill="none" xmlns="http://www.w3.org/2000/svg">
<path fill-rule="evenodd" clip-rule="evenodd" d="M0 11.8C0 12.3523 0.447715 12.8 1 12.8H15C15.5523 12.8 16 12.3523 16 11.8V10.6C16 10.0477 15.5523 9.6 15 9.6H1C0.447715 9.6 0 10.0477 0 10.6V11.8ZM1.6 11.2C1.6 10.7582 1.95817 10.4 2.4 10.4C2.84183 10.4 3.2 10.7582 3.2 11.2C3.2 11.6418 2.84183 12 2.4 12C1.95817 12 1.6 11.6418 1.6 11.2ZM1 0C0.447715 0 0 0.447715 0 1V2.2C0 2.75228 0.447715 3.2 1 3.2H15C15.5523 3.2 16 2.75228 16 2.2V1C16 0.447716 15.5523 0 15 0H1ZM3.2 1.6C3.2 2.04183 2.84183 2.4 2.4 2.4C1.95817 2.4 1.6 2.04183 1.6 1.6C1.6 1.15817 1.95817 0.8 2.4 0.8C2.84183 0.8 3.2 1.15817 3.2 1.6ZM0 7C0 7.55228 0.447715 8 1 8H15C15.5523 8 16 7.55228 16 7V5.8C16 5.24772 15.5523 4.8 15 4.8H1C0.447715 4.8 0 5.24771 0 5.8V7ZM1.6 6.4C1.6 5.95817 1.95817 5.6 2.4 5.6C2.84183 5.6 3.2 5.95817 3.2 6.4C3.2 6.84183 2.84183 7.2 2.4 7.2C1.95817 7.2 1.6 6.84183 1.6 6.4Z" class="fill-color"/>
</svg>
