<svg width="24" height="24" viewBox="0 0 24 24" fill="none" xmlns="http://www.w3.org/2000/svg">
<path d="M19.5948 11.1937L18.054 7.4894C17.656 6.52001 16.815 6 15.7108 6H10.5236C9.41935 6 8.57835 6.52001 8.18032 7.4894L6.92845 10.5003C7.35216 10.5453 7.76944 10.6544 8.15464 10.8213C8.19315 10.8149 8.23167 10.8149 8.27019 10.8149H17.9577C18.5612 10.8149 19.1133 10.9497 19.5948 11.1937ZM2.8711 13.8065C2.53727 13.8065 2.38319 14.0954 2.60147 14.3458L3.44247 15.3794C3.6158 15.5848 3.83408 15.5848 4.00742 15.3794L4.84841 14.3458C5.06027 14.1018 4.90619 13.8065 4.57236 13.8065H4.20643C4.54668 12.85 5.46472 12.1631 6.52399 12.1631C7.87216 12.1631 8.98922 13.2737 8.98922 14.6283C8.98922 15.97 7.85932 17.0871 6.52399 17.0871C5.70867 17.0871 5.02817 16.689 4.55952 16.1177C4.41187 15.9251 4.20001 15.8673 4.00742 15.9893C3.81482 16.1113 3.76988 16.3873 3.93038 16.5927C4.54668 17.4081 5.50324 17.8896 6.52399 17.8896C8.29587 17.8896 9.78528 16.4066 9.78528 14.6283C9.78528 12.8371 8.31513 11.367 6.52399 11.367C5.02175 11.367 3.73778 12.407 3.37185 13.8065H2.8711ZM10.0677 16.7468H17.9577C19.46 16.7468 20.5 15.7132 20.5 14.2238C20.5 12.7344 19.46 11.6944 17.9577 11.6944H9.43861C10.1961 12.4455 10.6648 13.4855 10.6648 14.6283C10.6648 15.3987 10.4465 16.1305 10.0677 16.7468ZM6.40844 12.8757C6.203 12.8757 6.04251 13.0362 6.04251 13.2287V14.8594C6.04251 14.9621 6.06177 15.0456 6.1388 15.1354L6.88993 16.1305C7.01832 16.3039 7.2366 16.3424 7.40993 16.214C7.57685 16.092 7.59611 15.8801 7.46771 15.7004L6.76153 14.7438V13.2287C6.76153 13.0297 6.60745 12.8757 6.40844 12.8757ZM17.0333 14.2238C17.0333 13.7809 17.4121 13.4021 17.8679 13.4021C18.3044 13.4021 18.6896 13.7809 18.6896 14.2238C18.6896 14.6796 18.3044 15.0456 17.8679 15.0456C17.4121 15.052 17.0333 14.6861 17.0333 14.2238Z" class="fill-color"/>
</svg>
