<svg width="9" height="15" viewBox="0 0 9 15" fill="none" xmlns="http://www.w3.org/2000/svg">
    <path d="M3.6288 15C5.6232 15 7.236 13.4027 7.236 11.4363C7.236 10.4141 6.8112 9.51254 5.9976 8.78135C5.8536 8.65357 5.8176 8.57549 5.8176 8.37672L5.832 2.39233C5.832 0.958353 4.9392 0 3.6288 0C2.2968 0 1.4112 0.958353 1.4112 2.39233L1.4184 8.37672C1.4184 8.57549 1.3896 8.65357 1.2384 8.78135C0.4248 9.50544 0 10.4141 0 11.4363C0 13.4027 1.62 15 3.6288 15ZM3.6288 13.9565C2.2104 13.9565 1.0656 12.8206 1.0656 11.4292C1.0656 10.5916 1.4688 9.83909 2.1888 9.36346C2.3976 9.22149 2.484 9.09371 2.484 8.82395V2.43493C2.484 1.59016 2.9448 1.05064 3.6288 1.05064C4.2984 1.05064 4.7592 1.59016 4.7592 2.43493V8.82395C4.7592 9.09371 4.8384 9.22149 5.0544 9.36346C5.7744 9.83909 6.1776 10.5916 6.1776 11.4292C6.1776 12.8206 5.0328 13.9565 3.6288 13.9565ZM7.1064 2.52011H8.5896C8.8344 2.52011 9 2.33554 9 2.12257C9 1.90961 8.8344 1.72504 8.5896 1.72504H7.1064C6.8616 1.72504 6.696 1.90961 6.696 2.12257C6.696 2.33554 6.8616 2.52011 7.1064 2.52011ZM7.1064 4.40133H8.5896C8.8344 4.40133 9 4.21675 9 4.00379C9 3.79082 8.8344 3.60625 8.5896 3.60625H7.1064C6.8616 3.60625 6.696 3.79082 6.696 4.00379C6.696 4.21675 6.8616 4.40133 7.1064 4.40133ZM3.6216 13.0549C4.5288 13.0549 5.2632 12.3308 5.2632 11.4292C5.2632 10.8045 4.9032 10.2863 4.3776 10.0024C4.1616 9.88878 4.0896 9.8036 4.0896 9.48415V5.96309C4.0896 5.61524 3.8808 5.40227 3.6216 5.40227C3.3624 5.40227 3.1536 5.61524 3.1536 5.96309V9.48415C3.1536 9.8036 3.0816 9.88878 2.8584 10.0024C2.3328 10.2863 1.98 10.8045 1.98 11.4292C1.98 12.3308 2.7144 13.0549 3.6216 13.0549ZM7.1064 6.28254H8.5896C8.8344 6.28254 9 6.09797 9 5.885C9 5.67203 8.8344 5.48746 8.5896 5.48746H7.1064C6.8616 5.48746 6.696 5.67203 6.696 5.885C6.696 6.09797 6.8616 6.28254 7.1064 6.28254ZM7.1064 8.15665H8.5896C8.8344 8.15665 9 7.97208 9 7.75911C9 7.55324 8.8344 7.36867 8.5896 7.36867H7.1064C6.8616 7.36867 6.696 7.55324 6.696 7.75911C6.696 7.97208 6.8616 8.15665 7.1064 8.15665Z" class="fill-color"/>
</svg>
