<?xml version="1.0" encoding="UTF-8"?>
<svg width="24px" height="24px" viewBox="0 0 24 24" version="1.1" xmlns="http://www.w3.org/2000/svg" xmlns:xlink="http://www.w3.org/1999/xlink">
    <!-- Generator: Sketch 52.5 (67469) - http://www.bohemiancoding.com/sketch -->
    <desc>Created with Sketch.</desc>
    <g id="icon/trash" stroke="none" stroke-width="1" fill="none" fill-rule="evenodd">
        <g>
            <polygon id="Shape" points="0 0 24 0 24 24 0 24"></polygon>
            <path d="M7.36036276,19.2416203 L6.82051282,8.1025641 L17.0769231,8.1025641 L16.5371224,19.2416203 C16.5188074,19.6655679 16.1620584,20 15.7280121,20 L8.16927606,20 C7.73537753,20 7.3784316,19.6655679 7.36036276,19.2416203 Z M13.6586612,10.8692686 L13.6586612,17.2332473 C13.6586612,17.4109309 13.8059691,17.5547333 13.9874946,17.5547333 L14.5135098,17.5547333 C14.6950353,17.5547333 14.8423924,17.4109309 14.8423924,17.2332473 L14.8423924,10.8692686 C14.8423924,10.6918257 14.6950353,10.5477827 14.5135098,10.5477827 L13.9874946,10.5477827 C13.8057722,10.5477827 13.6586612,10.6918257 13.6586612,10.8692686 Z M11.3569755,10.8692686 L11.3569755,17.2332473 C11.3569755,17.4109309 11.5040864,17.5547333 11.6856611,17.5547333 L12.211824,17.5547333 C12.3933495,17.5547333 12.5405097,17.4109309 12.5405097,17.2332473 L12.5405097,10.8692686 C12.5405097,10.6918257 12.3933495,10.5477827 12.211824,10.5477827 L11.6856611,10.5477827 C11.5040864,10.5477827 11.3569755,10.6918257 11.3569755,10.8692686 Z M9.05509276,10.8692686 L9.05509276,17.2332473 C9.05509276,17.4109309 9.20240065,17.5547333 9.38397534,17.5547333 L9.90994131,17.5547333 C10.091516,17.5547333 10.2388239,17.4109309 10.2388239,17.2332473 L10.2388239,10.8692686 C10.2388239,10.6918257 10.091516,10.5477827 9.90994131,10.5477827 L9.38397534,10.5477827 C9.20220371,10.5477827 9.05509276,10.6918257 9.05509276,10.8692686 Z M17.393328,4.81158792 C17.6717108,4.81158792 17.8974359,5.03434556 17.8974359,5.30906875 L17.8974359,6.87179487 L6,6.87179487 L6,5.30906875 C6,5.03415274 6.22572508,4.81139509 6.50410794,4.81139509 L9.96389062,4.81139509 L9.96389062,4.16606797 C9.96389062,4.0743811 10.0392626,4 10.1322197,4 L13.7652651,4 C13.8581733,4 13.9335453,4.0743811 13.9335453,4.16606797 L13.9335453,4.81158792 L17.393328,4.81158792 Z" id="Combined-Shape" class="fill-color"></path>
        </g>
    </g>
</svg>