<svg width="15" height="16" viewBox="0 0 15 16" fill="none" xmlns="http://www.w3.org/2000/svg">
<path d="M4.2116 15.986C4.6313 15.9097 4.90249 15.5412 4.81783 15.1629L1.53598 0.559951C1.45081 0.181961 1.04161 -0.0625131 0.622086 0.0140207C0.202219 0.0905545 -0.0693173 0.459187 0.0155164 0.837177L3.2977 15.4399C3.38271 15.8182 3.79191 16.0624 4.2116 15.986Z" class="fill-color"/>
<path d="M9.17772 0.750879C10.0625 1.05566 10.9276 1.35364 12.4586 1.21779C14.4382 1.04199 15 0.305731 15 0.305731L14.098 8.87601C14.098 8.87601 12.986 9.96553 10.9713 10.1022C9.16567 10.2249 8.329 9.92913 7.62704 9.68098C7.23987 9.54411 6.89368 9.42173 6.44849 9.39203C5.50465 9.32903 4.80464 9.45971 4.32799 9.61311L2.36941 0.898283C3.15047 0.619219 4.71671 0.243401 6.29327 0.221845C7.59055 0.20416 8.39193 0.480204 9.17772 0.750879Z" class="fill-color"/>
</svg>
