<?xml version="1.0" encoding="UTF-8"?>
<svg width="24px" height="24px" viewBox="0 0 24 24" version="1.1" xmlns="http://www.w3.org/2000/svg" xmlns:xlink="http://www.w3.org/1999/xlink">
    <!-- Generator: Sketch 52.5 (67469) - http://www.bohemiancoding.com/sketch -->
    <desc>Created with Sketch.</desc>
    <g id="icon/unlocked" stroke="none" stroke-width="1" fill="none" fill-rule="evenodd">
        <g id="icon/lock">
            <polygon id="Shape" points="0 0 24 0 24 24 0 24"></polygon>
            <path d="M19.2380952,7.80952381 C19.2380952,5.70666667 17.5314286,4 15.4285714,4 C13.3257143,4 11.6190476,5.70666667 11.6190476,7.80952381 L11.6410326,9.3510518 L13.1126762,9.33310898 L13.0666667,7.80952381 C13.0666667,6.50666667 14.1257143,5.44761905 15.4285714,5.44761905 C16.7314286,5.44761905 17.7904762,6.50666667 17.7904762,7.80952381 L17.7981558,9.32990061 L19.2429826,9.33369954 M12.4571429,9.33333333 L14.6666667,9.33333333 C15.5047619,9.33333333 16.1904762,10.0190476 16.1904762,10.8571429 L16.1904762,18.4761905 C16.1904762,19.3142857 15.5047619,20 14.6666667,20 L5.52380952,20 C4.68571429,20 4,19.3142857 4,18.4761905 L4,10.8571429 C4,10.0190476 4.68571429,9.33333333 5.52380952,9.33333333 L12.4571429,9.33333333 Z M14.6666667,18.4761905 L14.6666667,10.8571429 L5.52380952,10.8571429 L5.52380952,18.4761905 L14.6666667,18.4761905 Z M10.0952381,16.1904762 C9.25714286,16.1904762 8.57142857,15.5047619 8.57142857,14.6666667 C8.57142857,13.8285714 9.25714286,13.1428571 10.0952381,13.1428571 C10.9333333,13.1428571 11.6190476,13.8285714 11.6190476,14.6666667 C11.6190476,15.5047619 10.9333333,16.1904762 10.0952381,16.1904762 Z" id="Shape" class="fill-color"></path>
        </g>
    </g>
</svg>