<svg width="17" height="16" viewBox="0 0 17 16" fill="none" xmlns="http://www.w3.org/2000/svg">
<path d="M8.49613 16C12.8809 16 16.5 12.3809 16.5 8.00387C16.5 3.61914 12.8731 0 8.4884 0C4.11141 0 0.5 3.61914 0.5 8.00387C0.5 12.3809 4.11914 16 8.49613 16ZM8.49613 3.41034C10.0041 3.41034 11.195 4.72499 11.195 6.30256C11.195 7.98067 10.0118 9.27211 8.49613 9.25665C6.98043 9.24891 5.80498 7.98067 5.80498 6.30256C5.79725 4.72499 6.99589 3.41034 8.49613 3.41034ZM13.1979 12.5587L13.2134 12.6593C12.0457 13.9198 10.2284 14.639 8.49613 14.639C6.77163 14.639 4.94659 13.9198 3.77888 12.6593L3.80208 12.5587C4.529 11.5843 6.16844 10.5945 8.49613 10.5945C10.8238 10.5945 12.4633 11.5843 13.1979 12.5587Z" fill="#8F9EB3"/>
</svg>
