<?xml version="1.0" encoding="UTF-8"?>
<svg width="24px" height="24px" viewBox="0 0 24 24" version="1.1" xmlns="http://www.w3.org/2000/svg" xmlns:xlink="http://www.w3.org/1999/xlink">
    <!-- Generator: Sketch 52.5 (67469) - http://www.bohemiancoding.com/sketch -->
    <desc>Created with Sketch.</desc>
    <g id="icon/user" stroke="none" stroke-width="1" fill="none" fill-rule="evenodd">
        <g>
            <polygon id="Shape" points="0 0 24 0 24 24 0 24"></polygon>
            <path d="M12.0453699,10.2335509 C13.7682173,10.2335509 15.1631401,8.83862812 15.1631401,7.11611232 C15.1631401,5.39492281 13.7682173,4 12.0453699,4 C10.3241804,4 8.92793131,5.39492281 8.92793131,7.11743861 C8.92793131,8.83862812 10.3241804,10.2335509 12.0453699,10.2335509 Z M13.5732831,11.7780126 L10.4275636,11.7780126 C7.81027142,11.7780126 5.67999983,13.5691638 5.67999983,15.7698062 L5.67999983,19.0052844 L5.69064724,19.0556833 L5.95564956,19.125645 C8.45266542,19.7811626 10.6231606,20 12.4099545,20 C15.8991516,20 17.9201886,19.1644389 18.0463802,19.1100611 L18.2928481,19.0052844 L18.3192695,19.0052844 L18.3192695,15.7698062 C18.3208469,13.5691638 16.190181,11.7780126 13.5732831,11.7780126 Z" id="multiple-users-silhouette" class="fill-color"></path>
        </g>
    </g>
</svg>