<svg width="12" height="8" viewBox="0 0 12 8" fill="none" xmlns="http://www.w3.org/2000/svg">
<path d="M10.3853 7.72785C10.5298 7.8255 10.7212 7.78644 10.8345 7.62628C11.5493 6.60285 11.9673 5.28644 11.9673 3.89191C11.9673 2.49738 11.5454 1.17706 10.8345 0.153625C10.7212 -0.00653082 10.5298 -0.0455933 10.3853 0.0559692C10.2368 0.157532 10.2134 0.352844 10.3267 0.516907C10.9556 1.44269 11.3462 2.63019 11.3462 3.89191C11.3462 5.15363 10.9673 6.35675 10.3267 7.26691C10.2134 7.42706 10.2368 7.62238 10.3853 7.72785ZM5.03369 7.45831C5.29932 7.45831 5.49072 7.263 5.49072 7.00128V0.770813C5.49072 0.509094 5.29932 0.290344 5.02588 0.290344C4.83447 0.290344 4.70557 0.376282 4.49854 0.571594L2.77588 2.2005C2.74854 2.22394 2.71338 2.23566 2.67432 2.23566H1.51416C0.963379 2.23566 0.666504 2.53644 0.666504 3.12238V4.638C0.666504 5.22394 0.963379 5.52472 1.51416 5.52472H2.67432C2.71338 5.52472 2.74854 5.53644 2.77588 5.55988L4.49854 7.20441C4.68604 7.38019 4.84229 7.45831 5.03369 7.45831ZM8.81104 6.66144C8.96338 6.763 9.15088 6.72394 9.26025 6.56769C9.77588 5.84894 10.0728 4.89191 10.0728 3.89191C10.0728 2.888 9.77979 1.93097 9.26025 1.21222C9.14697 1.05988 8.96338 1.02081 8.81104 1.12238C8.6626 1.22394 8.63916 1.41534 8.75635 1.58331C9.18213 2.20831 9.44385 3.02863 9.44385 3.89191C9.44385 4.75519 9.18994 5.58331 8.75244 6.2005C8.64307 6.36847 8.6626 6.55988 8.81104 6.66144ZM7.25244 5.60675C7.38525 5.7005 7.57666 5.66925 7.68994 5.51691C7.99463 5.10675 8.17822 4.50519 8.17822 3.89191C8.17822 3.27863 7.99072 2.68097 7.68994 2.263C7.57666 2.11066 7.38916 2.07941 7.25244 2.17316C7.08057 2.28644 7.06104 2.48566 7.18604 2.65753C7.4126 2.96222 7.54932 3.42706 7.54932 3.89191C7.54932 4.35675 7.40479 4.82159 7.18213 5.13019C7.06494 5.29816 7.08447 5.48956 7.25244 5.60675Z" class="fill-color"/>
</svg>
