<?xml version="1.0" encoding="UTF-8"?>
<svg width="512px" height="512px" viewBox="0 0 512 512" version="1.1" xmlns="http://www.w3.org/2000/svg" xmlns:xlink="http://www.w3.org/1999/xlink">
    <!-- Generator: Sketch 54.1 (76490) - https://sketchapp.com -->
    <desc>Created with Sketch.</desc>
    <defs>
        <linearGradient x1="50%" y1="100%" x2="50%" y2="0%" id="linearGradient-1">
            <stop stop-color="#808080" stop-opacity="0.25" offset="0%"></stop>
            <stop stop-color="#808080" stop-opacity="0.12" offset="54%"></stop>
            <stop stop-color="#808080" stop-opacity="0.1" offset="100%"></stop>
        </linearGradient>
    </defs>
    <g id="empty-states/create-show" stroke="none" stroke-width="1" fill="none" fill-rule="evenodd" opacity="0.7">
        <g id="create-shows" transform="translate(6.000000, 63.000000)">
            <ellipse id="Oval" fill="#000000" fill-rule="nonzero" opacity="0.1" cx="373.096447" cy="365.482234" rx="50.7614213" ry="12.6903553"></ellipse>
            <path d="M15.4198826,266.35685 C9.6899236,268.334713 2.73524051,272.369734 3.9074764,278.783475 C4.49359437,282.034396 7.10925505,284.443954 9.5936953,286.479084 C20.2057731,295.149508 31.870165,302.424858 44.3058746,308.129868 C50.2414122,310.843373 56.5531152,313.332223 61.0364802,318.33635 C65.5198449,323.34048 67.597502,330.335688 69.0540487,337.079807 C72.4722046,353.051843 73.3169739,369.473629 71.555985,385.715883 C89.4500784,386.059477 109.264364,385.654213 121.927136,372.672551 C129.507304,364.897652 133.570763,353.365251 142.485005,347.347962 C148.42929,343.334967 155.755765,342.339429 162.83292,341.50247 C196.329123,337.55849 229.998829,335.170957 263.842038,334.339871 C278.022594,333.991873 292.513703,333.86853 305.753845,328.890832 C318.993987,323.913135 331.013779,313.03268 333.703797,298.280193 C334.11933,296.00719 334.390518,293.500721 335.934546,291.914906 C337.31236,290.492079 339.376893,290.152888 341.305835,289.901802 L457.606508,274.043647 C463.975071,273.16264 470.566713,272.224365 475.929254,268.599015 C481.116835,265.074982 484.616046,259.445338 487.962168,253.956655 C495.629815,241.393473 503.586147,226.204886 498.276094,211.840042 C494.028926,200.360502 482.612749,193.748532 471.703957,189.643033 C460.795165,185.537533 449.050934,182.65223 440.184807,174.604218 C426.695348,162.358199 423.70352,142.028928 419.902503,123.787646 C416.463122,107.268872 411.634287,91.074786 405.468254,75.3806338 C400.02698,61.5752302 393.400348,47.9680538 383.523822,37.2241548 C373.647299,26.4802561 360.057236,18.8639375 346.226602,19.4101628 C328.161921,20.1325897 312.271127,34.3124218 294.175827,32.5504048 C278.893023,31.0747155 266.457698,18.7405963 252.697049,11.0670122 C228.268177,-2.56659459 199.434674,-1.36842303 172.705071,2.88244305 C144.361457,7.37999152 115.842882,15.2518026 92.8793058,32.9556688 C87.6304886,37.0083079 82.6091198,41.6864629 79.5254396,47.7830419 C74.8015038,57.1349472 75.2082873,68.5307924 72.8419454,78.9222878 C63.3065937,120.770192 12.1831119,138.227376 1.67235499,179.771332 C-2.06305342,194.519415 0.701323759,210.514125 7.55540452,224.143326 C14.925619,238.816523 29.7316581,245.071684 37.3205734,257.665701 C32.2467165,262.33064 22.138369,264.035391 15.4198826,266.35685 Z" id="Path" fill="#000000" fill-rule="nonzero" opacity="0.240327381"></path>
            <path d="M381.427406,368.020305 C381.427406,368.020305 376.940904,336.470071 390.417536,315.704602 C396.135213,307.032244 398.941401,296.700122 398.414472,286.260629 C398.128825,281.307041 397.39798,276.390708 396.231155,271.573604" id="Path" stroke="#535461" stroke-width="2"></path>
            <path d="M403.471081,257.143061 C402.976129,261.106675 395.245061,271.573604 395.245061,271.573604 C395.245061,271.573604 390.414168,259.047838 390.896848,255.084223 C391.181122,252.482231 392.674216,250.258183 394.801558,249.267935 C396.928901,248.277687 399.358944,248.675569 401.156561,250.308469 C402.954178,251.941369 403.839211,254.554799 403.471081,257.143061 L403.471081,257.143061 Z" id="Path" fill="#46464D" fill-rule="nonzero"></path>
            <path d="M414.433046,280.261911 C411.761891,283.078523 398.477157,286.80203 398.477157,286.80203 C398.477157,286.80203 400.674703,274.157799 403.341122,271.358629 C405.06785,269.534553 407.72047,268.697102 410.299761,269.161734 C412.879051,269.626365 414.99316,271.32249 415.845723,273.611195 C416.698284,275.899901 416.159777,278.433477 414.433046,280.257551 L414.433046,280.261911 Z" id="Path" fill="#46464D" fill-rule="nonzero"></path>
            <path d="M406.886764,314.449259 C403.333198,315.584883 390.862944,312.791409 390.862944,312.791409 C390.862944,312.791409 399.001609,303.399698 402.555175,302.268218 C406.030924,301.349459 409.657294,303.169716 410.81019,306.411822 C411.963086,309.653929 410.239551,313.184718 406.886764,314.449259 Z" id="Path" fill="#46464D" fill-rule="nonzero"></path>
            <path d="M394.791637,341.381962 C391.382949,343.329051 378.172589,342.434442 378.172589,342.434442 C378.172589,342.434442 384.728107,330.249594 388.136794,328.302505 C391.545363,326.355254 395.798289,327.704632 397.635975,331.316424 C399.473657,334.928218 398.200206,339.434713 394.791637,341.381962 L394.791637,341.381962 Z" id="Path" fill="#46464D" fill-rule="nonzero"></path>
            <path d="M382.08367,284.692855 C384.301216,287.562756 395.939086,291.878173 395.939086,291.878173 C395.939086,291.878173 394.703355,279.544787 392.485812,276.662206 C390.265431,273.793327 386.136858,273.265365 383.264386,275.482967 C380.391914,277.700571 379.863289,281.823977 382.08367,284.692855 L382.08367,284.692855 Z" id="Path" fill="#46464D" fill-rule="nonzero"></path>
            <path d="M370.837188,316.992934 C373.719241,319.140787 385.786802,319.796954 385.786802,319.796954 C385.786802,319.796954 381.052003,307.985947 378.153482,305.851216 C376.281332,304.417297 373.82718,304.166576 371.73217,305.195198 C369.637157,306.22382 368.226447,308.37214 368.041033,310.816294 C367.855619,313.260449 368.924277,315.621091 370.837188,316.992934 L370.837188,316.992934 Z" id="Path" fill="#46464D" fill-rule="nonzero"></path>
            <path d="M365.09467,347.144584 C367.839053,349.866173 380.71066,352.791878 380.71066,352.791878 C380.71066,352.791878 377.660345,339.850731 374.911464,337.129145 C373.14382,335.31798 370.545723,334.606957 368.112381,335.268437 C365.679038,335.929916 363.787604,337.861371 363.162599,340.322954 C362.537591,342.784538 363.275883,345.394716 365.09467,347.153657 L365.09467,347.144584 Z" id="Path" fill="#46464D" fill-rule="nonzero"></path>
            <path d="M403.471081,257.143061 C402.976129,261.106675 395.245061,271.573604 395.245061,271.573604 C395.245061,271.573604 390.414168,259.047838 390.896848,255.084223 C391.181122,252.482231 392.674216,250.258183 394.801558,249.267935 C396.928901,248.277687 399.358944,248.675569 401.156561,250.308469 C402.954178,251.941369 403.839211,254.554799 403.471081,257.143061 L403.471081,257.143061 Z" id="Path" fill="#000000" fill-rule="nonzero" opacity="0.25"></path>
            <path d="M414.433046,280.261911 C411.761891,283.078523 398.477157,286.80203 398.477157,286.80203 C398.477157,286.80203 400.674703,274.157799 403.341122,271.358629 C405.06785,269.534553 407.72047,268.697102 410.299761,269.161734 C412.879051,269.626365 414.99316,271.32249 415.845723,273.611195 C416.698284,275.899901 416.159777,278.433477 414.433046,280.257551 L414.433046,280.261911 Z" id="Path" fill="#000000" fill-rule="nonzero" opacity="0.25"></path>
            <path d="M406.886764,314.449259 C403.333198,315.584883 390.862944,312.791409 390.862944,312.791409 C390.862944,312.791409 399.001609,303.399698 402.555175,302.268218 C406.030924,301.349459 409.657294,303.169716 410.81019,306.411822 C411.963086,309.653929 410.239551,313.184718 406.886764,314.449259 Z" id="Path" fill="#000000" fill-rule="nonzero" opacity="0.25"></path>
            <path d="M394.791637,341.381962 C391.382949,343.329051 378.172589,342.434442 378.172589,342.434442 C378.172589,342.434442 384.728107,330.249594 388.136794,328.302505 C391.545363,326.355254 395.798289,327.704632 397.635975,331.316424 C399.473657,334.928218 398.200206,339.434713 394.791637,341.381962 L394.791637,341.381962 Z" id="Path" fill="#000000" fill-rule="nonzero" opacity="0.25"></path>
            <path d="M382.08367,284.692855 C384.301216,287.562756 395.939086,291.878173 395.939086,291.878173 C395.939086,291.878173 394.703355,279.544787 392.485812,276.662206 C390.265431,273.793327 386.136858,273.265365 383.264386,275.482967 C380.391914,277.700571 379.863289,281.823977 382.08367,284.692855 L382.08367,284.692855 Z" id="Path" fill="#000000" fill-rule="nonzero" opacity="0.25"></path>
            <path d="M370.837188,316.992934 C373.719241,319.140787 385.786802,319.796954 385.786802,319.796954 C385.786802,319.796954 381.052003,307.985947 378.153482,305.851216 C376.281332,304.417297 373.82718,304.166576 371.73217,305.195198 C369.637157,306.22382 368.226447,308.37214 368.041033,310.816294 C367.855619,313.260449 368.924277,315.621091 370.837188,316.992934 L370.837188,316.992934 Z" id="Path" fill="#000000" fill-rule="nonzero" opacity="0.25"></path>
            <path d="M365.09467,347.144584 C367.839053,349.866173 380.71066,352.791878 380.71066,352.791878 C380.71066,352.791878 377.660345,339.850731 374.911464,337.129145 C373.14382,335.31798 370.545723,334.606957 368.112381,335.268437 C365.679038,335.929916 363.787604,337.861371 363.162599,340.322954 C362.537591,342.784538 363.275883,345.394716 365.09467,347.153657 L365.09467,347.144584 Z" id="Path" fill="#000000" fill-rule="nonzero" opacity="0.25"></path>
            <path d="M380.71066,365.482234 C380.71066,365.482234 363.640759,338.607683 367.846706,314.135129 C369.681581,303.889475 368.110122,293.330952 363.368274,284.044858 C361.080079,279.652896 358.389338,275.478279 355.329949,271.573604" id="Path" stroke="#535461" stroke-width="2"></path>
            <path d="M357.697865,256.092579 C358.651645,259.604617 355.284642,271.573604 355.284642,271.573604 C355.284642,271.573604 346.363525,263.188934 345.41797,259.668393 C344.798155,257.397424 345.396863,254.956972 346.988569,253.266334 C348.580274,251.575695 350.92316,250.891717 353.134683,251.472048 C355.346206,252.05238 357.090383,253.808853 357.710201,256.079825 L357.697865,256.092579 Z" id="Path" fill="#000000" fill-rule="nonzero"></path>
            <path d="M372.822688,272.562107 C371.783185,276.063685 362.670074,284.263959 362.670074,284.263959 C362.670074,284.263959 359.588543,272.147391 360.615718,268.641538 C361.656137,265.137437 365.229426,263.174449 368.596883,264.257084 C371.96434,265.339721 373.850779,269.058005 372.810363,272.562107 L372.822688,272.562107 Z" id="Path" fill="#000000" fill-rule="nonzero"></path>
            <path d="M383.556637,309.519467 C380.76319,312.220434 368.020305,314.720812 368.020305,314.720812 C368.020305,314.720812 371.485591,301.542515 374.279038,298.860206 C377.074102,296.155046 381.417797,296.353457 383.980957,299.303371 C386.544114,302.253284 386.356119,306.837629 383.561056,309.542792 L383.556637,309.519467 Z" id="Path" fill="#000000" fill-rule="nonzero"></path>
            <path d="M386.621957,335.53185 C384.047665,338.378307 370.558376,342.639594 370.558376,342.639594 C370.558376,342.639594 372.029398,330.393114 374.579175,327.525668 C376.218213,325.62103 378.933657,324.626023 381.67453,324.925749 C384.415404,325.225475 386.751591,326.772898 387.778906,328.969112 C388.806221,331.165325 388.363447,333.665685 386.621957,335.502462 L386.621957,335.53185 Z" id="Path" fill="#000000" fill-rule="nonzero"></path>
            <path d="M348.852201,290.602632 C352.259551,292.557911 365.482234,291.683056 365.482234,291.683056 C365.482234,291.683056 358.938678,279.497206 355.540365,277.546706 C353.335774,276.282817 350.661269,276.359157 348.52431,277.746972 C346.387353,279.134787 345.112596,281.623231 345.180228,284.274934 C345.24786,286.926637 346.647609,289.338741 348.852201,290.602632 L348.852201,290.602632 Z" id="Path" fill="#000000" fill-rule="nonzero"></path>
            <path d="M350.562825,322.26381 C354.071802,322.934871 365.482234,318.642536 365.482234,318.642536 C365.482234,318.642536 356.543091,310.458865 353.034112,309.791896 C350.740114,309.298718 348.354018,310.064307 346.799292,311.792365 C345.244566,313.520426 344.765173,315.939792 345.546647,318.114122 C346.328122,320.288454 348.247838,321.876558 350.562825,322.26381 Z" id="Path" fill="#000000" fill-rule="nonzero"></path>
            <path d="M356.876376,352.430373 C360.404396,353.671919 373.096447,351.317124 373.096447,351.317124 C373.096447,351.317124 365.264244,341.666188 361.727404,340.408091 C358.259216,339.367746 354.529873,341.055855 353.238553,344.250614 C351.947236,347.445376 353.545414,351.029838 356.876376,352.409683 L356.876376,352.430373 Z" id="Path" fill="#000000" fill-rule="nonzero"></path>
            <polygon id="Path" fill="url(#linearGradient-1)" fill-rule="nonzero" points="124.365482 27.9187817 124.365482 39.9365731 124.365482 337.563452 345.177665 337.563452 345.177665 39.9365731 345.177665 27.9187817"></polygon>
            <rect id="Rectangle" fill-opacity="0.4" fill="#F6F7F9" fill-rule="nonzero" x="126.903553" y="27.9187817" width="218.274112" height="10.1522843"></rect>
            <g id="Group" opacity="0.2" transform="translate(126.903553, 27.918782)" fill="#000000" fill-rule="nonzero">
                <rect id="Rectangle" x="0.0349938457" y="0.00752021056" width="218.0554" height="10.1109231"></rect>
            </g>
            <rect id="Rectangle" fill="#454545" fill-rule="nonzero" x="126.903553" y="40.6091371" width="218.274112" height="291.878173"></rect>
            <circle id="Oval" fill="#F6F7F9" fill-rule="nonzero" cx="133.248731" cy="34.2639594" r="2.53807107"></circle>
            <circle id="Oval" fill="#F6F7F9" fill-rule="nonzero" cx="138.324873" cy="34.2639594" r="2.53807107"></circle>
            <circle id="Oval" fill="#F6F7F9" fill-rule="nonzero" cx="143.401015" cy="34.2639594" r="2.53807107"></circle>
            <g id="Group" opacity="0.2" transform="translate(164.974619, 58.375635)" fill="#000000" fill-rule="nonzero">
                <rect id="Rectangle" x="0.0217435995" y="0.355329949" width="139.398216" height="4.55039883"></rect>
            </g>
            <rect id="Rectangle" fill="#000000" fill-rule="nonzero" x="286.80203" y="58.3756345" width="17.7664975" height="5.07614213"></rect>
            <g id="Group" opacity="0.2" transform="translate(147.208122, 88.832487)" fill="#000000" fill-rule="nonzero">
                <rect id="Rectangle" x="0.26759416" y="0.205671276" width="176.980636" height="63.2286015"></rect>
            </g>
            <rect id="Rectangle" fill-opacity="0.3" fill="#F6F7F9" fill-rule="nonzero" x="164.974619" y="114.213198" width="101.522843" height="5.07614213"></rect>
            <rect id="Rectangle" fill-opacity="0.3" fill="#F6F7F9" fill-rule="nonzero" x="167.51269" y="124.365482" width="50.7614213" height="5.07614213"></rect>
            <rect id="Rectangle" fill="#000000" fill-rule="nonzero" x="286.80203" y="142.13198" width="17.7664975" height="5.07614213"></rect>
            <circle id="Oval" fill-opacity="0.3" fill="#F6F7F9" fill-rule="nonzero" cx="299.492386" cy="121.827411" r="10.1522843"></circle>
            <g id="Group" opacity="0.2" transform="translate(147.208122, 172.588832)" fill="#000000" fill-rule="nonzero">
                <rect id="Rectangle" x="0.26759416" y="0.201295291" width="176.980636" height="63.2286015"></rect>
            </g>
            <rect id="Rectangle" fill-opacity="0.3" fill="#F6F7F9" fill-rule="nonzero" x="164.974619" y="195.431472" width="101.522843" height="5.07614213"></rect>
            <rect id="Rectangle" fill-opacity="0.3" fill="#F6F7F9" fill-rule="nonzero" x="167.51269" y="208.121827" width="50.7614213" height="5.07614213"></rect>
            <rect id="Rectangle" fill="#000000" fill-rule="nonzero" x="286.80203" y="223.350254" width="17.7664975" height="5.07614213"></rect>
            <circle id="Oval" fill-opacity="0.3" fill="#F6F7F9" fill-rule="nonzero" cx="299.492386" cy="203.045685" r="10.1522843"></circle>
            <g id="Group" opacity="0.2" transform="translate(147.208122, 253.807107)" fill="#000000" fill-rule="nonzero">
                <rect id="Rectangle" x="0.26759416" y="0.196919307" width="176.980636" height="63.2286015"></rect>
            </g>
            <rect id="Rectangle" fill-opacity="0.3" fill="#F6F7F9" fill-rule="nonzero" x="164.974619" y="276.649746" width="101.522843" height="5.07614213"></rect>
            <rect id="Rectangle" fill-opacity="0.3" fill="#F6F7F9" fill-rule="nonzero" x="167.51269" y="286.80203" width="50.7614213" height="5.07614213"></rect>
            <rect id="Rectangle" fill="#000000" fill-rule="nonzero" x="286.80203" y="304.568528" width="17.7664975" height="5.07614213"></rect>
            <circle id="Oval" fill-opacity="0.3" fill="#F6F7F9" fill-rule="nonzero" cx="299.492386" cy="284.263959" r="10.1522843"></circle>
        </g>
    </g>
</svg>