<?xml version="1.0" encoding="UTF-8"?>
<svg width="512px" height="512px" viewBox="0 0 512 512" version="1.1" xmlns="http://www.w3.org/2000/svg" xmlns:xlink="http://www.w3.org/1999/xlink">
    <!-- Generator: Sketch 54.1 (76490) - https://sketchapp.com -->
    <desc>Created with Sketch.</desc>
    <g id="empty-states/import-show" stroke="none" stroke-width="1" fill="none" fill-rule="evenodd" opacity="0.7">
        <g id="synchronize_ccxk" transform="translate(6.000000, 68.000000)">
            <path d="M97,15 L298.372998,15 L298.372998,183.905904 L97,183.905904 L97,15 Z M183.458278,93.9625 L153,93.9407012 L197.791585,138.628201 L242.583169,93.9625 L212.124892,93.9625 L212.124892,60 L183.458278,60 L183.458278,93.9625 Z" id="Combined-Shape" fill="#000000" fill-rule="nonzero" opacity="0.240327381"></path>
            <path d="M350.400458,291.189931 C350.400458,291.189931 354.977117,307.78032 354.977117,310.06865 C354.977117,312.356979 362.414188,311.784897 362.414188,311.784897 L368.135011,302.631579 C368.135011,302.631579 363.558352,293.478261 362.414188,288.901602 C361.270023,284.324943 350.400458,291.189931 350.400458,291.189931 Z" id="Path" fill="#AEAEAE"></path>
            <path d="M358.981693,306.636156 C358.981693,306.636156 365.846682,308.352403 365.846682,303.203661 C365.846682,298.05492 368.707094,300.343249 368.707094,300.343249 C368.707094,300.343249 375.572082,304.347826 372.71167,308.352403 C369.851259,312.356979 364.702517,316.933638 362.98627,320.938215 C361.270023,324.942792 356.121281,335.812357 350.400458,333.524027 C344.679634,331.235698 348.684211,326.086957 348.684211,326.086957 C348.684211,326.086957 353.26087,319.221968 352.116705,313.501144 C350.97254,307.78032 350.400458,304.919908 352.116705,304.919908 C353.832952,304.919908 356.693364,303.203661 356.693364,305.491991 C356.693364,307.78032 358.981693,306.636156 358.981693,306.636156 Z" id="Path" fill="#2B2B2B"></path>
            <circle id="Oval" fill="#494949" cx="358.695652" cy="72.3684211" r="21.7391304"></circle>
            <circle id="Oval" fill="#494949" cx="356.407323" cy="54.0617849" r="19.4508009"></circle>
            <polygon id="Path" fill="#3F3D56" fill-rule="nonzero" points="346.10984 169.050343 334.668192 167.906178 329.99714 156.480549 330.663616 146.167048 346.10984 146.167048"></polygon>
            <polygon id="Path" fill="#000000" fill-rule="nonzero" opacity="0.1" points="346.10984 169.050343 334.668192 167.906178 329.99714 156.480549 330.663616 146.167048 346.10984 146.167048"></polygon>
            <path d="M346.967963,86.9565217 C346.967963,86.9565217 346.395881,101.258581 344.107551,102.974828 C341.819222,104.691076 347.540046,111.556064 347.540046,111.556064 L356.693364,109.267735 L363.558352,102.974828 L360.697941,102.402746 C360.697941,102.402746 360.697941,94.3935927 362.414188,92.1052632 C364.130435,89.8169336 346.967963,86.9565217 346.967963,86.9565217 Z" id="Path" fill="#FBBEBE" fill-rule="nonzero"></path>
            <path d="M346.967963,86.9565217 C346.967963,86.9565217 346.395881,101.258581 344.107551,102.974828 C341.819222,104.691076 347.540046,111.556064 347.540046,111.556064 L356.693364,109.267735 L363.558352,102.974828 L360.697941,102.402746 C360.697941,102.402746 360.697941,94.3935927 362.414188,92.1052632 C364.130435,89.8169336 346.967963,86.9565217 346.967963,86.9565217 Z" id="Path" fill="#969393"></path>
            <path d="M330.949657,143.020595 C330.949657,143.020595 336.670481,157.894737 335.526316,170.480549 C334.382151,183.066362 361.270023,172.196796 361.270023,172.196796 L369.279176,167.048055 C369.279176,167.048055 371.567506,151.601831 369.279176,148.169336 C366.990847,144.736842 362.414188,132.723112 362.414188,132.723112 L350.400458,131.006865 L330.949657,143.020595 Z" id="Path" fill="#AEAEAE"></path>
            <path d="M427.140595,208.690486 C427.140595,208.690486 436.896035,197.907546 438.527735,196.870366 C440.159434,195.833186 436.380675,190.789474 436.380675,190.789474 L427.260944,190.858942 C427.260944,190.858942 422.808513,198.271053 420.063707,201.161259 C417.318902,204.051465 427.140595,208.690486 427.140595,208.690486 Z" id="Path" fill="#AEAEAE"></path>
            <path d="M434.265126,195.570669 C434.265126,195.570669 432.377363,189.897695 428.706047,192.231344 C425.034731,194.564994 425.369954,191.488209 425.369954,191.488209 C425.369954,191.488209 425.113884,184.778055 429.265835,185.002614 C433.417786,185.227174 439.014817,186.824125 442.648175,186.232843 C446.281533,185.641562 456.365738,184.386276 457.326985,189.502695 C458.288232,194.619113 452.801854,194.097294 452.801854,194.097294 C452.801854,194.097294 445.832408,193.945441 442.271756,197.354233 C438.711104,200.763026 436.930795,202.467426 436.152895,201.24365 C435.374994,200.019874 432.854765,198.758141 434.486459,197.720967 C436.118152,196.683793 434.265126,195.570669 434.265126,195.570669 Z" id="Path" fill="#2B2B2B"></path>
            <path d="M340.675057,97.2540046 C340.675057,97.2540046 333.810069,93.2494279 332.093822,81.8077803 C330.377574,70.3661327 318.363844,30.3203661 318.363844,30.3203661 C318.363844,30.3203661 310.354691,2.8604119 307.494279,12.01373 C304.633867,21.1670481 310.926773,31.4645309 310.926773,31.4645309 L318.935927,68.6498856 C318.935927,68.6498856 325.800915,116.704805 329.23341,118.993135 C332.665904,121.281465 340.675057,97.2540046 340.675057,97.2540046 Z" id="Path" fill="#AEAEAE"></path>
            <path d="M368.533106,99.4762185 C368.533106,99.4762185 376.480257,99.3897082 383.629216,90.2930664 C390.778175,81.1964245 421.020852,52.3281922 421.020852,52.3281922 C421.020852,52.3281922 441.559754,32.4196911 439.520326,41.7901716 C437.480898,51.1606522 426.919531,56.9998913 426.919531,56.9998913 L401.572014,85.3618307 C401.572014,85.3618307 371.844662,123.737449 367.729657,124.029336 C363.614651,124.321224 368.533106,99.4762185 368.533106,99.4762185 Z" id="Path" fill="#AEAEAE"></path>
            <circle id="Oval" fill="#AEAEAE" cx="356.693364" cy="81.8077803" r="14.3020595"></circle>
            <path d="M370.296213,158.045641 C370.296213,158.045641 350.400458,172.196796 342.963387,169.908467 C335.526316,167.620137 334.382151,165.90389 334.382151,165.90389 C334.382151,165.90389 327.517162,212.814645 332.665904,231.121281 C332.665904,231.121281 333.237986,249.427918 338.386728,256.292906 L350.400458,295.76659 C350.400458,295.76659 363.558352,295.194508 363.558352,290.617849 C363.558352,290.617849 361.842105,280.892449 361.842105,274.02746 C361.842105,267.162471 352.688787,250 352.688787,250 L358.981693,201.94508 C358.981693,201.94508 383.009153,250 392.734554,246.567506 C402.459954,243.135011 429.919908,207.093822 429.919908,207.093822 L421.338673,199.084668 C421.338673,199.084668 397.311213,213.386728 394.450801,220.823799 C394.450801,220.823799 375.317826,162.201116 370.296213,158.045641 Z" id="Path" fill="#454545"></path>
            <path d="M354.977117,104.691076 C354.977117,104.691076 362.414188,98.9702517 363.558352,98.9702517 L370.995423,98.9702517 C370.995423,98.9702517 376.716247,112.700229 374.427918,118.421053 C374.427918,118.421053 371.567506,133.295195 370.995423,134.439359 C370.423341,135.583524 370.995423,139.016018 372.139588,142.448513 C373.283753,145.881007 376.716247,153.318078 375,155.034325 C373.283753,156.750572 371.567506,161.327231 370.423341,161.327231 C369.279176,161.327231 360.125858,152.745995 358.409611,147.025172 C356.693364,141.304348 356.693364,139.588101 352.688787,141.87643 C348.684211,144.16476 330.949657,143.020595 332.093822,152.173913 C332.609809,156.7883 333.373689,161.371583 334.382151,165.90389 C334.382151,165.90389 327.517162,168.19222 326.372998,157.322654 C325.228833,146.453089 324.084668,145.881007 327.517162,141.87643 C330.949657,137.871854 326.372998,121.281465 326.372998,121.281465 C326.372998,121.281465 332.093822,111.556064 333.237986,106.407323 C334.382151,101.258581 338.95881,96.1098398 338.95881,96.1098398 C338.95881,96.1098398 341.819222,94.3935927 343.535469,95.5377574 C345.251716,96.6819222 346.169651,96.1098398 346.169651,96.1098398 C346.169651,96.1098398 342.963387,104.118993 346.395881,104.118993 C349.828375,104.118993 354.977117,104.691076 354.977117,104.691076 Z" id="Path" fill="#2B2B2B"></path>
            <ellipse id="Oval" fill="#000000" fill-rule="nonzero" opacity="0.1" cx="346.395881" cy="165.045767" rx="1" ry="1.71624714"></ellipse>
            <ellipse id="Oval" fill="#494949" cx="358.12357" cy="68.9359268" rx="17.1624714" ry="10.8695652"></ellipse>
            <ellipse id="Oval" fill="#494949" cx="64.6453089" cy="110.125858" rx="24.02746" ry="32.6086957"></ellipse>
            <path d="M70.6696568,130.777048 C70.6696568,130.777048 80.377603,121.281447 81.5217677,117.848953 C82.6659325,114.416459 96.3959096,56.0640561 96.3959096,56.0640561 C96.3959096,56.0640561 107.837557,23.4553604 112.986299,31.4645137 C118.13504,39.473667 104.405063,58.3523856 104.405063,58.3523856 C104.405063,58.3523856 100.972569,94.3935755 98.6842391,102.974811 C96.3959096,111.556047 88.3867563,143.59266 83.2380149,147.025154 L78.0892735,157.322637 L72.3684497,158.466802 L67.2197082,144.164743 L67.7917906,138.443919 L70.6696568,130.777048 Z" id="Path" fill="#AEAEAE"></path>
            <path d="M99.2562929,282.608696 C99.2562929,282.608696 112.98627,286.613272 114.702517,284.324943 C116.418764,282.036613 122.71167,295.76659 122.71167,295.76659 L122.71167,300.915332 L116.990847,302.059497 C116.990847,302.059497 99.8283753,294.622426 96.9679634,294.622426 C94.1075515,294.622426 99.2562929,282.608696 99.2562929,282.608696 Z" id="Path" fill="#AEAEAE"></path>
            <path d="M116.990847,291.189931 C116.990847,291.189931 108.981693,284.324943 110.697941,283.180778 C112.414188,282.036613 119.279176,274.02746 122.71167,278.604119 C126.144165,283.180778 141.590389,308.352403 137.585812,314.073227 C133.581236,319.79405 130.720824,316.361556 130.720824,316.361556 C130.720824,316.361556 120.080995,302.059497 115.96155,302.059497 C115.96155,302.059497 121.567506,295.76659 116.990847,291.189931 Z" id="Path" fill="#2B2B2B"></path>
            <path d="M59.7826087,334.09611 C59.7826087,334.09611 60.3546911,352.974828 55.2059497,358.695652 C50.0572082,364.416476 62.0709382,363.272311 62.0709382,363.272311 L74.6567506,354.691076 C74.6567506,354.691076 71.2242563,345.537757 72.3684211,336.956522 L59.7826087,334.09611 Z" id="Path" fill="#AEAEAE"></path>
            <path d="M74.6567506,350.114416 C74.6567506,350.114416 73.5125858,348.970252 70.6521739,352.402746 C67.791762,355.83524 62.0709382,359.839817 58.6384439,356.407323 C55.2059497,352.974828 55.2059497,355.83524 55.2059497,355.83524 C55.2059497,355.83524 47.7688787,367.84897 41.4759725,369.565217 C35.1830664,371.281465 39.7597254,377.002288 45.4805492,374.713959 C51.201373,372.425629 79.2334096,362.700229 79.2334096,362.700229 C79.2334096,362.700229 78.6613272,354.691076 74.6567506,350.114416 Z" id="Path" fill="#2B2B2B"></path>
            <path d="M32.8947368,197.940503 L24.3135011,211.098398 C24.3135011,211.098398 3.14645309,227.688787 14.0160183,229.405034 C24.8855835,231.121281 31.1784897,213.95881 31.1784897,213.95881 L38.6155606,204.805492 L32.8947368,197.940503 Z" id="Path" fill="#AEAEAE"></path>
            <path d="M30.0343249,195.652174 C30.0343249,195.652174 39.7597254,209.954233 44.3363844,211.098398 C48.9130435,212.242563 47.1967963,200.228833 47.1967963,200.228833 L30.0343249,195.652174 Z" id="Path" fill="#6C63FF" fill-rule="nonzero"></path>
            <path d="M30.0343249,195.652174 C30.0343249,195.652174 39.7597254,209.954233 44.3363844,211.098398 C48.9130435,212.242563 47.1967963,200.228833 47.1967963,200.228833 L30.0343249,195.652174 Z" id="Path" fill="#353434"></path>
            <path d="M42.6201373,194.508009 L44.3363844,224.256293 C44.3363844,224.256293 38.0434783,268.306636 47.7688787,278.604119 C47.7688787,278.604119 53.4897025,294.050343 53.4897025,299.771167 C53.4897025,305.491991 57.4942792,339.816934 57.4942792,339.816934 L74.0846682,339.816934 C74.0846682,339.816934 77.5171625,292.334096 68.3638444,277.459954 L68.3638444,196.224256 L42.6201373,194.508009 Z" id="Path" fill="#454545"></path>
            <path d="M42.3382094,253.461739 C42.4195881,263.954497 43.6751316,274.269559 47.7688787,278.604119 C47.7688787,278.604119 53.4897025,294.050343 53.4897025,299.771167 C53.4897025,305.491991 57.4942792,339.816934 57.4942792,339.816934 L74.0846682,339.816934 C74.0846682,339.816934 77.5171625,292.334096 68.3638444,277.459954 L68.3638444,256.218576" id="Path" fill="#000000" fill-rule="nonzero" opacity="0.1"></path>
            <path d="M60.3546911,201.372998 L43.1922197,246.567506 C43.1922197,246.567506 32.8947368,285.469108 45.4805492,289.473684 C58.0663616,293.478261 90.6750572,292.334096 95.8237986,296.338673 C100.97254,300.343249 103.832952,284.324943 102.116705,282.608696 C100.400458,280.892449 72.9405034,271.73913 61.4988558,271.73913 C61.4988558,271.73913 91.819222,230.549199 84.382151,221.395881 C76.9450801,212.242563 66.6475973,200.800915 60.3546911,201.372998 Z" id="Path" fill="#454545"></path>
            <path d="M56.3501144,114.416476 C56.3501144,114.416476 56.9221968,129.8627 54.0617849,130.434783 C51.7144835,131.007694 49.4183845,131.773061 47.1967963,132.723112 L47.1967963,141.304348 L51.7734554,144.16476 L63.215103,137.299771 L67.791762,133.295195 L72.3684211,129.290618 C72.3684211,129.290618 69.5080092,121.281465 72.3684211,116.132723 L56.3501144,114.416476 Z" id="Path" fill="#A0616A" fill-rule="nonzero"></path>
            <path d="M56.3501144,114.416476 C56.3501144,114.416476 56.9221968,129.8627 54.0617849,130.434783 C51.7144835,131.007694 49.4183845,131.773061 47.1967963,132.723112 L47.1967963,141.304348 L51.7734554,144.16476 L63.215103,137.299771 L67.791762,133.295195 L72.3684211,129.290618 C72.3684211,129.290618 69.5080092,121.281465 72.3684211,116.132723 L56.3501144,114.416476 Z" id="Path" fill="#969393"></path>
            <path d="M54.0617849,139.016018 C54.0617849,139.016018 63.7871854,129.8627 66.0755149,130.434783 C68.3638444,131.006865 74.9427918,126.716247 74.9427918,126.716247 C73.6698167,131.108077 72.8079831,135.608763 72.3684211,140.160183 C72.0585469,143.878719 72.7557723,145.918764 73.4599886,147.00762 C74.2764675,148.234416 74.9395183,149.556652 75.4343135,150.94476 C76.3811098,153.712265 78.1351773,157.055406 80.3775744,153.318078 C80.3775744,153.318078 79.2334096,159.610984 78.0892449,177.91762 C76.9450801,196.224256 83.2379863,208.810069 83.2379863,208.810069 C83.2379863,208.810069 88.3867277,222.540046 86.0983982,225.400458 C86.0983982,225.400458 68.3638444,213.95881 69.5080092,208.810069 C69.5080092,208.810069 28.3180778,203.089245 28.3180778,195.652174 C28.2957834,191.302341 30.4407338,187.226935 34.0389016,184.782609 C34.4215994,181.27656 35.1889955,177.823277 36.3272311,174.485126 C36.3272311,174.485126 30.0343249,161.327231 35.7551487,150.457666 C35.7551487,150.457666 30.6064073,135.583524 37.4713959,132.15103 C44.3363844,128.718535 52.9176201,130.434783 52.9176201,130.434783 C52.9176201,130.434783 44.9084668,135.583524 50.0572082,138.443936 L54.0617849,139.016018 Z" id="Path" fill="#2B2B2B"></path>
            <circle id="Oval" fill="#AEAEAE" cx="64.9313501" cy="106.979405" r="14.3020595"></circle>
            <ellipse id="Oval" fill="#494949" cx="66.0755149" cy="98.3981693" rx="15.7322654" ry="8.29519451"></ellipse>
            <circle id="Oval" fill="#494949" cx="47.4828375" cy="83.2379863" r="4.57665904"></circle>
            <circle id="Oval" fill="#494949" cx="81.8077803" cy="83.2379863" r="4.57665904"></circle>
            <path d="M0,375.572082 L486.969748,375.572082" id="Path" stroke="#3F3D56"></path>
            <rect id="Rectangle" stroke="#3F3D56" x="109.267735" y="0.28604119" width="201.372998" height="168.905904"></rect>
            <path d="M461.465063,304.526968 C466.217361,306.254606 471.542522,304.792087 474.745774,300.879512 C477.949026,296.966937 478.331561,291.457856 475.699799,287.140114 C473.068036,282.822372 467.996111,280.637909 463.050646,281.692162 L463.348661,287.820429 L460.449262,282.56845 C457.603667,283.905515 455.405325,286.317643 454.337328,289.27476 C453.95804,290.310597 453.727462,291.39496 453.652471,292.495503 C453.276414,297.800977 456.465471,302.712154 461.465063,304.526968 Z" id="Path" fill="#000000" fill-rule="nonzero" opacity="0.25"></path>
            <path d="M475.811367,375.604439 C474.787912,370.39262 479.222872,365.772174 483.603627,362.768907 C487.984382,359.765641 493.103055,356.814794 494.597763,351.718084 C496.745932,344.393215 490.347191,337.685011 485.366848,331.900149 C481.671908,327.607118 478.498823,322.891273 475.913993,317.851299 C474.877906,315.830418 473.925675,313.717849 473.652998,311.463278 C473.26032,308.216447 474.303421,304.985543 475.354319,301.88849 C478.855174,291.571293 482.5982,281.340543 486.583398,271.196241" id="Path" stroke="#3F3D56"></path>
            <path d="M461.955406,302.949199 C466.707704,304.676837 472.032866,303.214318 475.236118,299.301743 C478.439369,295.389168 478.821904,289.880087 476.190142,285.562345 C473.55838,281.244603 468.486454,279.06014 463.54099,280.114394 L463.839005,286.24266 L460.939605,280.990681 C458.094015,282.327737 455.895671,284.739852 454.827666,287.696957 C454.448382,288.732797 454.217805,289.817161 454.142815,290.917706 C453.766744,296.22319 456.955803,301.134382 461.955406,302.949199 L461.955406,302.949199 Z" id="Path" stroke="#3F3D56"></path>
            <path d="M474.356104,269.079897 C475.738206,265.266423 478.968631,262.420351 482.925858,261.529765 L483.90619,267.355727 L485.723696,261.236922 C490.90165,261.313712 495.436049,264.728939 496.939457,269.684428 C498.442864,274.639917 496.570395,279.998874 492.307937,282.939717 C488.045479,285.88056 482.370844,285.728656 478.271824,282.563986 C474.172803,279.399316 472.589717,273.947858 474.356087,269.079897 L474.356104,269.079897 Z" id="Path" fill="#000000" fill-rule="nonzero" opacity="0.25"></path>
            <path d="M475.009897,266.976207 C476.391995,263.162731 479.622422,260.316657 483.579651,259.426076 L484.559977,265.252037 L486.377483,259.133232 C491.555438,259.21002 496.089839,262.625245 497.593248,267.580734 C499.096657,272.536224 497.22419,277.895181 492.961732,280.836025 C488.699274,283.77687 483.024639,283.624967 478.925618,280.460297 C474.826596,277.295627 473.24351,271.844169 475.00988,266.976207 L475.009897,266.976207 Z" id="Path" stroke="#3F3D56"></path>
            <path d="M483.276808,332.018221 C488.966537,334.082103 495.299252,331.548446 497.99519,326.129539 C500.691128,320.710633 498.892132,314.1314 493.813993,310.838204 L492.41742,315.540297 L491.427111,309.645664 C491.417319,309.641049 491.407181,309.637206 491.396791,309.63417 C487.398265,308.183668 482.929641,308.976536 479.674206,311.71411 C476.418772,314.451683 474.871104,318.718059 475.614195,322.906135 C476.357286,327.094211 479.278242,330.567719 483.276768,332.018221 L483.276808,332.018221 Z" id="Path" fill="#000000" fill-rule="nonzero" opacity="0.25"></path>
            <path d="M483.843289,329.887397 C489.533019,331.951279 495.865733,329.417622 498.561672,323.998715 C501.25761,318.579809 499.458613,312.000576 494.380475,308.70738 L492.983902,313.409474 L491.993627,307.51484 C491.983835,307.510225 491.973697,307.506382 491.963307,307.503347 C485.782122,305.261064 478.953552,308.454176 476.71127,314.63536 C474.468988,320.816545 477.662099,327.645115 483.843284,329.887397 L483.843289,329.887397 Z" id="Path" stroke="#3F3D56"></path>
            <path d="M470.881545,351.790892 C471.855483,357.332753 476.577857,361.43505 482.201459,361.624433 C487.825062,361.813816 492.812725,358.038518 494.157294,352.574736 C495.501863,347.110955 492.835809,341.452172 487.766547,339.010174 C482.697285,336.568176 476.610458,338.010463 473.175927,342.467454 L478.480658,350.451751 L471.232408,346.213942 C470.6704,348.01798 470.550068,349.930643 470.881545,351.790892 Z" id="Path" fill="#000000" fill-rule="nonzero" opacity="0.25"></path>
            <path d="M471.371888,350.213124 C472.345823,355.754988 477.068199,359.857291 482.691805,360.046676 C488.315411,360.236061 493.303079,356.460761 494.647649,350.996977 C495.99222,345.533192 493.326165,339.874405 488.256899,337.432406 C483.187633,334.990406 477.100802,336.432696 473.66627,340.889691 L478.970995,348.873982 L471.722746,344.636173 C471.160742,346.440212 471.040413,348.352874 471.371888,350.213124 Z" id="Path" stroke="#3F3D56"></path>
        </g>
    </g>
</svg>