<?xml version="1.0" encoding="UTF-8"?>
<svg width="498px" height="341px" viewBox="0 0 498 341" version="1.1" xmlns="http://www.w3.org/2000/svg" xmlns:xlink="http://www.w3.org/1999/xlink">
    <!-- Generator: Sketch 53.1 (72631) - https://sketchapp.com -->
    <desc>Created with Sketch.</desc>
    <defs>
        <linearGradient x1="49.9924024%" y1="100.06172%" x2="49.9924024%" y2="-0.0110358009%" id="linearGradient-1">
            <stop stop-color="#808080" stop-opacity="0.25" offset="0%"></stop>
            <stop stop-color="#808080" stop-opacity="0.12" offset="54%"></stop>
            <stop stop-color="#808080" stop-opacity="0.1" offset="100%"></stop>
        </linearGradient>
        <linearGradient x1="45.5272701%" y1="52.0507241%" x2="56.2406068%" y2="48.4783803%" id="linearGradient-2">
            <stop stop-color="#808080" stop-opacity="0.25" offset="0%"></stop>
            <stop stop-color="#808080" stop-opacity="0.12" offset="54%"></stop>
            <stop stop-color="#808080" stop-opacity="0.1" offset="100%"></stop>
        </linearGradient>
    </defs>
    <g id="UI" stroke="none" stroke-width="1" fill="none" fill-rule="evenodd" opacity="0.7">
        <g id="Content-&amp;-Keys---Ingest-Empty" transform="translate(-435.000000, -277.000000)">
            <g id="Ingest" transform="translate(435.000000, 277.000000)">
                <path d="M347.380118,102.155769 C347.756739,101.610806 347.964416,100.963874 347.976471,100.298077 C347.976471,96.2642308 339.888706,93 329.911765,93 C319.934824,93 311.847059,96.2642308 311.847059,100.298077 C311.865139,101.052334 312.126675,101.77965 312.591412,102.368077 C301.482706,103.628654 294,105.990577 294,108.701923 C294,112.731346 310.541176,116 331,116 C351.458824,116 368,112.731346 368,108.701923 C367.978235,105.849038 359.568353,103.35 347.380118,102.155769 Z" id="Path" fill="#454545" opacity="0.2"></path>
                <g id="Group" opacity="0.2" transform="translate(367.000000, 25.000000)">
                    <path d="M30.6016,285.567267 C30.4448727,286.701031 30.3820715,287.845743 30.4138333,288.98979 C38.0234778,289.111712 45.6666,289.367167 53.3432,289.756156 C53.3956,289.46006 53.448,289.150901 53.4916667,288.841742 C53.9836431,285.65039 53.6143764,282.385959 52.4218333,279.384084 C50.8411,275.539189 47.8936,272.791592 44.2037667,272.264715 C40.5139333,271.737838 36.9158,273.544895 34.3176333,276.771471 C32.3137967,279.320068 31.0307047,282.357127 30.6016,285.567267 Z" id="Path" fill="#3F3D56"></path>
                    <ellipse id="Oval" fill="#6F6F6F" transform="translate(44.700966, 268.960047) rotate(-81.820000) translate(-44.700966, -268.960047) " cx="44.7009657" cy="268.960047" rx="15.0930561" ry="11.5622739"></ellipse>
                    <ellipse id="Oval" fill="#6F6F6F" transform="translate(47.331072, 250.704549) rotate(-81.820000) translate(-47.331072, -250.704549) " cx="47.3310718" cy="250.704549" rx="15.0930561" ry="11.5622739"></ellipse>
                    <ellipse id="Oval" fill="#3F3D56" transform="translate(49.961799, 232.444740) rotate(-81.820000) translate(-49.961799, -232.444740) " cx="49.9617993" cy="232.44474" rx="15.0930561" ry="11.5622739"></ellipse>
                    <ellipse id="Oval" fill="#3F3D56" transform="translate(52.592527, 214.184932) rotate(-81.820000) translate(-52.592527, -214.184932) " cx="52.5925267" cy="214.184932" rx="15.0930561" ry="11.5622739"></ellipse>
                    <path d="M113.4198,95.3690691 C115.269094,93.6017954 116.995041,91.7104976 118.585567,89.7084084 L89.2241,80.4902402 L121.7121,85.3932432 C129.991292,72.6119664 132.627259,56.995101 129.000067,42.2154655 L82.1195333,58.5312312 L126.602767,34.8130631 C118.87536,15.6397747 101.060528,2.37223167 80.4304107,0.426339346 C59.8002937,-1.51955298 39.8067003,8.18178993 28.6111574,25.5702109 C17.4156145,42.9586319 16.8913478,65.1247199 27.2523667,83.0201201 C24.3713129,85.7610386 21.7946767,88.8034075 19.5670333,92.0945946 L55.6881,117.907207 L16.0780667,98.0165165 C7.61886309,114.664438 8.16086924,134.445929 17.5190667,150.608408 C-3.38630681,170.483451 -5.46182648,203.042936 12.7515957,225.397582 C30.965018,247.752228 63.3497235,252.393391 87.1392993,236.058338 C110.928875,219.723285 118.132703,187.898755 103.6865,162.957357 C122.182586,145.36711 126.206098,117.440267 113.424167,95.3690691 L113.4198,95.3690691 Z" id="Path" fill="#4F4F4F"></path>
                    <path d="M10.6546667,115.133483 C8.86742336,127.391454 11.2847503,139.892048 17.5147,150.608408 C-3.39067347,170.483451 -5.46619314,203.042936 12.7472291,225.397582 C30.9606513,247.752228 63.3453568,252.393391 87.1349327,236.058338 C110.924509,219.723285 118.128337,187.898755 103.682133,162.957357 C112.367433,154.71021 11.5367333,108.998198 10.6546667,115.133483 Z" id="Path" fill="#000000" opacity="0.1"></path>
                </g>
                <g id="Group" opacity="0.2" transform="translate(0.000000, 43.000000)">
                    <path d="M73.3032453,252.832765 C73.476136,253.819518 73.7323965,254.789898 74.069283,255.733515 C80.2880503,253.735609 86.5710189,251.842548 92.9181887,250.054334 C92.8831698,249.792218 92.8437736,249.521365 92.7956226,249.250512 C92.3460857,246.468351 91.1716483,243.852999 89.3900377,241.666621 C87.0744151,238.901297 83.9402264,237.42471 80.797283,238.005734 C77.6543396,238.586758 75.2117736,241.063754 73.9642264,244.488737 C73.0198809,247.165241 72.7920414,250.041419 73.3032453,252.832765 L73.3032453,252.832765 Z" id="Path" fill="#6F6F6F"></path>
                    <ellipse id="Oval" fill="#6F6F6F" transform="translate(80.317872, 235.097200) rotate(-8.990000) translate(-80.317872, -235.097200) " cx="80.3178724" cy="235.0972" rx="9.90984368" ry="13.2331302"></ellipse>
                    <ellipse id="Oval" fill="#6F6F6F" transform="translate(78.841611, 219.480683) rotate(-9.180542) translate(-78.841611, -219.480683) " cx="78.8416106" cy="219.480683" rx="9.93802549" ry="13.2708182"></ellipse>
                    <ellipse id="Oval" fill="#6F6F6F" transform="translate(74.800415, 203.230463) rotate(-8.990000) translate(-74.800415, -203.230463) " cx="74.8004153" cy="203.230463" rx="9.90984368" ry="13.2331302"></ellipse>
                    <ellipse id="Oval" fill="#3F3D56" transform="translate(72.046352, 187.294201) rotate(-8.990000) translate(-72.046352, -187.294201) " cx="72.0463524" cy="187.294201" rx="9.90984368" ry="13.2331302"></ellipse>
                    <path d="M89.6570566,71.5620478 C90.6887721,69.5861382 91.5852622,67.5427856 92.3403774,65.4460068 L65.9886792,65.8566553 L93.7236226,60.9769283 C95.4636167,54.201591 95.7441012,47.1350164 94.546566,40.2435495 C93.5017902,34.1448543 91.3063396,28.2995618 88.0768302,23.018157 L54.3230189,49.5399317 L84.1415849,17.5049829 C73.6009057,4.75303754 56.8706415,-2.04887372 39.6063396,1.12273038 C13.8018113,5.84955631 -3.38807547,31.0476451 1.16875472,57.3903072 C2.96736347,68.0317294 8.2801535,77.7672223 16.2618868,85.0479181 C14.6480793,88.1291371 13.3670695,91.3728483 12.4404528,94.7243686 L48.7375094,106.261843 L11.1753962,100.62198 C10.3929529,105.849115 10.4550231,111.167623 11.3592453,116.375154 C13.157854,127.016576 18.4706441,136.752069 26.4523774,144.032765 C21.4135235,153.653952 19.6949168,164.665117 21.5628679,175.36 C26.1196981,201.707031 50.7160755,219.220751 76.5030943,214.480819 C102.290113,209.740887 119.497509,184.547167 114.940679,158.200137 C113.140182,147.560613 107.827625,137.827087 99.8475472,130.546894 C104.885479,120.923829 106.604012,109.911602 104.737057,99.2152901 C102.940104,88.5774728 97.6322889,78.8441634 89.6570566,71.5620478 Z" id="Path" fill="#4F4F4F"></path>
                    <path d="M11.3723774,116.375154 C13.1709861,127.016576 18.4837761,136.752069 26.4655094,144.032765 C21.4266556,153.653952 19.7080489,164.665117 21.576,175.36 C26.1328302,201.707031 50.7292075,219.220751 76.5162264,214.480819 C102.303245,209.740887 119.510642,184.547167 114.953811,158.200137 C113.153314,147.560613 107.840758,137.827087 99.8606792,130.546894 C104.71517,121.276724 10.4443774,111.023618 11.3723774,116.375154 Z" id="Path" fill="#000000" opacity="0.1"></path>
                </g>
                <path d="M50,259 C50,281.664166 64.3118866,300 82,300" id="Path" fill="#2B2B2B"></path>
                <path d="M82,300 C82,276.785662 98.1006351,258 118,258" id="Path" fill="#454545"></path>
                <path d="M62,260 C62,282.11147 70.9439932,300 82,300" id="Path" fill="#454545"></path>
                <path d="M83,300 C83,270.706306 101.338229,247 124,247" id="Path" fill="#2B2B2B"></path>
                <ellipse id="Oval" fill="#1A1A1A" cx="231" cy="316.5" rx="223" ry="7.5"></ellipse>
                <ellipse id="Oval" fill="#2B2B2B" cx="78" cy="304" rx="8" ry="1"></ellipse>
                <path d="M73,297.570423 C73,297.570423 77.5709754,297.427275 78.9474136,296.402871 C80.3238518,295.378468 85.9711075,294.166183 86.3141451,295.798966 C86.6571826,297.431748 93.1748962,303.958404 88.0293329,303.998664 C82.8837695,304.038925 76.0487463,303.162143 74.6723081,302.289835 C73.2958699,301.417526 73,297.570423 73,297.570423 Z" id="Path" fill="#5C5C5C"></path>
                <path d="M88.1164937,303.472513 C82.9704533,303.510081 76.1305079,302.687744 74.7582305,301.873754 C73.7118689,301.255957 73.291609,299.026879 73.1543812,298 L73,298 C73,298 73.291609,301.589902 74.6638864,302.403891 C76.0361638,303.21788 82.8675325,304.040218 88.0221496,303.998475 C89.510213,303.998475 90.024817,303.472513 89.9990868,302.708615 C89.7932452,303.176137 89.2228924,303.464164 88.1164937,303.472513 Z" id="Path" fill="#000000" opacity="0.2"></path>
                <path d="M300.341248,87.0609756 C294.070426,56.2287805 267.195475,33 234.499803,33 C208.520684,33 186.124892,47.7446951 174.924811,69.1859756 C148.04986,71.8672256 127,94.6556707 127,122.375 C127,151.86439 151.183086,176 180.749902,176 L297.208022,176 C321.841208,176 341.999606,155.888445 341.999606,131.3125 C342.097834,107.864589 323.803782,88.4317619 300.341248,87.0609756 Z M220.50339,111.397528 L220.50339,77.4350282 L249.170005,77.4350282 L249.170005,111.397528 L279.628282,111.397528 L234.836697,156.063229 L190.045113,111.375729 L220.50339,111.397528 Z" id="Shape" fill="#454545" fill-rule="nonzero"></path>
                <path d="M190.016943,107.860352 C189.583878,105.373646 189.79608,102.695321 188.66145,100.45685 C188.551598,100.192639 188.373712,99.9626418 188.146102,99.7905352 C187.863414,99.6369851 187.544667,99.563246 187.223674,99.5771402 C186.19731,99.5379452 185.175277,99.5248802 184.148914,99.5510102 C183.863091,99.5510102 183.5253,99.5945602 183.378058,99.8471502 C183.360719,99.8740117 183.347575,99.9033857 183.339082,99.9342502 C182.165476,98.62775 181.277693,96.9772046 180.013144,95.7578043 C180.195031,95.6968343 180.372588,95.6402193 180.558806,95.5923143 C180.558806,95.4660192 180.515499,95.3484342 180.489515,95.2264942 C180.489515,95.1872992 180.467862,95.1524592 180.459201,95.1176192 C180.450539,95.0827792 180.420225,94.9521291 180.394241,94.8693841 C180.368257,94.7866391 180.368257,94.7866391 180.350935,94.7474441 C180.328849,94.6692296 180.302831,94.5921922 180.272983,94.516629 C180.272983,94.477434 180.242668,94.438239 180.225346,94.399044 L180.134402,94.168229 L180.082434,94.0593539 C180.047789,93.9809639 180.013144,93.9025739 179.974168,93.8285389 L179.9222,93.7327289 C179.883224,93.6499838 179.839918,93.5672388 179.796611,93.4844938 L179.753305,93.4061038 C179.705668,93.3190038 179.6537,93.2319037 179.606063,93.1404487 C179.593482,93.1262087 179.583248,93.1100359 179.575748,93.0925437 C179.51945,92.9923787 179.458821,92.8922137 179.398192,92.7964036 L179.398192,92.7964036 C178.904498,91.9863735 178.358836,91.1894083 177.956086,90.3576031 C177.25019,88.8943228 177.016335,87.2437774 176.544294,85.684687 C176.072253,84.1255967 175.2451,82.5403763 173.841969,81.7956712 C173.162057,81.4472711 172.252621,81.138066 172.187661,80.3672308 C172.185597,80.1194689 172.237325,79.8742386 172.339234,79.6486557 C172.534166,79.1492074 172.770287,78.6670257 173.04513,78.2071504 C173.149065,78.0416603 173.257332,77.8761703 173.365598,77.7106802 L173.452211,77.5930952 C173.538824,77.4711552 173.629768,77.3492152 173.720711,77.2359851 L173.833308,77.0922701 C173.924252,76.9790401 174.019526,76.8745201 174.1148,76.765645 L174.231728,76.63935 C174.365978,76.495635 174.500228,76.3562749 174.643139,76.2038499 C174.774598,76.1019428 174.878776,75.968743 174.946285,75.8162548 C174.983797,75.6653335 174.991157,75.5084268 174.967938,75.3546247 C174.898648,74.1090944 175.548245,72.9463092 176.267133,71.9446589 C176.98602,70.9430087 177.834828,69.9936185 178.246239,68.8221232 C178.293876,68.6871182 178.332852,68.5521132 178.367497,68.4127532 C178.380118,68.3683603 178.390239,68.3232871 178.397812,68.2777481 C178.419465,68.1862931 178.436788,68.0948381 178.45411,67.9990281 L178.480094,67.842248 C178.480094,67.755148 178.501747,67.668048 178.510409,67.585303 L178.510409,67.4154579 L178.510409,67.1585129 L178.510409,66.9886678 C178.510409,66.9059228 178.510409,66.8188228 178.510409,66.7317228 C178.510409,66.6446228 178.510409,66.6228478 178.510409,66.5662327 C178.510409,66.5096177 178.510409,66.3833227 178.488756,66.2918677 L178.488756,66.1437976 C178.488756,66.0392776 178.458441,65.9304026 178.445449,65.8258826 C178.445449,65.7910426 178.445449,65.7562026 178.445449,65.7213625 C178.425239,65.5790992 178.399255,65.4339325 178.367497,65.2858625 L178.367497,65.2858625 C178.161193,64.3606414 177.895013,63.4499593 177.570658,62.5596318 C177.398085,62.0127635 177.177809,61.4822949 176.912399,60.9744115 C177.072633,60.9439265 177.237198,60.9090865 177.397432,60.8655365 C177.270317,60.6654146 177.153243,60.4590196 177.046649,60.2471263 C178.043526,58.7706367 178.791229,57.1388067 179.259611,55.4174302 C179.507869,54.1877786 179.652736,52.9392905 179.692676,51.6851944 C179.930862,47.9137635 180.173378,44.1249127 179.861571,40.3621918 L179.861571,40.2141218 C179.978468,39.4060008 179.987207,38.5857754 179.887555,37.7753213 C179.787302,36.19 179.321763,34.6498532 178.527731,33.2766052 C177.687585,31.9439749 176.301778,30.7681247 174.760067,30.6113446 C174.505714,30.8991827 174.224364,31.1616966 173.919921,31.3952448 C173.455777,30.9852915 173.115206,30.4527034 172.936864,29.8579295 C176.636991,29.2739509 179.492847,26.2754642 179.913539,22.5328178 C179.913539,22.3978128 179.943854,22.2584528 179.952515,22.1234477 C179.952515,22.0668327 179.952515,22.0102177 179.952515,21.9536027 C179.952515,21.8969877 179.952515,21.7924677 179.952515,21.7140776 C179.952515,21.6356876 179.952515,21.5703626 179.952515,21.4963276 L179.952515,21.3177726 C179.952515,21.2350275 179.952515,21.1479275 179.952515,21.0651825 C179.952515,20.9824375 179.952515,20.9737275 179.952515,20.9301775 C179.952515,20.8866275 179.952515,20.7385574 179.926531,20.6471024 C179.928666,20.6137486 179.928666,20.5802912 179.926531,20.5469374 L179.887555,20.2420873 L179.887555,20.1767623 C179.887555,20.0678873 179.85291,19.9590122 179.831257,19.8501372 L179.831257,19.8152972 C179.809603,19.6977122 179.78362,19.5844822 179.753305,19.4668971 L179.753305,19.4668971 C179.559495,18.6742265 179.25166,17.914251 178.839538,17.2110066 C179.17831,16.4415875 179.400206,15.6253505 179.497797,14.7896261 C179.497797,14.6372011 179.528111,14.489131 179.536773,14.354126 C179.545434,14.219121 179.536773,14.1625059 179.536773,14.0666959 C179.536773,13.9708859 179.536773,13.9708859 179.536773,13.9273359 C179.536773,13.8010409 179.536773,13.6747458 179.536773,13.5528058 C179.534671,13.5398263 179.534671,13.5265903 179.536773,13.5136108 C179.474156,11.4207267 178.642541,9.42542093 177.202553,7.91307954 C177.367837,7.63705663 177.505641,7.3453106 177.613964,7.04207934 L177.613964,7.04207934 C177.64861,6.95062432 177.678924,6.8591693 177.704908,6.76335928 L177.704908,6.76335928 C177.730892,6.67190426 177.756876,6.58480424 177.778529,6.49334922 L177.778529,6.47157421 L177.830497,6.22333916 C177.828074,6.20892472 177.828074,6.19420358 177.830497,6.17978915 C177.830497,6.08397913 177.860811,5.9838141 177.873803,5.88364908 C177.886795,5.78348406 177.873803,5.67896404 177.899787,5.57879901 C177.899787,5.54831401 177.899787,5.513474 177.899787,5.48298899 C177.899787,5.45250398 177.899787,5.33927396 177.899787,5.26959394 L177.899787,5.16507392 C177.899787,5.0953939 177.899787,5.02135889 177.899787,4.95167887 C177.899787,4.88199886 177.899787,4.89070886 177.899787,4.86022385 C177.748446,2.17712728 175.571681,0.0617110953 172.899974,0.00132231789 C170.228267,-0.0590664595 167.959185,1.95585995 167.688117,4.6294088 C167.625543,5.15580566 167.6416,5.68865338 167.735754,6.21027416 C165.177497,7.46506305 163.427526,9.93995185 163.088968,12.7819706 C163.03441,13.2501839 163.018476,13.7221347 163.041331,14.192991 C162.294181,15.3720967 161.847924,16.7183965 161.742136,18.1124918 L161.742136,18.1124918 C161.742136,18.1647518 161.742136,18.2170119 161.742136,18.2692719 C161.742136,18.4434719 161.720483,18.6220269 161.720483,18.796227 C161.712846,21.4101463 162.906941,23.8808882 164.955478,25.4898635 C165.378062,26.1761263 165.935009,26.7688022 166.592463,27.2318639 C166.711227,27.5865425 166.799606,27.9507868 166.856633,28.3206141 C166.95447,29.3279875 166.587338,30.3248182 165.860583,31.0250697 C165.674366,31.1818498 165.466494,31.3124998 165.271615,31.4605698 C165.074897,31.4040525 164.866373,31.4040525 164.669655,31.4605698 C162.43504,32.16608 160.2957,33.5640353 159.269336,35.7023408 C159.041806,36.1887799 158.861956,36.6963588 158.732336,37.2178811 L158.611077,37.4051462 C157.253666,39.5412727 156.277603,41.8993551 155.726865,44.3731477 C155.445373,45.640453 155.267816,46.9556633 154.678848,48.1097386 C154.537691,48.3505672 154.422977,48.6061091 154.336727,48.8718638 C154.286727,49.2777147 154.269348,49.686959 154.284759,50.095619 C154.22413,50.8359692 153.795396,51.4935743 153.652484,52.2208595 C153.565871,52.6563596 153.583194,53.0918597 153.509573,53.5273598 C153.303244,54.2755381 153.032268,55.0041452 152.699742,55.7048603 C152.240693,56.9852306 152.245024,58.3918959 151.902902,59.7114612 C151.861326,59.9288127 151.769333,60.1332305 151.634402,60.3080963 C151.363562,60.5204752 151.059029,60.6853765 150.733627,60.7958564 C150.252036,61.0992321 149.922594,61.5953826 149.828522,62.1589717 C149.738326,62.7208072 149.728118,63.2926936 149.798207,63.8574221 L149.967102,66.0654076 L147.507294,66.8144678 L143.471129,68.0556431 C142.288398,68.3564303 141.158128,68.8366328 140.119207,69.4797284 C139.193322,70.1283364 138.462299,71.020138 138.00585,72.057889 C137.596531,73.139879 137.332913,74.2720488 137.222003,75.4243047 C136.831886,78.6479979 136.137288,81.8269904 135.147622,84.9182069 C135.06534,85.1533769 134.978727,85.392902 134.892114,85.628072 L134.892114,85.628072 L134.619283,86.3205172 C134.59763,86.3684222 134.575976,86.4163272 134.558654,86.4642322 L134.324799,87.0173173 C134.220863,87.2524874 134.112597,87.4833024 134,87.7141175 L143.453806,90.8845582 C143.453806,90.9977882 143.47546,91.1197283 143.492782,91.2547333 C143.821912,93.5890138 143.661678,95.9581344 143.964823,98.2967699 C144.003995,98.6854876 144.092782,99.0675143 144.228993,99.4334251 C143.988927,99.6424904 143.815662,99.9182438 143.730968,100.226035 C143.624132,100.724168 143.607992,101.237652 143.683331,101.741576 C143.791597,102.934846 143.895533,104.128116 144.003799,105.321386 C144.055047,105.755362 144.055047,106.193911 144.003799,106.627887 C143.886871,107.416142 143.436484,108.108587 143.189637,108.862002 C142.94279,109.615417 142.955782,110.582228 143.575065,111.039503 C144.014643,111.341596 144.578605,111.392704 145.064808,111.174508 C145.542207,110.953811 145.964055,110.627832 146.299043,110.220763 C148.200198,108.095522 149.053335,105.225576 150.530087,102.773711 C150.910262,102.208433 151.248951,101.616034 151.543458,101.001225 C151.746999,100.52653 151.876918,100.02135 152.041483,99.5292352 C152.268901,98.8739123 152.540932,98.2351189 152.855645,97.6173897 C153.033202,97.2646346 153.721775,96.4154095 153.565871,96.0234594 C153.323355,95.3484342 150.729296,94.7561541 150.101352,94.547114 C149.700776,94.3673653 149.247305,94.3471323 148.832472,94.490499 C148.770089,94.5205228 148.711857,94.558586 148.659246,94.603729 L148.438383,91.7250734 C148.823811,91.6902334 149.204908,91.6423284 149.581675,91.5770034 C149.581675,91.0369832 149.568683,90.4926081 149.542699,89.943878 C149.542699,89.4474079 149.521045,88.9465828 149.508053,88.4457577 C149.48207,87.2263574 149.456086,86.0069571 149.425771,84.8093318 C149.417853,84.1033942 149.373042,83.398363 149.291521,82.6971564 C149.144279,81.6301811 148.81948,80.5849809 148.715545,79.5092957 C148.871789,79.3846838 149.056275,79.3008992 149.252545,79.2654156 L149.252545,79.2654156 C149.556052,79.2165271 149.864335,79.2048284 150.170643,79.2305756 L150.413159,79.2305756 C151.75717,79.2108131 153.073714,78.8449659 154.237122,78.1679554 C155.42805,77.5451902 156.532366,76.765645 157.701641,76.1254599 L158.134706,75.8946448 L158.299271,75.8118998 L158.576432,75.6725398 L158.805957,75.5636648 L158.857924,75.5375348 C159.546497,75.2065547 160.243732,74.8842846 160.910652,74.5228195 C160.955756,74.5966442 161.004913,74.6678861 161.057894,74.7362146 C161.388491,75.1888473 161.95757,75.3967924 162.5,75.2631697 C161.681507,77.2446951 160.720103,79.1608956 160.477587,81.3035561 C160.122474,84.3999618 161.343717,87.4005574 162.560629,90.2835681 L166.410576,99.4290701 C166.843641,100.43943 167.402294,101.571731 168.454642,101.811256 C169.123419,101.901845 169.803133,101.765444 170.386112,101.423661 C172.148686,100.57879 173.733703,99.3681001 175.349035,98.2357999 L175.413995,98.2880599 C176.873423,99.4464901 177.78719,101.062196 178.796232,102.608221 L181.494226,107.067742 C181.475638,107.291162 181.512853,107.515711 181.602492,107.720992 C181.799227,108.090258 182.055299,108.424288 182.360356,108.709577 C184.075209,110.566797 185.205303,112.892728 185.608342,115.394504 C185.643475,116.035154 185.82739,116.658614 186.145343,117.214894 C186.868561,118.225254 188.410272,118.159929 189.497265,117.585069 C189.833036,117.430597 190.122702,117.190354 190.337411,116.888269 C190.519842,116.563605 190.634764,116.205047 190.675201,115.834359 C190.873682,114.912294 190.982461,113.972994 191,113.029738 C190.982677,111.318223 190.328749,109.615417 190.016943,107.860352 Z M174.526212,25.8034236 C174.715164,25.6783189 174.897312,25.5431199 175.071874,25.3984085 C174.706162,26.5040259 174.11631,27.5213102 173.339614,28.3859391 L173.339614,28.3859391 C173.157727,28.5862692 172.962848,28.7735342 172.763638,28.9564443 L172.763638,28.8170842 C172.741985,28.3815841 172.763638,27.898179 172.763638,27.4365489 C173.457918,27.0216461 174.058283,26.4653738 174.526212,25.8034236 L174.526212,25.8034236 Z M159.234691,60.1687363 L159.260675,60.0859913 C159.414103,60.1973394 159.547399,60.3343312 159.654764,60.4910064 C159.441878,60.9651128 159.464358,61.512512 159.715393,61.9673517 C159.940587,62.3505918 160.347668,62.7077019 160.261055,63.147557 C160.174442,63.5874121 159.620119,63.7616121 159.169731,63.8356471 C158.576432,63.9314571 157.991795,64.0403322 157.407157,64.1579172 C157.407157,64.1579172 157.407157,64.1579172 157.407157,64.1274322 C157.420036,63.636641 157.354234,63.1469668 157.212278,62.6772169 C158.221319,62.2417168 158.844932,61.2052265 159.234691,60.1687363 Z" id="Shape" fill="url(#linearGradient-1)" fill-rule="nonzero"></path>
                <path d="M177.61416,8.85393264 C178.685968,7.03132185 178.552553,4.73795823 177.276711,3.0532631 C176.000869,1.36856797 173.836784,0.628181548 171.80303,1.18058276 C169.769276,1.73298397 168.271036,3.46811844 168.013488,5.56930751 C167.948268,6.09341925 167.964462,6.62453126 168.061491,7.14364719 C165.028852,8.5876615 163.161424,11.7262719 163.330978,15.0942819 C161.406909,18.0894633 161.582694,21.9808167 163.768897,24.788498 C165.9551,27.5961793 169.671531,28.703494 173.027344,27.547062 C176.383156,26.3906301 178.641261,23.2244566 178.652778,19.6594284 C178.652778,19.5234827 178.652778,19.3919222 178.652778,19.2603618 C180.77635,15.9792087 180.354068,11.6573612 177.63598,8.85393264 L177.61416,8.85393264 Z" id="Path" fill="#494949"></path>
                <g id="Group" opacity="0.1" transform="translate(162.000000, 6.000000)" fill="#000000">
                    <path d="M6.38761905,0.380384615 L6.46,0.340576923 C6.4416877,0.249899756 6.42809876,0.15837154 6.41928571,0.0663461538 C6.41711945,0.0854543069 6.41711945,0.104738001 6.41928571,0.123846154 C6.40403815,0.20874268 6.39346735,0.294378955 6.38761905,0.380384615 L6.38761905,0.380384615 Z" id="Path"></path>
                    <path d="M18.7421429,8.97 C18.585949,10.2530218 18.1292779,11.4835519 17.407619,12.5659615 C17.407619,12.6986538 17.407619,12.8313462 17.407619,12.9640385 C17.3857542,17.4767442 13.7367396,21.1740972 9.12497594,21.3564015 C4.51321228,21.5387058 0.570825851,18.1414431 0.176428571,13.6451923 C0.176428571,13.8751923 0.144761905,14.0875 0.144761905,14.3351923 C0.144762189,18.9960506 4.00918431,22.7744226 8.77619048,22.7744226 C13.5431966,22.7744226 17.4076188,18.9960506 17.407619,14.3351923 C17.407619,14.1980769 17.407619,14.0653846 17.407619,13.9326923 C18.1308981,12.8510739 18.5877111,11.6201613 18.7421429,10.3367308 C18.8135508,9.77174543 18.8241644,9.20099607 18.7738095,8.63384615 C18.787381,8.74442308 18.7602381,8.85942308 18.7421429,8.97 Z" id="Path"></path>
                    <path d="M17.0638095,0.0619230769 C16.9690185,0.771500322 16.7273577,1.45475514 16.3535714,2.07 C16.507381,2.22038462 16.647619,2.37961538 16.8059524,2.53884615 C16.9439105,2.16568105 17.0380074,1.77838387 17.0864286,1.38442308 C17.1377926,0.944506148 17.1301886,0.499914901 17.0638095,0.0619230769 Z" id="Path"></path>
                </g>
                <path d="M144.582112,98.9700105 C144.625991,99.4133737 144.768381,99.8457302 145.001795,100.244344 C145.240339,100.648517 145.695041,100.930034 146.222249,100.999959 C146.699269,101.002491 147.16687,100.887547 147.568126,100.669122 C148.38337,100.30561 149.237206,99.8849169 149.661712,99.1905683 C150.086218,98.4962197 150.018683,97.7201831 149.946324,96.9645684 L149.396396,91.0217614 C148.074639,90.9890862 146.743234,90.9890862 145.416653,91.0503522 C144.090071,91.1116183 143.872995,91.3730201 144.056304,92.4594714 C144.418099,94.6160364 144.225142,96.8093611 144.582112,98.9700105 Z" id="Path" fill="#AEAEAE"></path>
                <path d="M179.333404,102.747822 L182.187116,107.399159 C182.311072,107.670525 182.535331,107.882329 182.812049,107.989385 C183.016298,108.020322 183.224984,107.983204 183.40639,107.883673 C184.330141,107.395875 185.141652,106.717526 185.788126,105.89276 C186.305531,105.407434 186.698423,104.802862 186.933107,104.13089 C187.12131,103.373158 186.906278,102.571256 186.364987,102.012242 C186.034567,101.716011 185.675931,101.453393 185.294298,101.22821 C183.034927,99.6909783 182.01668,96.7750838 179.7879,95.1982104 C179.663395,95.0923936 179.512033,95.0237428 179.350884,95 C179.185489,95.0117131 179.025911,95.0663376 178.887647,95.1585683 L175.828537,96.8411539 C174.51749,97.5679252 174.923915,97.6560187 175.929051,98.4400508 C177.393054,99.5940755 178.302046,101.206186 179.333404,102.747822 Z" id="Path" fill="#AEAEAE"></path>
                <path d="M151.360975,95.1464596 C150.942265,94.9678629 150.47025,94.9520237 150.040129,95.1021365 C149.653485,95.3330708 149.398454,95.7280406 149.350404,96.1703234 C149.26926,96.6135545 149.278276,97.0567855 149.15656,97.4689904 C148.88486,98.1557873 148.443281,98.7651403 147.871778,99.2419147 C147.656317,99.4923776 147.378206,99.6833283 147.064845,99.7959535 C146.636584,99.9023289 146.185784,99.7073073 145.753015,99.7959535 C145.240419,99.9275613 144.843436,100.326401 144.720682,100.833114 C144.607104,101.332305 144.590281,101.848076 144.671094,102.353397 L145.004686,105.943568 C145.059464,106.385163 145.059464,106.831667 145.004686,107.273262 C144.88297,108.066645 144.414137,108.758086 144.157181,109.516011 C143.900225,110.273936 143.909241,111.24018 144.558394,111.732166 C145.019945,112.034034 145.606037,112.084143 146.113656,111.865135 C146.609903,111.645413 147.049136,111.31811 147.398438,110.907756 C149.38196,108.780247 150.270038,105.894813 151.811776,103.439313 C152.206042,102.873884 152.55857,102.28139 152.866649,101.666389 C153.078525,101.187699 153.213766,100.682416 153.38507,100.190429 C153.622345,99.5316117 153.907071,98.8902571 154.237083,98.2712386 C154.417403,97.9166538 155.138684,97.0656501 154.976396,96.6711745 C154.737472,95.9531402 152.02816,95.3547782 151.360975,95.1464596 Z" id="Path" fill="#2B2B2B"></path>
                <path d="M186.072447,105.084038 C185.62293,105.929501 184.870484,106.575562 183.964654,106.893822 C183.703871,106.96513 183.46094,107.089961 183.251457,107.260303 C182.970464,107.601472 182.920445,108.076528 183.124262,108.468334 C183.332557,108.84794 183.602739,109.190431 183.92377,109.481813 C185.717692,111.375399 186.903901,113.758792 187.330763,116.32732 C187.372165,116.985586 187.566553,117.62527 187.898595,118.195922 C188.657219,119.232023 190.278948,119.164156 191.423698,118.571452 C191.773018,118.412672 192.076222,118.168279 192.304973,117.861112 C192.496224,117.528651 192.616828,117.160588 192.659301,116.779766 C192.867466,115.835581 192.981586,114.873242 193,113.906734 C193,112.096951 192.291345,110.336936 191.964274,108.54525 C191.510008,105.997979 191.728056,103.251632 190.53788,100.953207 C190.425873,100.678126 190.242442,100.437655 190.006389,100.25644 C189.707301,100.099778 189.371876,100.024844 189.03426,100.039266 C187.962193,99.9985457 186.88104,99.9894968 185.80443,100.012119 C185.504615,100.012119 185.150288,100.057364 184.995837,100.315258 C184.885863,100.60766 184.930204,100.935486 185.113946,101.188479 C185.772632,102.486998 186.853784,103.514051 186.072447,105.084038 Z" id="Path" fill="#2B2B2B"></path>
                <path d="M160.347757,61.6925915 C159.752316,62.1839383 159.594397,63.0287817 159.972421,63.7005861 C160.203733,64.0787149 160.613985,64.430766 160.522333,64.8653968 C160.430681,65.3000277 159.876404,65.4651874 159.422509,65.5390747 C155.416009,66.1736357 151.514254,67.3427928 147.638685,68.5076035 L143.562355,69.7289162 C142.368908,70.0223118 141.227017,70.4941758 140.175597,71.1284276 C139.244543,71.761243 138.507421,72.6382161 138.04578,73.6623256 C137.631799,74.7254261 137.364589,75.8395524 137.251463,76.9742128 C136.640449,81.1249376 135.859226,85.3104328 134,89.0743361 L143.87659,92.3036435 C144.835549,92.6530484 145.828853,92.9007103 146.840004,93.0425159 C147.803549,93.1243937 148.773761,93.0776187 149.724858,92.9034341 C149.663757,90.7085482 149.624478,88.4441214 149.563376,86.2448892 C149.557709,85.5503886 149.512538,84.8567655 149.428081,84.1673536 C149.279692,83.1155469 148.952363,82.0898181 148.847618,81.0293188 C149.284056,80.6555362 149.969264,80.751155 150.558455,80.7641939 C151.914419,80.7459147 153.24405,80.3887295 154.425295,79.7254262 C155.621135,79.1082503 156.738416,78.3433 157.916798,77.7130853 C159.902591,76.6656249 162.163339,75.9745618 163.682143,74.3099256 C162.909648,77.2436839 161.063516,79.7993134 160.727458,82.8113053 C160.391401,85.8232972 161.600334,88.8309428 162.835454,91.6430045 L166.724116,100.631171 C167.160553,101.622129 167.723558,102.739131 168.784103,102.973831 C169.458877,103.061586 170.14396,102.927274 170.73498,102.591356 C174.313771,100.922374 177.176804,97.7799924 181,96.7803414 C180.711951,94.8940434 179.219333,93.3337186 178.381372,91.6256193 C177.665614,90.1869911 177.434302,88.5614717 176.958585,87.0272247 C176.482867,85.4929778 175.649271,83.932653 174.226483,83.2024731 C173.541276,82.8591147 172.620392,82.5548731 172.559291,81.7942691 C172.553515,81.549439 172.605852,81.3067084 172.712044,81.0858208 C173.22267,79.802808 174.017887,78.6513228 175.038258,77.7174316 C175.168046,77.6148058 175.272546,77.4839786 175.343765,77.3349564 C175.377297,77.1925752 175.38469,77.0453276 175.365586,76.9003255 C175.291392,75.6746665 175.950413,74.5315873 176.6749,73.5449752 C177.399387,72.5583632 178.25917,71.6239068 178.673786,70.472135 C179.38518,68.4858719 178.673786,66.304025 177.975485,64.3177619 C177.746071,63.4935329 177.347833,62.7255119 176.805832,62.0620277 C175.889312,61.0884546 174.466524,60.8059445 173.131024,60.65817 C168.832111,60.1713835 163.773795,59.0456895 160.347757,61.6925915 Z" id="Path" fill="#5E5E5E"></path>
                <g id="Group" opacity="0.1" transform="translate(134.000000, 60.000000)" fill="#000000">
                    <path d="M42.6699074,8.981875 C41.9387963,9.975 41.2816667,11.125625 41.3643519,12.359375 C41.3834003,12.5053343 41.3760285,12.6535539 41.3425926,12.796875 C41.2715784,12.9468809 41.1673785,13.0785718 41.037963,13.181875 C40.0205208,14.1219312 39.2275862,15.2810176 38.7184259,16.5725 C38.6128496,16.7949523 38.5606792,17.0392098 38.5661111,17.285625 C38.6577409,17.7566287 38.9879548,18.145034 39.4364815,18.309375 C39.8796167,17.5811034 40.4215588,16.9184787 41.0466667,16.340625 C41.1760822,16.2373218 41.2802821,16.1056309 41.3512963,15.955625 C41.3847322,15.8123039 41.392104,15.6640843 41.3730556,15.518125 C41.2990741,14.284375 41.9562037,13.13375 42.6786111,12.140625 C43.4010185,11.1475 44.2583333,10.206875 44.6717593,9.0475 C45.0283615,7.91307768 45.0645203,6.7013728 44.7762037,5.5475 C44.7471914,5.66125 44.7123765,5.775 44.6717593,5.88875 C44.2496296,7.048125 43.4053704,7.993125 42.6699074,8.981875 Z" id="Path"></path>
                    <path d="M25.9283333,0.826875 C26.2227059,0.767076424 26.4612573,0.550735022 26.5506481,0.2625 C26.5592495,0.205953667 26.5592495,0.148421333 26.5506481,0.091875 L26.3635185,0.2275 C26.1715044,0.388150485 26.0220023,0.594057862 25.9283333,0.826875 L25.9283333,0.826875 Z" id="Path"></path>
                    <path d="M12.9075926,28.625625 C11.8993439,28.4828833 10.9088914,28.2335865 9.95268519,27.881875 L1.24898148,25.011875 C0.920057015,25.9602225 0.534954588,26.8879236 0.0957407407,27.79 L9.95268519,31.040625 C10.9088914,31.3923365 11.8993439,31.6416333 12.9075926,31.784375 C13.868372,31.8667932 14.8357995,31.8197095 15.7841667,31.644375 C15.7537037,30.6075 15.7319444,29.553125 15.7058333,28.49875 C14.7825563,28.6633124 13.8418565,28.7059646 12.9075926,28.625625 L12.9075926,28.625625 Z" id="Path"></path>
                    <path d="M36.747037,38.2375 C36.1577136,38.5756349 35.4745966,38.7108342 34.8017593,38.6225 C33.7442593,38.38625 33.1741667,37.261875 32.7476852,36.264375 L28.8701852,27.216875 C27.9998148,25.22625 27.1512037,23.156875 26.8378704,21.035 C26.8117593,21.18375 26.79,21.3325 26.7682407,21.4725 C26.4157407,24.535 27.6386111,27.531875 28.8701852,30.3625 L32.7476852,39.41 C33.1828704,40.4075 33.7442593,41.531875 34.8017593,41.768125 C35.4745966,41.8564592 36.1577136,41.7212599 36.747037,41.383125 C40.3155556,39.703125 43.1703704,36.54 46.9825926,35.53375 C46.7841436,34.5400816 46.3857758,33.5976722 45.8119444,32.764375 C42.565463,34.04625 39.9412963,36.728125 36.747037,38.2375 Z" id="Path"></path>
                    <path d="M29.7144444,9.769375 C28.2,11.431875 25.9457407,12.140625 23.9656481,13.195 C22.7775926,13.829375 21.6635185,14.599375 20.4841667,15.220625 C19.3066436,15.8896599 17.9808502,16.2507016 16.6284259,16.270625 C16.0409259,16.270625 15.3794444,16.156875 14.9225,16.533125 C15.0182407,17.5175 15.3011111,18.475625 15.4621296,19.45125 C15.8486997,19.3987365 16.2399054,19.3899315 16.6284259,19.425 C17.980498,19.4066001 19.3063128,19.047057 20.4841667,18.379375 C21.6765741,17.758125 22.7906481,16.988125 23.9656481,16.35375 C25.2712037,15.658125 26.6942593,15.115625 27.9475926,14.345625 C28.6438645,12.864312 29.2343088,11.3350265 29.7144444,9.769375 L29.7144444,9.769375 Z" id="Path"></path>
                </g>
                <path d="M168.367184,29.4508051 C168.465701,30.4269634 168.090771,31.3920987 167.352416,32.0629966 C167.109754,32.2639344 166.822972,32.413569 166.589135,32.6230573 C166.163633,33.0450877 165.951549,33.6272915 166.009357,34.2146355 C166.067165,34.8019796 166.388997,35.3348413 166.889153,35.6713266 C167.683319,36.1416066 168.693674,36.0133484 169.611377,35.8594386 C170.835057,35.6958094 172.034576,35.3930276 173.185123,34.9573561 C174.342881,34.5176734 175.327941,33.7352018 176,32.7213886 C175.018559,32.1143466 174.417,31.0705633 174.398432,29.9424615 C174.336664,28.8351659 174.649918,27.5782358 173.926345,26.718906 C173.202771,25.8595762 171.91887,25.8980537 170.837922,26.1802217 C170.304066,26.3255809 169.787858,26.5222435 169.254002,26.6633274 C168.980456,26.7317318 168.089226,26.7360071 167.930393,26.9283943 C167.62155,27.2789667 168.3363,28.8907444 168.367184,29.4508051 Z" id="Path" fill="#AEAEAE"></path>
                <path d="M168.367184,29.4508051 C168.465701,30.4269634 168.090771,31.3920987 167.352416,32.0629966 C167.109754,32.2639344 166.822972,32.413569 166.589135,32.6230573 C166.163633,33.0450877 165.951549,33.6272915 166.009357,34.2146355 C166.067165,34.8019796 166.388997,35.3348413 166.889153,35.6713266 C167.683319,36.1416066 168.693674,36.0133484 169.611377,35.8594386 C170.835057,35.6958094 172.034576,35.3930276 173.185123,34.9573561 C174.342881,34.5176734 175.327941,33.7352018 176,32.7213886 C175.018559,32.1143466 174.417,31.0705633 174.398432,29.9424615 C174.336664,28.8351659 174.649918,27.5782358 173.926345,26.718906 C173.202771,25.8595762 171.91887,25.8980537 170.837922,26.1802217 C170.304066,26.3255809 169.787858,26.5222435 169.254002,26.6633274 C168.980456,26.7317318 168.089226,26.7360071 167.930393,26.9283943 C167.62155,27.2789667 168.3363,28.8907444 168.367184,29.4508051 Z" id="Path" fill="#000000" opacity="0.1"></path>
                <circle id="Oval" fill="#AEAEAE" cx="170.5" cy="23.5" r="5.5"></circle>
                <path d="M152.361163,68.4628989 C152.256063,68.9261985 152.065917,69.3671967 151.799882,69.7646549 C151.101238,70.969095 150.849557,72.3711003 151.087144,73.7350108 C151.341199,75.108108 152.282031,76.2671039 153.595091,76.8245118 C154.144678,77.0913926 154.798811,77.0516721 155.310117,76.7203713 C154.512742,75.7093408 154.468195,74.3294794 154.517196,73.0537585 C154.50313,72.8159081 154.560396,72.579208 154.682017,72.3725062 C154.749584,72.2745039 154.855227,72.2075481 154.974584,72.1870791 C155.09394,72.1666101 155.216707,72.194395 155.314572,72.2640265 C155.292356,73.0676255 155.452048,73.8661338 155.782306,74.6028482 C155.907036,74.8848953 156.120857,75.1973168 156.441589,75.1886384 C156.887051,75.1886384 157.016234,74.5768131 156.998416,74.134216 C156.931597,72.3291143 156.83805,70.4502464 155.947127,68.8707824 C155.555091,68.329158 155.254332,67.7300436 155.056204,67.096055 C155.049491,66.8703399 154.968261,66.6527453 154.824565,66.4755513 C154.726908,66.4001992 154.612485,66.3481851 154.490469,66.3236798 C153.978188,66.1804866 152.757624,65.7422288 152.334436,66.2108609 C151.911247,66.6794931 152.441346,67.8640911 152.361163,68.4628989 Z" id="Path" fill="#AEAEAE"></path>
                <path d="M160.197617,38.0068 C159.54561,37.9283693 159.033318,38.5427432 158.677678,39.1091872 C157.347238,41.2172354 156.389748,43.5509421 155.849492,46.0023746 C155.574294,47.2529086 155.404941,48.5513725 154.824909,49.6886177 C154.687026,49.9250412 154.57486,50.1763723 154.490438,50.4380667 C154.443672,50.8399288 154.426688,51.2448707 154.439632,51.6493853 C154.380359,52.377048 153.961211,53.0262799 153.821495,53.745228 C153.736819,54.1809542 153.753754,54.6166803 153.677546,55.0524064 C153.550531,55.8018554 153.148319,56.4728736 152.890057,57.1918218 C152.437039,58.4554275 152.441273,59.8410367 152.106801,61.1438578 C152.066112,61.3573461 151.976076,61.5576139 151.844305,61.7277308 C151.619913,61.9848092 151.255805,62.0458109 150.963672,62.2113868 C150.492515,62.5072338 150.168415,62.9980298 150.074572,63.5577806 C149.986324,64.1111191 149.976342,64.6746879 150.044935,65.2309689 L150.307431,68.6862772 C150.574161,68.5686311 150.730812,68.250551 150.976374,68.0631888 C151.399755,67.7146079 151.988255,67.7930386 152.513247,67.8888984 L153.279567,68.032688 C154.062823,68.1764776 154.913819,68.3638398 155.396474,69 C155.794452,68.3551253 155.57006,67.4095996 156.179729,66.982588 C156.378718,66.8431556 156.628513,66.799583 156.83597,66.6775797 C157.237204,66.4099013 157.486758,65.9580095 157.504912,65.466261 C157.517461,64.9809379 157.453111,64.4967516 157.314391,64.0327221 C158.296635,63.5969959 158.906304,62.581754 159.291581,61.5577976 C159.713354,60.3182067 160.019568,59.0401273 160.206084,57.7408367 C161.090951,52.6036256 161.899609,47.4315563 161.984286,42.2159145 C162.040103,41.3446933 161.946958,40.4701493 161.709088,39.6320585 C161.446591,38.8041789 161.040145,38.1026598 160.197617,38.0068 Z" id="Path" fill="#2B2B2B"></path>
                <path d="M160.197617,38.0068 C159.54561,37.9283693 159.033318,38.5427432 158.677678,39.1091872 C157.347238,41.2172354 156.389748,43.5509421 155.849492,46.0023746 C155.574294,47.2529086 155.404941,48.5513725 154.824909,49.6886177 C154.687026,49.9250412 154.57486,50.1763723 154.490438,50.4380667 C154.443672,50.8399288 154.426688,51.2448707 154.439632,51.6493853 C154.380359,52.377048 153.961211,53.0262799 153.821495,53.745228 C153.736819,54.1809542 153.753754,54.6166803 153.677546,55.0524064 C153.550531,55.8018554 153.148319,56.4728736 152.890057,57.1918218 C152.437039,58.4554275 152.441273,59.8410367 152.106801,61.1438578 C152.066112,61.3573461 151.976076,61.5576139 151.844305,61.7277308 C151.619913,61.9848092 151.255805,62.0458109 150.963672,62.2113868 C150.492515,62.5072338 150.168415,62.9980298 150.074572,63.5577806 C149.986324,64.1111191 149.976342,64.6746879 150.044935,65.2309689 L150.307431,68.6862772 C150.574161,68.5686311 150.730812,68.250551 150.976374,68.0631888 C151.399755,67.7146079 151.988255,67.7930386 152.513247,67.8888984 L153.279567,68.032688 C154.062823,68.1764776 154.913819,68.3638398 155.396474,69 C155.794452,68.3551253 155.57006,67.4095996 156.179729,66.982588 C156.378718,66.8431556 156.628513,66.799583 156.83597,66.6775797 C157.237204,66.4099013 157.486758,65.9580095 157.504912,65.466261 C157.517461,64.9809379 157.453111,64.4967516 157.314391,64.0327221 C158.296635,63.5969959 158.906304,62.581754 159.291581,61.5577976 C159.713354,60.3182067 160.019568,59.0401273 160.206084,57.7408367 C161.090951,52.6036256 161.899609,47.4315563 161.984286,42.2159145 C162.040103,41.3446933 161.946958,40.4701493 161.709088,39.6320585 C161.446591,38.8041789 161.040145,38.1026598 160.197617,38.0068 Z" id="Path" fill="#000000" opacity="0.1"></path>
                <path d="M175.639317,32 C174.652565,33.0139017 173.392132,33.7322148 172.004833,34.0712695 C170.623093,34.4050494 169.211916,34.6084431 167.790614,34.6786671 C167.354014,34.7482832 166.906612,34.7107489 166.488443,34.5694229 C166.062071,34.4081827 165.829074,33.9572248 165.948845,33.5250486 C166.024673,33.3995478 166.077498,33.2620096 166.104927,33.1186603 C166.104927,32.7603394 165.560869,32.7297511 165.213029,32.8346255 C162.911931,33.5337882 160.704484,34.9146345 159.643125,37.0339715 C159.107394,38.262414 158.773266,39.566137 158.653118,40.8968454 C158.153655,44.3926589 157.654192,47.9190608 158.323116,51.384286 C158.684334,53.2239578 159.371096,55.0111925 159.411231,56.8814527 C159.437988,57.9301968 159.255149,58.9745711 159.264068,60.0233151 C159.233576,60.3905295 159.334485,60.7566925 159.549476,61.0589499 C159.714477,61.2468499 159.964208,61.3648336 160.080155,61.5876917 C160.271913,61.9547521 160.013263,62.4616451 160.267454,62.7981171 C160.584077,63.2088752 161.235163,62.9117311 161.667734,62.6233264 C163.837488,61.1802902 166.457818,60.5349056 169.066028,60.8011336 C172.187672,61.1288662 175.309315,62.7675288 178.350688,61.9460126 C178.193751,61.723382 178.059331,61.4862939 177.949334,61.2381103 C176.433107,56.3614505 176.535675,50.9036116 178.805556,46.3153564 C179.577048,44.7466101 180.589352,43.2565195 180.901516,41.5348314 C181.021384,40.7313387 181.031881,39.9158102 180.932733,39.1096107 C180.827021,37.5379955 180.345838,36.0127235 179.527993,34.6568183 C178.667312,33.3152998 177.235815,32.1573116 175.639317,32 Z" id="Path" fill="#2B2B2B"></path>
                <path d="M162.3219,69.8593516 C162.099141,70.5092295 161.991825,71.1988322 162.005599,71.8918592 C161.986394,72.5531307 162.016616,73.2150007 162.09597,73.8709967 C162.144129,74.4324926 162.329903,74.9698793 162.634093,75.4276217 C162.950419,75.8883146 163.491986,76.0972245 164.0061,75.9568742 C164.404304,75.7753217 164.705982,75.4095014 164.827661,74.9606342 C164.945923,74.5145623 165.033792,74.0596959 165.090561,73.5996992 C165.328813,72.2654492 165.986062,70.9756742 165.998386,69.5969491 C166.006689,69.4332969 165.98289,69.2695959 165.928553,69.1166191 C165.6903,68.5517866 164.519576,67.9157941 163.948591,68.0091916 C163.242048,68.1292741 162.584799,69.2055691 162.3219,69.8593516 Z" id="Path" fill="#AEAEAE"></path>
                <path d="M178.075143,37 C177.960903,38.1698454 179.094513,39.0505155 179.542685,40.132732 C179.724129,40.6401009 179.827818,41.1718514 179.850253,41.7100515 C180.16661,45.4474227 179.920555,49.2023196 179.6745,52.9396907 C179.638586,54.1843598 179.491544,55.4233639 179.235116,56.6420103 C178.602403,59.1963918 177.038197,61.4134021 175.522323,63.5603093 C175.29284,63.9119391 175.026223,64.2380284 174.727038,64.5329897 C174.279933,64.8946256 173.782662,65.1897853 173.250709,65.4092784 L168.022042,67.9373711 C167.366412,68.2255634 166.743378,68.5824673 166.163448,69.0020619 C165.490038,69.5280291 164.961011,70.2153311 164.625605,71 C163.610628,70.4829897 162.556107,70.0185567 161.549918,69.5015464 C161.312651,69.378866 161.044627,69.221134 161.005082,68.9582474 C160.952356,68.607732 161.321439,68.3579897 161.576281,68.0819588 C162.050816,67.6131443 162.195813,66.9164948 162.455049,66.3030928 C163.298666,64.2876289 165.412102,62.9994845 166.17663,60.957732 C166.471017,60.1734536 166.558894,59.2840206 167.08176,58.6268041 C167.379395,58.2975 167.714066,58.0034672 168.079162,57.7505155 C168.880743,57.0686619 169.616284,56.3131921 170.276081,55.4940722 C170.575361,55.1850851 170.820436,54.8281375 171.001064,54.4381443 C171.168479,53.8369757 171.226516,53.2107573 171.172423,52.5891753 C171.211968,50.5474227 172.139068,48.6458763 172.705873,46.6829897 C173.237527,44.8384021 173.461613,42.9018041 174.160233,41.1097938 C174.858854,39.3177835 176.203368,37.4819588 178.075143,37 Z" id="Path" fill="#000000" opacity="0.1"></path>
                <path d="M179.079647,37 C178.965559,38.1698454 180.093277,39.0505155 180.540853,40.132732 C180.723488,40.6398871 180.828518,41.171634 180.852402,41.7100515 C181.163951,45.4474227 180.92261,49.2023196 180.676882,52.9396907 C180.633795,54.1850166 180.479605,55.4240276 180.216141,56.6420103 C179.584268,59.1963918 178.022137,61.4134021 176.508274,63.5603093 C176.279096,63.9119391 176.012832,64.2380284 175.714045,64.5329897 C175.267533,64.8946256 174.770921,65.1897853 174.239674,65.4092784 L169.013556,67.9373711 C168.35976,68.2274616 167.737746,68.5842545 167.157429,69.0020619 C166.48613,69.5292319 165.958065,70.2161947 165.621626,71 C164.607996,70.4829897 163.559262,70.0185567 162.550021,69.5015464 C162.313068,69.378866 162.0454,69.221134 162.005908,68.9582474 C161.948863,68.607732 162.317456,68.3579897 162.571961,68.0819588 C163.050253,67.6131443 163.195058,66.9164948 163.449562,66.3030928 C164.287672,64.2876289 166.402692,62.9994845 167.166205,60.957732 C167.460202,60.1734536 167.547962,59.2840206 168.070135,58.6268041 C168.365312,58.2954249 168.699799,58.0011636 169.066212,57.7505155 C169.86673,57.0686619 170.601295,56.3131921 171.260216,55.4940722 C171.5591,55.1850851 171.803849,54.8281375 171.984238,54.4381443 C172.149232,53.8365747 172.207156,53.2107491 172.15537,52.5891753 C172.194862,50.5474227 173.116344,48.6458763 173.682397,46.6829897 C174.217734,44.8384021 174.437134,42.9018041 175.134828,41.1097938 C175.832521,39.3177835 177.219131,37.4819588 179.079647,37 Z" id="Path" fill="#2B2B2B"></path>
                <path d="M173.991051,14.0617949 C172.258816,13.8382566 170.505389,14.2248449 169,15.162201 C169.222291,15.162201 169.444581,15.162201 169.666872,15.215662 C173.07895,15.6536606 175.846691,18.3569978 176.543184,21.9319679 C177.239677,25.5069381 175.709361,29.1550721 172.741191,30.9955744 C177.013114,31.1408061 180.638437,27.6945437 180.97482,23.1686168 C181.311203,18.64269 178.239896,14.6348562 173.999439,14.06625 L173.991051,14.0617949 Z" id="Path" fill="#46455B"></path>
                <path d="M175.677307,19.4675925 C176.083772,20.3486948 176.107164,21.3491819 175.74229,22.246919 C175.7033,22.134581 175.659978,22.0222429 175.607992,21.9099049 C174.585597,19.7255539 171.440432,18.8226889 168.57686,19.8919807 C167.037106,20.4170962 165.803337,21.5475407 165.18476,23 C164.456954,20.8863804 165.934228,18.4648714 168.650507,17.4496683 C171.509747,16.3803765 174.654912,17.2832415 175.677307,19.4675925 Z" id="Path" fill="#46455B"></path>
                <g id="Group" opacity="0.1" transform="translate(168.000000, 2.000000)" fill="#000000">
                    <path d="M8.112,19.7156716 C7.84305698,16.4584072 5.67723341,13.6655816 2.587,12.591194 C1.81819108,12.7727818 1.07967571,13.06435 0.394333333,13.4568657 C0.624,13.4568657 0.853666667,13.4568657 1.08333333,13.508806 C4.48888124,13.9200536 7.28595678,16.3900914 8.112,19.7156716 Z" id="Path"></path>
                    <path d="M9.451,13.6862687 C9.17989193,10.4298451 7.01487705,7.63806229 3.926,6.56179104 C3.15646264,6.75359499 2.41817108,7.05381919 1.73333333,7.45343284 C1.963,7.45343284 2.19266667,7.45343284 2.42666667,7.50537313 C5.8238427,7.91343255 8.61736996,10.3715306 9.451,13.6862687 L9.451,13.6862687 Z" id="Path"></path>
                    <path d="M9.48566667,4.68761194 C9.31607131,2.73059556 8.01102006,1.05580975 6.15333333,0.41119403 C5.68798413,0.523985675 5.24137676,0.703298217 4.82733333,0.94358209 C4.966,0.94358209 5.10466667,0.94358209 5.26066667,0.978208955 C7.29982028,1.22665595 8.97738899,2.69950291 9.48566667,4.68761194 L9.48566667,4.68761194 Z" id="Path"></path>
                    <path d="M12.5796667,18.5902985 C12.9094386,22.6837417 10.1825239,26.3989977 6.175,27.3162687 C5.61650055,27.9218364 4.97100586,28.4411402 4.25966667,28.8571642 C6.85893321,28.9519315 9.35132545,27.8194499 10.9877704,25.8000796 C12.6242154,23.7807094 13.2139253,21.1098822 12.5796667,18.5902985 Z" id="Path"></path>
                </g>
                <path d="M254.477724,107.732445 C253.381601,106.830154 251.819878,106.754069 250.640558,107.545504 C249.767483,108.18893 249.387695,109.258408 249.029734,110.267022 C248.505889,111.758205 247.659006,113.205914 247.519314,114.784046 C247.130796,119.131519 244.070667,122.787744 243.153938,127.048268 C242.817804,128.569883 242.752324,130.169754 242.119344,131.591377 C241.816264,132.215433 241.466026,132.815661 241.071654,133.386884 C239.53663,135.790385 238.221723,138.326478 237.142815,140.964529 C236.38324,141.194945 235.758991,141.920973 235.152204,142.499187 C234.373891,143.240503 233.44289,143.80423 232.423844,144.151227 C232.008454,144.243714 231.620989,144.432928 231.293211,144.703356 C230.856674,145.164188 230.856674,145.907606 230.494348,146.442345 C230.236744,146.792606 229.894354,147.072274 229.499042,147.255323 C229.472303,147.131811 229.451904,147.007021 229.437927,146.88144 C229.346254,146.216277 229.272042,145.551113 229.202196,144.88595 C231.301833,141.834725 230.865194,137.716557 228.171968,135.169348 C228.091164,134.131459 228.121896,133.087945 228.26364,132.056557 C228.394957,131.550521 228.225599,131.014172 227.827103,130.67406 C227.613199,130.539289 227.351277,130.508856 227.124277,130.395822 C226.79512,130.175992 226.515608,129.890223 226.303587,129.55676 C225.036937,128.127481 222.920352,127.815335 221.292135,128.817689 C220.06983,129.630667 219.423754,131.074028 218.380429,132.113074 C217.839122,132.647813 217.197412,133.069518 216.660471,133.604257 C215.586647,134.750807 214.889214,136.196065 214.661129,137.747399 C214.437034,139.290264 214.374127,140.852107 214.473417,142.40789 C214.462558,142.879494 214.530417,143.34962 214.674225,143.799082 C214.829856,144.167737 215.045164,144.508466 215.31157,144.807695 C216.590663,146.469288 218.281522,147.771184 220.218252,148.58565 C220.23169,148.677814 220.238982,148.770764 220.240079,148.863888 C220.240079,149.007355 220.240079,149.150821 220.205156,149.298635 L219.991253,149.263855 C219.205485,149.168211 218.376064,149.263855 217.647046,148.96388 C216.402914,148.429141 215.900895,146.855355 214.674225,146.238014 C214.572391,146.18458 214.465687,146.140909 214.355552,146.10759 C214.064665,144.081375 213.465558,142.111109 212.578844,140.264586 C212.142307,139.395091 211.649019,138.490817 211.596635,137.508288 C211.623733,136.594806 211.82986,135.695406 212.203422,134.860677 C213.190187,131.874407 213.96907,128.823945 214.534533,125.730984 C214.930327,123.792011 215.329031,121.853038 215.730646,119.914065 C216.272581,119.423259 216.750672,118.866801 217.153758,118.257677 C217.994984,117.046104 218.48714,115.628314 218.576871,114.15801 C218.655537,112.677074 218.136918,111.226202 217.136297,110.127903 C216.693949,109.591657 216.038801,109.274157 215.342127,109.258408 C214.742331,109.32885 214.198653,109.643646 213.840438,110.127903 C213.307206,110.871272 212.921928,111.709504 212.70544,112.597267 C212.268902,114.040628 211.832365,115.544854 212.028807,117.040385 C212.207787,118.279415 212.814574,119.622784 212.194691,120.709652 C210.151695,124.270233 208.741679,128.274255 207.226893,132.091337 C206.83621,133.007149 206.518023,133.951981 206.275241,134.917194 C205.971957,136.472741 205.918911,138.066415 206.118088,139.63855 C206.477474,142.586672 207.04788,145.505459 207.82495,148.372623 C208.143622,149.676865 208.519044,151.055014 209.269889,152.12884 C209.003462,153.585522 208.938835,155.071706 209.077813,156.545873 C209.09559,156.886569 209.184812,157.219781 209.339735,157.524054 C209.590157,157.874215 209.893506,158.183652 210.239003,158.441371 C211.186442,159.31911 211.706863,160.561729 211.666481,161.84979 C211.687555,163.040259 211.919573,164.217666 212.351845,165.327769 C213.395169,168.427517 214.44286,171.527265 215.355223,174.670488 C215.55301,175.252386 215.661905,175.860573 215.678261,176.47469 C215.678261,177.344184 215.26355,178.213679 215.455627,179.083173 C215.602086,179.47609 215.721679,179.878425 215.813588,180.287423 C215.820588,180.603358 215.779374,180.918519 215.691357,181.22213 C215.123858,183.678453 213.482477,189.34321 213.766226,191.851702 L214.32936,191.656066 C214.089264,194.977535 213.059036,198.229445 212.683613,201.550914 C212.436933,203.969216 212.463289,206.407438 212.76219,208.819889 C212.924927,209.898267 213.018245,210.985906 213.041574,212.076147 C213.041574,213.054328 212.88442,214.019467 212.845132,214.993301 C212.825461,216.301436 212.902792,217.609233 213.076497,218.906027 C213.247437,220.940497 213.572861,222.959151 214.049976,224.944667 C214.957974,228.318306 214.346821,231.831065 214.447225,235.326433 C214.564418,237.764746 214.539639,240.207773 214.373014,242.64323 C214.281341,243.673581 214.137283,244.699585 214.106726,245.734284 C214.015053,248.8036 214.927416,251.859873 214.604379,254.911799 C214.451591,256.342118 214.084899,257.95503 214.988532,259.081026 C215.276647,259.433171 215.665165,259.685325 215.970741,260.02008 C216.308909,260.336854 216.453402,260.808254 216.350529,261.25911 C216.232664,261.60256 215.913991,261.854714 215.83978,262.215554 C215.756838,262.780726 216.381087,263.171998 216.922393,263.354592 L217.075182,263.398067 C217.052257,263.779535 217.193553,264.152672 217.4637,264.42407 C217.802211,264.681613 218.205547,264.841082 218.629255,264.884903 L225.613857,266.232619 C227.172296,266.532595 228.866062,266.815181 230.328463,266.289136 C230.384873,266.499523 230.49811,266.690485 230.655867,266.841265 C230.993143,267.098069 231.394869,267.257499 231.817057,267.302098 L238.801658,268.649814 C240.582732,268.993265 242.53842,269.31063 244.127417,268.432441 C244.585523,268.188831 244.972143,267.830764 245.249319,267.393395 C245.700748,266.554608 245.756677,265.559961 245.402107,264.676224 C245.268294,264.228921 244.99642,263.834951 244.62507,263.550228 C244.129423,263.279009 243.564935,263.158112 243.00115,263.202431 C242.522493,263.237156 242.042117,263.164355 241.595499,262.989404 C241.458525,262.91786 241.339237,262.816881 241.246269,262.693776 C241.595499,262.259029 241.931633,261.824282 242.250305,261.389534 C241.949094,261.319975 241.813768,260.906965 241.739556,260.602642 C240.840289,256.089965 242.101883,251.472948 242.285228,246.864627 C242.378112,244.557375 242.196412,242.247284 241.743922,239.982577 C241.573672,239.113082 241.368499,238.287062 241.246269,237.426262 C240.604559,232.935323 242.320151,228.374823 241.774479,223.870841 C241.516922,221.766664 242.42492,219.566843 242.747958,217.471361 C243.031708,215.610642 242.848362,213.715144 242.665016,211.819646 L241.220077,197.038237 C241.023635,195.042747 240.818462,192.999435 239.962848,191.182191 C239.535559,190.166155 239.333069,189.070371 239.369157,187.969408 C241.115308,186.973837 242.721766,185.604383 244.694916,185.600036 C245.074704,184.165369 243.98336,179.63965 243.346015,178.300628 C240.860003,173.021694 239.87699,167.164349 240.504155,161.367221 C240.73552,159.284781 239.901733,157.184951 240.181117,155.106859 C240.222924,154.620157 240.359325,154.146188 240.582732,153.71132 C240.811635,153.273438 241.249946,152.982976 241.743922,152.941818 C241.621691,151.694093 241.460172,150.437673 241.246269,149.189948 C241.964737,148.459912 242.554996,147.614895 242.992419,146.690151 C243.900418,144.799001 244.302032,142.712213 244.830243,140.686291 C245.790625,137.117016 247.257392,133.708597 248.418582,130.204533 C249.579772,126.70047 249.352772,122.996423 250.186559,119.396715 C250.657348,117.413585 251.876669,115.68707 253.591552,114.575368 C254.25509,114.14062 255.0103,113.805865 255.468664,113.162439 C255.81414,112.633512 255.996272,112.015295 255.992509,111.384322 C256.072074,110.000859 255.514498,108.656645 254.477724,107.732445 Z M227.796545,259.841834 C227.927506,259.663587 228.054102,259.485341 228.171968,259.2984 C227.709238,259.272315 227.124277,259.002771 227.067527,258.541939 C227.053546,258.080571 227.104982,257.619545 227.220316,257.172485 C227.35184,256.37327 227.302625,255.554897 227.076258,254.777028 C226.914739,254.237941 226.674644,253.720592 226.500028,253.181505 C226.329218,252.579756 226.193663,251.968631 226.094049,251.351219 C225.666123,249.143004 225.000186,246.987221 224.107802,244.921306 C223.234727,242.917121 223.91136,240.730342 223.920091,238.543563 C223.920091,237.513212 223.762938,236.461123 224.02486,235.461205 C224.177648,234.869948 224.461398,234.322167 224.622917,233.722215 C224.980878,232.344066 224.531244,230.896358 224.090341,229.544294 C225.814664,225.483754 226.046029,220.849348 226.399625,216.432315 C226.597522,213.96295 226.795419,211.499382 226.993316,209.041611 C227.080623,207.9417 227.181027,206.798314 227.761622,205.85926 C228.792782,208.999224 229.407681,212.259878 229.590715,215.558473 C229.608837,216.511796 229.719948,217.461109 229.922483,218.393025 C230.197502,219.423376 230.734443,220.358083 231.092404,221.358002 C231.886903,223.557823 231.80396,225.961976 232.161921,228.270484 C232.305979,229.205191 232.524247,230.126855 232.663939,231.061562 C233.266361,235.187314 232.292883,239.365235 231.323769,243.421428 C230.730078,245.908182 230.826116,248.660133 230.69079,251.2121 C230.564194,253.659727 230.433232,256.107354 230.494348,258.559329 C230.494348,259.307095 230.542367,260.07225 230.533636,260.833058 C230.296085,260.804741 230.05695,260.791672 229.817714,260.79393 C229.339057,260.828656 228.858681,260.755855 228.412063,260.580904 C228.135557,260.403334 227.92065,260.145289 227.796545,259.841834 L227.796545,259.841834 Z" id="Shape" fill="url(#linearGradient-2)" fill-rule="nonzero"></path>
                <path d="M243.434858,263.488195 C243.984246,263.446923 244.534184,263.561018 245.018988,263.816852 C245.379052,264.089572 245.643844,264.464521 245.776986,264.890189 C246.120993,265.730887 246.064825,266.677453 245.623683,267.473685 C245.352916,267.88978 244.975681,268.229636 244.52927,268.459657 C242.979207,269.2917 241.071437,268.996325 239.334004,268.671828 L232.52054,267.394641 C232.109855,267.359613 231.716738,267.215773 231.383543,266.978619 C230.959194,266.522917 230.878731,265.853917 231.183398,265.314531 C231.480463,264.789298 231.923292,264.356681 232.460922,264.066465 C234.419793,262.876643 236.719337,262.402378 238.96778,262.148605 C239.819463,262.048759 240.615787,261.782505 241.254549,262.360776 C241.595222,262.664472 241.578189,263.043052 242.055131,263.288504 C242.494292,263.45383 242.965496,263.522028 243.434858,263.488195 L243.434858,263.488195 Z" id="Path" fill="#2B2B2B"></path>
                <path d="M230.436609,261.489832 C230.984417,261.448434 231.532802,261.562527 232.015825,261.818392 C232.378261,262.088692 232.643554,262.464396 232.773508,262.89141 C233.12109,263.730859 233.066446,264.678165 232.624525,265.474138 C232.352668,265.889126 231.975887,266.228614 231.530567,266.459817 C229.981147,267.291614 228.074169,266.996326 226.333201,266.671925 L219.522565,265.390959 C219.112002,265.356149 218.718993,265.212332 218.38604,264.97506 C217.960468,264.520441 217.878317,263.851556 218.181721,263.311467 C218.487906,262.786149 218.937358,262.354209 219.479998,262.063772 C221.433799,260.878462 223.736646,260.420974 225.984155,260.15064 C226.835485,260.046665 227.631478,259.784649 228.269975,260.358589 C228.60625,260.662195 228.59348,261.040662 229.065968,261.286042 C229.501688,261.452588 229.969908,261.522204 230.436609,261.489832 L230.436609,261.489832 Z" id="Path" fill="#2B2B2B"></path>
                <path d="M227.861086,187.514616 C223.742892,187.530974 219.631281,187.836701 215.55829,188.429416 C215.289052,188.453708 215.025775,188.521091 214.779069,188.628851 C213.915246,189.062405 213.88853,190.241673 213.910793,191.186822 C213.968678,195.03245 212.619512,198.756682 212.174242,202.571961 C211.918883,204.967434 211.944278,207.383419 212.249938,209.7733 C212.411528,210.843404 212.506692,211.922022 212.53491,213.003281 C212.53491,213.965772 212.370161,214.923927 212.330086,215.890753 C212.309409,217.180765 212.3868,218.470498 212.561627,219.749388 C212.736039,221.765402 213.067983,223.765544 213.554578,225.732439 C214.476285,229.075144 213.852908,232.556586 213.950867,236.01635 C214.069687,238.432201 214.041437,240.852783 213.866266,243.26538 C213.77276,244.288569 213.625821,245.303086 213.594652,246.33061 C213.501145,249.365491 214.427306,252.400372 214.097806,255.435253 C213.941962,256.848641 213.563483,258.470134 214.485191,259.562692 C214.779069,259.909535 215.175358,260.160997 215.482594,260.494834 C215.824512,260.807181 215.973225,261.271201 215.874432,261.717457 C215.749756,262.059965 215.406899,262.311427 215.353466,262.666941 C215.264412,263.226226 215.901148,263.616425 216.453282,263.794183 C220.772974,265.084733 225.449379,263.448063 227.936782,259.775133 C227.464796,259.74912 226.868135,259.480316 226.81025,259.025084 C226.795994,258.567841 226.848465,258.110942 226.966094,257.668059 C227.102601,256.876931 227.052352,256.065926 226.819156,255.296516 C226.658859,254.758908 226.409508,254.247314 226.235853,253.714042 C226.062109,253.118221 225.923845,252.513128 225.821752,251.901785 C225.388121,249.712067 224.710264,247.574989 223.800228,245.528535 C222.909689,243.542855 223.60431,241.375083 223.613215,239.215982 C223.613215,238.192793 223.457371,237.147927 223.72008,236.159423 C223.875924,235.569789 224.165349,235.027846 224.334552,234.425205 C224.699673,233.059509 224.241045,231.628779 223.791323,230.289096 C225.572401,226.265711 225.795036,221.652692 226.155704,217.282463 L226.765723,209.912038 C226.854777,208.823816 226.961642,207.687904 227.549397,206.760097 C228.601074,209.869157 229.228343,213.099363 229.415077,216.367663 C229.429856,217.314076 229.541729,218.256682 229.749029,219.181432 C230.029549,220.195949 230.572777,221.123755 230.942351,222.116595 C231.748289,224.284367 231.663688,226.673252 232.028809,228.96242 C232.175747,229.890226 232.39393,230.80069 232.536416,231.728497 C233.150888,235.816915 232.153484,239.966031 231.160533,243.97641 C230.554967,246.438999 230.648473,249.179063 230.51044,251.698014 C230.376859,254.121583 230.243278,256.545153 230.305616,258.973058 C230.359048,261.205863 230.537156,263.603419 229.303759,265.476374 C230.684095,266.16139 232.108957,266.859413 233.649589,266.989479 C235.442076,267.082129 237.211278,266.560577 238.649966,265.515394 C240.073888,264.472246 241.311931,263.208187 242.314534,261.773819 C242.002845,261.70445 241.869264,261.292574 241.793568,260.993421 C240.876313,256.523475 242.167595,251.932133 242.359061,247.379812 C242.45344,245.094901 242.269599,242.807147 241.811379,240.564336 C241.637724,239.697227 241.423995,238.877809 241.299319,238.028043 C240.653678,233.579774 242.403588,229.057802 241.851453,224.587855 C241.593197,222.498123 242.519358,220.32168 242.848857,218.240618 C243.138282,216.398012 242.955722,214.520721 242.768709,212.665108 L241.303772,198.032646 C241.107853,196.051303 240.898577,194.026603 240.025848,192.227352 C238.983918,190.05958 239.629559,187.388885 239.518241,185 C235.840169,186.576482 231.87883,187.431 227.861086,187.514616 L227.861086,187.514616 Z" id="Path" fill="#454545"></path>
                <path d="M237.139792,143.815659 C238.2831,140.548367 239.767965,137.423278 241.567353,134.497289 C241.946783,133.922785 242.283817,133.318859 242.575526,132.690757 C243.188831,131.266628 243.251842,129.657891 243.575298,128.128272 C244.478453,123.847097 247.42736,120.172495 247.805425,115.820992 C247.939848,114.234232 248.754788,112.779336 249.263075,111.280485 C249.603334,110.265134 249.9898,109.192642 250.813142,108.54651 C251.948088,107.754594 253.443854,107.829462 254.501376,108.731119 C255.520042,109.654187 256.071057,111.020063 255.992632,112.427699 C255.994281,113.061224 255.819081,113.681464 255.488545,114.212255 C255.043269,114.858387 254.320745,115.205628 253.682235,115.631987 C252.035577,116.742736 250.860753,118.474124 250.401471,120.46699 C249.594932,124.084451 249.81337,127.798613 248.691777,131.319374 C247.570184,134.840135 246.171344,138.268592 245.234583,141.868471 C244.709493,143.903568 244.335629,146.000201 243.457678,147.899038 C242.579727,149.797876 241.08847,151.512104 239.126733,152 C239.003075,150.693004 238.679706,149.415253 238.168969,148.215511 C237.580868,146.826547 236.644107,145.2266 237.139792,143.815659 Z" id="Path" fill="#AEAEAE"></path>
                <path d="M214.777174,148.406928 C214.602943,145.847796 213.922786,143.345155 212.773836,141.035636 C212.322634,140.159666 211.817287,139.283695 211.763143,138.280709 C211.790702,137.366004 212.003825,136.465554 212.390314,135.630898 C213.411894,132.635923 214.21847,129.575838 214.804246,126.472626 L216.049564,120.647422 C216.606812,120.156356 217.099353,119.600273 217.515972,118.991838 C218.386973,117.781481 218.897475,116.361516 218.991403,114.887916 C219.075452,113.402933 218.540461,111.947573 217.506948,110.849691 C217.044265,110.319728 216.368075,110.009903 215.652507,110 C215.032562,110.070967 214.470619,110.388107 214.100371,110.875971 C213.558167,111.614246 213.167529,112.446987 212.949805,113.328688 C212.498603,114.774039 212.0474,116.276329 212.245929,117.774239 C212.42641,119.013737 213.058094,120.358352 212.412874,121.444555 C210.296736,125.014135 208.839352,129.01732 207.269169,132.832172 C206.867562,133.749173 206.540201,134.695167 206.29006,135.661557 C205.973481,137.219347 205.915598,138.816261 206.118603,140.391798 C206.487939,143.348894 207.076021,146.276356 207.878292,149.151503 C208.329494,150.956002 208.893497,152.918176 210.454657,154 C211.740583,152.002787 213.040045,150.044993 214.777174,148.406928 Z" id="Path" fill="#AEAEAE"></path>
                <circle id="Oval" fill="#AEAEAE" cx="223.5" cy="141.5" r="7.5"></circle>
                <path d="M219.905374,149.904744 C219.860813,151.315572 219.254784,152.636251 218.657667,153.916364 C218.296723,154.687136 217.824377,155.548056 217,155.719339 C219.320276,156.658126 221.728404,157.357326 224.18768,157.806283 C225.029494,157.997204 225.896528,158.04745 226.754391,157.955028 C227.475765,157.824554 228.168377,157.565075 228.799738,157.188764 C231.605733,155.579221 233.523571,152.753266 234,149.526119 C233.055998,149.650843 232.101778,149.676522 231.152556,149.602746 C230.615523,149.617582 230.093546,149.422209 229.695413,149.057346 C229.444369,148.704182 229.301777,148.284019 229.285452,147.849352 C229.116121,146.56924 228.980952,145.286122 228.879948,144 C226.99815,144.073707 225.146652,144.503312 223.421232,145.26659 C222.708257,145.582111 222.013106,145.947213 221.277851,146.21766 C220.832241,146.379927 219.54443,146.411479 219.232503,146.704463 C218.751245,147.168729 219.93211,148.931137 219.905374,149.904744 Z" id="Path" fill="#AEAEAE"></path>
                <path d="M224.067891,154.213568 C223.688472,152.218922 222.071432,150.688509 220.051057,150.41192 C219.259996,150.32005 218.424987,150.41192 217.691058,150.118812 C216.438544,149.580719 215.911169,148.010188 214.698208,147.39335 C213.485248,146.776512 211.911914,147.349603 211.015378,148.382041 C210.118842,149.414479 209.74089,150.81877 209.468414,152.131192 C209.045852,153.951206 208.907991,155.825235 209.059699,157.68711 C209.08058,158.028605 209.171833,158.36217 209.32778,158.667051 C209.579599,159.016951 209.883378,159.32672 210.228712,159.585747 C211.181795,160.458509 211.706338,161.700811 211.665806,162.989293 C211.681303,164.187412 211.913542,165.372949 212.351393,166.489084 C213.401747,169.586399 214.456495,172.688089 215.370611,175.829151 C215.570123,176.410078 215.679779,177.017814 215.695825,177.631543 C215.673851,178.506491 215.256346,179.381439 215.471691,180.234513 C215.615097,180.62786 215.733983,181.029641 215.827668,181.437566 C215.834954,181.754057 215.793454,182.069789 215.704614,182.37376 C215.128897,184.832363 213.476458,190.493275 213.762119,193 C217.510871,191.626332 223.16696,190.812631 227.139847,190.375157 C228.232605,190.249841 229.331559,190.185577 230.431541,190.182668 C233.068412,190.182668 235.832733,190.677014 238.293813,189.714571 C240.574706,188.839624 242.468859,186.731 244.921149,186.72225 C245.303496,185.291711 244.204799,180.768231 243.567555,179.429561 C241.067642,174.157227 240.082004,168.299142 240.719734,162.503697 C240.948263,160.421322 240.113254,158.321447 240.398915,156.243446 C240.439533,155.756757 240.575392,155.282676 240.79884,154.847905 C241.033245,154.408859 241.474726,154.117526 241.972248,154.073576 C241.680127,150.815553 241.039248,147.59791 240.060516,144.475399 C239.704539,143.364216 239.0629,142.078043 237.893887,142.003672 C236.839138,141.933676 236.061261,142.87862 235.300964,143.617951 C234.516142,144.35919 233.578963,144.921917 232.554223,145.267227 C232.134371,145.359325 231.742648,145.549794 231.411578,145.822819 C230.9721,146.282166 230.9721,147.030247 230.607332,147.572714 C229.974483,148.543906 228.357202,148.635776 227.970461,149.720711 C227.889214,150.039763 227.831924,150.364389 227.799064,150.691903 C227.619461,151.330573 227.259487,151.904511 226.761895,152.345554 C226.033491,153.18107 225.107675,153.823027 224.067891,154.213568 Z" id="Path" fill="#2B2B2B"></path>
                <path d="M228.637798,132.85053 C228.776688,132.343321 228.597128,131.805312 228.176103,131.467178 C227.932743,131.358477 227.683016,131.263169 227.428158,131.181724 C227.08175,130.957327 226.787817,130.667275 226.564789,130.329755 C225.223277,128.891253 222.988026,128.579838 221.269153,129.591967 C219.971791,130.408804 219.2931,131.85803 218.185033,132.898837 C217.617149,133.439003 216.938458,133.860596 216.365957,134.400762 C215.232239,135.548628 214.493037,136.997765 214.246779,138.55521 C214.009762,140.104888 213.943227,141.673847 214.04825,143.236649 C214.034532,143.710286 214.106368,144.182651 214.26063,144.633175 C214.426408,145.002327 214.654057,145.343448 214.934704,145.643242 C216.342042,147.391961 218.228573,148.738178 220.387316,149.534194 C222.557281,150.263198 225.091984,150.175366 227.031101,148.994028 C227.225298,148.891781 227.385302,148.739587 227.492795,148.554868 C227.585042,148.280654 227.585042,147.985896 227.492795,147.711682 C227.261479,146.617789 227.372232,145.483398 227.811365,144.448728 C228.19631,143.728272 228.538501,142.987859 228.836326,142.230974 C229.02604,141.363883 229.051058,140.471493 228.910198,139.596017 C228.683967,137.356305 228.273059,135.099026 228.637798,132.85053 Z" id="Path" fill="#525258"></path>
                <path d="M355,249 C355,291.55764 382.282029,326 416,326" id="Path" fill="#2B2B2B"></path>
                <path d="M416,326 C416,282.883333 445.962922,248 483,248" id="Path" fill="#454545"></path>
                <path d="M377,253 C377,293.348808 394.439205,326 416,326" id="Path" fill="#454545"></path>
                <path d="M415,327 C415,271.726087 449.885281,227 493,227" id="Path" fill="#2B2B2B"></path>
                <ellipse id="Oval" fill="#1A1A1A" cx="413" cy="338.5" rx="15" ry="2.5"></ellipse>
                <path d="M402,327.575209 C402,327.575209 410.599091,327.315619 413.191562,325.498482 C415.784032,323.681345 426.421947,321.509435 427.063474,324.425506 C427.705,327.341578 439.986278,338.919333 430.279894,338.997211 C420.57351,339.075088 407.72101,337.508889 405.132934,335.96865 C402.544858,334.42841 402,327.575209 402,327.575209 Z" id="Path" fill="#5C5C5C"></path>
                <path d="M430.451922,337.033088 C420.745313,337.108149 407.892514,335.598599 405.304378,334.114069 C403.335812,332.971481 402.549265,328.889023 402.290012,327 L402,327 C402,327 402.544871,333.580305 405.133007,335.077345 C407.721143,336.574385 420.569548,338.083936 430.280552,337.996365 C433.079606,337.975515 434.050706,337.028918 433.997977,335.627789 C433.620083,336.511835 432.552312,337.016408 430.451922,337.033088 Z" id="Path" fill="#000000" opacity="0.2"></path>
                <path d="M356.41493,16.1557692 C356.791551,15.6108059 356.999228,14.9638743 357.011283,14.2980769 C357.011283,10.2642308 348.92352,7 338.946581,7 C328.969642,7 320.881879,10.2642308 320.881879,14.2980769 C320.890009,15.0482173 321.139164,15.7751092 321.591408,16.3680769 C310.482704,17.6286538 303,19.9905769 303,22.7019231 C303,26.7313462 319.541173,30 339.999992,30 C360.458812,30 376.999985,26.7313462 376.999985,22.7019231 C377.013044,19.8490385 368.603163,17.35 356.41493,16.1557692 Z" id="Path" fill="#454545" opacity="0.2"></path>
                <path d="M134.380118,23.1557692 C134.756739,22.6108059 134.964416,21.9638743 134.976471,21.2980769 C134.976471,17.2642308 126.888706,14 116.911765,14 C106.934824,14 98.8470588,17.2642308 98.8470588,21.2980769 C98.8651394,22.0523345 99.1266754,22.7796501 99.5914118,23.3680769 C88.4827059,24.6286538 81,26.9905769 81,29.7019231 C81,33.7313462 97.5629412,37 118,37 C138.437059,37 155,33.7313462 155,29.7019231 C154.978235,26.8490385 146.568353,24.35 134.380118,23.1557692 Z" id="Path" fill="#454545" opacity="0.2"></path>
                <path d="M265.592872,30.8252818 L261.747193,35 L263.560233,29.6490161 C263.911745,28.61157 264.339789,27.6029035 264.836916,26.6288636 C264.920605,25.6448468 264.826156,24.433051 264.590315,22.9052997 C264.57826,22.8368154 264.57826,22.8368154 264.566358,22.7687398 C264.495401,22.3625722 264.48188,22.2865274 264.448767,22.1135557 C264.268775,21.1733037 264.06724,20.5974035 263.736206,20.1583915 C263.317718,19.6034007 262.573707,19.3620074 262.194615,19.5757985 L261,17.5122853 C262.549117,16.638652 264.580847,17.2978436 265.667897,18.7394704 C266.267037,19.5340408 266.572752,20.4076421 266.814851,21.6723254 C266.851381,21.8631534 266.865684,21.9435942 266.939288,22.3649121 C266.95096,22.4316703 266.95096,22.4316703 266.966655,22.5223269 C266.996764,22.7172636 267.024948,22.908373 267.051109,23.0957928 C271.208352,17.5795644 277.726246,13.7286512 284.748228,13 L285,15.3635873 C277.538762,16.1378189 270.673648,20.8465099 267.2049,27.2835172 C267.025361,28.685255 266.526059,29.8122508 265.592872,30.8252818 Z" id="Path" fill="#454545" fill-rule="nonzero" opacity="0.614513579"></path>
                <path d="M116.753543,63.1476471 L115.493141,61.0692513 C116.712843,60.3485933 118.25208,60.8808151 119.076664,61.9899497 L119.139451,62.083144 C119.495961,62.669358 119.74754,63.3120131 119.885075,63.9816032 C122.560412,60.7191168 126.397666,58.5312293 130.695048,58 L131,60.4035215 C126.333699,60.9803553 122.293616,63.8614838 120.131288,68.0265039 C120.002332,68.9913503 119.657029,69.7759198 119.012917,70.4984609 L115,75 L116.928183,69.3139457 C117.152841,68.6514492 117.41555,68.0092276 117.713465,67.3896413 C117.757321,66.7834534 117.699485,66.0178449 117.555142,65.0349809 L117.545206,64.9423721 C117.507744,64.3916769 117.344305,63.8586399 117.069103,63.3864417 C116.926094,63.2178118 116.743013,63.1538684 116.753543,63.1476471 Z" id="Path" fill="#454545" fill-rule="nonzero" opacity="0.614513579"></path>
                <path d="M313.753543,76.1476471 L312.493141,74.0692513 C313.712843,73.3485933 315.25208,73.8808151 316.076664,74.9899497 L316.139451,75.083144 C316.495961,75.669358 316.74754,76.3120131 316.885075,76.9816032 C319.560412,73.7191168 323.397666,71.5312293 327.695048,71 L328,73.4035215 C323.333699,73.9803553 319.293616,76.8614838 317.131288,81.0265039 C317.002332,81.9913503 316.657029,82.7759198 316.012917,83.4984609 L312,88 L313.928183,82.3139457 C314.152841,81.6514492 314.41555,81.0092276 314.713465,80.3896413 C314.757321,79.7834534 314.699485,79.0178449 314.555142,78.0349809 L314.545206,77.9423721 C314.507744,77.3916769 314.344305,76.8586399 314.069103,76.3864417 C313.926094,76.2178118 313.743013,76.1538684 313.753543,76.1476471 Z" id="Path" fill="#454545" fill-rule="nonzero" opacity="0.614513579"></path>
                <polygon id="Path" fill="#454545" opacity="0.2" transform="translate(295.000000, 214.000000) rotate(-180.000000) translate(-295.000000, -214.000000) " points="295.875 221 295.875 210.36875 300.775 215.26875 302 214 295 207 288 214 289.225 215.220625 294.125 210.36875 294.125 221"></polygon>
                <polygon id="Path" fill="#454545" opacity="0.2" transform="translate(190.000000, 250.000000) rotate(-180.000000) translate(-190.000000, -250.000000) " points="190.875 257 190.875 246.36875 195.775 251.26875 197 250 190 243 183 250 184.225 251.220625 189.125 246.36875 189.125 257"></polygon>
                <polygon id="Path" fill="#454545" opacity="0.2" transform="translate(267.000000, 280.000000) rotate(-180.000000) translate(-267.000000, -280.000000) " points="267.875 287 267.875 276.36875 272.775 281.26875 274 280 267 273 260 280 261.225 281.220625 266.125 276.36875 266.125 287"></polygon>
            </g>
        </g>
    </g>
</svg>