<?xml version="1.0" encoding="UTF-8"?>
<svg width="512px" height="512px" viewBox="0 0 512 512" version="1.1" xmlns="http://www.w3.org/2000/svg" xmlns:xlink="http://www.w3.org/1999/xlink">
    <!-- Generator: Sketch 54.1 (76490) - https://sketchapp.com -->
    <desc>Created with Sketch.</desc>
    <defs>
        <linearGradient x1="0.0418254486%" y1="50.0117741%" x2="100%" y2="50.0117741%" id="linearGradient-1">
            <stop stop-color="#808080" stop-opacity="0.25" offset="0%"></stop>
            <stop stop-color="#808080" stop-opacity="0.12" offset="54%"></stop>
            <stop stop-color="#808080" stop-opacity="0.1" offset="100%"></stop>
        </linearGradient>
    </defs>
    <g id="empty-states/no-data" stroke="none" stroke-width="1" fill="none" fill-rule="evenodd" opacity="0.7">
        <g id="empty_xct9" transform="translate(6.000000, 65.000000)">
            <ellipse id="Oval" fill="#000000" fill-rule="nonzero" opacity="0.240327381" cx="175.633037" cy="366.602374" rx="87.0919881" ry="16.4985163"></ellipse>
            <path d="M290.578635,55.0939664 C258.570722,53.9861523 228.086053,43.6498516 198.976261,32.3442136 C169.866469,21.0385757 141.03363,8.51632047 109.792285,2.52720079 C89.6983185,-1.32542038 66.7161227,-1.8743818 50.529179,8.88724036 C34.9455984,19.272997 29.9109792,37.1513353 27.2057369,53.7537092 C25.1681503,66.2462908 23.9713155,79.396637 29.5499505,91.0929773 C33.4272997,99.2136499 40.3016815,106.038576 45.0593472,113.818002 C61.6122651,140.880317 49.9109792,174.253215 31.9782394,200.677547 C23.5707221,213.071217 13.8031652,224.910979 7.30959446,238.090999 C0.816023739,251.271019 -2.1859545,266.424332 3.49653808,279.906034 C9.12462908,293.259149 22.5420376,303.269041 37.0771513,310.316518 C66.5974283,324.634026 101.369931,328.728981 135.301682,331.053412 C210.390702,336.186944 285.875371,333.96637 361.162216,331.735905 C389.025717,330.914936 417.007913,330.07913 444.416419,325.771513 C459.638971,323.377844 475.351137,319.579624 486.40455,310.410485 C500.430267,298.773492 503.907023,279.070227 494.50544,264.480712 C478.738872,240 435.158259,233.92186 424.124629,207.655786 C418.061325,193.194857 424.287834,177.091988 433.105836,163.684471 C452.017804,134.915925 483.714144,109.678536 485.380811,76.8001978 C486.52819,54.2185955 471.290801,31.6023739 447.72997,20.9149357 C423.036597,9.71315529 388.788328,11.1226508 370.578635,29.6636993 C351.810089,48.7339268 318.84273,56.0781405 290.578635,55.0939664 Z" id="Path" fill="#000000" fill-rule="nonzero" opacity="0.240327381"></path>
            <path d="M265.143422,178.902077 L249.995054,168.689416 L249.995054,168.689416 L257.636004,157.31454 L217.626113,154.124629 L203.249258,165.242334 L185.252226,155.153314 L170.242334,156.958457 L170.064293,153.001978 C169.878502,148.877338 169.464083,144.766178 168.822948,140.687438 C168.88724,139.451039 168.931751,138.031652 168.926805,136.488625 C168.926805,129.985163 168.046489,121.364985 164.179031,115.6182 L165.069238,107.616222 L157.848665,99.0850643 C159.008232,96.7752699 160.330385,94.5507482 161.805143,92.4282888 C162.052423,92.0722057 162.299703,91.7260138 162.566766,91.3897132 C171.938675,90.7121662 179.332344,83.0069238 179.332344,73.5855589 C179.332344,73.1503462 179.332344,72.7151335 179.282888,72.2848665 C179.282888,72.1117705 179.248269,71.933729 179.228487,71.760633 C180.143422,72.2551929 181.068249,72.7497527 181.993076,73.2443126 C182.166172,73.4915925 182.363996,73.7388724 182.581602,74.0306627 L182.581602,74.0306627 L182.626113,74.0850643 L182.903066,74.4263106 L182.992087,74.5301682 C183.090999,74.6488625 183.194857,74.7626113 183.298714,74.8813056 L183.367953,74.9604352 C183.630069,75.2522255 183.907023,75.5489614 184.203759,75.8407517 C184.239084,75.8694975 184.272152,75.9009119 184.302671,75.9347181 L184.673591,76.28091 L184.777448,76.3748764 C185.093966,76.6567755 185.430267,76.9287834 185.766568,77.1859545 L185.875371,77.2650841 L186.300692,77.5568744 L186.439169,77.6458952 C186.602374,77.7448071 186.770524,77.8486647 186.933729,77.9426311 L186.993076,77.9772502 C187.185955,78.0811078 187.383778,78.1800198 187.581602,78.2739862 L187.680514,78.3135509 C187.848665,78.3860864 188.013518,78.4553248 188.175074,78.5212661 L188.328388,78.5756677 C188.501484,78.6350148 188.669634,78.6894164 188.847676,78.7388724 L188.956479,78.768546 C189.174085,78.8229476 189.391691,78.867458 189.614243,78.9020772 L189.638971,78.9020772 C189.848531,78.9359766 190.059912,78.957445 190.272008,78.9663699 L190.41543,78.9663699 C190.604882,78.9762866 190.794722,78.9762866 190.984174,78.9663699 L191.107814,78.9663699 C191.345041,78.9527082 191.581217,78.9246313 191.815035,78.8822948 C192.921584,78.7368027 193.984056,78.3556621 194.930762,77.7645895 C195.171793,77.6034086 195.385503,77.4047253 195.563798,77.1760633 C196.552918,75.8803165 195.464886,74.4609298 195.464886,74.4609298 L195.464886,74.4609298 C195.07913,73.5410485 192.576657,72.8931751 192.576657,72.8931751 C192.576657,72.8931751 184.663699,69.5895153 184.663699,66.958457 C184.663699,64.3273986 182.68546,50.677547 162.265084,47.5568744 C162.265084,47.5568744 148.981207,46.810089 145.24728,53.9218595 L145.16815,54.7527201 C144.070227,55.4401583 143.160237,56.8199802 142.077151,57.2255193 C141.609219,57.3260225 141.157951,57.4925419 140.736894,57.7200791 L140.736894,57.6261128 L140.736894,57.6261128 C140.611861,57.7354685 140.509383,57.8681856 140.435213,58.016815 C140.202563,58.4797289 140.063095,58.983829 140.024728,59.5004946 C139.913309,60.1316344 139.694156,60.7389059 139.376855,61.2957468 C139.288391,61.4539748 139.189249,61.6059918 139.080119,61.7507418 L139.080119,61.7507418 L138.996044,61.884273 C139.570217,61.9290186 140.146764,61.8357537 140.677547,61.6122651 C140.593905,62.2893645 140.427821,62.953703 140.182987,63.5905045 C140.825028,63.6112596 141.420207,63.2556981 141.706231,62.6805143 L141.706231,62.6409496 L141.770524,62.5519288 C141.89489,62.3229851 141.997547,62.0829001 142.077151,61.834817 L142.02275,61.8941642 C142.121662,61.5727003 142.210682,61.2462908 142.319486,60.9297725 C142.369335,60.7514847 142.451473,60.5838562 142.56182,60.4352127 C142.829514,60.1653483 143.209485,60.0386915 143.585559,60.0939664 L143.382789,64.3818002 L143.47181,64.3818002 C143.352688,64.6937016 143.207085,64.9948338 143.036597,65.2818991 C142.334322,66.4193867 141.058358,67.1958457 140.588526,68.4421365 C140.38595,69.0432356 140.308529,69.6794325 140.361029,70.3115727 C140.361029,70.6824926 140.405539,71.0583581 140.435213,71.4292779 L140.435213,71.3996044 C140.504451,72.388724 140.524233,73.3283877 139.990109,74.1246291 C139.624135,74.6686449 139.035608,75.0791296 138.832839,75.6973294 C138.776748,75.8695896 138.751631,76.0504279 138.758655,76.231454 C138.798334,76.7734224 138.911469,77.3074864 139.094955,77.8189911 C139.0971,77.8092161 139.0971,77.7990925 139.094955,77.7893175 C139.218303,78.1655835 139.247176,78.5664188 139.179031,78.9564787 C138.956479,79.9455984 137.754698,80.7715134 137.814045,81.7161227 C137.810652,81.8403559 137.829065,81.9642222 137.868447,82.0820969 C138.099674,82.5434854 138.500068,82.897817 138.986152,83.0712166 C139.748652,83.5048142 140.624378,83.6978876 141.498516,83.6251236 C141.826146,83.5659296 142.142946,83.4575507 142.43818,83.3036597 C142.091988,84.0999011 141.735905,84.8862512 141.374876,85.6330366 C141.320475,85.751731 141.261128,85.8704253 141.20178,85.9891197 C141.20178,85.9891197 138.145401,83.9465875 136.409496,88.1107814 C135.902746,88.9761441 135.540272,89.9182416 135.336301,90.9000989 C135.249333,91.2928592 135.126838,91.6768995 134.970326,92.0474777 C134.199671,93.3521507 133.046277,94.3881335 131.666667,95.0148368 C128.125618,96.6369931 113.822948,114.475767 113.570722,119.094955 C113.446941,120.898093 113.142076,122.684204 112.660732,124.426311 C111.534836,128.528886 111.245553,132.816 111.810089,137.032641 C111.98681,138.395387 112.279666,139.740538 112.68546,141.053412 C114.203759,145.667656 115.217606,154.277943 115.217606,154.277943 L116.859545,169.223541 C116.798592,171.286311 116.887848,173.350782 117.126607,175.400593 C115.450049,177.31454 108.71909,185.29179 111.290801,187.462908 C113.269041,189.174085 116.730959,188.892186 118.67458,188.541048 C117.037587,192.591494 114.46093,199.634026 114.119683,204.470821 C113.625124,211.627102 114.965381,221.107814 117.087043,224.747774 C119.208704,228.387735 126.28091,237.725025 126.28091,237.725025 C126.28091,237.725025 125.949555,250.534125 128.476756,255.187933 C131.003956,259.841741 132.02275,269.495549 132.02275,269.495549 C132.02275,269.495549 134.3818,277.645895 133.199802,280.642928 C132.017804,283.63996 135.390702,286.132542 131.849654,288.125618 C128.308605,290.118694 123.778437,335.039565 123.778437,335.039565 C123.778437,335.039565 121.953511,364.480712 123.778437,365.979228 C123.876091,366.05022 123.980444,366.111507 124.09001,366.162216 L124.09001,376.053412 C124.09001,376.053412 122.823937,378.130564 127.972305,378.55094 C131.498516,378.832839 141.493571,379.470821 147.423343,379.841741 L152.017804,380.128586 C152.017804,380.128586 162.898121,382.294758 167.705242,380.128586 C172.512364,377.962413 181.03363,378.011869 179.767557,372.289812 C179.599676,371.511115 179.374872,370.745788 179.094955,370 C177.705242,366.44906 175.346192,366.043521 170.999011,365.054402 C170.746785,365 170.504451,364.950544 170.281899,364.910979 C165.702275,364.114738 164.198813,366.246291 161.632047,363.47181 C159.401583,361.073195 152.299703,358.387735 149.881306,357.537092 C149.940653,357.35905 150.014837,357.185955 150.074184,357.002967 C149.389367,356.886785 148.752431,356.576043 148.239367,356.107814 L154.792285,356.523244 L158.694362,356.765579 C158.694362,356.765579 167.942631,358.610287 172.047478,356.765579 C176.152324,354.92087 183.372898,354.970326 182.294758,350.108803 C182.152742,349.446333 181.962657,348.795088 181.726014,348.160237 C180.544016,345.143422 178.536103,344.812067 174.841741,343.976261 C174.62908,343.931751 174.431256,343.88724 174.233432,343.852621 C170.341246,343.175074 169.065282,344.985163 166.884273,342.631058 C165.014837,340.623145 159.114738,338.372898 156.993076,337.60633 C156.993076,336.508408 155.509397,334.945598 154.574679,333.377844 C153.476756,331.547972 155.504451,325.143422 155.504451,325.143422 L156.661721,298.570722 C157.102426,298.374425 157.568601,298.241232 158.046489,298.175074 C158.046489,298.175074 163.278932,293.18002 162.096934,287.858556 C161.856099,286.249059 161.730491,284.624421 161.721068,282.997033 C163.442136,281.399604 165.811078,279.040554 166.48368,277.586548 C167.581602,275.217606 166.48368,263.738872 166.48368,263.738872 L166.48368,219.846686 L175.237389,220.731949 L183.18002,221.547972 L185.598417,221.795252 L193.541048,222.596439 L211.795252,224.441147 L228.244313,221.32542 L235.361029,219.980218 L249.995054,217.210682 L249.995054,181.40455 L265.143422,178.902077 Z M144.663699,60.2522255 L143.644906,60.1434224 C143.981207,60.1582591 144.33729,60.2225519 144.663699,60.2522255 Z" id="Shape" fill="url(#linearGradient-1)" fill-rule="nonzero"></path>
            <path d="M229.638971,202.151335 C224.693373,209.228487 206.913947,205.479723 206.913947,205.479723 L193.135509,192.586548 L191.28091,190.840752 L194.391691,184.233432 C194.391691,184.233432 195.380811,184.50544 197.077151,184.990109 C205.984174,187.576657 233.813056,196.20178 229.638971,202.151335 Z" id="Path" fill="#EFB7B9" fill-rule="nonzero"></path>
            <path d="M197.06726,184.990109 C196.458952,187.106825 194.792285,190.276954 193.135509,192.586548 L191.28091,190.840752 L194.391691,184.233432 C194.391691,184.233432 195.390702,184.50544 197.06726,184.990109 Z" id="Path" fill="#000000" fill-rule="nonzero" opacity="0.1"></path>
            <path d="M149.812067,110.479723 C149.812067,110.479723 137.111771,116.11276 137.734916,129.945598 C138.183292,138.857368 139.154298,147.735143 140.642928,156.533136 C140.642928,156.533136 138.046489,177.349159 148.857567,182.715134 C159.668645,188.081108 169.673591,192.492582 169.673591,192.492582 C169.673591,192.492582 186.587537,194.312562 188.689416,195.064293 C190.791296,195.816024 197.35905,184.322453 196.147379,182.532146 C194.935707,180.74184 179.411474,176.988131 177.433234,174.000989 C175.454995,171.013848 170.880317,169.169139 170.880317,169.169139 C170.880317,169.169139 166.15727,166.310584 165.835806,163.728981 C165.514342,161.147379 166.760633,159.223541 167.077151,158.090999 C167.39367,156.958457 168.194857,146.023739 168.194857,146.023739 C168.194857,146.023739 173.526212,107.101879 149.812067,110.479723 Z" id="Path" fill="#DCE6F2" fill-rule="nonzero"></path>
            <path d="M158.194857,155.964392 C158.194857,155.964392 140.771513,158.882295 142.457962,164.980218 C142.457962,164.980218 148.783383,158.397626 158.194857,155.964392 Z" id="Path" fill="#000000" fill-rule="nonzero" opacity="0.1"></path>
            <path d="M158.328388,158.432245 C158.328388,158.432245 148.748764,166.251236 150.623145,166.65183 C152.497527,167.052423 158.328388,158.432245 158.328388,158.432245 Z" id="Path" fill="#000000" fill-rule="nonzero" opacity="0.1"></path>
            <path d="M162.93274,161.15727 C162.93274,161.15727 160.365974,166.414441 161.94362,166.058358 C163.521266,165.702275 162.93274,161.15727 162.93274,161.15727 Z" id="Path" fill="#000000" fill-rule="nonzero" opacity="0.1"></path>
            <path d="M197.710188,185.548961 L196.65183,185.24728 C196.953511,184.25816 197.037587,183.456973 196.790307,183.086053 C195.578635,181.295747 180.064293,177.546983 178.090999,174.554896 C176.117705,171.562809 171.538081,169.723046 171.538081,169.723046 C171.538081,169.723046 166.815035,166.864491 166.493571,164.282888 C166.172107,161.701286 167.418398,159.777448 167.734916,158.644906 C168.051434,157.512364 168.852621,146.5727 168.852621,146.5727 C168.852621,146.5727 174.169139,107.655786 150.454995,111.03363 C150.454995,111.03363 137.754698,116.671612 138.372898,130.504451 C138.821444,139.416436 139.794111,148.294297 141.285856,157.091988 C141.285856,157.091988 138.689416,177.908012 149.500495,183.273986 C160.311573,188.63996 170.316518,193.051434 170.316518,193.051434 C170.316518,193.051434 187.225519,194.866469 189.332344,195.623145 C190.128586,195.90999 191.567755,194.431256 192.97725,192.398615 L193.778437,193.145401 L207.556874,206.03363 C207.556874,206.03363 225.336301,209.787339 230.281899,202.710188 C234.46093,196.755687 206.636993,188.130564 197.710188,185.548961 Z" id="Path" fill="#2B2B2B"></path>
            <path d="M142.502473,58.5608309 C142.018316,58.6554752 141.554598,58.8346011 141.132542,59.0900099 C140.637982,59.5004946 140.637982,60.2027695 140.514342,60.8160237 C140.369101,61.6691048 140.030778,62.4776978 139.525223,63.1800198 C140.08799,63.2213061 140.652504,63.1280681 141.172107,62.9080119 C141.087455,63.5849231 140.921401,64.2491407 140.677547,64.8862512 C141.306966,64.9022617 141.887428,64.5481799 142.161227,63.9812067 C142.42291,63.4239106 142.629945,62.842556 142.779426,62.2453017 C142.82588,62.0666667 142.906494,61.8987205 143.016815,61.7507418 C143.47181,61.2116716 144.317507,61.4540059 145.019782,61.5232443 C146.209959,61.6235967 147.360988,61.0707999 148.026706,60.0791296 C148.773492,58.9465875 148.818002,56.0484669 147.037587,55.7418398 C145.178042,55.4352127 144.020772,57.9970326 142.502473,58.5608309 Z" id="Path" fill="#494949"></path>
            <g id="Group" opacity="0.1" transform="translate(139.465875, 58.852621)" fill="#000000" fill-rule="nonzero">
                <path d="M1.61721068,0.845697329 C1.66172107,0.603363007 1.69139466,0.351137488 1.74579624,0.108803165 L1.74579624,0.108803165 C1.27596439,0.519287834 1.2512364,1.21661721 1.12759644,1.83481701 C1.06530241,2.19150109 0.967554254,2.54107502 0.835806133,2.87833828 C1.22521512,2.25767088 1.49058073,1.56738441 1.61721068,0.845697329 L1.61721068,0.845697329 Z" id="Path"></path>
                <path d="M1.77546983,4.93076162 C2.02174608,4.29441685 2.18787588,3.62989764 2.27002967,2.95252226 C1.77484659,3.16095009 1.23872804,3.2539675 0.702274975,3.22453017 C0.546120959,3.57236173 0.35559275,3.90371514 0.133531157,4.21364985 C0.694318369,4.25704288 1.25734137,4.16546685 1.77546983,3.94658754 C1.69331604,4.62396292 1.52718624,5.28848213 1.28090999,5.9248269 C1.90999194,5.93957953 2.48982648,5.58588046 2.76458952,5.01978239 C2.88780209,4.79499112 2.98725125,4.55797061 3.06132542,4.31256182 C2.76641924,4.72471473 2.28153998,4.95782976 1.77546983,4.93076162 L1.77546983,4.93076162 Z" id="Path"></path>
                <path d="M6.11770524,1.5677547 C5.41543027,1.49851632 4.56478734,1.256182 4.10979228,1.79525223 C4.00147913,1.9444369 3.92105399,2.11198928 3.87240356,2.28981207 C3.82789318,2.41839763 3.78832839,2.55192878 3.7537092,2.68545994 C4.22354105,2.31454006 4.9851632,2.512364 5.6231454,2.57665678 C6.81272919,2.67379643 7.96221397,2.12174124 8.63006924,1.13254204 C8.77997088,0.892395007 8.89174913,0.630466879 8.96142433,0.356083086 C8.27366374,1.20730333 7.20804012,1.66135166 6.11770524,1.5677547 Z" id="Path"></path>
            </g>
            <polygon id="Path" fill="#DCE6F2" fill-rule="nonzero" points="157.388724 99.4065282 164.930762 108.476756 163.946588 117.631058 154.83185 103.363007"></polygon>
            <polygon id="Path" fill="#2B2B2B" points="164.925816 108.476756 164.000989 117.087043 163.941642 117.631058 155.717112 104.75272 154.83185 103.363007 155.089021 102.962413 157.383778 99.4065282 157.893175 100.019782"></polygon>
            <path d="M168.84273,87.1266073 C166.290801,87.8585559 163.852621,90.3709199 161.730959,93.4223541 C160.296932,95.5277475 159.014437,97.7324505 157.893175,100.019782 C157.195846,101.414441 156.582591,102.754698 156.073195,103.92186 L155.717112,104.75272 C154.856578,106.785361 154.376855,108.145401 154.376855,108.145401 C154.376855,108.145401 134.841741,93.4569733 137.93274,92.4678536 C138.971316,92.1364985 140.336301,89.9109792 141.686449,87.1068249 L141.854599,86.7507418 C142.710188,84.950544 143.55094,82.9426311 144.297725,81.0534125 C145.825915,77.1711177 146.958457,73.7982196 146.958457,73.7982196 C146.958457,73.7982196 176.632047,84.901088 168.84273,87.1266073 Z" id="Path" fill="#AEAEAE"></path>
            <path d="M180.529179,72.9723046 C180.529179,72.9723046 185.039565,81.132542 191.097923,80.0197824 C197.156281,78.9070227 194.663699,75.6379822 194.663699,75.6379822 L180.529179,72.9723046 Z" id="Path" fill="#444053" fill-rule="nonzero"></path>
            <path d="M171.790307,355.440158 C167.794263,357.265084 158.758655,355.440158 158.758655,355.440158 L154.950544,355.20277 C150.004946,354.886251 141.726014,354.352127 138.79822,354.114738 C134.525223,353.7636 135.573689,352.012859 135.573689,352.012859 L135.573689,341.434224 L156.305638,336.181998 C156.305638,336.181998 164.500495,338.986152 166.745796,341.434224 C168.877349,343.768546 170.12364,341.973294 173.926805,342.645895 C174.114738,342.680514 174.312562,342.720079 174.520277,342.769535 C178.130564,343.59545 180.089021,343.92186 181.246291,346.913947 C181.478843,347.542557 181.665615,348.187167 181.805143,348.84273 C182.873393,353.659743 175.781405,353.625124 171.790307,355.440158 Z" id="Path" fill="#2B2B2B"></path>
            <path d="M181.246291,346.913947 C180.503402,347.37814 179.722499,347.778518 178.911968,348.110781 C176.191889,349.352127 173.605341,350.86548 170.855589,352.037587 C168.105836,353.209693 165.143422,354.0455 162.166172,353.822948 C160.608309,353.709199 159.015826,353.328388 157.527201,353.773492 C156.606579,354.128955 155.739493,354.60993 154.950544,355.20277 C150.004946,354.886251 141.726014,354.352127 138.79822,354.114738 C134.525223,353.7636 135.573689,352.012859 135.573689,352.012859 L135.573689,350.776459 C135.727003,350.776459 135.900099,350.731949 136.097923,350.717112 C137.121398,350.700754 138.140599,350.852799 139.114738,351.167161 C141.261128,351.750742 143.397626,352.324431 145.544016,352.898121 C145.900797,351.5518 146.794793,350.411061 148.016815,349.742829 C149.241908,349.092493 150.616898,348.776894 152.002967,348.827893 C155.331355,348.872404 158.481701,350.450049 161.805143,350.608309 C162.734297,350.69374 163.669734,350.536982 164.520277,350.153314 C164.975272,349.925816 165.375865,349.594461 165.820969,349.342235 C166.533309,348.997645 167.285929,348.743449 168.061325,348.585559 C170.24074,348.043049 172.380567,347.352355 174.465875,346.518299 C175.059347,346.285856 175.751731,345.86548 175.672601,345.232443 C175.568744,344.391691 174.248269,344.292779 173.902077,343.521266 C173.778247,343.239232 173.792874,342.915608 173.941642,342.645895 C174.129575,342.680514 174.327399,342.720079 174.535114,342.769535 C178.130564,343.59545 180.089021,343.92186 181.246291,346.913947 Z" id="Path" fill="#000000" fill-rule="nonzero" opacity="0.1"></path>
            <path d="M167.566766,378.585559 C162.868447,380.731949 152.23541,378.585559 152.23541,378.585559 L147.759644,378.323442 C141.963403,377.952522 132.200791,377.334322 128.753709,377.042532 C123.724036,376.627102 124.960435,374.569733 124.960435,374.569733 L124.960435,362.101879 L149.357072,355.919881 C149.357072,355.919881 159.000989,359.218595 161.641939,362.101879 C164.149357,364.846686 165.598417,362.734916 170.093966,363.526212 C170.316518,363.565776 170.548961,363.615232 170.791296,363.669634 C175.039565,364.658754 177.344214,365.029674 178.704253,368.55094 C178.979606,369.290222 179.19947,370.049001 179.362018,370.820969 C180.588526,376.488625 172.265084,376.444115 167.566766,378.585559 Z" id="Path" fill="#2B2B2B"></path>
            <path d="M178.694362,368.55094 C177.820474,369.096741 176.902316,369.568228 175.949555,369.960435 C172.749753,371.419387 169.703264,373.199802 166.468843,374.579624 C163.234421,375.959446 159.747774,376.938675 156.241345,376.681503 C154.411474,376.547972 152.537092,376.088032 150.801187,376.622156 C149.713491,377.04576 148.689872,377.61832 147.759644,378.323442 C141.963403,377.952522 132.200791,377.334322 128.753709,377.042532 C123.724036,376.627102 124.960435,374.569733 124.960435,374.569733 L124.960435,373.115727 C125.165209,373.082288 125.371537,373.059179 125.578635,373.046489 C126.783454,373.024483 127.983524,373.203323 129.129575,373.575668 L136.691395,375.613254 C137.117114,374.02483 138.177747,372.6816 139.624135,371.89911 C141.065602,371.130686 142.685203,370.758639 144.317507,370.820969 C148.234421,370.875371 151.938675,372.72997 155.850643,372.917903 C156.940101,373.017283 158.036821,372.835064 159.035608,372.388724 C159.574679,372.116716 160.024728,371.726014 160.568744,371.434224 C161.405169,371.024624 162.291247,370.725386 163.204748,370.544016 C165.755211,369.900423 168.259938,369.087543 170.702275,368.110781 C171.399604,367.833828 172.215628,367.339268 172.121662,366.597428 C171.998022,365.608309 170.445104,365.489614 170.034619,364.579624 C169.894467,364.246934 169.912654,363.86865 170.084075,363.55094 C170.306627,363.590504 170.53907,363.63996 170.781405,363.694362 C175.029674,364.643917 177.334322,365.029674 178.694362,368.55094 Z" id="Path" fill="#000000" fill-rule="nonzero" opacity="0.1"></path>
            <path d="M156.933729,293.031652 L155.613254,324.104847 C155.613254,324.104847 153.635015,330.450049 154.70821,332.265084 C155.781405,334.080119 157.591494,335.890208 156.933729,336.963403 C156.275964,338.036597 148.363007,349.638971 145.806133,345.187933 C143.249258,340.736894 140.727003,321.44906 140.727003,321.44906 L143.086053,297.626113 L156.933729,293.031652 Z" id="Path" fill="#454545"></path>
            <path d="M162.660732,215.613254 L166.330366,220.519288 L166.330366,263.189911 C166.330366,263.189911 167.403561,274.564787 166.330366,276.913947 C165.257171,279.263106 159.817013,283.961424 159.817013,283.961424 L155.242334,260.469832 L156.231454,235.6182 L162.660732,215.613254 Z" id="Path" fill="#454545"></path>
            <path d="M156.933729,293.031652 L155.613254,324.104847 C155.613254,324.104847 153.635015,330.450049 154.70821,332.265084 C155.781405,334.080119 157.591494,335.890208 156.933729,336.963403 C156.275964,338.036597 148.363007,349.638971 145.806133,345.187933 C143.249258,340.736894 140.727003,321.44906 140.727003,321.44906 L143.086053,297.626113 L156.933729,293.031652 Z" id="Path" fill="#000000" fill-rule="nonzero" opacity="0.1"></path>
            <path d="M162.660732,215.613254 L166.330366,220.519288 L166.330366,263.189911 C166.330366,263.189911 167.403561,274.564787 166.330366,276.913947 C165.257171,279.263106 159.817013,283.961424 159.817013,283.961424 L155.242334,260.469832 L156.231454,235.6182 L162.660732,215.613254 Z" id="Path" fill="#000000" fill-rule="nonzero" opacity="0.1"></path>
            <path d="M166.330366,197.413452 L166.330366,220.49456 L162.210682,238.461919 C162.210682,238.461919 160.890208,281.81998 162.042532,287.091988 C163.194857,292.363996 158.086053,297.31454 158.086053,297.31454 C158.086053,297.31454 155.118694,297.645895 155.118694,299.950544 C155.118694,302.255193 150.173096,308.852621 150.173096,308.852621 L150.336301,321.711177 C150.336301,321.711177 152.48269,345.781405 149.183976,350.395648 C145.885262,355.009891 150.336301,355.672601 150.336301,355.672601 C146.216617,369.188922 126.434224,366.058358 124.648863,364.574679 C122.863501,363.090999 124.648863,333.911968 124.648863,333.911968 C124.648863,333.911968 129.070227,289.401583 132.532146,287.423343 C135.994065,285.445104 132.700297,282.972305 133.852621,280.004946 C135.004946,277.037587 132.700297,268.961424 132.700297,268.961424 C132.700297,268.961424 131.711177,259.396637 129.238378,254.782394 C126.765579,250.16815 127.091988,237.472799 127.091988,237.472799 C127.091988,237.472799 120.16815,228.239367 118.110781,224.614243 C116.053412,220.98912 114.727992,211.592483 115.222552,204.500495 C115.558853,199.70821 118.076162,192.72997 119.673591,188.714144 C120.440158,186.790307 120.994065,185.544016 120.994065,185.544016 L121.463897,185.667656 L148.476756,192.739862 L166.330366,197.413452 Z" id="Path" fill="#454545"></path>
            <path d="M168.84273,87.1266073 C166.290801,87.8585559 163.852621,90.3709199 161.730959,93.4223541 L161.177052,93.4223541 C154.846975,93.4268302 148.998331,90.04405 145.845697,84.5548961 C145.198435,83.4374773 144.677588,82.2514715 144.292779,81.0187933 C145.820969,77.1364985 146.953511,73.7636004 146.953511,73.7636004 C146.953511,73.7636004 176.632047,84.901088 168.84273,87.1266073 Z" id="Path" fill="#000000" fill-rule="nonzero" opacity="0.1"></path>
            <path d="M178.857567,74.7626113 C178.869578,82.1782943 174.252629,88.8134798 167.29505,91.3795261 C160.337471,93.9455724 152.517891,91.8971417 147.711981,86.2495116 C142.906071,80.6018814 142.135186,72.5552896 145.781405,66.0979228 C146.31738,65.1404969 146.943353,64.2363128 147.650841,63.3976261 C148.817099,62.0081962 150.187862,60.804193 151.716123,59.8269041 C156.967221,56.4899735 163.585743,56.1586293 169.143864,58.954416 C174.701985,61.7502027 178.381561,67.2615858 178.832839,73.4668645 C178.84273,73.9020772 178.857567,74.3323442 178.857567,74.7626113 Z" id="Path" fill="#AEAEAE"></path>
            <path d="M164.000989,117.087043 L163.941642,117.631058 L155.717112,104.772502 C154.856578,106.805143 154.376855,108.165183 154.376855,108.165183 C154.376855,108.165183 134.841741,93.4569733 137.93274,92.4678536 C138.971316,92.1364985 140.336301,89.9109792 141.686449,87.1068249 L141.854599,86.7507418 C143.288823,91.0237389 151.622156,99.5647873 155.089021,102.987141 C155.489614,103.382789 155.820969,103.709199 156.07814,103.946588 L156.607319,104.441147 L156.884273,104.718101 C158.145401,106.018793 163.466864,111.755687 164.000989,117.087043 Z" id="Path" fill="#000000" fill-rule="nonzero" opacity="0.1"></path>
            <path d="M170.148368,160.717112 L169.248269,189.683482 L169.09001,194.841741 C169.09001,194.841741 158.4273,193.852621 148.476756,192.76459 C140.464886,191.889219 132.912957,190.944609 131.750742,190.390702 C130.267062,189.693373 127.087043,189.154303 124.579624,188.813056 C122.64095,188.55094 121.117705,188.412463 121.117705,188.412463 C121.117705,188.412463 120.548961,188.580613 119.673591,188.738872 C117.76459,189.085064 114.411474,189.366963 112.457962,187.670623 C109.960435,185.499505 116.523244,177.611276 118.160237,175.717112 L118.521266,175.306627 L117.903066,169.594461 L116.295747,154.782394 C116.295747,154.782394 115.306627,146.251236 113.822948,141.676558 C113.426288,140.375914 113.140077,139.044121 112.967359,137.695351 C112.416098,133.517166 112.698494,129.271151 113.79822,125.20277 C114.268076,123.474047 114.566256,121.703191 114.688427,119.915925 C114.935707,115.341246 128.907023,97.6607319 132.368942,96.0534125 C133.926269,95.3271845 135.179409,94.0775451 135.90999,92.5222552 C136.151182,92.0332324 136.332193,91.5167703 136.44906,90.9841741 C137.93274,84.5548961 141.686449,87.1068249 141.686449,87.1068249 C142.591494,92.1364985 156.602374,105.450049 156.602374,105.450049 L156.879327,105.727003 C158.269041,107.151335 164.46093,113.837784 164.020772,119.545005 C163.932818,121.669186 164.250037,123.790694 164.95549,125.796241 C167.805402,134.769893 169.443698,144.084064 169.826904,153.491592 L170.148368,160.717112 Z" id="Path" fill="#2B2B2B"></path>
            <path d="M150.296736,126.320475 C150.296736,126.320475 146.834817,134.727992 144.238378,136.088032 C141.641939,137.448071 151.533136,138.956479 150.296736,126.320475 Z" id="Path" fill="#000000" fill-rule="nonzero" opacity="0.1"></path>
            <path d="M152.893175,142.02275 C152.893175,142.02275 144.980218,143.011869 144.980218,144.495549 C144.980218,145.979228 152.893175,142.02275 152.893175,142.02275 Z" id="Path" fill="#000000" fill-rule="nonzero" opacity="0.1"></path>
            <path d="M161.177052,151.666667 C161.177052,151.666667 149.678536,176.147379 146.463897,176.889219 C143.249258,177.631058 161.177052,151.666667 161.177052,151.666667 Z" id="Path" fill="#000000" fill-rule="nonzero" opacity="0.1"></path>
            <path d="M156.384768,106.691395 L146.874382,110.825915 L135.395648,93.4866469 C135.63684,92.9976241 135.817851,92.481162 135.934718,91.9485658 C137.418398,85.5192878 141.172107,88.0712166 141.172107,88.0712166 C142.077151,93.1008902 156.088032,106.414441 156.088032,106.414441 L156.384768,106.691395 Z" id="Path" fill="#000000" fill-rule="nonzero" opacity="0.1"></path>
            <path d="M156.879327,105.702275 L147.368942,109.836795 L135.890208,92.4975272 C136.1314,92.0085044 136.31241,91.4920423 136.429278,90.9594461 C137.912957,84.5301682 141.666667,87.0820969 141.666667,87.0820969 C142.571711,92.1117705 156.582591,105.425321 156.582591,105.425321 L156.879327,105.702275 Z" id="Path" fill="#2B2B2B"></path>
            <path d="M169.09001,194.841741 C169.09001,194.841741 158.4273,193.852621 148.476756,192.76459 L166.330366,197.43818 L166.330366,202.878338 C165.548961,203.585559 164.871414,203.951533 164.431256,203.7636 C162.373887,202.898121 145.583581,200.178042 145.583581,200.178042 C145.583581,200.178042 135.830861,195.232443 125.306627,189.297725 C125.051173,189.156206 124.803534,189.001019 124.564787,188.832839 C123.337661,187.999672 122.280279,186.940613 121.44906,185.712166 C119.50544,182.898121 118.555885,179.282888 118.145401,175.736894 C117.914633,173.704688 117.828692,171.658643 117.888229,169.614243 C117.939207,167.296094 118.150726,164.984262 118.521266,162.695351 C117.503453,153.830069 117.008038,144.912589 117.037587,135.98912 C117.161227,122.141444 130.143422,117.195846 130.143422,117.195846 C154.005935,115.093966 146.607319,153.669634 146.607319,153.669634 C146.607319,153.669634 145.227498,164.549951 144.851632,165.66271 C144.475767,166.77547 143.125618,168.630069 143.308605,171.226508 C143.491592,173.822948 148.051434,176.928783 148.051434,176.928783 C148.051434,176.928783 152.502473,179.015826 154.33729,182.106825 C155.672601,184.386746 164.347181,187.477745 169.248269,189.683482 L169.09001,194.841741 Z" id="Path" fill="#000000" fill-rule="nonzero" opacity="0.1"></path>
            <path d="M177.082097,63.7833828 C177.091204,64.5979786 176.922424,65.4047483 176.587537,66.1473788 C176.334001,66.7533742 176.039895,67.3415858 175.707221,67.9080119 C175.18671,68.9499429 174.447902,69.8675494 173.541048,70.5984174 C172.398615,71.4144411 170.9545,71.6419387 169.58457,71.9732938 C168.214639,72.3046489 166.790307,72.8338279 166.008902,74.0009891 C165.585413,74.7512953 165.302185,75.5724883 165.173096,76.4243323 C165.042084,77.2754429 164.702254,78.0808387 164.183976,78.768546 C163.628903,79.4591597 162.677017,79.6869616 161.869436,79.322453 C161.455822,79.0436112 161.142174,78.6398537 160.974283,78.1701286 C160.410485,76.8991098 160.267062,75.4896142 160.039565,74.1196835 C159.812067,72.7497527 159.490603,71.3402572 158.649852,70.2373887 C157.8091,69.1345203 156.320475,68.4075173 155,68.8377844 C154.106952,69.1815867 153.392597,69.874511 153.021761,70.7566766 C152.656303,71.6307085 152.405297,72.5482933 152.274975,73.4866469 C151.661721,76.8430597 150.938015,80.1796901 150.103858,83.4965381 C150.078408,83.6325039 150.022623,83.7609796 149.940653,83.8724036 C149.809172,84.0034529 149.631718,84.0779839 149.446093,84.0801187 C148.338279,84.2284866 147.274975,83.4520277 146.15727,83.5361029 C146.042098,83.543774 145.927872,83.561984 145.816024,83.5905045 C142.114257,77.1570522 142.827503,69.0959865 147.601385,63.4124629 L147.690406,63.3877349 C148.433912,63.1237978 149.109571,62.6981325 149.668645,62.1414441 C150.38257,61.4270223 151.043719,60.6617425 151.646884,59.851632 L152.042532,59.3570722 C153.179307,57.9876003 154.474169,56.7574818 155.900099,55.6923838 C156.289333,55.3735013 156.735822,55.131793 157.215628,54.9802176 C157.626242,54.9002239 158.047058,54.8868647 158.461919,54.9406528 C160.169875,55.1456858 161.891777,55.2101951 163.610287,55.1335312 C164.807736,54.9452985 166.01464,54.8231223 167.225519,54.7675569 C170.356083,54.8565776 173.026706,57.0672601 175.004946,59.4906034 C176.068249,60.7319486 177.017804,62.1612265 177.082097,63.7833828 Z" id="Path" fill="#000000" fill-rule="nonzero" opacity="0.1"></path>
            <path d="M143.47181,66.5677547 C142.784372,67.6953511 141.543027,68.4619189 141.07814,69.6983185 C140.395648,71.4935707 141.547972,73.7289812 140.489614,75.3313551 C140.138477,75.8704253 139.559842,76.2710188 139.362018,76.8892186 C139.025717,77.9327399 139.945598,79.0454995 139.70821,80.1186944 C139.470821,81.1918892 138.05638,82.0969337 138.432245,83.1454006 C138.654364,83.6026567 139.043984,83.9568566 139.520277,84.1345203 C140.26966,84.5644028 141.132186,84.7558836 141.993076,84.6834817 C143.343225,84.4609298 144.347181,83.1355094 145.717112,83.0365974 C146.829871,82.9574679 147.893175,83.7289812 149.000989,83.5855589 C149.186655,83.5790987 149.363139,83.5032105 149.495549,83.3728981 C149.579593,83.2626788 149.6356,83.1336912 149.658754,82.9970326 C150.489614,79.6834817 151.214969,76.3468513 151.834817,72.9871414 C151.961118,72.0485181 152.210544,71.1306282 152.576657,70.2571711 C152.950362,69.3769692 153.663723,68.6850089 154.554896,68.3382789 C155.875371,67.9129575 157.35905,68.6350148 158.204748,69.7378833 C159.050445,70.8407517 159.371909,72.2502473 159.599407,73.620178 C159.826904,74.9901088 159.970326,76.3996044 160.529179,77.6706231 C160.698989,78.1420201 161.014185,78.5472723 161.429278,78.8278932 C162.171118,79.2581602 163.170129,78.9169139 163.738872,78.2739862 C164.259903,77.5860057 164.599992,76.7782939 164.727992,75.9248269 C164.857017,75.0745276 165.140267,74.254946 165.563798,73.5064293 C166.345203,72.3392681 167.774481,71.810089 169.139466,71.4787339 C170.504451,71.1473788 171.94362,70.9149357 173.095945,70.098912 C174.001586,69.3688156 174.740231,68.4530975 175.262117,67.413452 C175.994065,66.1374876 176.676558,64.7527201 176.617211,63.2838773 C176.552918,61.6815035 175.603363,60.2522255 174.589515,59.0059347 C172.611276,56.5825915 169.935707,54.371909 166.805143,54.2878338 C165.593907,54.3384818 164.386724,54.4606863 163.189911,54.6538081 C161.471273,54.731094 159.749183,54.6649234 158.041543,54.4559842 C157.626309,54.4063156 157.205885,54.4213308 156.795252,54.5004946 C156.314887,54.6471976 155.86911,54.8894314 155.484669,55.2126607 C154.057346,56.2759863 152.760832,57.5044378 151.622156,58.8724036 C150.887963,59.8458955 150.091716,60.7709959 149.238378,61.6419387 C148.679076,62.1995118 148.003594,62.6267543 147.260138,62.8931751 C146.765579,63.0316518 146.271019,62.9327399 145.801187,63.0860534 C144.342235,63.5459941 144.149357,65.4500495 143.47181,66.5677547 Z" id="Path" fill="#494949"></path>
            <path d="M191.097923,80.0148368 C187.141444,80.7418398 183.862512,77.5420376 182.047478,75.2077151 C181.490025,74.4987813 180.982695,73.7518323 180.529179,72.9723046 L194.109792,75.5341246 L194.658754,75.6379822 C194.658754,75.6379822 197.156281,78.9070227 191.097923,80.0148368 Z" id="Path" fill="#313131" fill-rule="nonzero"></path>
            <g id="Group" opacity="0.1" transform="translate(137.982196, 62.314540)" fill="#000000" fill-rule="nonzero">
                <path d="M1.72601385,16.3897132 C1.78136036,15.7429183 1.68307459,15.0921987 1.43916914,14.4906034 C1.43916914,14.5400593 1.39465875,14.5895153 1.37982196,14.6389713 C1.16716123,15.3016815 1.45400593,15.9891197 1.63699308,16.6765579 C1.67629284,16.5842002 1.70611921,16.4880931 1.72601385,16.3897132 L1.72601385,16.3897132 Z" id="Path"></path>
                <path d="M2.90306627,8.29376855 C2.85218573,8.97764553 2.86543178,9.66478391 2.94263106,10.3461919 C2.99333823,9.66231015 2.9800925,8.97518796 2.90306627,8.29376855 L2.90306627,8.29376855 Z" id="Path"></path>
                <path d="M37.2502473,3.66963403 C36.7297369,4.71156507 35.9909287,5.62917154 35.0840752,6.36003956 C33.9416419,7.1760633 32.5024728,7.40356083 31.1275964,7.73491592 C29.7527201,8.06627102 28.3333333,8.59545005 27.5519288,9.76261128 C27.1291439,10.5132343 26.8459617,11.3342951 26.7161227,12.1859545 C26.5873071,13.0391923 26.2472996,13.8467101 25.727003,14.5351137 C25.1582591,15.1780415 24.1592483,15.5242334 23.4174085,15.0890208 C23.0023153,14.8083999 22.6871192,14.4031477 22.5173096,13.9317507 C21.958457,12.6607319 21.810089,11.256182 21.5875371,9.88130564 C21.3649852,8.50642928 21.0336301,7.10187933 20.1928783,5.99901088 C19.3521266,4.89614243 17.8635015,4.16913947 16.5430267,4.59940653 C15.6509199,4.9446802 14.9370654,5.63711912 14.5647873,6.51829871 C14.1986749,7.39175582 13.9492483,8.3096457 13.8229476,9.24826904 C13.2063963,12.6079789 12.4810419,15.9446093 11.6468843,19.2581602 C11.6237311,19.3948188 11.5677233,19.5238064 11.4836795,19.6340257 C11.35127,19.7643381 11.1747857,19.8402263 10.9891197,19.8466864 C9.88130564,19.9901088 8.81800198,19.2185955 7.70524233,19.297725 C6.33531157,19.396637 5.33135509,20.7220574 3.98120673,20.9396637 C3.11999752,21.0169013 2.2560334,20.8251013 1.50840752,20.3907023 C1.16465476,20.2428062 0.856184258,20.0236741 0.603363007,19.7477745 C0.368904511,20.0835054 0.301455473,20.508252 0.420375865,20.9000989 C0.638216563,21.3605401 1.02935001,21.7161159 1.50840752,21.8892186 C2.2560334,22.3236176 3.11999752,22.5154176 3.98120673,22.43818 C5.33135509,22.2205737 6.33531157,20.8951533 7.70524233,20.7962413 C8.81800198,20.7171118 9.88130564,21.4886251 10.9891197,21.3452028 C11.1747857,21.3387426 11.35127,21.2628544 11.4836795,21.132542 C11.5677233,21.0223228 11.6237311,20.8933351 11.6468843,20.7566766 C12.4777448,17.4596109 13.2030992,14.1229805 13.8229476,10.7467854 C13.9492483,9.80816202 14.1986749,8.89027214 14.5647873,8.01681503 C14.9370654,7.13563544 15.6509199,6.44319652 16.5430267,6.09792285 C17.8635015,5.66765579 19.347181,6.39465875 20.1928783,7.4975272 C21.0385757,8.60039565 21.3600396,10.0098912 21.5875371,11.379822 C21.8150346,12.7497527 21.958457,14.1592483 22.5173096,15.4302671 C22.6871192,15.9016641 23.0023153,16.3069162 23.4174085,16.5875371 C24.1592483,17.0178042 25.1582591,16.6765579 25.727003,16.0336301 C26.2472996,15.3452264 26.5873071,14.5377086 26.7161227,13.6844708 C26.8459617,12.8328114 27.1291439,12.0117506 27.5519288,11.2611276 C28.3333333,10.0939664 29.7626113,9.56973294 31.1275964,9.23343225 C32.4925816,8.89713155 33.9317507,8.67457962 35.0840752,7.85855589 C35.9909287,7.12768786 36.7297369,6.21008139 37.2502473,5.16815035 C37.9821958,3.89713155 38.6646884,2.512364 38.6053412,1.04352127 C38.5956093,0.854666064 38.5757987,0.666465335 38.5459941,0.479723046 C38.3073819,1.61167319 37.868581,2.69192738 37.2502473,3.66963403 L37.2502473,3.66963403 Z" id="Path"></path>
            </g>
            <path d="M176.607319,66.132542 C177.875587,68.3874913 178.627277,70.8959423 178.808111,73.4767557 C174.401583,71.0039565 170.257171,68.2888229 168.165183,67.3442136 C164.520277,65.6973294 150.890208,65.9446093 145.766568,66.0979228 C146.302543,65.1404969 146.928516,64.2363128 147.636004,63.3976261 C148.806769,62.0070415 150.1826,60.8029808 151.716123,59.8269041 C155.820563,57.2220452 160.816061,56.4209854 165.529177,57.6118936 C170.242292,58.8028018 174.257651,61.8807221 176.632047,66.1226508 L176.607319,66.132542 Z" id="Path" fill="#000000" fill-rule="nonzero" opacity="0.1"></path>
            <path d="M192.334322,77.9179031 C189.95549,78.6498516 186.073195,77.2354105 182.047478,75.2077151 C181.490025,74.4987813 180.982695,73.7518323 180.529179,72.9723046 L194.109792,75.5341246 C195.009891,76.1473788 195.237389,77.0227498 192.334322,77.9179031 Z" id="Path" fill="#000000" fill-rule="nonzero" opacity="0.1"></path>
            <path d="M162.230465,48.9861523 C162.230465,48.9861523 149.248269,48.2443126 145.598417,55.2917903 L145.009891,61.5380811 L144.020772,61.4292779 L143.822948,65.677547 C143.822948,65.677547 163.664688,64.8120673 168.18002,66.8496538 C172.695351,68.8872404 186.726014,79.1543027 192.349159,77.4233432 C197.972305,75.6923838 191.854599,74.0850643 191.854599,74.0850643 C191.854599,74.0850643 184.114738,70.8061325 184.114738,68.2344214 C184.114738,65.6627102 182.195846,52.0771513 162.230465,48.9861523 Z" id="Path" fill="#313131" fill-rule="nonzero"></path>
            <path d="M137.1909,280.53907 C137.1909,280.53907 145.474777,288.575668 149.060336,287.957468 C149.060336,287.957468 138.92186,287.091988 137.1909,280.53907 Z" id="Path" fill="#000000" fill-rule="nonzero" opacity="0.1"></path>
            <path d="M135.459941,284.263106 C135.459941,284.263106 136.20178,288.397626 138.18002,287.992087 C140.158259,287.586548 135.459941,284.263106 135.459941,284.263106 Z" id="Path" fill="#000000" fill-rule="nonzero" opacity="0.1"></path>
            <path d="M148.442136,353.363007 C148.442136,353.363007 136.681503,362.512364 138.664688,362.759644 C140.647873,363.006924 148.442136,353.363007 148.442136,353.363007 Z" id="Path" fill="#000000" fill-rule="nonzero" opacity="0.1"></path>
            <polygon id="Path" fill="#6C63FF" fill-rule="nonzero" points="164.174085 171.77547 202.255193 165.578635 202.255193 201.632047 166.073195 199.737883"></polygon>
            <polygon id="Path" fill="#383737" fill-rule="nonzero" points="164.174085 171.77547 202.255193 165.578635 202.255193 201.632047 166.073195 199.737883"></polygon>
            <polygon id="Path" fill="#6C63FF" fill-rule="nonzero" points="202.255193 165.578635 247.922849 168.996044 245.395648 200.37092 202.255193 201.632047"></polygon>
            <polygon id="Path" fill="#454545" fill-rule="nonzero" points="202.255193 165.578635 247.922849 168.996044 245.395648 200.37092 202.255193 201.632047"></polygon>
            <polygon id="Path" fill="#454545" fill-rule="nonzero" points="216.295747 154.574679 202.255193 165.578635 247.922849 168.996044 255.385757 157.734916"></polygon>
            <polygon id="Path" fill="#454545" fill-rule="nonzero" points="150.385757 159.757666 184.668645 155.583581 202.255193 165.578635 164.174085 171.77547"></polygon>
            <polygon id="Path" fill="#383737" fill-rule="nonzero" points="210.603363 174.940653 210.603363 224.233432 192.76459 222.403561 185.004946 221.612265 182.64095 221.364985 174.886251 220.568744 164.174085 219.470821 164.174085 171.77547 202.250247 174.366963"></polygon>
            <polygon id="Path" fill="#6C63FF" fill-rule="nonzero" points="247.922849 168.996044 247.922849 217.06726 233.625124 219.812067 226.671612 221.147379 210.603363 224.233432 210.603363 174.940653"></polygon>
            <polygon id="Path" fill="#454545" fill-rule="nonzero" points="247.922849 168.996044 247.922849 217.06726 233.625124 219.812067 226.671612 221.147379 210.603363 224.233432 210.603363 174.940653"></polygon>
            <polygon id="Path" fill="#454545" fill-rule="nonzero" points="150.385757 182.151335 164.174085 171.77547 210.603363 174.940653 203.768546 186.454006"></polygon>
            <polygon id="Path" fill="#FFFFFF" fill-rule="nonzero" opacity="0.1" points="150.385757 182.151335 164.174085 171.77547 210.603363 174.940653 203.768546 186.454006"></polygon>
            <polygon id="Path" fill="#454545" fill-rule="nonzero" points="247.922849 168.996044 210.603363 174.940653 222.749753 185.820969 262.725025 179.114738"></polygon>
            <polygon id="Path" fill="#FFFFFF" fill-rule="nonzero" opacity="0.1" points="247.922849 168.996044 210.603363 174.940653 222.749753 185.820969 262.725025 179.114738"></polygon>
            <polygon id="Path" fill="#FFFFFF" fill-rule="nonzero" opacity="0.1" points="233.625124 219.812067 226.671612 221.147379 226.671612 210.875371 233.184965 209.233432"></polygon>
            <polygon id="Path" fill="#FFFFFF" fill-rule="nonzero" opacity="0.1" points="192.76459 215.608309 192.76459 222.403561 185.004946 221.612265 185.004946 215.608309"></polygon>
            <polygon id="Path" fill="#FFFFFF" fill-rule="nonzero" opacity="0.1" points="182.64095 217.749753 182.64095 221.364985 174.886251 220.568744 174.886251 217.749753"></polygon>
            <path d="M205.934718,212.002967 C200.6182,218.803165 183.061325,214.104847 183.061325,214.104847 L170.014837,200.49456 L168.244313,198.649852 L171.706231,192.220574 C171.706231,192.220574 172.695351,192.546983 174.347181,193.120673 C183.090999,196.177052 210.410485,206.28091 205.934718,212.002967 Z" id="Path" fill="#000000" fill-rule="nonzero" opacity="0.1"></path>
            <path d="M205.440158,211.013848 C200.12364,217.814045 182.566766,213.115727 182.566766,213.115727 L169.520277,199.50544 L167.749753,197.660732 L171.211672,191.231454 C171.211672,191.231454 172.200791,191.557864 173.852621,192.131553 C182.596439,195.187933 209.915925,205.29179 205.440158,211.013848 Z" id="Path" fill="#AEAEAE"></path>
            <path d="M173.832839,192.131553 C173.110781,194.208704 171.275964,197.284866 169.500495,199.50544 L167.72997,197.660732 L171.191889,191.231454 C171.191889,191.231454 172.185955,191.557864 173.832839,192.131553 Z" id="Path" fill="#000000" fill-rule="nonzero" opacity="0.1"></path>
            <path d="M130.637982,115.217606 C130.637982,115.217606 117.655786,120.163205 117.532146,134.01088 C117.502598,142.934349 117.998013,151.85183 119.015826,160.717112 C119.015826,160.717112 115.306627,181.364985 125.816024,187.299703 C136.32542,193.234421 146.092977,198.18002 146.092977,198.18002 C146.092977,198.18002 162.883284,200.900099 164.945598,201.765579 C167.007913,202.631058 174.174085,191.503462 173.061325,189.648863 C171.948566,187.794263 156.661721,183.219585 154.846686,180.128586 C153.031652,177.037587 148.560831,174.95549 148.560831,174.95549 C148.560831,174.95549 144.000989,171.844708 143.818002,169.248269 C143.635015,166.65183 144.980218,164.79723 145.361029,163.684471 C145.74184,162.571711 147.121662,151.691395 147.121662,151.691395 C147.121662,151.691395 154.500495,113.090999 130.637982,115.217606 Z" id="Path" fill="#2B2B2B"></path>
            <path d="M136.5727,161.063304 C136.5727,161.063304 119.015826,163.041543 120.375865,169.223541 C120.375865,169.223541 127.047478,162.987141 136.5727,161.063304 Z" id="Path" fill="#000000" fill-rule="nonzero" opacity="0.1"></path>
            <path d="M136.5727,163.536103 C136.5727,163.536103 126.607319,170.830861 128.437191,171.32542 C130.267062,171.81998 136.5727,163.536103 136.5727,163.536103 Z" id="Path" fill="#000000" fill-rule="nonzero" opacity="0.1"></path>
            <path d="M141.023739,166.503462 C141.023739,166.503462 138.18002,171.617211 139.787339,171.350148 C141.394659,171.083086 141.023739,166.503462 141.023739,166.503462 Z" id="Path" fill="#000000" fill-rule="nonzero" opacity="0.1"></path>
            <path d="M323.822948,55.5835806 C323.822948,55.5835806 305.029674,54.4510386 307.225519,67.636004 C307.225519,67.636004 306.785361,69.9653808 308.897132,71.0237389 C308.897132,71.0237389 308.931751,70.0346192 310.825915,70.3758655 C311.500463,70.4893904 312.186086,70.5225925 312.868447,70.4747774 C313.793179,70.4131028 314.672207,70.050026 315.37092,69.4411474 L315.37092,69.4411474 C315.37092,69.4411474 320.657765,67.2601385 322.715134,58.6152324 C322.715134,58.6152324 324.238378,56.7260138 324.198813,56.2413452 L321.023739,57.6013848 C321.023739,57.6013848 322.106825,59.8911968 321.251236,61.7952522 C321.251236,61.7952522 321.152324,57.6854599 320.53907,57.7794263 C320.41543,57.7794263 318.892186,58.5756677 318.892186,58.5756677 C318.892186,58.5756677 320.756677,62.56182 319.347181,65.4648863 C319.347181,65.4648863 319.881306,60.5489614 318.308605,58.8625124 L316.073195,60.1681503 C316.073195,60.1681503 318.254204,64.2878338 316.77547,67.6508408 C316.77547,67.6508408 317.156281,62.4925816 315.603363,60.4846686 L313.575668,62.0623145 C313.575668,62.0623145 315.628091,66.1275964 314.376855,68.9169139 C314.376855,68.9169139 314.21365,62.9129575 313.135509,62.4579624 C313.135509,62.4579624 311.364985,64.0207715 311.097923,64.6636993 C311.097923,64.6636993 312.497527,67.6310584 311.627102,69.1691395 C311.627102,69.1691395 311.092977,65.1681503 310.637982,65.148368 C310.637982,65.148368 308.872404,67.7992087 308.689416,69.5994065 C308.774925,67.9211232 309.298384,66.2944804 310.207715,64.8813056 C309.190146,65.0738264 308.251336,65.5604254 307.507418,66.28091 C307.507418,66.28091 307.779426,64.4065282 310.642928,64.2433234 C310.642928,64.2433234 312.126607,62.2304649 312.492582,62.1068249 C312.492582,62.1068249 309.643917,61.8694362 307.917903,62.636004 C307.917903,62.636004 309.436202,60.8704253 313.016815,61.6468843 L314.995054,60.0148368 C314.995054,60.0148368 311.246291,59.520277 309.653808,60.0692384 C309.653808,60.0692384 311.48368,58.5064293 315.534125,59.6439169 L317.710188,58.3432245 C317.710188,58.3432245 314.515331,57.6508408 312.611276,57.9030663 C312.611276,57.9030663 314.619189,56.8199802 318.34817,57.992087 L319.906034,57.2947577 C319.906034,57.2947577 317.56182,56.834817 316.879327,56.760633 C316.196835,56.6864491 316.15727,56.4985163 316.15727,56.4985163 C317.640301,56.2516868 319.162773,56.4229435 320.553907,56.9930762 C320.553907,56.9930762 323.892186,55.7912957 323.822948,55.5835806 Z" id="Path" fill="#383737" fill-rule="nonzero" opacity="0.69514974"></path>
            <path d="M380.924827,121.52819 C380.924827,121.52819 362.131553,120.395648 364.327399,133.580613 C364.327399,133.580613 363.88724,135.90999 365.999011,136.968348 C365.999011,136.968348 366.03363,135.979228 367.93274,136.320475 C368.607288,136.434 369.292911,136.467202 369.975272,136.419387 C370.889141,136.353129 371.756847,135.992163 372.448071,135.390702 L372.448071,135.390702 C372.448071,135.390702 377.739862,133.204748 379.79723,124.559842 C379.79723,124.559842 381.315529,122.675569 381.256182,122.1909 L378.081108,123.545994 C378.081108,123.545994 379.164194,125.835806 378.313551,127.739862 C378.313551,127.739862 378.209693,123.630069 377.601385,123.724036 C377.477745,123.724036 375.949555,124.520277 375.949555,124.520277 C375.949555,124.520277 377.818991,128.511375 376.409496,131.409496 C376.409496,131.409496 376.94362,126.493571 375.365974,124.807122 L373.155292,126.097923 C373.155292,126.097923 375.336301,130.217606 373.857567,133.580613 C373.857567,133.580613 374.238378,128.422354 372.68546,126.414441 L370.66271,127.997033 C370.66271,127.997033 372.710188,132.057369 371.463897,134.846686 C371.463897,134.846686 371.300692,128.84273 370.222552,128.387735 C370.222552,128.387735 368.452028,129.950544 368.18002,130.593472 C368.18002,130.593472 369.58457,133.560831 368.714144,135.098912 C368.714144,135.098912 368.18002,131.097923 367.725025,131.07814 C367.725025,131.07814 365.959446,133.728981 365.776459,135.529179 C365.864818,133.850691 366.389882,132.224356 367.299703,130.811078 C366.280849,131.004068 365.34058,131.490533 364.594461,132.210682 C364.594461,132.210682 364.871414,130.336301 367.734916,130.173096 C367.734916,130.173096 369.193867,128.160237 369.58457,128.036597 C369.58457,128.036597 366.735905,127.799209 365.009891,128.565776 C365.009891,128.565776 366.52819,126.800198 370.103858,127.601385 L372.082097,125.969337 C372.082097,125.969337 368.328388,125.474777 366.740851,126.023739 C366.740851,126.023739 368.570722,124.46093 372.621167,125.598417 L374.79723,124.297725 C374.79723,124.297725 371.597428,123.610287 369.693373,123.857567 C369.693373,123.857567 371.706231,122.774481 375.435213,123.946588 L376.993076,123.249258 C376.993076,123.249258 374.648863,122.789318 373.961424,122.715134 C373.273986,122.64095 373.239367,122.453017 373.239367,122.453017 C374.724023,122.206039 376.248122,122.377286 377.64095,122.947577 C377.64095,122.947577 380.984174,121.735905 380.924827,121.52819 Z" id="Path" fill="#000000" fill-rule="nonzero" opacity="0.240327381"></path>
            <path d="M266.755687,109.821958 C266.755687,109.821958 271.083086,91.4787339 257.710188,91.4144411 C257.710188,91.4144411 255.489614,90.5835806 254.09001,92.4826904 C254.09001,92.4826904 255.04451,92.6854599 254.396637,94.495549 C254.172567,95.1356165 254.023209,95.799432 253.951533,96.4737883 C253.855735,97.3930825 254.062357,98.3185405 254.540059,99.1097923 L254.540059,99.1097923 C254.540059,99.1097923 255.791296,104.698318 263.936696,108.199802 C263.936696,108.199802 265.53907,110.019782 266.023739,110.039565 L265.232443,106.681503 C265.232443,106.681503 262.789318,107.35905 261.058358,106.186944 C261.058358,106.186944 265.128586,106.785361 265.133531,106.186944 C265.133531,106.063304 264.638971,104.426311 264.638971,104.426311 C264.638971,104.426311 260.390702,105.583581 257.769535,103.699308 C257.769535,103.699308 262.522255,105.064293 264.455984,103.803165 L263.565776,101.369931 C263.565776,101.369931 259.114738,102.818991 256.068249,100.78635 C256.068249,100.78635 261.088032,102.042532 263.333333,100.855589 L262.121662,98.5905045 C262.121662,98.5905045 257.769535,99.9159248 255.232443,98.2096934 C255.232443,98.2096934 261.167161,99.0702275 261.810089,98.090999 C261.810089,98.090999 260.573689,96.0781405 259.985163,95.702275 C259.985163,95.702275 256.839763,96.5825915 255.454995,95.4599407 C255.454995,95.4599407 259.485658,95.6132542 259.579624,95.1879327 C259.579624,95.1879327 257.27003,92.9970326 255.509397,92.5024728 C257.150139,92.8760469 258.66537,93.6703077 259.906034,94.8071217 C259.887897,93.7706248 259.568252,92.7618517 258.986152,91.9040554 C258.986152,91.9040554 260.78635,92.4975272 260.469832,95.3659743 C260.469832,95.3659743 262.200791,97.1463897 262.255193,97.5519288 C262.255193,97.5519288 262.972305,94.7873393 262.512364,92.9525223 C262.512364,92.9525223 263.996044,94.7527201 262.596439,98.140455 L263.862512,100.390702 C263.862512,100.390702 265.009891,96.7804154 264.718101,95.1186944 C264.718101,95.1186944 265.949555,97.1859545 264.13452,100.984174 L265.049456,103.353116 C265.049456,103.353116 266.271019,100.316518 266.350148,98.4075173 C266.350148,98.4075173 267.077151,100.573689 265.281899,104.050445 L265.707221,105.702275 C265.707221,105.702275 266.557864,103.47181 266.745796,102.8091 C266.933729,102.14639 267.126607,102.141444 267.126607,102.141444 C267.11907,103.646033 266.692655,105.118792 265.895153,106.394659 C265.895153,106.394659 266.543027,109.846686 266.755687,109.821958 Z" id="Path" fill="#000000" fill-rule="nonzero" opacity="0.240327381"></path>
            <path d="M225.598417,116.073195 C225.598417,116.073195 210.504451,104.782394 205.108803,117.012859 C205.108803,117.012859 203.461919,118.71909 204.643917,120.761622 C204.643917,120.761622 205.207715,119.965381 206.622156,121.285856 C207.123155,121.751948 207.677633,122.157015 208.273986,122.492582 C209.081733,122.942351 210.014272,123.116008 210.929773,122.987141 L210.929773,122.987141 C210.929773,122.987141 216.547972,124.070227 223.016815,117.982196 C223.016815,117.982196 225.326409,117.240356 225.544016,116.805143 L222.136499,116.206726 C222.136499,116.206726 221.780415,118.714144 220.024728,119.836795 C220.024728,119.836795 222.195846,116.345203 221.632047,116.092977 C221.518299,116.038576 219.817013,115.845697 219.817013,115.845697 C219.817013,115.845697 219.183976,120.207715 216.414441,121.854599 C216.414441,121.854599 219.564787,118.041543 219.174085,115.766568 L216.587537,115.628091 C216.587537,115.628091 216.147379,120.272008 213.061325,122.27003 C213.061325,122.27003 216.211672,118.170129 216.028684,115.637982 L213.466864,115.845697 C213.466864,115.845697 212.947577,120.361029 210.37092,122.002967 C210.37092,122.002967 213.531157,116.89911 212.883284,115.929773 C212.883284,115.929773 210.544016,116.261128 209.965381,116.646884 C209.965381,116.646884 209.515331,119.881306 207.93274,120.702275 C207.93274,120.702275 209.688427,117.06726 209.332344,116.815035 C209.332344,116.815035 206.399604,118.05638 205.24728,119.470821 C206.24409,118.116532 207.577203,117.045951 209.114738,116.364985 C208.158086,115.967376 207.106246,115.85738 206.088032,116.048467 C206.088032,116.048467 207.344214,114.634026 209.826904,116.073195 C209.826904,116.073195 212.151335,115.197824 212.546983,115.306627 C212.546983,115.306627 210.296736,113.541048 208.432245,113.234421 C208.432245,113.234421 210.677547,112.591494 213.22453,115.212661 L215.791296,114.950544 C215.791296,114.950544 212.937685,112.477745 211.300692,112.062315 C211.300692,112.062315 213.689416,111.760633 216.444115,114.935707 L218.976261,115.049456 C218.976261,115.049456 216.686449,112.715134 214.960435,111.874382 C214.960435,111.874382 217.230465,112.072206 219.703264,115.103858 L221.389713,115.375865 C221.389713,115.375865 219.683482,113.704253 219.149357,113.269041 C218.615232,112.833828 218.689416,112.650841 218.689416,112.650841 C220.065276,113.260106 221.244934,114.239445 222.096934,115.479723 C222.096934,115.479723 225.534125,116.275964 225.598417,116.073195 Z" id="Path" fill="#000000" fill-rule="nonzero" opacity="0.240327381"></path>
            <path d="M275.850643,11.1721068 C275.850643,11.1721068 260.756677,-0.12363996 255.361029,12.1117705 C255.361029,12.1117705 253.714144,13.818002 254.896142,15.8605341 C254.896142,15.8605341 255.459941,15.0642928 256.874382,16.3847676 C257.378005,16.8484521 257.934025,17.251774 258.531157,17.586548 C259.33878,18.0366629 260.271435,18.2103418 261.186944,18.0811078 L261.186944,18.0811078 C261.186944,18.0811078 266.805143,19.1641939 273.273986,13.0712166 C273.273986,13.0712166 275.583581,12.3343225 275.796241,11.8941642 L272.388724,11.305638 C272.388724,11.305638 272.037587,13.8130564 270.276954,14.9357072 C270.276954,14.9357072 272.453017,11.4441147 271.889219,11.1918892 C271.77547,11.1374876 270.074184,10.9446093 270.074184,10.9446093 C270.074184,10.9446093 269.421365,15.3165183 266.65183,16.9535114 C266.65183,16.9535114 269.79723,13.140455 269.411474,10.8654797 L266.824926,10.727003 C266.824926,10.727003 266.379822,15.3709199 263.298714,17.363996 C263.298714,17.363996 266.44906,13.264095 266.266073,10.7319486 L263.709199,10.9396637 C263.709199,10.9396637 263.184965,15.4599407 260.608309,17.1018793 C260.608309,17.1018793 263.773492,11.9980218 263.125618,11.0286845 C263.125618,11.0286845 260.78635,11.3600396 260.207715,11.7457962 C260.207715,11.7457962 259.757666,14.9802176 258.175074,15.8011869 C258.175074,15.8011869 259.930762,12.1661721 259.574679,11.909001 C259.574679,11.909001 256.641939,13.1552918 255.489614,14.5697329 C256.484918,13.2140006 257.818453,12.1430804 259.357072,11.4638971 C258.399438,11.063331 257.345142,10.9532577 256.32542,11.1473788 C256.32542,11.1473788 257.586548,9.73293769 260.069238,11.1721068 C260.069238,11.1721068 262.39367,10.2917903 262.789318,10.4055391 C262.789318,10.4055391 260.53907,8.63996044 258.67458,8.32838773 C258.67458,8.32838773 260.914936,7.69040554 263.461919,10.3066271 L266.028684,10.0445104 C266.028684,10.0445104 263.18002,7.57171118 261.538081,7.15133531 C261.538081,7.15133531 263.926805,6.85459941 266.686449,10.0296736 L269.218595,10.1384768 C269.218595,10.1384768 266.928783,7.8041543 265.197824,6.96834817 C265.197824,6.96834817 267.472799,7.16617211 269.945598,10.1978239 L271.627102,10.4698318 C271.627102,10.4698318 269.915925,8.81800198 269.3818,8.39268051 C268.847676,7.96735905 268.92186,7.77942631 268.92186,7.77942631 C270.298133,8.3880221 271.477959,9.36749999 272.329377,10.6083086 C272.329377,10.6083086 275.766568,11.3600396 275.850643,11.1721068 Z" id="Path" fill="#000000" fill-rule="nonzero" opacity="0.240327381"></path>
            <path d="M333.526212,25.479723 C333.526212,25.479723 327.492582,7.62116716 316.11276,14.6389713 C316.11276,14.6389713 313.788328,15.1335312 313.605341,17.462908 C313.605341,17.462908 314.520277,17.1266073 314.925816,19.0059347 C315.076484,19.674441 315.303838,20.3233144 315.603363,20.9396637 C316.01211,21.7691469 316.678347,22.4440581 317.502473,22.8635015 L317.502473,22.8635015 C317.502473,22.8635015 321.518299,26.9436202 330.301682,25.5934718 C330.301682,25.5934718 332.621167,26.2957468 333.046489,26.0534125 L330.573689,23.6251236 C330.573689,23.6251236 328.862512,25.4896142 326.77547,25.4154303 C326.77547,25.4154303 330.548961,23.7734916 330.237389,23.2443126 C330.173096,23.140455 328.882295,22.0178042 328.882295,22.0178042 C328.882295,22.0178042 325.885262,25.2472799 322.670623,25.0346192 C322.670623,25.0346192 327.423343,23.6795252 328.392681,21.5727003 L326.345203,19.9950544 C326.345203,19.9950544 323.34817,23.5657765 319.673591,23.4569733 C319.673591,23.4569733 324.619189,21.8694362 325.870425,19.6735905 L323.644906,18.3926805 C323.644906,18.3926805 320.677547,21.8199802 317.601385,21.7111771 C317.601385,21.7111771 323.10089,19.3026706 323.115727,18.1355094 C323.115727,18.1355094 321.003956,17.0820969 320.306627,17.0722057 C320.306627,17.0722057 318.10089,19.4807122 316.350148,19.2631058 C316.350148,19.2631058 319.851632,17.2601385 319.703264,16.8496538 C319.703264,16.8496538 316.587537,16.2116716 314.83185,16.7260138 C316.419812,16.1731254 318.124781,16.0452526 319.777448,16.355094 C319.213096,15.4841657 318.407037,14.7966951 317.457962,14.3768546 C317.457962,14.3768546 319.297725,13.9268051 320.529179,16.5182987 C320.529179,16.5182987 322.942631,17.1167161 323.199802,17.4282888 C323.199802,17.4282888 322.349159,14.7032641 320.98912,13.3877349 C320.98912,13.3877349 323.199802,14.1345203 323.803165,17.7497527 L326.068249,18.9861523 C326.068249,18.9861523 325.133531,15.3214639 324.005935,14.0405539 C324.005935,14.0405539 326.147379,15.148368 326.612265,19.3273986 L328.63996,20.8555885 C328.63996,20.8555885 328.076162,17.6310584 327.126607,15.9594461 C327.126607,15.9594461 328.88724,17.413452 329.203759,21.3155292 L330.435213,22.4925816 C330.435213,22.4925816 329.980218,20.148368 329.792285,19.4856578 C329.604352,18.8229476 329.757666,18.7784372 329.757666,18.7784372 C330.54387,20.0613943 330.959805,21.5368515 330.959446,23.041543 C330.959446,23.041543 333.353116,25.6083086 333.526212,25.479723 Z" id="Path" fill="#000000" fill-rule="nonzero" opacity="0.240327381"></path>
            <path d="M294.149357,26.3600396 C294.149357,26.3600396 275.405539,24.272997 276.953511,37.5717112 C276.953511,37.5717112 276.394659,39.87636 278.437191,41.0336301 C278.437191,41.0336301 278.521266,40.0445104 280.41543,40.4896142 C281.084834,40.6336482 281.768356,40.7016685 282.453017,40.6923838 C283.377837,40.6756818 284.272005,40.3579485 285,39.7873393 L285,39.7873393 C285,39.7873393 290.395648,37.8733927 292.912957,29.3422354 C292.912957,29.3422354 294.525223,27.537092 294.490603,27.0474777 L291.251236,28.2443126 C291.251236,28.2443126 292.240356,30.5835806 291.251236,32.4431256 C291.251236,32.4431256 291.355094,28.3333333 290.756677,28.3976261 C290.633037,28.3976261 289.070227,29.1097923 289.070227,29.1097923 C289.070227,29.1097923 290.731949,33.189911 289.179031,36.0336301 C289.179031,36.0336301 289.960435,31.1473788 288.47181,29.3867458 L286.172107,30.5736894 C286.172107,30.5736894 288.150346,34.8021761 286.493571,38.0860534 C286.493571,38.0860534 287.136499,32.9525223 285.687438,30.8704253 L283.585559,32.3541048 C283.585559,32.3541048 285.425321,36.5133531 284.035608,39.2383778 C284.035608,39.2383778 284.179031,33.2344214 283.125618,32.7250247 C283.125618,32.7250247 281.275964,34.2087043 280.974283,34.8219585 C280.974283,34.8219585 282.225519,37.8387735 281.28091,39.347181 C281.28091,39.347181 280.949555,35.3264095 280.514342,35.2868447 C280.514342,35.2868447 278.615232,37.8437191 278.338279,39.6488625 C278.50983,37.9752853 279.116862,36.3758591 280.098912,35.0098912 C279.072654,35.1517108 278.110112,35.5900116 277.329377,36.2710188 C277.329377,36.2710188 277.695351,34.4164194 280.563798,34.396637 C280.563798,34.396637 282.121662,32.462908 282.542038,32.3590504 C282.542038,32.3590504 279.70821,31.9782394 277.942631,32.6557864 C277.942631,32.6557864 279.549951,30.9643917 283.081108,31.9485658 L285.163205,30.4203759 C285.163205,30.4203759 281.399604,29.6587537 279.807122,30.1533136 C279.807122,30.1533136 281.716123,28.669634 285.702275,30.0296736 L287.942631,28.8377844 C287.942631,28.8377844 284.782394,27.9871414 282.868447,28.140455 C282.868447,28.140455 284.930762,27.1513353 288.59545,28.5212661 L290.187933,27.9030663 C290.187933,27.9030663 287.868447,27.3244313 287.185955,27.2156281 C286.503462,27.1068249 286.478734,26.9188922 286.478734,26.9188922 C287.973856,26.7473472 289.487259,26.9938744 290.850643,27.6310584 C290.850643,27.6310584 294.183976,26.5677547 294.149357,26.3600396 Z" id="Path" fill="#000000" fill-rule="nonzero" opacity="0.240327381"></path>
            <path d="M458.145401,171.844708 C458.145401,171.844708 439.411474,169.757666 440.959446,183.041543 C440.959446,183.041543 440.400593,185.346192 442.443126,186.503462 C442.443126,186.503462 442.527201,185.514342 444.421365,185.9545 C445.089994,186.103414 445.774088,186.171492 446.458952,186.15727 C447.384231,186.143106 448.279185,185.825094 449.005935,185.252226 L449.005935,185.252226 C449.005935,185.252226 454.401583,183.338279 456.894164,174.812067 C456.894164,174.812067 458.506429,173.001978 458.47181,172.51731 L455.232443,173.709199 C455.232443,173.709199 456.221563,176.053412 455.232443,177.912957 C455.232443,177.912957 455.336301,173.79822 454.737883,173.867458 C454.614243,173.867458 453.051434,174.574679 453.051434,174.574679 C453.051434,174.574679 454.713155,178.654797 453.160237,181.498516 C453.160237,181.498516 453.941642,176.617211 452.453017,174.851632 L450.153314,176.043521 C450.153314,176.043521 452.131553,180.272008 450.479723,183.555885 C450.479723,183.555885 451.117705,178.422354 449.668645,176.335312 L447.566766,177.818991 C447.566766,177.818991 449.406528,181.978239 448.016815,184.698318 C448.016815,184.698318 448.160237,178.694362 447.106825,178.189911 C447.106825,178.189911 445.262117,179.673591 444.95549,180.286845 C444.95549,180.286845 446.211672,183.30366 445.262117,184.812067 C445.262117,184.812067 444.930762,180.791296 444.495549,180.751731 C444.495549,180.751731 442.596439,183.308605 442.319486,185.113749 C442.491037,183.440172 443.098069,181.840745 444.080119,180.474777 C443.053128,180.614064 442.089889,181.052682 441.310584,181.735905 C441.310584,181.735905 441.676558,179.87636 444.545005,179.856578 C444.545005,179.856578 446.107814,177.922849 446.523244,177.823937 C446.523244,177.823937 443.689416,177.43818 441.923838,178.115727 C441.923838,178.115727 443.531157,176.429278 447.06726,177.413452 L449.144411,175.885262 C449.144411,175.885262 445.425321,175.182987 443.808111,175.667656 C443.808111,175.667656 445.717112,174.183976 449.703264,175.53907 L451.94362,174.352127 C451.94362,174.352127 448.783383,173.501484 446.869436,173.654797 C446.869436,173.654797 448.931751,172.665678 452.596439,174.035608 L454.188922,173.412463 C454.188922,173.412463 451.869436,172.833828 451.186944,172.72997 C450.504451,172.626113 450.479723,172.433234 450.479723,172.433234 C451.974421,172.258576 453.488231,172.503458 454.851632,173.140455 C454.851632,173.140455 458.194857,172.057369 458.145401,171.844708 Z" id="Path" fill="#000000" fill-rule="nonzero" opacity="0.240327381"></path>
            <path d="M486.785361,189.342235 C486.785361,189.342235 468.051434,187.260138 469.599407,200.53907 C469.599407,200.53907 469.0455,202.843719 471.083086,204.000989 C471.083086,204.000989 471.167161,203.011869 473.061325,203.456973 C473.728798,203.60222 474.411013,203.668616 475.093966,203.654797 C476.014555,203.635958 476.904431,203.320251 477.631058,202.754698 L477.631058,202.754698 C477.631058,202.754698 483.021761,200.840752 485.514342,192.309594 C485.514342,192.309594 487.131553,190.504451 487.091988,190.014837 L483.852621,191.206726 C483.852621,191.206726 484.841741,193.55094 483.852621,195.410485 C483.852621,195.410485 483.956479,191.300692 483.358061,191.364985 C483.234421,191.364985 481.671612,192.072206 481.671612,192.072206 C481.671612,192.072206 483.333333,196.152324 481.780415,198.996044 C481.780415,198.996044 482.56182,194.114738 481.073195,192.354105 L478.773492,193.541048 C478.773492,193.541048 480.751731,197.769535 479.099901,201.053412 C479.099901,201.053412 479.737883,195.919881 478.288823,193.837784 L476.186944,195.321464 C476.186944,195.321464 478.026706,199.480712 476.641939,202.205737 C476.641939,202.205737 476.780415,196.196835 475.727003,195.692384 C475.727003,195.692384 473.882295,197.176063 473.575668,197.789318 C473.575668,197.789318 474.83185,200.806133 473.882295,202.31454 C473.882295,202.31454 473.55094,198.293769 473.115727,198.254204 C473.115727,198.254204 471.216617,200.811078 470.944609,202.616222 C471.115823,200.943379 471.721028,199.344272 472.700297,197.97725 C471.674039,198.11907 470.711496,198.557371 469.930762,199.238378 C469.930762,199.238378 470.301682,197.378833 473.170129,197.363996 C473.170129,197.363996 474.727992,195.430267 475.148368,195.326409 C475.148368,195.326409 472.31454,194.945598 470.548961,195.623145 C470.548961,195.623145 472.156281,193.931751 475.692384,194.915925 L477.769535,193.387735 C477.769535,193.387735 474.050445,192.68546 472.433234,193.170129 C472.433234,193.170129 474.342235,191.686449 478.328388,193.046489 L480.568744,191.854599 C480.568744,191.854599 477.408506,191.003956 475.49456,191.15727 C475.49456,191.15727 477.556874,190.16815 481.221563,191.538081 L482.814045,190.919881 C482.814045,190.919881 480.49456,190.341246 479.817013,190.232443 C479.139466,190.12364 479.104847,189.935707 479.104847,189.935707 C480.599969,189.764162 482.113372,190.010689 483.476756,190.647873 C483.476756,190.647873 486.834817,189.554896 486.785361,189.342235 Z" id="Path" fill="#000000" fill-rule="nonzero" opacity="0.240327381"></path>
            <path d="M423.199802,41.958457 C423.199802,41.958457 408.105836,30.6676558 402.710188,42.8981207 C402.710188,42.8981207 401.063304,44.6043521 402.245302,46.6468843 C402.245302,46.6468843 402.8091,45.8506429 404.223541,47.1711177 C404.72454,47.6372097 405.279018,48.0422772 405.875371,48.3778437 C406.683242,48.8272689 407.615665,49.0009045 408.531157,48.8724036 L408.531157,48.8724036 C408.531157,48.8724036 414.149357,49.9554896 420.623145,43.867458 C420.623145,43.867458 422.927794,43.1256182 423.145401,42.6904055 L419.747774,42.0771513 C419.747774,42.0771513 419.391691,44.5845697 417.636004,45.7072206 C417.636004,45.7072206 419.807122,42.2156281 419.243323,41.9634026 C419.129575,41.909001 417.433234,41.7161227 417.433234,41.7161227 C417.433234,41.7161227 416.795252,46.0781405 414.025717,47.7250247 C414.025717,47.7250247 417.176063,43.9119683 416.785361,41.6369931 L414.198813,41.4985163 C414.198813,41.4985163 413.758655,46.1424332 410.672601,48.140455 C410.672601,48.140455 413.827893,44.0405539 413.63996,41.5084075 L411.07814,41.7161227 C411.07814,41.7161227 410.583581,46.231454 407.982196,47.8733927 C407.982196,47.8733927 411.147379,42.7695351 410.49456,41.8001978 C410.49456,41.8001978 408.155292,42.1315529 407.576657,42.5173096 C407.576657,42.5173096 407.131553,45.751731 405.548961,46.5727003 C405.548961,46.5727003 407.299703,42.9376855 406.94362,42.6854599 C406.94362,42.6854599 404.01088,43.9268051 402.858556,45.3412463 C403.855366,43.9869574 405.188479,42.9163763 406.726014,42.2354105 C405.769362,41.8378014 404.717522,41.7278051 403.699308,41.9188922 C403.699308,41.9188922 404.960435,40.504451 407.443126,41.9436202 C407.443126,41.9436202 409.762611,41.0682493 410.158259,41.1770524 C410.158259,41.1770524 407.908012,39.4114738 406.043521,39.1048467 C406.043521,39.1048467 408.288823,38.4619189 410.835806,41.0830861 L413.402572,40.8209693 C413.402572,40.8209693 410.553907,38.3481701 408.911968,37.9327399 C408.911968,37.9327399 411.300692,37.6310584 414.055391,40.8061325 L416.592483,40.9198813 C416.592483,40.9198813 414.297725,38.5855589 412.571711,37.7448071 C412.571711,37.7448071 414.846686,37.9426311 417.31454,40.9742829 L419.000989,41.2462908 C419.000989,41.2462908 417.294758,39.5746785 416.760633,39.1394659 C416.226508,38.7042532 416.305638,38.5608309 416.305638,38.5608309 C417.679548,39.1710893 418.857361,40.1503179 419.70821,41.3897132 C419.70821,41.3897132 423.135509,42.1612265 423.199802,41.958457 Z" id="Path" fill="#000000" fill-rule="nonzero" opacity="0.240327381"></path>
            <path d="M434.861523,123.47181 C434.861523,123.47181 429.658754,105.356083 417.957468,111.859545 C417.957468,111.859545 415.613254,112.220574 415.321464,114.564787 C415.321464,114.564787 416.251236,114.272997 416.5727,116.167161 C416.691903,116.847651 416.891109,117.511669 417.166172,118.145401 C417.533005,118.997616 418.168744,119.706309 418.976261,120.163205 L418.976261,120.163205 C418.976261,120.163205 422.804154,124.416419 431.636993,123.466864 C431.636993,123.466864 433.92186,124.268051 434.357072,124.050445 L432.017804,121.508408 C432.017804,121.508408 430.222552,123.298714 428.145401,123.130564 C428.145401,123.130564 431.983185,121.646884 431.686449,121.117705 C431.627102,121.008902 430.390702,119.826904 430.390702,119.826904 C430.390702,119.826904 427.255193,122.922849 424.050445,122.56182 C424.050445,122.56182 428.862512,121.424332 429.92087,119.376855 L427.942631,117.705242 C427.942631,117.705242 424.787339,121.137488 421.122651,120.870425 C421.122651,120.870425 426.107814,119.500495 427.48269,117.368942 L425.316518,115.98912 C425.316518,115.98912 422.176063,119.277943 419.129575,119.030663 C419.129575,119.030663 424.732938,116.869436 424.802176,115.707221 C424.802176,115.707221 422.734916,114.559842 422.037587,114.520277 C422.037587,114.520277 419.727992,116.824926 417.972305,116.52819 C417.972305,116.52819 421.562809,114.683482 421.434224,114.268051 C421.434224,114.268051 418.34817,113.491592 416.5727,113.92186 C418.180748,113.445019 419.88532,113.395586 421.518299,113.778437 C420.995242,112.88356 420.221561,112.161458 419.292779,111.701286 C419.292779,111.701286 421.152324,111.330366 422.260138,113.976261 C422.260138,113.976261 424.638971,114.678536 424.886251,115.004946 C424.886251,115.004946 424.159248,112.240356 422.858556,110.870425 C422.858556,110.870425 425.034619,111.711177 425.474777,115.351137 L427.680514,116.691395 C427.680514,116.691395 426.909001,112.982196 425.840752,111.676558 C425.840752,111.676558 427.927794,112.878338 428.209693,117.072206 L430.187933,118.689416 C430.187933,118.689416 429.767557,115.445104 428.897132,113.743818 C428.897132,113.743818 430.593472,115.276954 430.731949,119.183976 L431.909001,120.420376 C431.909001,120.420376 431.562809,118.05638 431.414441,117.383778 C431.266073,116.711177 431.414441,116.617211 431.414441,116.617211 C432.146284,117.932701 432.497345,119.425998 432.428289,120.929773 C432.428289,120.929773 434.683482,123.590504 434.861523,123.47181 Z" id="Path" fill="#000000" fill-rule="nonzero" opacity="0.240327381"></path>
            <path d="M318.926805,164.292779 C318.926805,164.292779 308.822948,148.377844 299.441147,157.903066 C299.441147,157.903066 297.294758,158.892186 297.670623,161.241345 C297.670623,161.241345 298.486647,160.697329 299.327399,162.428289 C299.629502,163.041722 300.004805,163.616299 300.445104,164.139466 C301.034789,164.853525 301.842817,165.353982 302.744807,165.563798 L302.744807,165.563798 C302.744807,165.563798 307.616222,168.570722 315.825915,165.16815 C315.825915,165.16815 318.244313,165.296736 318.600396,164.965381 L315.633037,163.184965 C315.633037,163.184965 314.411474,165.410485 312.368942,165.830861 C312.368942,165.830861 315.642928,163.358061 315.20277,162.903066 C315.118694,162.814045 313.59545,162.032641 313.59545,162.032641 C313.59545,162.032641 311.454006,165.880317 308.278932,166.439169 C308.278932,166.439169 312.576657,163.991098 313.021761,161.726014 L310.652819,160.682493 C310.652819,160.682493 308.590504,164.861523 305,165.628091 C305,165.628091 309.401583,162.912957 310.118694,160.479723 L307.645895,159.767557 C307.645895,159.767557 305.558853,163.808111 302.566766,164.426311 C302.566766,164.426311 307.334322,160.776459 307.072206,159.638971 C307.072206,159.638971 304.767557,159.119683 304.104847,159.277943 C304.104847,159.277943 302.537092,162.141444 300.766568,162.349159 C300.766568,162.349159 303.694362,159.569733 303.452028,159.203759 C303.452028,159.203759 300.272008,159.327399 298.689416,160.242334 C300.101117,159.327766 301.727863,158.799159 303.407517,158.709199 C302.655505,157.997446 301.711697,157.521244 300.692384,157.339268 C300.692384,157.339268 302.368942,156.463897 304.154303,158.689416 C304.154303,158.689416 306.627102,158.689416 306.968348,158.936696 C306.968348,158.936696 305.484669,156.463897 303.857567,155.53907 C303.857567,155.53907 306.181998,155.736894 307.626113,159.104847 L310.12364,159.767557 C310.12364,159.767557 308.338279,156.429278 306.948566,155.474777 C306.948566,155.474777 309.287834,156.038576 310.736894,159.990109 L313.071217,160.979228 C313.071217,160.979228 311.755687,157.987141 310.435213,156.587537 C310.435213,156.587537 312.492582,157.576657 313.724036,161.290801 L315.207715,162.14639 C315.207715,162.14639 314.218595,159.975272 313.867458,159.376855 C313.51632,158.778437 313.654797,158.63996 313.654797,158.63996 C314.724996,159.69707 315.480132,161.030972 315.835806,162.492582 C315.835806,162.492582 318.793274,164.46093 318.926805,164.292779 Z" id="Path" fill="#000000" fill-rule="nonzero" opacity="0.240327381"></path>
            <path d="M385.331355,82.9772502 C385.331355,82.9772502 375.722057,66.760633 366.043521,75.9891197 C366.043521,75.9891197 363.867458,76.9287834 364.174085,79.272997 C364.174085,79.272997 365,78.7487636 365.791296,80.504451 C366.074258,81.128551 366.431256,81.7163527 366.854599,82.2551929 C367.422523,82.9845077 368.215241,83.5060324 369.109792,83.7388724 L369.109792,83.7388724 C369.109792,83.7388724 373.882295,86.8941642 382.195846,83.7388724 C382.195846,83.7388724 384.609298,83.9416419 384.975272,83.620178 L382.072206,81.7507418 C382.072206,81.7507418 380.78635,83.9317507 378.728981,84.2927794 C378.728981,84.2927794 382.077151,81.9040554 381.656775,81.4540059 C381.567755,81.3600396 380.074184,80.529179 380.074184,80.529179 C380.074184,80.529179 377.814045,84.3125618 374.634026,84.7725025 C374.634026,84.7725025 379.005935,82.4579624 379.515331,80.2126607 L377.181009,79.1147379 C377.181009,79.1147379 374.990109,83.2344214 371.374876,83.892186 C371.374876,83.892186 375.860534,81.3155292 376.65183,78.9070227 L374.208704,78.115727 C374.208704,78.115727 371.993076,82.0722057 368.986152,82.6162216 C368.986152,82.6162216 373.862512,79.1147379 373.635015,77.9723046 C373.635015,77.9723046 371.350148,77.3788328 370.667656,77.5173096 C370.667656,77.5173096 369.01088,80.3313551 367.23541,80.4846686 C367.23541,80.4846686 370.24728,77.8041543 370.019782,77.4282888 C370.019782,77.4282888 366.834817,77.4530168 365.227498,78.3184965 C366.667344,77.45001 368.309065,76.9726664 369.990109,76.933729 C369.2591,76.1985512 368.329089,75.693148 367.31454,75.479723 C367.31454,75.479723 369.020772,74.6538081 370.776459,76.933729 C370.776459,76.933729 373.249258,77.0178042 373.580613,77.2700297 C373.580613,77.2700297 372.181009,74.7972305 370.578635,73.7784372 C370.578635,73.7784372 372.893175,74.0454995 374.233432,77.4579624 L376.706231,78.1998022 C376.706231,78.1998022 375.029674,74.8071217 373.664688,73.8081108 C373.664688,73.8081108 375.98912,74.446093 377.31454,78.4371909 L379.614243,79.5103858 C379.614243,79.5103858 378.392681,76.4787339 377.141444,75.0593472 C377.141444,75.0593472 379.164194,76.1127596 380.286845,79.8615232 L381.735905,80.7616222 C381.735905,80.7616222 380.806133,78.5608309 380.479723,77.9525223 C380.153314,77.3442136 380.29179,77.2106825 380.29179,77.2106825 C381.328476,78.3003005 382.04241,79.6562598 382.354105,81.1275964 C382.354105,81.1275964 385.187933,83.140455 385.331355,82.9772502 Z" id="Path" fill="#383737" fill-rule="nonzero" opacity="0.69514974"></path>
            <path d="M324.535114,117.077151 C324.535114,117.077151 325.029674,98.2344214 311.938675,100.890208 C311.938675,100.890208 309.594461,100.529179 308.605341,102.675569 C308.605341,102.675569 309.594461,102.675569 309.317507,104.579624 C309.226908,105.258558 309.216947,105.945827 309.287834,106.627102 C309.377238,107.551174 309.768273,108.420141 310.400593,109.099901 L310.400593,109.099901 C310.400593,109.099901 312.759644,114.312562 321.468843,116.083086 C321.468843,116.083086 323.402572,117.542038 323.88724,117.462908 L322.403561,114.33729 C322.403561,114.33729 320.153314,115.49456 318.219585,114.70821 C318.219585,114.70821 322.324431,114.465875 322.210682,113.862512 C322.210682,113.738872 321.36004,112.23541 321.36004,112.23541 C321.36004,112.23541 317.433234,114.238378 314.490603,112.922849 C314.490603,112.922849 319.436202,113.293769 321.053412,111.666667 L319.673591,109.475767 C319.673591,109.475767 315.628091,111.790307 312.215628,110.425321 C312.215628,110.425321 317.383778,110.633037 319.342235,109.015826 L317.695351,107.037587 C317.695351,107.037587 313.704253,109.223541 310.875371,108.066271 C310.875371,108.066271 316.869436,107.705242 317.304649,106.612265 C317.304649,106.612265 315.682493,104.896142 315.029674,104.634026 C315.029674,104.634026 312.131553,106.117705 310.548961,105.316518 C310.548961,105.316518 314.50544,104.653808 314.530168,104.21365 C314.530168,104.21365 311.824926,102.537092 310,102.413452 C311.682788,102.443538 313.328299,102.914171 314.772502,103.778437 C314.547181,102.767558 314.031507,101.844501 313.288823,101.122651 C313.288823,101.122651 315.173096,101.335312 315.430267,104.188922 C315.430267,104.188922 317.492582,105.583581 317.626113,105.969337 C317.626113,105.969337 317.769535,103.115727 316.94362,101.414441 C316.94362,101.414441 318.7636,102.873393 318.081108,106.473788 L319.777448,108.422354 C319.777448,108.422354 320.163205,104.653808 319.545005,103.086053 C319.545005,103.086053 321.167161,104.861523 320.16815,108.946588 L321.538081,111.07814 C321.538081,111.07814 322.121662,107.858556 321.810089,105.964392 C321.810089,105.964392 322.957468,107.942631 321.909001,111.706231 L322.660732,113.239367 C322.660732,113.239367 323.041543,110.880317 323.090999,110.192878 C323.140455,109.50544 323.328388,109.46093 323.328388,109.46093 C323.626099,110.936248 323.507954,112.465276 322.987141,113.877349 C322.987141,113.877349 324.317507,117.141444 324.535114,117.077151 Z" id="Path" fill="#383737" fill-rule="nonzero" opacity="0.69514974"></path>
            <ellipse id="Oval" fill="#000000" fill-rule="nonzero" opacity="0.240327381" cx="346.177052" cy="354.253215" rx="13.3184965" ry="2.25024728"></ellipse>
            <ellipse id="Oval" fill="#000000" fill-rule="nonzero" opacity="0.240327381" cx="297.626113" cy="388.417409" rx="13.3184965" ry="2.25024728"></ellipse>
            <ellipse id="Oval" fill="#000000" fill-rule="nonzero" opacity="0.240327381" cx="46.5578635" cy="370.914936" rx="13.3184965" ry="2.25024728"></ellipse>
            <ellipse id="Oval" fill="#000000" fill-rule="nonzero" opacity="0.240327381" cx="398.644906" cy="386.167161" rx="13.3184965" ry="2.25024728"></ellipse>
            <ellipse id="Oval" fill="#000000" fill-rule="nonzero" opacity="0.240327381" cx="412.512364" cy="357.616222" rx="19.8862512" ry="3.36300692"></ellipse>
            <path d="M420.756677,352.111771 C421.664501,351.374105 422.325369,350.376764 422.650841,349.253215 C422.898121,348.115727 422.413452,346.755687 421.330366,346.340257 C420.113749,345.875371 418.813056,346.716123 417.823937,347.566766 C416.834817,348.417409 415.712166,349.391691 414.421365,349.21365 C415.769181,347.989239 416.377193,346.148316 416.023739,344.362018 C415.967702,343.998081 415.813857,343.656202 415.578635,343.372898 C414.901088,342.650841 413.679525,342.962413 412.868447,343.531157 C410.296736,345.341246 409.579624,348.832839 409.564787,351.978239 C409.307616,350.845697 409.525223,349.663699 409.520277,348.51632 C409.515331,347.368942 409.193867,346.043521 408.209693,345.440158 C407.605596,345.103321 406.922993,344.932671 406.231454,344.945598 C405.074184,344.906034 403.783383,345.019782 402.997033,345.86548 C402.007913,346.913947 402.27003,348.679525 403.120673,349.821958 C403.971316,350.964392 405.272008,351.701286 406.468843,352.502473 C407.426725,353.074493 408.24457,353.853474 408.862512,354.782394 C408.932931,354.911783 408.990891,355.047573 409.035608,355.187933 L416.285856,355.187933 C417.90897,354.370435 419.413087,353.335523 420.756677,352.111771 Z" id="Path" fill="#000000" fill-rule="nonzero" opacity="0.240327381"></path>
            <path d="M37.6162216,360.454995 C37.6162216,360.454995 45.2077151,360.222552 47.5074184,358.590504 C49.8071217,356.958457 59.1938675,355.014837 59.7626113,357.631058 C60.3313551,360.24728 71.1770524,370.633037 62.6013848,370.702275 C54.0257171,370.771513 42.6755687,369.366963 40.3907023,367.972305 C38.1058358,366.577646 37.6162216,360.454995 37.6162216,360.454995 Z" id="Path" fill="#A8A8A8" fill-rule="nonzero"></path>
            <path d="M62.7448071,369.792285 C54.1691395,369.861523 42.8189911,368.456973 40.5341246,367.062315 C38.793274,366.003956 38.1008902,362.200791 37.8684471,360.445104 L37.6162216,360.445104 C37.6162216,360.445104 38.1107814,366.5727 40.3808111,367.962413 C42.6508408,369.352127 54.0158259,370.761622 62.5914936,370.692384 C65.0642928,370.692384 65.9198813,369.792285 65.8753709,368.486647 C65.529179,369.282888 64.5845697,369.777448 62.7448071,369.792285 Z" id="Path" fill="#000000" fill-rule="nonzero" opacity="0.2"></path>
        </g>
    </g>
</svg>